<?xml version="1.0" encoding="UTF-8"?>
<svg version="1.1" xmlns="http://www.w3.org/2000/svg" width="512" height="512">
<path d="M0 0 C1.03841018 -0.00872064 1.03841018 -0.00872064 2.09779835 -0.01761746 C4.42903379 -0.03227313 6.75922547 -0.01830731 9.0904541 -0.00457001 C10.7739796 -0.00917675 12.45750108 -0.01552814 14.1410141 -0.02347898 C18.77620523 -0.04022669 23.41106829 -0.03190134 28.04626083 -0.01953411 C33.04156504 -0.01050813 38.03681162 -0.02444113 43.03210449 -0.0354538 C52.82142172 -0.05326987 62.61061649 -0.0493853 72.39993858 -0.03780323 C80.35367211 -0.02878132 88.30737123 -0.02753952 96.2611084 -0.0318985 C97.39175893 -0.03251143 98.52240947 -0.03312436 99.68732214 -0.03375587 C101.98398909 -0.03503473 104.28065603 -0.03633158 106.57732296 -0.03764623 C128.12923685 -0.04906108 149.68108276 -0.03592414 171.2329855 -0.01444477 C189.73824346 0.00342702 208.24340107 0.00032317 226.74865723 -0.01811981 C248.22178043 -0.03951055 269.69484401 -0.04796236 291.16797638 -0.03567076 C293.4563446 -0.03439652 295.74471282 -0.03313904 298.03308105 -0.0318985 C299.72210234 -0.03097285 299.72210234 -0.03097285 301.44524527 -0.03002849 C309.39234437 -0.0265702 317.33940576 -0.03241425 325.28649902 -0.04181671 C334.96718653 -0.05301813 344.64774425 -0.05003583 354.32841682 -0.02869374 C359.27066316 -0.01815827 364.21269286 -0.01410387 369.15493774 -0.02729034 C373.67510598 -0.03916855 378.19485582 -0.03272768 382.71498585 -0.01138014 C384.35422252 -0.00689459 385.9934942 -0.00922384 387.63270855 -0.01888329 C389.85371135 -0.03097183 392.0732636 -0.0186515 394.29418945 0 C395.52990944 0.00064941 396.76562943 0.00129882 398.03879547 0.00196791 C401.73481054 0.59816842 402.91788143 1.54967487 405.14709473 4.50336456 C405.63293457 6.97016144 405.63293457 6.97016144 405.60803223 9.72211456 C405.60416504 10.73789581 405.60029785 11.75367706 405.59631348 12.80023956 C405.57182129 13.85727081 405.5473291 14.91430206 405.52209473 16.00336456 C405.52016113 17.54250519 405.52016113 17.54250519 405.51818848 19.11273956 C405.43580814 26.39882267 404.53477207 33.35578829 403.14709473 40.50336456 C403.86252441 40.4824173 404.5779541 40.46147003 405.31506348 40.439888 C408.59226125 40.35615623 411.86923314 40.30452405 415.14709473 40.25336456 C416.27244629 40.21984894 417.39779785 40.18633331 418.55725098 40.15180206 C426.71041988 40.05644336 432.19709788 41.04195618 438.38928223 46.46820831 C438.92811035 47.11918488 439.46693848 47.77016144 440.02209473 48.44086456 C440.5763916 49.089263 441.13068848 49.73766144 441.70178223 50.40570831 C446.1812157 56.90694013 445.82173201 63.87477373 445.14709473 71.50336456 C443.4662389 78.1629579 438.68331151 82.68883903 433.14709473 86.50336456 C428.50916065 88.92201323 424.22557651 88.76228935 419.12756348 88.69867706 C418.26899246 88.69584717 417.41042145 88.69301727 416.52583313 88.69010162 C413.79527598 88.67894527 411.06505202 88.65384915 408.33459473 88.62836456 C406.47847969 88.61832888 404.62235948 88.60920406 402.76623535 88.60102081 C398.22639427 88.57902082 393.68680091 88.54452237 389.14709473 88.50336456 C388.954823 89.10116226 388.76255127 89.69895996 388.56445312 90.31487274 C386.69481363 96.04135101 384.47844319 101.24990887 381.64709473 106.56586456 C380.99559448 107.79369659 380.99559448 107.79369659 380.33093262 109.04633331 C363.10141782 140.84141722 337.36186706 164.9449843 308.14709473 185.50336456 C310.56235048 195.9948803 313.11889836 206.43339756 315.90354156 216.83296776 C316.49432724 219.03957564 317.0818946 221.2470208 317.66876221 223.45467377 C318.90884575 228.11745731 320.15266317 232.77923984 321.39709473 237.44086456 C322.85502554 242.90232629 324.31138547 248.36419648 325.76357269 253.82718849 C326.34214589 256.00038198 326.92366849 258.17277225 327.50531006 260.34514618 C327.85642893 261.6646924 328.20740924 262.98427551 328.55822754 264.30390167 C329.01978241 266.03234566 329.01978241 266.03234566 329.49066162 267.7957077 C330.14709473 270.50336456 330.14709473 270.50336456 330.14709473 272.50336456 C330.72975098 272.51754425 331.31240723 272.53172394 331.91271973 272.54633331 C343.0011753 273.19141642 352.36443323 277.91215411 361.14709473 284.50336456 C362.38459473 285.42182159 362.38459473 285.42182159 363.64709473 286.35883331 C373.15890981 294.51818719 379.94809712 307.69379793 381.46862793 320.1339798 C381.61932932 322.82736104 381.6660337 325.49337896 381.64709473 328.19086456 C381.64137451 329.1476712 381.6356543 330.10447784 381.62976074 331.09027863 C381.30758494 344.01636215 377.41777435 354.42785443 369.14709473 364.50336456 C367.98307129 365.98449738 367.98307129 365.98449738 366.79553223 367.49555206 C357.88549818 378.0992983 344.1003365 383.66439792 330.64709473 385.44086456 C313.61811776 386.27462753 298.22064427 381.19197702 285.5748291 369.89008331 C275.28889025 359.89963655 268.89769236 345.86813014 268.62780762 331.56293488 C268.63417236 330.65640167 268.64053711 329.74986847 268.64709473 328.81586456 C268.65281494 327.85905792 268.65853516 326.90225128 268.66442871 325.9164505 C268.96150457 313.99740686 272.09934134 304.19390626 279.49865723 294.65180206 C282.10567333 291.25529104 282.10567333 291.25529104 284.14709473 287.50336456 C283.81709473 285.19336456 283.48709473 282.88336456 283.14709473 280.50336456 C226.38709473 280.50336456 169.62709473 280.50336456 111.14709473 280.50336456 C110.81709473 282.81336456 110.48709473 285.12336456 110.14709473 287.50336456 C109.52274542 290.15362654 108.87038577 292.77784657 108.16931152 295.40717316 C107.97076569 296.16427078 107.77221985 296.92136841 107.56765747 297.70140839 C106.9147462 300.18600275 106.25588809 302.66896891 105.59631348 305.15180206 C105.13636791 306.89140133 104.67655665 308.63103611 104.21687317 310.37070465 C103.2538138 314.01105842 102.28751023 317.65053329 101.31921387 321.28949738 C100.08417142 325.93288742 98.85969778 330.57899138 97.63798809 335.22590446 C96.69173168 338.81855505 95.73856314 342.40934547 94.78348732 345.99966049 C94.32940553 347.71088553 93.87771975 349.42274836 93.42856407 351.13527298 C87.28750955 374.51835533 87.28750955 374.51835533 81.20959473 379.44086456 C80.23699707 380.25877472 80.23699707 380.25877472 79.24475098 381.09320831 C72.71690168 385.48157627 65.76912158 385.30791184 58.14709473 384.50336456 C51.20116479 382.3453083 46.6750716 377.74608974 43.14709473 371.50336456 C39.67419071 362.66324524 41.25050855 354.93504026 43.66296387 346.11078644 C43.93147659 345.09741714 44.19998932 344.08404785 44.47663879 343.0399704 C45.36909061 339.68142743 46.27562223 336.32685574 47.18225098 332.97211456 C47.81978397 330.58444527 48.45643909 328.19654142 49.0922699 325.80841827 C50.77926658 319.48180169 52.47819039 313.1584473 54.17962646 306.83570099 C55.84838073 300.62655067 57.50607323 294.41445222 59.16467285 288.20258331 C69.33022985 250.16172584 69.33022985 250.16172584 74.43048573 231.42353821 C75.85372644 226.19387366 77.26961876 220.96222383 78.68557549 215.73058319 C79.36196029 213.23853466 80.04142777 210.74732063 80.72407722 208.2569809 C81.66479805 204.82481359 82.59539128 201.39005003 83.52380371 197.95453644 C83.80643759 196.93412766 84.08907146 195.91371887 84.38027 194.86238861 C84.75464416 193.46548042 84.75464416 193.46548042 85.13658142 192.04035187 C85.35720466 191.23164391 85.57782789 190.42293594 85.80513668 189.58972168 C86.34376908 187.31754163 86.34376908 187.31754163 85.14709473 184.50336456 C83.19450419 183.01020709 81.26337599 181.65424487 79.20959473 180.31586456 C68.72167571 173.25506065 59.32407055 165.17689641 50.14709473 156.50336456 C49.28986816 155.70027863 48.4326416 154.89719269 47.54943848 154.06977081 C29.24211159 136.40073424 15.02971613 113.85004783 5.14709473 90.50336456 C5.14709473 89.84336456 5.14709473 89.18336456 5.14709473 88.50336456 C3.43779785 88.53478546 3.43779785 88.53478546 1.69396973 88.56684113 C-2.56257396 88.6396307 -6.81906341 88.68530499 -11.0760498 88.72309113 C-12.91305821 88.7431183 -14.75000357 88.77034838 -16.58679199 88.80512238 C-19.23815529 88.85403521 -21.88867069 88.8764222 -24.54040527 88.89398956 C-25.35219238 88.9146347 -26.16397949 88.93527985 -27.00036621 88.9565506 C-33.79575322 88.95918202 -38.96280963 87.03597451 -44.09509277 82.53852081 C-44.6339209 81.88754425 -45.17274902 81.23656769 -45.72790527 80.56586456 C-46.28220215 79.91746613 -46.83649902 79.26906769 -47.40759277 78.60102081 C-51.88702624 72.09978899 -51.52754256 65.1319554 -50.85290527 57.50336456 C-49.17204945 50.84377123 -44.38912205 46.31789009 -38.85290527 42.50336456 C-35.05761451 40.69186391 -32.08565097 40.26507999 -27.89587402 40.30805206 C-26.78405762 40.31449738 -25.67224121 40.32094269 -24.5267334 40.32758331 C-23.37624512 40.34434113 -22.22575684 40.36109894 -21.04040527 40.37836456 C-19.87058105 40.387388 -18.70075684 40.39641144 -17.4954834 40.40570831 C-14.61441474 40.42922724 -11.73376538 40.46209604 -8.85290527 40.50336456 C-8.99292969 39.78213409 -9.1329541 39.06090363 -9.27722168 38.31781769 C-10.64047537 30.83016791 -11.21835222 23.60759708 -11.22790527 16.00336456 C-11.25239746 14.94633331 -11.27688965 13.88930206 -11.30212402 12.80023956 C-11.3079248 11.27656769 -11.3079248 11.27656769 -11.31384277 9.72211456 C-11.32206055 8.81397003 -11.33027832 7.9058255 -11.33874512 6.97016144 C-10.10167685 0.68908718 -5.69830743 0.00299464 0 0 Z M6.14709473 16.50336456 C6.10428286 25.77514641 6.10428286 25.77514641 7.14709473 34.69086456 C7.33271973 35.79816925 7.51834473 36.90547394 7.70959473 38.04633331 C7.85396973 38.85715363 7.99834473 39.66797394 8.14709473 40.50336456 C9.19574707 40.51271027 10.24439941 40.52205597 11.3248291 40.53168488 C15.246472 40.57180834 19.16734871 40.63762682 23.08850098 40.71088409 C24.77980647 40.73896493 26.47124005 40.76024311 28.16271973 40.77436066 C30.60608897 40.79597064 33.04793897 40.84270791 35.49084473 40.89398956 C36.61009338 40.89583252 36.61009338 40.89583252 37.75195312 40.89771271 C44.12513082 41.0722202 49.31828373 43.06228635 54.17053223 47.24945831 C54.83955566 48.08670441 54.83955566 48.08670441 55.52209473 48.94086456 C55.9835791 49.4964505 56.44506348 50.05203644 56.92053223 50.62445831 C61.15155579 57.10573962 60.81742121 64.01098125 60.14709473 71.50336456 C58.5149804 77.70930827 54.45313567 82.03954574 49.14709473 85.50336456 C45.68999576 87.08291381 42.85581165 87.77789032 39.06506348 87.91742706 C38.13371582 87.95609894 37.20236816 87.99477081 36.24279785 88.03461456 C35.28309082 88.06555206 34.32338379 88.09648956 33.33459473 88.12836456 C32.35555176 88.16703644 31.37650879 88.20570831 30.36779785 88.24555206 C27.96108098 88.33947272 25.55436461 88.42514657 23.14709473 88.50336456 C30.7255931 104.86400517 40.17219255 119.96912621 52.14709473 133.50336456 C52.8352124 134.28187775 52.8352124 134.28187775 53.53723145 135.07611847 C87.99266529 173.82570134 135.72241293 196.62070375 187.36950684 200.12226105 C238.51637323 202.81019579 287.79772548 183.88588116 325.92834473 150.19086456 C345.1861972 132.83604896 359.23621909 112.4555165 371.14709473 89.50336456 C371.14709473 89.17336456 371.14709473 88.84336456 371.14709473 88.50336456 C370.55283691 88.49401886 369.9585791 88.48467316 369.34631348 88.47504425 C366.61244827 88.42083464 363.88020273 88.33729178 361.14709473 88.25336456 C359.74523926 88.23209503 359.74523926 88.23209503 358.31506348 88.21039581 C351.09287141 87.95787161 345.66033396 86.53505942 340.12365723 81.75727081 C339.6776416 81.19910675 339.23162598 80.64094269 338.77209473 80.06586456 C338.07986816 79.23248566 338.07986816 79.23248566 337.37365723 78.38227081 C333.14263367 71.9009895 333.47676825 64.99574788 334.14709473 57.50336456 C335.77920906 51.29742085 339.84105379 46.96718339 345.14709473 43.50336456 C349.52548486 41.30702527 353.705549 41.16217226 358.51037598 41.08930206 C359.30235886 41.06993591 360.09434174 41.05056976 360.9103241 41.03061676 C363.42663992 40.97109225 365.94300217 40.92454499 368.45959473 40.87836456 C370.17120263 40.84015975 371.88279182 40.80110657 373.59436035 40.76117706 C377.77845221 40.66541326 381.96263403 40.58128276 386.14709473 40.50336456 C386.49173437 38.56784373 386.82206212 36.62977435 387.14709473 34.69086456 C387.33271973 33.61191925 387.51834473 32.53297394 387.70959473 31.42133331 C388.26167385 26.47726756 388.14709473 21.47815878 388.14709473 16.50336456 C262.08709473 16.50336456 136.02709473 16.50336456 6.14709473 16.50336456 Z M-32.85290527 59.50336456 C-34.27332348 62.34420098 -34.167428 64.35813734 -33.85290527 67.50336456 C-31.62084096 70.35117075 -30.30297529 71.35334122 -26.85290527 72.50336456 C-24.81473394 72.60745064 -22.77333284 72.65196853 -20.73254395 72.66449738 C-18.83994087 72.67890869 -18.83994087 72.67890869 -16.90910339 72.69361115 C-15.52969544 72.69845959 -14.15028539 72.70273831 -12.77087402 72.70648956 C-11.35463968 72.71224406 -9.93840534 72.71800175 -8.52217102 72.72376251 C-5.55225258 72.73426457 -2.58236115 72.74011223 0.38757324 72.74359894 C4.18389013 72.74907776 7.97984729 72.77309564 11.77605152 72.80157089 C14.70237757 72.82024255 17.62861782 72.8254053 20.5549984 72.82693481 C21.95397594 72.82995239 23.3529523 72.83795062 24.75187111 72.85112 C26.71402452 72.86827102 28.6763269 72.8644424 30.6385498 72.85980988 C32.31042107 72.86527832 32.31042107 72.86527832 34.0160675 72.87085724 C37.63080119 72.44659132 40.04313002 71.37660445 43.14709473 69.50336456 C44.56751293 66.66252815 44.46161745 64.64859179 44.14709473 61.50336456 C41.91503042 58.65555838 40.59716474 57.6533879 37.14709473 56.50336456 C35.1089234 56.39927849 33.06752229 56.3547606 31.0267334 56.34223175 C29.13413033 56.32782043 29.13413033 56.32782043 27.20329285 56.31311798 C25.8238849 56.30826953 24.44447485 56.30399082 23.06506348 56.30023956 C21.64882913 56.29448507 20.2325948 56.28872737 18.81636047 56.28296661 C15.84644204 56.27246455 12.8765506 56.2666169 9.90661621 56.26313019 C6.11029933 56.25765137 2.31434217 56.23363348 -1.48186207 56.20515823 C-4.40818812 56.18648658 -7.33442837 56.18132383 -10.26080894 56.17979431 C-11.65978649 56.17677674 -13.05876284 56.16877851 -14.45768166 56.15560913 C-16.41983507 56.13845811 -18.38213745 56.14228673 -20.34436035 56.14691925 C-22.01623161 56.14145081 -22.01623161 56.14145081 -23.72187805 56.13587189 C-27.33661173 56.56013781 -29.74894057 57.63012467 -32.85290527 59.50336456 Z M351.14709473 59.50336456 C349.72667652 62.34420098 349.832572 64.35813734 350.14709473 67.50336456 C352.37915904 70.35117075 353.69702471 71.35334122 357.14709473 72.50336456 C359.18526606 72.60745064 361.22666716 72.65196853 363.26745605 72.66449738 C365.16005913 72.67890869 365.16005913 72.67890869 367.09089661 72.69361115 C368.47030456 72.69845959 369.84971461 72.70273831 371.22912598 72.70648956 C372.64536032 72.71224406 374.06159466 72.71800175 375.47782898 72.72376251 C378.44774742 72.73426457 381.41763885 72.74011223 384.38757324 72.74359894 C388.18389013 72.74907776 391.97984729 72.77309564 395.77605152 72.80157089 C398.70237757 72.82024255 401.62861782 72.8254053 404.5549984 72.82693481 C405.95397594 72.82995239 407.3529523 72.83795062 408.75187111 72.85112 C410.71402452 72.86827102 412.6763269 72.8644424 414.6385498 72.85980988 C416.31042107 72.86527832 416.31042107 72.86527832 418.0160675 72.87085724 C421.63080119 72.44659132 424.04313002 71.37660445 427.14709473 69.50336456 C428.56751293 66.66252815 428.46161745 64.64859179 428.14709473 61.50336456 C425.91503042 58.65555838 424.59716474 57.6533879 421.14709473 56.50336456 C419.1089234 56.39927849 417.06752229 56.3547606 415.0267334 56.34223175 C413.13413033 56.32782043 413.13413033 56.32782043 411.20329285 56.31311798 C409.8238849 56.30826953 408.44447485 56.30399082 407.06506348 56.30023956 C405.64882913 56.29448507 404.2325948 56.28872737 402.81636047 56.28296661 C399.84644204 56.27246455 396.8765506 56.2666169 393.90661621 56.26313019 C390.11029933 56.25765137 386.31434217 56.23363348 382.51813793 56.20515823 C379.59181188 56.18648658 376.66557163 56.18132383 373.73919106 56.17979431 C372.34021351 56.17677674 370.94123716 56.16877851 369.54231834 56.15560913 C367.58016493 56.13845811 365.61786255 56.14228673 363.65563965 56.14691925 C361.98376839 56.14145081 361.98376839 56.14145081 360.27812195 56.13587189 C356.66338827 56.56013781 354.25105943 57.63012467 351.14709473 59.50336456 Z M102.14709473 194.50336456 C100.65281269 200.08858763 99.15864198 205.67384046 97.66456032 211.25911713 C97.11203509 213.32458192 96.55949261 215.39004209 96.00693321 217.45549774 C92.66898003 229.932936 89.33307839 242.4109181 86.00158691 254.89008331 C84.76499834 259.52161111 83.52832594 264.15311651 82.29162598 268.78461456 C81.83090006 270.51024124 81.83090006 270.51024124 81.36086655 272.27072906 C77.65161086 286.16151546 73.92644467 300.04778322 70.17129326 313.92623138 C68.96051503 318.40555619 67.75526851 322.88637182 66.5507021 327.36737061 C65.46202733 331.41485622 64.36412112 335.4596862 63.25924397 339.5027771 C62.43725071 342.52150411 61.62915093 345.54394968 60.81896973 348.56586456 C60.52765671 349.61939117 60.23634369 350.67291779 59.936203 351.75836945 C59.68192032 352.7170694 59.42763763 353.67576935 59.16564941 354.66352081 C58.94286316 355.48473419 58.7200769 356.30594757 58.49053955 357.1520462 C57.98612989 360.60537439 58.41513767 363.38616695 60.33459473 366.31586456 C63.07772025 368.11308473 64.94290599 367.96110581 68.14709473 367.50336456 C72.73087982 364.1710765 73.52461406 359.81730921 74.84851074 354.59149933 C75.08811523 353.69186462 75.32771973 352.79222992 75.57458496 351.86533356 C76.36260357 348.89496846 77.13151121 345.91998424 77.90100098 342.94477081 C78.44718705 340.8770083 78.99481003 338.80962485 79.54380798 336.74260712 C80.98605382 331.30101968 82.41322351 325.85560494 83.8359375 320.40888214 C86.11356862 311.69360955 88.40757461 302.98270494 90.71366692 294.27492332 C91.51566421 291.23396507 92.30733539 288.19044838 93.09815979 285.1465683 C93.59008128 283.27915271 94.08236635 281.41183285 94.57507324 279.54462433 C94.7917717 278.6992662 95.00847015 277.85390808 95.23173523 276.98293304 C95.44043243 276.19932404 95.64912964 275.41571503 95.864151 274.60836029 C96.04054894 273.93235055 96.21694689 273.25634081 96.39869022 272.55984592 C97.4118152 269.77596017 98.23025696 267.80500488 100.14709473 265.50336456 C102.9139311 264.98990282 105.08007681 264.8268847 107.85266113 264.86844635 C108.64531687 264.8606464 109.4379726 264.85284644 110.25464821 264.84481013 C112.91978594 264.82481182 115.58350806 264.84068446 118.24865723 264.85639191 C120.15554643 264.84961924 122.0624291 264.84071809 123.96929932 264.82984161 C129.15527048 264.80699996 134.34074566 264.81590472 139.52672577 264.83173704 C144.94658269 264.84437084 150.36639634 264.83266296 155.78625488 264.82480621 C164.8890345 264.8157023 173.99161148 264.82771707 183.09436035 264.85150909 C193.62764284 264.87872171 204.16044148 264.86990807 214.69371223 264.84237707 C223.72733269 264.81970818 232.76080725 264.81647505 241.79444695 264.82957041 C247.19424245 264.83737713 252.59381031 264.83837301 257.99359131 264.82188797 C263.06954924 264.80747479 268.14488165 264.8174072 273.22077179 264.84635925 C275.08684499 264.85298695 276.95297057 264.85104378 278.81902313 264.84004593 C281.36057574 264.82644469 283.90010575 264.84343804 286.44152832 264.86844635 C287.55761695 264.85171594 287.55761695 264.85171594 288.69625282 264.83464754 C290.75656128 264.87415886 290.75656128 264.87415886 294.14709473 265.50336456 C297.09760295 269.06338197 298.01480604 273.06130893 299.14709473 277.50336456 C302.50441947 276.96186057 305.62550115 276.04693156 308.83850098 274.96039581 C309.6461792 274.68816193 310.45385742 274.41592804 311.28601074 274.13544464 C311.90016846 273.92685822 312.51432617 273.71827179 313.14709473 273.50336456 C311.29619649 266.45111879 309.44412491 259.39918215 307.59069633 252.34760094 C306.72939969 249.07056155 305.86856962 245.79340138 305.00842285 242.51605988 C300.80185421 226.48927933 296.54475754 210.47884403 292.14709473 194.50336456 C290.72918065 194.9578242 289.31281426 195.417114 287.89709473 195.87836456 C287.10818848 196.13359894 286.31928223 196.38883331 285.50646973 196.65180206 C283.28081515 197.45510123 281.237778 198.40048118 279.14709473 199.50336456 C280.11969581 205.94879021 281.53740883 212.20972375 283.31115723 218.47992706 C283.50900818 219.18123749 283.70685913 219.88254791 283.91070557 220.60511017 C284.7360518 223.51569774 285.56751642 226.42436533 286.41174316 229.32953644 C291.04766982 245.34455579 291.04766982 245.34455579 290.14709473 252.50336456 C289.06666565 254.20855904 289.06666565 254.20855904 287.14709473 255.50336456 C284.67214783 255.79793668 282.44834102 255.90833751 279.97302246 255.88431549 C278.86979346 255.89133545 278.86979346 255.89133545 277.744277 255.89849722 C275.27289891 255.91049 272.80207096 255.90097357 270.33068848 255.89154816 C268.56173376 255.89561197 266.79278158 255.90095277 265.02383423 255.90747833 C260.21398344 255.92118045 255.40432523 255.91584136 250.59447098 255.90634108 C245.56700359 255.89875946 240.53955298 255.90578591 235.51208496 255.91049957 C227.06845125 255.9159615 218.62489619 255.90875405 210.18127441 255.89447784 C200.41153504 255.8781505 190.64198347 255.8834387 180.87224865 255.89995706 C172.49257643 255.91355948 164.11296083 255.91549768 155.73328114 255.90764105 C150.72477451 255.90295769 145.71635622 255.90235787 140.70785522 255.91225052 C135.99974629 255.92089983 131.2918801 255.91493564 126.58379745 255.89756775 C124.85317259 255.89359199 123.12252739 255.89475548 121.39191055 255.90135574 C119.03471776 255.90951859 116.67830941 255.89931423 114.32116699 255.88431549 C113.63158118 255.89100766 112.94199537 255.89769982 112.23151302 255.90459478 C109.37770955 255.86922038 107.56627466 255.8090975 105.22231293 254.09950638 C102.726562 250.39460963 103.80992689 245.31993369 104.58581543 241.13965607 C105.18223905 238.66006121 105.85182292 236.21306802 106.55334473 233.76117706 C106.91957947 232.42589462 106.91957947 232.42589462 107.29321289 231.06363678 C108.06710384 228.2487769 108.85625988 225.4385062 109.64709473 222.62836456 C110.43521489 219.79613287 111.220063 216.96304947 112.00097656 214.12882233 C112.48585002 212.37238603 112.97535025 210.61721894 113.4699707 208.8635025 C113.69019897 208.07192749 113.91042725 207.28035248 114.1373291 206.46479034 C114.33274292 205.77023743 114.52815674 205.07568451 114.72949219 204.36008453 C115.25681095 202.33273454 115.25681095 202.33273454 115.14709473 199.50336456 C113.35756287 198.66545667 111.56539778 197.8331706 109.77209473 197.00336456 C108.77436035 196.53930206 107.77662598 196.07523956 106.74865723 195.59711456 C104.31016846 194.37417726 104.31016846 194.37417726 102.14709473 194.50336456 Z M131.14709473 206.50336456 C130.02379167 210.54122493 128.90285425 214.5797324 127.78405762 218.61884308 C127.40351483 219.9914171 127.02233811 221.36381553 126.64050293 222.73603058 C126.09022979 224.71400063 125.54227633 226.69260112 124.99475098 228.67133331 C124.66483154 229.86009064 124.33491211 231.04884796 123.99499512 232.27362823 C123.28107344 234.99302642 122.69848495 237.74641344 122.14709473 240.50336456 C171.64709473 240.50336456 221.14709473 240.50336456 272.14709473 240.50336456 C268.036026 223.38850762 268.036026 223.38850762 263.14709473 206.50336456 C258.41738804 207.54370738 253.69494316 208.60385406 248.98303223 209.72211456 C248.08713379 209.93223175 247.19123535 210.14234894 246.26818848 210.35883331 C244.45966558 210.78330881 242.65232773 211.21287048 240.84631348 211.64789581 C226.48454344 214.98736588 212.45105622 215.91123492 197.77209473 215.87836456 C196.89680115 215.87815308 196.02150757 215.87794159 195.11968994 215.87772369 C175.2149163 215.82990074 156.57857239 213.28938759 137.49865723 207.45648956 C134.24690621 206.36659636 134.24690621 206.36659636 131.14709473 206.50336456 Z M294.14709473 303.50336456 C286.69328055 313.63251039 284.90320465 324.12665831 286.14709473 336.50336456 C288.50774962 347.50187031 295.14446289 355.97562598 304.14709473 362.50336456 C312.98093719 367.89435968 323.2429928 369.35714796 333.33459473 367.50336456 C342.74323799 365.1198416 351.24489504 360.36336707 357.14709473 352.50336456 C363.70986586 341.07048273 366.09788392 330.28081401 363.49865723 317.25336456 C359.79640344 306.11496001 351.939191 297.75131382 341.72521973 292.18305206 C324.56001737 284.74479771 306.35239039 289.79955395 294.14709473 303.50336456 Z " fill="#000000" transform="translate(58.8529052734375,119.49663543701172)"/>
<path d="M0 0 C5.98814264 6.38394737 9.6504954 14.26044207 9.921875 23.05078125 C9.42906821 33.24809089 6.61691844 41.99908105 -0.98046875 49.140625 C-9.33440794 55.61532267 -18.04732796 57.75821419 -28.58203125 56.95703125 C-36.95523405 55.52204773 -44.75041169 50.75952356 -49.921875 44.03515625 C-55.27211182 35.90078365 -57.20333132 27.11936696 -55.76171875 17.40234375 C-53.22556357 7.6955117 -47.72908374 0.31054104 -39.16796875 -4.859375 C-26.23780723 -11.80083013 -11.04911963 -9.47636206 0 0 Z M-35.54296875 14.328125 C-38.48466497 18.07425289 -39.55323979 21.38581656 -39.16796875 26.140625 C-37.52015582 32.11394686 -34.43803077 35.99541832 -29.16796875 39.140625 C-24.93098764 40.6306439 -21.85088698 40.32901623 -17.54296875 39.140625 C-12.92398082 36.40344697 -9.29362975 33.34152696 -7.46875 28.15234375 C-6.56226037 23.1325356 -7.54430862 19.56805147 -10.16796875 15.140625 C-13.27266911 11.50345624 -16.38575796 8.9417087 -21.16796875 8.078125 C-27.11774521 7.79097363 -31.48348419 10.10432797 -35.54296875 14.328125 Z " fill="#000000" transform="translate(407.16796875,423.859375)"/>
<path d="M0 0 C4.03874694 1.79907818 5.45195281 3.82438349 7.75 7.625 C8.36359375 8.62789062 8.9771875 9.63078125 9.609375 10.6640625 C10.06828125 11.43492188 10.5271875 12.20578125 11 13 C6.6289034 17.71707142 1.76721471 20.92435694 -3.6484375 24.33789062 C-8.5031555 27.46058773 -8.5031555 27.46058773 -12 32 C-12.58333333 35 -12.58333333 35 -12 38 C-9.37125141 41.08773643 -6.71070203 42.80422295 -3.125 44.625 C3.39322604 48.38958845 6.65503087 53.96509262 9 61 C9.773558 68.6214485 9.11156367 75.41935109 5 82 C-1.97874973 89.94994751 -11.42522255 95.88332542 -20 102 C-23.88997191 100.50253294 -25.46948052 98.29577922 -27.75 94.875 C-28.36359375 93.96492188 -28.9771875 93.05484375 -29.609375 92.1171875 C-30.29773438 91.06917969 -30.29773438 91.06917969 -31 90 C-29.5503232 86.44923697 -27.78932865 84.82084305 -24.68359375 82.6171875 C-23.83732422 82.00746094 -22.99105469 81.39773437 -22.11914062 80.76953125 C-20.79172852 79.83173828 -20.79172852 79.83173828 -19.4375 78.875 C-17.68360291 77.62603195 -15.93216642 76.37359898 -14.18359375 75.1171875 C-13.40556396 74.56659668 -12.62753418 74.01600586 -11.82592773 73.44873047 C-9.31807059 71.45894249 -9.04932665 70.36994987 -8.625 67.1875 C-9.13544897 62.84868373 -10.63842898 61.71786593 -14 59 C-15.7427437 58.04941253 -17.48555039 57.09893345 -19.23046875 56.15234375 C-24.40406844 52.78322254 -28.65519218 47.02958917 -30 41 C-31.00827163 32.45209716 -30.35807394 24.98316011 -25 18 C-20.06961591 13.14028106 -14.33741619 9.39428454 -8.5625 5.625 C-7.73556641 5.07972656 -6.90863281 4.53445312 -6.05664062 3.97265625 C-4.04053747 2.64412585 -2.02167506 1.32002924 0 0 Z " fill="#000000" transform="translate(330,9)"/>
<path d="M0 0 C4.03874694 1.79907818 5.45195281 3.82438349 7.75 7.625 C8.36359375 8.62789062 8.9771875 9.63078125 9.609375 10.6640625 C10.06828125 11.43492188 10.5271875 12.20578125 11 13 C6.6289034 17.71707142 1.76721471 20.92435694 -3.6484375 24.33789062 C-8.5031555 27.46058773 -8.5031555 27.46058773 -12 32 C-12.58333333 35 -12.58333333 35 -12 38 C-9.37125141 41.08773643 -6.71070203 42.80422295 -3.125 44.625 C3.39322604 48.38958845 6.65503087 53.96509262 9 61 C9.773558 68.6214485 9.11156367 75.41935109 5 82 C-1.97874973 89.94994751 -11.42522255 95.88332542 -20 102 C-23.88997191 100.50253294 -25.46948052 98.29577922 -27.75 94.875 C-28.36359375 93.96492188 -28.9771875 93.05484375 -29.609375 92.1171875 C-30.29773438 91.06917969 -30.29773438 91.06917969 -31 90 C-29.5503232 86.44923697 -27.78932865 84.82084305 -24.68359375 82.6171875 C-23.83732422 82.00746094 -22.99105469 81.39773437 -22.11914062 80.76953125 C-20.79172852 79.83173828 -20.79172852 79.83173828 -19.4375 78.875 C-17.68360291 77.62603195 -15.93216642 76.37359898 -14.18359375 75.1171875 C-13.40556396 74.56659668 -12.62753418 74.01600586 -11.82592773 73.44873047 C-9.31807059 71.45894249 -9.04932665 70.36994987 -8.625 67.1875 C-9.13544897 62.84868373 -10.63842898 61.71786593 -14 59 C-15.7427437 58.04941253 -17.48555039 57.09893345 -19.23046875 56.15234375 C-24.40406844 52.78322254 -28.65519218 47.02958917 -30 41 C-31.00827163 32.45209716 -30.35807394 24.98316011 -25 18 C-20.06961591 13.14028106 -14.33741619 9.39428454 -8.5625 5.625 C-7.73556641 5.07972656 -6.90863281 4.53445312 -6.05664062 3.97265625 C-4.04053747 2.64412585 -2.02167506 1.32002924 0 0 Z " fill="#000000" transform="translate(258,9)"/>
<path d="M0 0 C4.03874694 1.79907818 5.45195281 3.82438349 7.75 7.625 C8.36359375 8.62789062 8.9771875 9.63078125 9.609375 10.6640625 C10.06828125 11.43492188 10.5271875 12.20578125 11 13 C6.6289034 17.71707142 1.76721471 20.92435694 -3.6484375 24.33789062 C-8.5031555 27.46058773 -8.5031555 27.46058773 -12 32 C-12.58333333 35 -12.58333333 35 -12 38 C-9.37125141 41.08773643 -6.71070203 42.80422295 -3.125 44.625 C3.39322604 48.38958845 6.65503087 53.96509262 9 61 C9.773558 68.6214485 9.11156367 75.41935109 5 82 C-1.97874973 89.94994751 -11.42522255 95.88332542 -20 102 C-23.88997191 100.50253294 -25.46948052 98.29577922 -27.75 94.875 C-28.36359375 93.96492188 -28.9771875 93.05484375 -29.609375 92.1171875 C-30.29773438 91.06917969 -30.29773438 91.06917969 -31 90 C-29.5503232 86.44923697 -27.78932865 84.82084305 -24.68359375 82.6171875 C-23.83732422 82.00746094 -22.99105469 81.39773437 -22.11914062 80.76953125 C-20.79172852 79.83173828 -20.79172852 79.83173828 -19.4375 78.875 C-17.68360291 77.62603195 -15.93216642 76.37359898 -14.18359375 75.1171875 C-13.40556396 74.56659668 -12.62753418 74.01600586 -11.82592773 73.44873047 C-9.31807059 71.45894249 -9.04932665 70.36994987 -8.625 67.1875 C-9.13544897 62.84868373 -10.63842898 61.71786593 -14 59 C-15.7427437 58.04941253 -17.48555039 57.09893345 -19.23046875 56.15234375 C-24.40406844 52.78322254 -28.65519218 47.02958917 -30 41 C-31.00827163 32.45209716 -30.35807394 24.98316011 -25 18 C-20.06961591 13.14028106 -14.33741619 9.39428454 -8.5625 5.625 C-7.73556641 5.07972656 -6.90863281 4.53445312 -6.05664062 3.97265625 C-4.04053747 2.64412585 -2.02167506 1.32002924 0 0 Z " fill="#000000" transform="translate(186,9)"/>
</svg>
