<?xml version="1.0" encoding="UTF-8"?>
<!DOCTYPE svg PUBLIC "-//W3C//DTD SVG 1.1//EN" "http://www.w3.org/Graphics/SVG/1.1/DTD/svg11.dtd">
<svg xmlns="http://www.w3.org/2000/svg" version="1.1" width="512px" height="512px" style="shape-rendering:geometricPrecision; text-rendering:geometricPrecision; image-rendering:optimizeQuality; fill-rule:evenodd; clip-rule:evenodd" xmlns:xlink="http://www.w3.org/1999/xlink">
<g><path style="opacity:0.968" fill="#000000" d="M 272.5,55.5 C 324.962,51.8898 363.795,72.8898 389,118.5C 397.221,135.604 400.554,153.604 399,172.5C 398.167,173.333 397.333,174.167 396.5,175C 366.835,175.5 337.169,175.667 307.5,175.5C 307.5,183.5 307.5,191.5 307.5,199.5C 315.84,199.334 324.173,199.5 332.5,200C 333.333,200.833 334.167,201.667 335,202.5C 335.667,215.167 335.667,227.833 335,240.5C 334.167,241.333 333.333,242.167 332.5,243C 324.173,243.5 315.84,243.666 307.5,243.5C 307.5,276.833 307.5,310.167 307.5,343.5C 340.502,343.333 373.502,343.5 406.5,344C 420.444,349.377 425.944,359.544 423,374.5C 421.419,380.086 418.252,384.586 413.5,388C 426.879,405.923 440.379,423.756 454,441.5C 457.667,454.167 453.333,458.167 441,453.5C 426.026,433.025 410.859,412.692 395.5,392.5C 374.167,391.167 352.833,391.167 331.5,392.5C 316.141,412.692 300.974,433.025 286,453.5C 275.387,458.205 270.72,454.872 272,443.5C 284.468,426.065 297.301,408.899 310.5,392C 276.5,391.333 242.5,391.333 208.5,392C 221.699,408.899 234.532,426.065 247,443.5C 248.28,454.872 243.613,458.205 233,453.5C 218.026,433.025 202.859,412.692 187.5,392.5C 163.5,391.167 139.5,391.167 115.5,392.5C 100.141,412.692 84.9741,433.025 70,453.5C 57.6667,458.167 53.3333,454.167 57,441.5C 70.6214,423.756 84.1214,405.923 97.5,388C 86.7566,378.209 84.59,366.709 91,353.5C 98.0536,344.92 107.22,341.42 118.5,343C 106.955,327.41 95.2882,311.91 83.5,296.5C 75.1866,295.668 66.8532,295.168 58.5,295C 57.6667,294.167 56.8333,293.333 56,292.5C 55.3333,275.833 55.3333,259.167 56,242.5C 56.8333,241.667 57.6667,240.833 58.5,240C 109.833,239.333 161.167,239.333 212.5,240C 213.333,240.833 214.167,241.667 215,242.5C 215.667,259.167 215.667,275.833 215,292.5C 214.167,293.333 213.333,294.167 212.5,295C 208.5,295.333 204.5,295.667 200.5,296C 212.045,311.59 223.712,327.09 235.5,342.5C 246.146,343.499 256.813,343.832 267.5,343.5C 267.5,310.167 267.5,276.833 267.5,243.5C 259.16,243.666 250.827,243.5 242.5,243C 241.667,242.167 240.833,241.333 240,240.5C 239.333,227.833 239.333,215.167 240,202.5C 240.833,201.667 241.667,200.833 242.5,200C 250.827,199.5 259.16,199.334 267.5,199.5C 267.5,191.5 267.5,183.5 267.5,175.5C 237.831,175.667 208.165,175.5 178.5,175C 177.667,174.167 176.833,173.333 176,172.5C 175.108,126.106 194.608,91.2723 234.5,68C 246.723,62.0917 259.39,57.925 272.5,55.5 Z M 284.5,72.5 C 289.912,72.6033 294.912,74.1033 299.5,77C 303.507,81.3397 307.84,85.3397 312.5,89C 319.392,90.2775 323.392,87.4442 324.5,80.5C 358.469,96.1297 377.803,122.463 382.5,159.5C 370.833,159.5 359.167,159.5 347.5,159.5C 347.686,152.119 347.186,144.786 346,137.5C 341.079,130.1 335.745,129.767 330,136.5C 329.985,144.155 330.152,151.822 330.5,159.5C 301.833,159.5 273.167,159.5 244.5,159.5C 244.41,131.61 252.243,106.276 268,83.5C 272.632,78.3397 278.132,74.673 284.5,72.5 Z M 245.5,81.5 C 246.239,81.369 246.906,81.5357 247.5,82C 234.185,106.094 227.518,131.927 227.5,159.5C 215.833,159.5 204.167,159.5 192.5,159.5C 196.761,124.264 214.428,98.2635 245.5,81.5 Z M 283.5,175.5 C 286.167,175.5 288.833,175.5 291.5,175.5C 291.5,183.5 291.5,191.5 291.5,199.5C 288.833,199.5 286.167,199.5 283.5,199.5C 283.5,191.5 283.5,183.5 283.5,175.5 Z M 255.5,215.5 C 276.833,215.5 298.167,215.5 319.5,215.5C 319.5,219.5 319.5,223.5 319.5,227.5C 298.167,227.5 276.833,227.5 255.5,227.5C 255.5,223.5 255.5,219.5 255.5,215.5 Z M 283.5,243.5 C 286.167,243.5 288.833,243.5 291.5,243.5C 291.5,276.833 291.5,310.167 291.5,343.5C 288.833,343.5 286.167,343.5 283.5,343.5C 283.5,310.167 283.5,276.833 283.5,243.5 Z M 71.5,255.5 C 114.167,255.5 156.833,255.5 199.5,255.5C 199.5,263.5 199.5,271.5 199.5,279.5C 156.833,279.5 114.167,279.5 71.5,279.5C 71.5,271.5 71.5,263.5 71.5,255.5 Z M 104.5,296.5 C 108.019,295.192 111.685,295.192 115.5,296.5C 127.288,311.91 138.955,327.41 150.5,343C 146.789,343.825 143.122,343.659 139.5,342.5C 127.813,327.098 116.146,311.765 104.5,296.5 Z M 136.5,296.5 C 140.019,295.192 143.685,295.192 147.5,296.5C 151.5,301.833 155.5,307.167 159.5,312.5C 164.278,316.519 168.778,316.186 173,311.5C 175.172,305.342 173.672,300.175 168.5,296C 172.211,295.175 175.878,295.341 179.5,296.5C 191.288,311.91 202.955,327.41 214.5,343C 200.155,343.833 185.822,343.666 171.5,342.5C 159.813,327.098 148.146,311.765 136.5,296.5 Z M 111.5,359.5 C 170.504,359.167 229.504,359.5 288.5,360.5C 287.167,365.167 287.167,369.833 288.5,374.5C 229.503,375.667 170.503,375.833 111.5,375C 104.924,373.825 102.757,369.992 105,363.5C 106.792,361.372 108.958,360.039 111.5,359.5 Z M 311.5,359.5 C 340.835,359.333 370.169,359.5 399.5,360C 406.076,361.175 408.243,365.008 406,371.5C 404.442,373.768 402.276,374.934 399.5,375C 370.167,375.667 340.833,375.667 311.5,375C 304.924,373.825 302.757,369.992 305,363.5C 306.792,361.372 308.958,360.039 311.5,359.5 Z"/></g>
<g><path style="opacity:0.864" fill="#000000" d="M 325.5,100.5 C 332.415,99.0958 336.748,101.762 338.5,108.5C 336.489,116.923 331.656,119.257 324,115.5C 320.176,109.783 320.676,104.783 325.5,100.5 Z"/></g>
<g><path style="opacity:0.872" fill="#000000" d="M 180.5,324.5 C 187.939,322.431 192.272,325.098 193.5,332.5C 193.096,337.737 190.263,340.403 185,340.5C 179.971,340.47 177.138,337.97 176.5,333C 176.79,329.61 178.123,326.777 180.5,324.5 Z"/></g>
</svg>
