<?xml version="1.0" encoding="UTF-8"?>
<svg version="1.1" xmlns="http://www.w3.org/2000/svg" width="512" height="512">
<path d="M0 0 C5.8016753 3.50595862 10.59183914 8.99399045 12.5625 15.5 C12.79296875 18.98046875 12.79296875 18.98046875 12.75 22.6875 C12.74033203 24.53408203 12.74033203 24.53408203 12.73046875 26.41796875 C12.5625 29.5 12.5625 29.5 11.5625 31.5 C12.65691406 31.685625 12.65691406 31.685625 13.7734375 31.875 C40.00462378 37.05646889 61.95392721 53.3758389 79.29223633 73.12280273 C82.94960631 77.15828775 86.4287763 79.30155572 91.375 81.41796875 C97.70774607 84.55041636 100.47606216 90.70371226 102.81640625 97.0546875 C103.78386568 100.22552313 104.2755968 103.20061315 104.5625 106.5 C105.78646484 106.63728516 105.78646484 106.63728516 107.03515625 106.77734375 C111.34409726 107.6601279 115.01348497 109.24180592 119 111.0625 C119.79132324 111.42182617 120.58264648 111.78115234 121.39794922 112.15136719 C123.79381569 113.25197586 126.18012924 114.37050145 128.5625 115.5 C129.23587402 115.81888184 129.90924805 116.13776367 130.60302734 116.46630859 C146.09167636 123.93525293 159.27771093 134.56470706 171.5625 146.5 C172.38911133 147.29156494 172.38911133 147.29156494 173.23242188 148.09912109 C200.46597189 174.61955445 219.88554781 216.46227226 220.70776367 254.67431641 C220.7209313 256.15002577 220.7282673 257.62579604 220.73046875 259.1015625 C220.73379715 259.9004892 220.73712555 260.69941589 220.74055481 261.52255249 C220.74558708 263.20497061 220.74796429 264.88739858 220.74780273 266.56982422 C220.74997636 269.09750545 220.76813633 271.62474019 220.78710938 274.15234375 C220.88536133 299.73363802 220.88536133 299.73363802 216.17260742 305.34619141 C213.5625 307.5 213.5625 307.5 210.5 308.0625 C198.00415373 306.2773791 187.63996731 300.8737576 179.625 291 C172.49540334 281.07314531 170.43021964 271.54361505 169.1875 259.5625 C165.46582262 226.66744372 152.77971248 196.72793805 127.5625 174.5 C123.97568079 171.70720947 120.30478257 169.0783603 116.5625 166.5 C117.06282226 173.61740027 117.79156828 180.69554858 118.6484375 187.77734375 C118.75043457 188.62079849 118.85243164 189.46425323 118.95751953 190.33326721 C119.17289353 192.11198887 119.38834969 193.89070058 119.60388184 195.66940308 C121.44013692 210.90518038 123.08977178 226.13962692 124.3125 241.4375 C124.37121277 242.16194305 124.42992554 242.88638611 124.49041748 243.63278198 C126.06562633 263.27235109 126.79183819 282.92914948 127.1875 302.625 C127.20995789 303.72151886 127.23241577 304.81803772 127.2555542 305.94778442 C127.55949592 321.45455506 127.58823029 336.93265218 127.1875 352.4375 C127.16617004 353.26807922 127.14484009 354.09865845 127.12286377 354.95440674 C126.87722022 364.08199194 126.50995227 373.2036282 126.078125 382.32421875 C126.04022858 383.15541733 126.00233215 383.98661591 125.96328735 384.84300232 C125.61057905 391.91863964 125.11292846 398.50988798 121.8125 404.875 C121.4 405.74125 120.9875 406.6075 120.5625 407.5 C121.33481636 409.50394787 121.33481636 409.50394787 122.5625 411.5 C127.82090516 420.90761548 128.8592641 430.78977312 130.1875 441.375 C130.3215625 442.37402344 130.455625 443.37304688 130.59375 444.40234375 C133.18908895 464.9267079 133.18908895 464.9267079 128.97392559 471.68209136 C125.97579599 475.54366632 121.92805325 478.05621411 117.11553001 478.95905995 C114.30154283 479.14272759 111.52760769 479.16666589 108.70776367 479.13491821 C107.10114129 479.14661814 107.10114129 479.14661814 105.46206188 479.15855443 C101.88451096 479.17844704 98.30802697 479.16271942 94.73046875 479.14697266 C92.16101461 479.15374993 89.59156533 479.16265367 87.02212524 479.17352295 C80.77463402 479.19571829 74.5274437 479.1909709 68.27994084 479.17645974 C63.20103699 479.16515281 58.12221728 479.16364286 53.04330444 479.16907883 C51.95767803 479.17022807 51.95767803 479.17022807 50.85011977 479.17140054 C49.37968387 479.17299922 47.90924799 479.17462029 46.43881214 479.1762635 C32.66103089 479.19051013 18.88341616 479.17414538 5.10566223 479.14726166 C-6.7079622 479.12492381 -18.52134094 479.12880425 -30.33496094 479.15185547 C-44.0645219 479.17863273 -57.79393704 479.18913694 -71.52352047 479.17379415 C-72.98844844 479.17220146 -74.45337643 479.1706296 -75.91830444 479.16907883 C-76.99937138 479.16792176 -76.99937138 479.16792176 -78.10227805 479.16674132 C-83.17317103 479.16243008 -88.24397125 479.1696984 -93.31484985 479.18147659 C-100.14400796 479.19699058 -106.97269491 479.18589391 -113.8018074 479.15700531 C-116.30758519 479.15039599 -118.81340204 479.15228942 -121.31916428 479.16331863 C-124.74089036 479.17699052 -128.16113207 479.15983561 -131.58276367 479.13491821 C-133.06876682 479.15164863 -133.06876682 479.15164863 -134.58479023 479.16871703 C-141.0031307 479.07811176 -145.54914986 477.80266879 -150.4375 473.5 C-156.96689214 465.09474645 -154.65494367 453.77042264 -153.46362305 443.87364197 C-153.29460403 442.53023679 -153.12279129 441.18718027 -152.94824219 439.84448242 C-152.68668331 437.80613549 -152.44841445 435.76588503 -152.2109375 433.72460938 C-151.205976 425.57920676 -150.05337223 417.71851761 -144.5625 411.3125 C-144.19125 410.714375 -143.82 410.11625 -143.4375 409.5 C-144.14244565 406.4879595 -145.26742881 403.89016332 -146.5 401.0625 C-148.69805112 395.0544936 -148.68483952 388.48033482 -148.9609375 382.14453125 C-149.00205658 381.23492142 -149.04317566 380.32531158 -149.08554077 379.38813782 C-151.02250616 334.46379607 -150.56403814 289.80150559 -147.34603882 244.9630127 C-147.22101931 243.21189523 -147.09969029 241.46050978 -146.98233032 239.7088623 C-146.72135536 235.90699575 -146.4153109 232.13936792 -145.89697266 228.36328125 C-144.99170261 222.12370017 -144.99170261 222.12370017 -146.52832031 216.18115234 C-148.14811136 214.12417005 -149.84068132 212.47007606 -151.8125 210.75 C-153.12042547 209.48763551 -154.42771779 208.2246147 -155.734375 206.9609375 C-156.37439453 206.36764648 -157.01441406 205.77435547 -157.67382812 205.16308594 C-159.94681402 203.01973324 -162.00764538 200.72666695 -164.0625 198.375 C-167.94889627 194.02799381 -171.89445281 189.73915683 -175.85375977 185.45874023 C-180.611425 180.31509423 -185.34709798 175.1515806 -190.07861328 169.98388672 C-191.90552715 167.98892041 -193.73345242 165.99488251 -195.56152344 164.00097656 C-196.47511167 163.0043938 -197.38852461 162.0076503 -198.30175781 161.01074219 C-201.13570915 157.91750152 -203.97527827 154.82953743 -206.8190918 151.74536133 C-208.21154367 150.22936826 -209.59449127 148.70514073 -210.9765625 147.1796875 C-212.43665119 145.58981314 -213.92274418 144.02224994 -215.4609375 142.5078125 C-219.18449798 138.714326 -220.10837229 135.93296705 -220.13671875 130.61328125 C-218.6987671 126.2672933 -214.48010572 124.44344861 -210.63671875 122.421875 C-185.83077743 110.23493541 -159.46242367 103.15984089 -131.9453125 100.859375 C-128.59241345 100.72484344 -128.59241345 100.72484344 -126.4375 99.5 C-125.79733109 97.98105377 -125.22426195 96.43349302 -124.6875 94.875 C-121.81597263 87.54477377 -118.5947542 83.40521345 -111.4375 80 C-105.98835858 77.25321812 -102.4543363 73.66531166 -98.4375 69.1875 C-81.08261149 49.86030536 -59.81329143 36.86859714 -34.4375 31.5 C-34.7675 30.84 -35.0975 30.18 -35.4375 29.5 C-36.06940837 21.60632492 -36.60360044 13.93244261 -31.4375 7.5 C-23.13577971 -1.21767287 -11.72105717 -5.1940371 0 0 Z M-16.8125 17.125 C-18.92456506 20.21186432 -19.04945145 21.8282913 -18.4375 25.5 C-16.9375 28 -16.9375 28 -14.4375 29.5 C-10.7657913 30.11195145 -9.14936432 29.98706506 -6.0625 27.875 C-3.95043494 24.78813568 -3.82554855 23.1717087 -4.4375 19.5 C-5.9375 17 -5.9375 17 -8.4375 15.5 C-12.1092087 14.88804855 -13.72563568 15.01293494 -16.8125 17.125 Z M-76.4375 71.5 C-76.7675 72.16 -77.0975 72.82 -77.4375 73.5 C-74.72907934 73.35567373 -72.0207734 73.20954564 -69.3125 73.0625 C-68.57128906 73.02318359 -67.83007812 72.98386719 -67.06640625 72.94335938 C-63.50640558 72.74890556 -59.95121978 72.5411838 -56.39707947 72.2562561 C-47.61362771 71.55605854 -38.88245352 71.33678375 -30.07421875 71.33203125 C-28.62954173 71.32880049 -27.18486501 71.32543522 -25.7401886 71.32194519 C-22.7274195 71.31600776 -19.71467882 71.31409941 -16.7019043 71.31469727 C-13.67026745 71.31477804 -10.63878327 71.30790415 -7.60717773 71.29418945 C9.22487416 71.21907706 25.85578968 71.4486059 42.62963867 73.0690918 C46.63379577 73.45297783 50.54193345 73.58784898 54.5625 73.5 C38.09020693 55.96497834 15.74109886 47.57024613 -7.97265625 46.3125 C-34.03219906 45.84242933 -56.92370297 54.51226084 -76.4375 71.5 Z M-91.75 92 C-92.99342163 92.15927979 -92.99342163 92.15927979 -94.26196289 92.32177734 C-100.23904414 93.19522815 -104.43916006 94.95491917 -108.4375 99.5 C-109.33302725 102.43193167 -110.05064383 105.25955693 -110.6875 108.25 C-110.99892944 109.67566284 -110.99892944 109.67566284 -111.31665039 111.13012695 C-120.75021532 155.44490688 -126.78364037 200.36067084 -130.4375 245.5 C-130.52484406 246.56175446 -130.52484406 246.56175446 -130.61395264 247.6449585 C-133.95063959 288.4531405 -134.0439896 329.60893714 -132.4375 370.5 C-132.36288677 372.69660122 -132.28862524 374.89321444 -132.21484375 377.08984375 C-132.14525966 378.89330866 -132.07387031 380.69670557 -132 382.5 C-131.97309082 383.24709229 -131.94618164 383.99418457 -131.91845703 384.76391602 C-131.69481042 389.25343448 -130.99492364 393.27647827 -129.4375 397.5 C-125.44567935 400.16121377 -121.9623428 399.7835915 -117.32727051 399.76742554 C-116.38352334 399.77195665 -115.43977616 399.77648776 -114.46743059 399.78115618 C-111.29138894 399.79386039 -108.11551744 399.79217595 -104.93945312 399.79052734 C-102.66804279 399.79650875 -100.39663449 399.80331339 -98.12522888 399.81088257 C-91.94563929 399.82858711 -85.76610504 399.83323976 -79.58649254 399.83451414 C-74.43453333 399.8364101 -69.2825871 399.84376396 -64.13063288 399.85085833 C-52.67557821 399.8662245 -41.2205597 399.87219472 -29.76549739 399.87084763 C-29.07798579 399.87076772 -28.39047419 399.8706878 -27.68212891 399.87060547 C-26.99378033 399.87052371 -26.30543175 399.87044195 -25.59622413 399.87035771 C-14.43392569 399.86954434 -3.27176205 399.88869427 7.89049739 399.9168822 C19.34555961 399.94558192 30.80052873 399.95905752 42.25563288 399.95769465 C48.68939906 399.95718354 55.12301268 399.96294905 61.55674744 399.98405075 C67.60436926 400.003344 73.65169157 400.00361887 79.69932365 399.98901749 C81.92339958 399.98691732 84.14749382 399.99170146 86.37153816 400.0037384 C89.3988067 400.0190661 92.42502622 400.00996569 95.45227051 399.99447632 C96.78430677 400.00990701 96.78430677 400.00990701 98.14325285 400.02564943 C102.80968213 400.0460613 102.80968213 400.0460613 106.59096527 397.60412025 C109.00219958 392.38194261 108.8476395 386.72300428 109.0859375 381.06640625 C109.12705658 380.14138809 109.16817566 379.21636993 109.21054077 378.26332092 C112.93932922 291.48278921 107.05880612 205.27118456 90.3125 120 C90.14591888 119.14021545 89.97933777 118.28043091 89.80770874 117.39459229 C89.33622902 114.97937981 88.85063202 112.56750815 88.359375 110.15625 C88.22209488 109.45011566 88.08481476 108.74398132 87.94337463 108.01644897 C86.84594016 102.7765999 84.9698396 97.79295533 80.5625 94.5 C28.25257383 78.78519603 -38.36665576 84.84390163 -91.75 92 Z M-197.4375 135.5 C-193.29228432 140.40003493 -189.02683284 145.14278245 -184.625 149.8125 C-179.926788 154.82040319 -175.28005207 159.86499731 -170.703125 164.984375 C-167.51338942 168.5260814 -164.27876291 172.02555509 -161.03662109 175.51928711 C-158.45683767 178.30134994 -155.89500349 181.09634167 -153.3671875 183.92578125 C-152.87460449 184.47379395 -152.38202148 185.02180664 -151.87451172 185.58642578 C-150.51643926 187.09954831 -149.16428285 188.61797463 -147.8125 190.13671875 C-145.65672349 192.2818582 -144.13629781 193.25771319 -141.4375 194.5 C-141.28192627 193.37432617 -141.12635254 192.24865234 -140.96606445 191.08886719 C-140.23412573 185.80829285 -139.49390683 180.52890084 -138.75 175.25 C-138.61599792 174.29871216 -138.48199585 173.34742432 -138.34393311 172.36730957 C-136.47231765 159.13943894 -134.42770378 145.97675447 -131.91137695 132.85449219 C-130.99300455 128.00657838 -130.14657579 123.4628248 -130.4375 118.5 C-153.21298375 118.06835761 -177.15546815 125.55545681 -197.4375 135.5 Z M108.5625 125.5 C108.68625 126.799375 108.81 128.09875 108.9375 129.4375 C109.04191406 130.53384766 109.04191406 130.53384766 109.1484375 131.65234375 C109.28507812 132.59207031 109.42171875 133.53179687 109.5625 134.5 C109.62477783 135.20334473 109.68705566 135.90668945 109.7512207 136.63134766 C110.2301062 140.10263408 110.6509806 142.62320135 113.23535156 145.10913086 C115.43385847 146.55089781 117.66629444 147.78958158 120 149 C121.64554805 149.92588548 123.28749405 150.85820181 124.92578125 151.796875 C125.72322754 152.24998047 126.52067383 152.70308594 127.34228516 153.16992188 C132.18660413 156.07203863 136.33603014 159.77328164 140.5625 163.5 C141.26375 164.06976563 141.965 164.63953125 142.6875 165.2265625 C168.51596087 186.51486423 182.75975685 222.44223981 186.01171875 254.94140625 C186.09325195 255.73458252 186.17478516 256.52775879 186.25878906 257.3449707 C186.41458394 258.89834659 186.5592648 260.45289572 186.69042969 262.00854492 C187.41440754 269.50605285 189.2653832 275.71988397 194.4375 281.375 C195.09492188 282.11492187 195.75234375 282.85484375 196.4296875 283.6171875 C198.72250873 285.64125313 200.72152973 286.44086378 203.5625 287.5 C204.63636547 237.49917144 193.97592045 195.5777878 159.125 158.05859375 C154.88806109 153.82811359 150.31526191 150.13170084 145.5625 146.5 C144.71171875 145.83355469 143.8609375 145.16710937 142.984375 144.48046875 C132.58386021 136.58666486 120.94210658 129.75548976 108.5625 125.5 Z M-130.375 420.1875 C-134.71967381 427.16530945 -135.09885262 435.61099369 -136.0625 443.625 C-136.1965625 444.68332031 -136.330625 445.74164063 -136.46875 446.83203125 C-137.07288832 451.74527863 -137.62633784 456.53871498 -137.4375 461.5 C-135.14412251 462.64668875 -133.87315009 462.62529042 -131.32388306 462.62584114 C-130.45725225 462.62844889 -129.59062145 462.63105664 -128.69772911 462.63374341 C-127.26108123 462.63039732 -127.26108123 462.63039732 -125.79541016 462.62698364 C-124.78239145 462.62854363 -123.76937275 462.63010362 -122.72565651 462.63171089 C-119.30927732 462.63572008 -115.89294207 462.63253154 -112.4765625 462.62939453 C-110.03619358 462.63074861 -107.59582487 462.63252857 -105.15545654 462.63470459 C-99.2020189 462.63880253 -93.2485987 462.6381869 -87.29516172 462.63529195 C-82.45826838 462.63303696 -77.62137858 462.63272581 -72.78448486 462.63381577 C-72.0970437 462.633969 -71.40960254 462.63412223 -70.70132983 462.63428011 C-69.30496836 462.63459982 -67.90860689 462.63492403 -66.51224542 462.6352527 C-53.40715352 462.63810678 -40.30206861 462.6348216 -27.19697785 462.62945233 C-15.94316403 462.62498436 -4.68936052 462.62576031 6.56445312 462.63037109 C19.62146741 462.63571813 32.67847557 462.63783209 45.7354908 462.63475883 C47.12682215 462.63444027 48.51815351 462.6341259 49.90948486 462.63381577 C50.93642678 462.63358435 50.93642678 462.63358435 51.984115 462.63334826 C56.81727201 462.6324835 61.65042514 462.63394512 66.48358154 462.63629532 C72.98416463 462.63938673 79.48473118 462.63719747 85.98531342 462.63140106 C88.37750974 462.63007372 90.7697077 462.63046715 93.16190338 462.63266373 C96.41476154 462.63537621 99.6675561 462.63199285 102.92041016 462.62698364 C103.87817541 462.62921436 104.83594067 462.63144509 105.82272911 462.63374341 C107.12267531 462.62983178 107.12267531 462.62983178 108.44888306 462.62584114 C109.20040461 462.62567879 109.95192616 462.62551644 110.72622108 462.62534916 C112.65993939 462.61180577 112.65993939 462.61180577 114.5625 461.5 C114.13984264 452.95940648 113.30183631 444.48373262 112.25 436 C112.09180786 434.58533447 112.09180786 434.58533447 111.93041992 433.14208984 C110.99757758 425.97729802 109.46194693 421.78254333 103.625 417.1875 C98.21553002 414.20677165 92.96039419 414.35308811 86.89752197 414.35955811 C86.02571974 414.35658698 85.1539175 414.35361586 84.25569701 414.3505547 C81.33484296 414.34188413 78.41402997 414.34036084 75.49316406 414.33886719 C73.39868075 414.33423787 71.30419828 414.32921305 69.2097168 414.32382202 C63.51950773 414.31070732 57.82931045 414.30425491 52.13908863 414.29981136 C48.58326115 414.29687924 45.02743688 414.29277417 41.47161102 414.28830719 C30.34385005 414.27463492 19.21609644 414.26496685 8.08832765 414.2611053 C-4.75267372 414.2566246 -17.59356865 414.23907496 -30.43453765 414.2101047 C-40.36336159 414.18848275 -50.29215559 414.17840075 -60.22100282 414.17706418 C-66.14965295 414.17601656 -72.07820298 414.17011765 -78.00682831 414.15224457 C-83.58496835 414.13575503 -89.16293313 414.13361276 -94.74108887 414.14238358 C-96.7852653 414.14315346 -98.82945118 414.13881764 -100.87360382 414.12892532 C-103.67080588 414.11618555 -106.46738908 414.12209371 -109.2645874 414.13250732 C-110.06762417 414.12445092 -110.87066093 414.11639452 -111.69803214 414.10809398 C-118.72944035 414.16903958 -125.08891306 415.3512928 -130.375 420.1875 Z " fill="#000000" transform="translate(267.4375,17.5)"/>
<path d="M0 0 C7.65772759 5.27289242 12.31932938 11.06316649 15 20 C15.93921696 26.68900216 15.69496694 33.50613323 15.6628418 40.24389648 C15.67126525 42.28514539 15.6817949 44.32638652 15.69425964 46.36761475 C15.7212211 51.88632715 15.71662978 57.40458586 15.70455909 62.92333484 C15.69740738 67.54052534 15.70594092 72.15763302 15.71446449 76.77481705 C15.7343894 87.67165045 15.72887825 98.56826432 15.70678711 109.46508789 C15.68442522 120.685728 15.7020264 131.90579271 15.73983639 143.12637848 C15.77112039 152.78110479 15.77897116 162.43565346 15.76788265 172.09042412 C15.76141149 177.84757605 15.76332198 183.60439612 15.78720665 189.36150932 C15.80853049 194.77663703 15.80038704 200.19095601 15.77011299 205.60603333 C15.7638105 207.5860545 15.76758577 209.56613912 15.78252411 211.54611397 C15.8674387 223.80000007 15.35528804 233.76574657 6.85135937 243.44580746 C0.21823731 250.12881369 -7.66946103 253.11374224 -17 253.5 C-27.12500437 253.06831377 -34.1501711 249.48956665 -41.7109375 242.90234375 C-50.05977103 232.3167067 -49.72412351 221.60901548 -49.6628418 208.75610352 C-49.67126525 206.71485461 -49.6817949 204.67361348 -49.69425964 202.63238525 C-49.7212211 197.11367285 -49.71662978 191.59541414 -49.70455909 186.07666516 C-49.69740738 181.45947466 -49.70594092 176.84236698 -49.71446449 172.22518295 C-49.7343894 161.32834955 -49.72887825 150.43173568 -49.70678711 139.53491211 C-49.68442522 128.314272 -49.7020264 117.09420729 -49.73983639 105.87362152 C-49.77112039 96.21889521 -49.77897116 86.56434654 -49.76788265 76.90957588 C-49.76141149 71.15242395 -49.76332198 65.39560388 -49.78720665 59.63849068 C-49.80853049 54.22336297 -49.80038704 48.80904399 -49.77011299 43.39396667 C-49.7638105 41.4139455 -49.76758577 39.43386088 -49.78252411 37.45388603 C-49.8674387 25.19999993 -49.35528804 15.23425343 -40.85135937 5.55419254 C-29.89554985 -5.48400978 -13.55601628 -7.33293279 0 0 Z M-30.9375 20.4375 C-33.14292896 25.75647574 -33.14592852 31.23738686 -33.13371277 36.91879272 C-33.13597833 37.69823325 -33.13824388 38.47767377 -33.14057809 39.2807337 C-33.14688972 41.88297181 -33.14609056 44.48515745 -33.14526367 47.08740234 C-33.14825691 48.95705736 -33.15165982 50.82671177 -33.15544128 52.69636536 C-33.1642682 57.7687028 -33.16661884 62.84102337 -33.16725707 67.91336775 C-33.16796826 71.08375314 -33.17010388 74.25413426 -33.17275429 77.42451859 C-33.18200303 88.48874432 -33.18608972 99.55295802 -33.18530273 110.6171875 C-33.1847019 120.92477898 -33.19525597 131.23231813 -33.2110464 141.53989637 C-33.22412796 150.39527329 -33.22948638 159.25063311 -33.22884732 168.10601962 C-33.22859254 173.39240842 -33.23143307 178.67875069 -33.24202538 183.96512985 C-33.25171681 188.9375235 -33.25177833 193.90982625 -33.24450874 198.88222313 C-33.24346424 200.70428411 -33.24581781 202.52635079 -33.2518692 204.34840202 C-33.25961109 206.84145426 -33.25492989 209.33419426 -33.24723816 211.82723999 C-33.25238172 212.54301566 -33.25752529 213.25879134 -33.26282471 213.99625719 C-33.22095359 220.16527698 -32.69641736 225.93678969 -28.6875 230.8125 C-24.19658214 234.46789826 -21.18120522 236.65884055 -15.125 236.41796875 C-10.09111781 235.42784854 -6.20500483 232.51597382 -3.0625 228.5625 C-0.35481352 222.03219732 -0.88193724 215.06607046 -0.9375 208.125 C-0.94201172 207.05507813 -0.94652344 205.98515625 -0.95117188 204.8828125 C-0.96290251 202.25515014 -0.97931772 199.62760462 -1 197 C-1.74765625 196.96261719 -2.4953125 196.92523438 -3.265625 196.88671875 C-4.74289063 196.78810547 -4.74289063 196.78810547 -6.25 196.6875 C-7.22453125 196.62949219 -8.1990625 196.57148438 -9.203125 196.51171875 C-12.28675358 195.94753531 -13.74468093 195.14479001 -16 193 C-16.53125 190.84375 -16.53125 190.84375 -16.5 188.5 C-16.5103125 187.7265625 -16.520625 186.953125 -16.53125 186.15625 C-16 184 -16 184 -14.328125 182.26171875 C-11.53083183 180.74573604 -9.41561754 180.50092962 -6.25 180.3125 C-5.26515625 180.24675781 -4.2803125 180.18101562 -3.265625 180.11328125 C-2.14414063 180.05720703 -2.14414063 180.05720703 -1 180 C-1 177.69 -1 175.38 -1 173 C-1.74765625 172.96261719 -2.4953125 172.92523438 -3.265625 172.88671875 C-4.74289063 172.78810547 -4.74289063 172.78810547 -6.25 172.6875 C-7.22453125 172.62949219 -8.1990625 172.57148438 -9.203125 172.51171875 C-12.33726557 171.93829359 -13.79596887 171.29157442 -16 169 C-16.53125 166.84375 -16.53125 166.84375 -16.5 164.5 C-16.5103125 163.7265625 -16.520625 162.953125 -16.53125 162.15625 C-16 160 -16 160 -14.328125 158.26171875 C-11.53083183 156.74573604 -9.41561754 156.50092962 -6.25 156.3125 C-5.26515625 156.24675781 -4.2803125 156.18101562 -3.265625 156.11328125 C-2.14414063 156.05720703 -2.14414063 156.05720703 -1 156 C-1 153.69 -1 151.38 -1 149 C-1.74765625 148.96261719 -2.4953125 148.92523438 -3.265625 148.88671875 C-4.74289063 148.78810547 -4.74289063 148.78810547 -6.25 148.6875 C-7.22453125 148.62949219 -8.1990625 148.57148438 -9.203125 148.51171875 C-12.33726557 147.93829359 -13.79596887 147.29157442 -16 145 C-16.53125 142.84375 -16.53125 142.84375 -16.5 140.5 C-16.5103125 139.7265625 -16.520625 138.953125 -16.53125 138.15625 C-16 136 -16 136 -14.328125 134.26171875 C-11.53083183 132.74573604 -9.41561754 132.50092962 -6.25 132.3125 C-5.26515625 132.24675781 -4.2803125 132.18101562 -3.265625 132.11328125 C-2.14414063 132.05720703 -2.14414063 132.05720703 -1 132 C-1 129.69 -1 127.38 -1 125 C-1.55461914 124.98541748 -2.10923828 124.97083496 -2.68066406 124.95581055 C-5.20446242 124.88113103 -7.72696654 124.78453975 -10.25 124.6875 C-11.12269531 124.66494141 -11.99539062 124.64238281 -12.89453125 124.61914062 C-16.51571501 124.46710619 -19.29642504 124.34432532 -22.578125 122.73828125 C-24.3775351 120.53845296 -24.53764588 119.32344129 -24.5 116.5 C-24.5103125 115.7265625 -24.520625 114.953125 -24.53125 114.15625 C-24 112 -24 112 -22.578125 110.26171875 C-18.59248676 108.31117155 -14.63376198 108.42581733 -10.25 108.3125 C-9.36183594 108.27833984 -8.47367188 108.24417969 -7.55859375 108.20898438 C-5.37252197 108.12671286 -3.18684049 108.05749828 -1 108 C-1 105.69 -1 103.38 -1 101 C-1.74765625 100.96261719 -2.4953125 100.92523438 -3.265625 100.88671875 C-4.25046875 100.82097656 -5.2353125 100.75523437 -6.25 100.6875 C-7.22453125 100.62949219 -8.1990625 100.57148438 -9.203125 100.51171875 C-12.33726557 99.93829359 -13.79596887 99.29157442 -16 97 C-16.53125 94.84375 -16.53125 94.84375 -16.5 92.5 C-16.5103125 91.7265625 -16.520625 90.953125 -16.53125 90.15625 C-16 88 -16 88 -14.328125 86.26171875 C-11.53083183 84.74573604 -9.41561754 84.50092962 -6.25 84.3125 C-5.26515625 84.24675781 -4.2803125 84.18101562 -3.265625 84.11328125 C-2.14414063 84.05720703 -2.14414063 84.05720703 -1 84 C-1 81.69 -1 79.38 -1 77 C-1.74765625 76.96261719 -2.4953125 76.92523438 -3.265625 76.88671875 C-4.74289063 76.78810547 -4.74289063 76.78810547 -6.25 76.6875 C-7.71179688 76.60048828 -7.71179688 76.60048828 -9.203125 76.51171875 C-12.33726557 75.93829359 -13.79596887 75.29157442 -16 73 C-16.53125 70.84375 -16.53125 70.84375 -16.5 68.5 C-16.5103125 67.7265625 -16.520625 66.953125 -16.53125 66.15625 C-16 64 -16 64 -14.328125 62.26171875 C-11.53083183 60.74573604 -9.41561754 60.50092962 -6.25 60.3125 C-5.26515625 60.24675781 -4.2803125 60.18101562 -3.265625 60.11328125 C-2.14414063 60.05720703 -2.14414063 60.05720703 -1 60 C-1 57.69 -1 55.38 -1 53 C-1.74765625 52.96261719 -2.4953125 52.92523438 -3.265625 52.88671875 C-4.74289063 52.78810547 -4.74289063 52.78810547 -6.25 52.6875 C-7.71179688 52.60048828 -7.71179688 52.60048828 -9.203125 52.51171875 C-12.33726557 51.93829359 -13.79596887 51.29157442 -16 49 C-16.53125 46.84375 -16.53125 46.84375 -16.5 44.5 C-16.5103125 43.7265625 -16.520625 42.953125 -16.53125 42.15625 C-16 40 -16 40 -14.328125 38.26171875 C-11.53083183 36.74573604 -9.41561754 36.50092962 -6.25 36.3125 C-5.26515625 36.24675781 -4.2803125 36.18101562 -3.265625 36.11328125 C-2.51796875 36.07589844 -1.7703125 36.03851563 -1 36 C-1.00319935 25.63672278 -1.00319935 25.63672278 -6 17 C-9.94956415 13.82230498 -13.7449486 12.26358669 -18.9453125 12.546875 C-23.93683603 13.64766726 -27.79904384 16.48911967 -30.9375 20.4375 Z " fill="#000000" transform="translate(225,154)"/>
<path d="M0 0 C6.0361202 3.16177725 9.8963338 10.68900139 12 17 C12.7447786 27.29259599 12.58900655 34.60069684 5.765625 42.62890625 C4.17675563 44.40752913 2.56460646 46.16573523 0.92578125 47.8984375 C-1.55489413 50.6055437 -1.95631763 51.54570337 -2.3125 55.25 C-1.94175574 59.69893111 -0.60053464 61.43355249 2 65 C5.25729356 70.77906922 5.25729356 70.77906922 4.5859375 73.96484375 C2.68605769 78.65697115 2.68605769 78.65697115 0 80 C-6.91752577 80.56701031 -6.91752577 80.56701031 -10.625 78.625 C-18.07639092 70.38925214 -20.50632374 62.67638224 -20.265625 51.7265625 C-19.64413936 43.00748458 -14.77171796 38.28237283 -8.92578125 32.1015625 C-6.44510587 29.3944563 -6.04368237 28.45429663 -5.6875 24.75 C-6.05824426 20.30106889 -7.39946536 18.56644751 -10 15 C-13.25729356 9.22093078 -13.25729356 9.22093078 -12.5859375 6.03515625 C-9.99278187 -0.36915235 -6.51216387 -0.84393613 0 0 Z " fill="#000000" transform="translate(52,48)"/>
<path d="M0 0 C6.0361202 3.16177725 9.8963338 10.68900139 12 17 C12.7447786 27.29259599 12.58900655 34.60069684 5.765625 42.62890625 C4.17675563 44.40752913 2.56460646 46.16573523 0.92578125 47.8984375 C-1.55489413 50.6055437 -1.95631763 51.54570337 -2.3125 55.25 C-1.94175574 59.69893111 -0.60053464 61.43355249 2 65 C5.25729356 70.77906922 5.25729356 70.77906922 4.5859375 73.96484375 C2.68605769 78.65697115 2.68605769 78.65697115 0 80 C-6.91752577 80.56701031 -6.91752577 80.56701031 -10.625 78.625 C-18.07639092 70.38925214 -20.50632374 62.67638224 -20.265625 51.7265625 C-19.64413936 43.00748458 -14.77171796 38.28237283 -8.92578125 32.1015625 C-6.44510587 29.3944563 -6.04368237 28.45429663 -5.6875 24.75 C-6.05824426 20.30106889 -7.39946536 18.56644751 -10 15 C-13.25729356 9.22093078 -13.25729356 9.22093078 -12.5859375 6.03515625 C-9.99278187 -0.36915235 -6.51216387 -0.84393613 0 0 Z " fill="#000000" transform="translate(92,32)"/>
<path d="M0 0 C6.0361202 3.16177725 9.8963338 10.68900139 12 17 C12.7447786 27.29259599 12.58900655 34.60069684 5.765625 42.62890625 C4.17675563 44.40752913 2.56460646 46.16573523 0.92578125 47.8984375 C-1.55489413 50.6055437 -1.95631763 51.54570337 -2.3125 55.25 C-1.94175574 59.69893111 -0.60053464 61.43355249 2 65 C5.25729356 70.77906922 5.25729356 70.77906922 4.5859375 73.96484375 C2.68605769 78.65697115 2.68605769 78.65697115 0 80 C-6.91752577 80.56701031 -6.91752577 80.56701031 -10.625 78.625 C-18.07639092 70.38925214 -20.50632374 62.67638224 -20.265625 51.7265625 C-19.64413936 43.00748458 -14.77171796 38.28237283 -8.92578125 32.1015625 C-6.44510587 29.3944563 -6.04368237 28.45429663 -5.6875 24.75 C-6.05824426 20.30106889 -7.39946536 18.56644751 -10 15 C-13.25729356 9.22093078 -13.25729356 9.22093078 -12.5859375 6.03515625 C-9.99278187 -0.36915235 -6.51216387 -0.84393613 0 0 Z " fill="#000000" transform="translate(132,16)"/>
</svg>
