<?xml version="1.0" standalone="no"?>
<!DOCTYPE svg PUBLIC "-//W3C//DTD SVG 20010904//EN"
 "http://www.w3.org/TR/2001/REC-SVG-20010904/DTD/svg10.dtd">
<svg version="1.0" xmlns="http://www.w3.org/2000/svg"
 width="512.000000pt" height="512.000000pt" viewBox="0 0 512.000000 512.000000"
 preserveAspectRatio="xMidYMid meet">

<g transform="translate(0.000000,512.000000) scale(0.100000,-0.100000)"
fill="#000000" stroke="none">
<path d="M1475 4445 c-14 -13 -25 -34 -25 -47 0 -13 22 -61 49 -108 l48 -85
-42 -40 c-59 -55 -72 -104 -51 -194 l15 -66 -219 -219 -218 -219 -46 13 c-55
15 -150 9 -192 -13 -42 -22 -92 -75 -116 -121 -25 -49 -30 -145 -9 -194 l14
-34 -186 -186 c-205 -205 -212 -218 -161 -269 47 -47 69 -33 270 168 152 152
185 180 203 174 l21 -6 0 -535 0 -534 -113 0 c-101 0 -118 -3 -165 -26 -65
-32 -108 -90 -124 -165 l-12 -57 -140 -4 c-164 -4 -202 -17 -244 -81 -26 -38
-27 -47 -27 -162 0 -119 1 -122 29 -159 49 -64 88 -76 263 -76 l152 0 3 -256
c3 -255 3 -256 27 -275 32 -26 73 -24 99 4 21 23 22 30 22 275 l0 252 155 0
c85 0 155 -1 155 -3 0 -1 -36 -105 -80 -231 -44 -127 -80 -238 -80 -248 0 -27
45 -68 73 -68 52 0 66 26 157 290 l88 255 255 5 c233 5 257 7 276 24 29 26 28
76 -2 104 l-23 22 -710 2 -709 3 -3 75 c-2 62 0 77 14 87 26 19 4762 19 4788
0 14 -10 16 -25 14 -87 l-3 -75 -1580 -5 c-869 -3 -1581 -6 -1582 -8 -1 -1
-10 -16 -19 -33 -19 -37 -6 -79 29 -98 16 -8 320 -12 1131 -14 l1108 -2 88
-255 c91 -264 105 -290 157 -290 28 0 73 41 73 67 0 10 -36 122 -80 248 -44
127 -80 231 -80 233 0 1 70 2 155 2 l155 0 0 -253 c0 -252 0 -254 23 -275 29
-27 67 -28 98 -3 24 19 24 20 27 275 l3 256 150 0 c194 0 236 16 281 104 17
33 19 54 16 146 -3 96 -6 111 -30 147 -52 79 -46 78 -545 81 l-443 3 0 32 c0
38 -33 113 -63 146 -39 42 -115 71 -187 71 l-66 0 -60 143 -61 142 486 5 c484
5 486 5 534 28 55 28 100 78 116 131 8 27 11 281 11 893 l0 854 -27 55 c-19
35 -43 64 -71 84 l-44 30 -1294 3 c-1421 2 -1320 7 -1386 -56 l-27 -25 -37 33
c-68 59 -132 74 -200 45 -20 -8 -40 -13 -44 -10 -5 3 -29 41 -54 85 -61 106
-101 126 -151 75z m552 -497 c124 -117 240 -225 257 -240 21 -17 28 -30 21
-36 -14 -14 -549 -322 -552 -318 -7 7 -160 681 -157 691 5 13 174 114 192 114
7 1 114 -95 239 -211z m2613 182 c20 -20 20 -33 20 -695 l0 -676 -25 -24 -24
-25 -1249 0 c-1450 0 -1292 -14 -1301 118 -7 93 -21 115 -72 115 -23 0 -39 -8
-56 -27 -23 -27 -23 -30 -23 -255 0 -262 8 -305 67 -366 70 -72 52 -70 596
-73 377 -2 488 -6 484 -15 -3 -7 -31 -72 -62 -144 l-57 -133 -67 0 c-80 0
-131 -22 -183 -75 -37 -39 -68 -107 -68 -152 l0 -23 -614 0 -613 0 -7 49 c-10
72 -58 139 -125 174 -50 25 -64 27 -168 27 l-113 0 0 533 0 534 41 18 c74 34
139 136 139 220 0 18 -6 52 -14 77 l-13 46 187 187 188 188 30 -129 c17 -71
40 -171 52 -222 25 -106 49 -141 112 -167 50 -20 94 -14 154 21 22 13 44 24
47 24 4 0 7 -24 7 -54 0 -69 26 -106 76 -106 62 0 74 24 74 148 l0 107 165 93
c207 118 235 145 235 226 0 68 -19 92 -206 267 -176 164 -184 173 -168 190 16
18 62 19 1276 19 1245 0 1258 0 1278 -20z m-3687 -801 c28 -13 57 -58 57 -89
0 -11 -7 -34 -15 -50 -40 -77 -154 -66 -186 18 -31 81 62 159 144 121z m3707
-837 c0 -82 -15 -107 -72 -117 -18 -3 -584 -4 -1256 -3 l-1224 3 -24 28 c-20
24 -24 39 -24 95 l0 67 1300 0 1300 0 0 -73z m-1105 -404 c31 -73 59 -139 62
-145 4 -10 -50 -13 -251 -13 -167 0 -256 4 -256 10 0 6 26 71 58 145 l57 135
136 0 137 0 57 -132z m-2360 -314 c18 -7 45 -54 45 -79 0 -13 -39 -15 -335
-15 -324 0 -335 1 -335 19 0 11 12 33 26 50 l26 31 278 0 c153 0 286 -3 295
-6z m2729 -19 c15 -14 26 -35 26 -50 l0 -25 -590 0 -590 0 0 21 c0 11 13 34
29 50 l29 29 535 0 534 0 27 -25z"/>
</g>
</svg>
