<?xml version="1.0" encoding="UTF-8"?>
<svg version="1.1" xmlns="http://www.w3.org/2000/svg" width="512" height="512">
<path d="M0 0 C3.39846622 1.17905971 3.74396748 1.64775778 5.4375 4.625 C5.97375 5.759375 6.51 6.89375 7.0625 8.0625 C8.78726563 7.82466797 8.78726563 7.82466797 10.546875 7.58203125 C35.91279585 4.44748045 60.69280338 10.48055259 81.0625 26.0625 C99.24748205 40.93389203 113.82972547 61.82013119 116.34375 85.73828125 C116.4375 88.1875 116.4375 88.1875 116.0625 92.0625 C112.79651776 94.23982149 112.08128883 94.27784115 108.34375 94.1171875 C107.41675293 94.08955322 106.48975586 94.06191895 105.53466797 94.03344727 C104.55385254 94.00178467 103.57303711 93.97012207 102.5625 93.9375 C89.70759359 93.75421351 81.7773396 96.67178167 70.88671875 103.4765625 C65.41285341 106.55040666 62.17103205 107.12324056 56.0625 106.0625 C54.11842048 105.98598087 52.17211922 105.95438377 50.2265625 105.96484375 C48.63134766 105.96967773 48.63134766 105.96967773 47.00390625 105.97460938 C45.36228516 105.98717773 45.36228516 105.98717773 43.6875 106 C42.56988281 106.00451172 41.45226562 106.00902344 40.30078125 106.01367188 C37.55463196 106.02540756 34.80859414 106.04182637 32.0625 106.0625 C34.99992624 117.35018183 37.93908189 128.63741197 40.88020039 139.92413235 C42.24717073 145.17016513 43.61363554 150.41632829 44.97875977 155.6628418 C46.56362405 161.75352111 48.15027434 167.84373307 49.73828125 173.93359375 C50.13048544 175.43808641 50.13048544 175.43808641 50.53061295 176.97297287 C53.42028304 188.05072129 56.33483609 199.12116308 59.31005859 210.17626953 C59.5690541 211.13872243 59.8280496 212.10117533 60.09489346 213.09279346 C61.32412286 217.65620411 62.55761112 222.21841827 63.79670715 226.77915955 C64.23190606 228.38800985 64.66710215 229.99686092 65.10229492 231.60571289 C65.30259245 232.33790354 65.50288998 233.07009418 65.70925713 233.82447243 C67.0625 238.83675487 67.0625 238.83675487 67.0625 241.0625 C67.84456849 241.05973462 68.62663698 241.05696924 69.43240452 241.05412006 C88.47024154 240.98783948 107.5080555 240.93820931 126.54598331 240.90706348 C135.75262155 240.89160089 144.95918272 240.87052297 154.16577148 240.83618164 C162.19112765 240.8062607 170.216428 240.78692058 178.2418384 240.78023452 C182.4904337 240.77632682 186.73886933 240.76715586 190.98741341 240.74530983 C194.9887767 240.72490208 198.98991498 240.71867484 202.99132538 240.72317696 C204.45743725 240.72235367 205.92355688 240.7164135 207.38962364 240.70488358 C217.27624387 240.63096354 224.65667721 240.85683458 232.0625 248.0625 C236.51904879 253.60307418 236.73139972 258.65904892 236.5078125 265.6796875 C235.75373452 271.40803429 233.58488347 274.86576341 229.27734375 278.6171875 C224.54043939 282.17740861 221.10662761 283.18962755 215.30078125 283.16015625 C214.18251953 283.15693359 213.06425781 283.15371094 211.91210938 283.15039062 C210.16124023 283.13782227 210.16124023 283.13782227 208.375 283.125 C207.19615234 283.12048828 206.01730469 283.11597656 204.80273438 283.11132812 C201.88927211 283.09953273 198.97591137 283.0830727 196.0625 283.0625 C196.45630859 283.93986816 196.85011719 284.81723633 197.25585938 285.72119141 C198.72071394 288.99262813 200.17083354 292.27042499 201.61669922 295.55029297 C202.24326022 296.96612029 202.87374847 298.38021666 203.50830078 299.79248047 C204.42229703 301.82852548 205.32176055 303.8704781 206.21875 305.9140625 C206.50310913 306.53930817 206.78746826 307.16455383 207.08044434 307.80874634 C208.77004763 311.7048889 209.51150664 314.82248386 209.0625 319.0625 C207.375 321 207.375 321 205.0625 322.0625 C202.5 322 202.5 322 200.0625 321.0625 C191.91879077 310.20422103 188.36337399 296.55741725 183.0625 284.0625 C120.0325 283.7325 57.0025 283.4025 -7.9375 283.0625 C-8.9275 286.3625 -9.9175 289.6625 -10.9375 293.0625 C-12.61740969 297.59803307 -14.4972398 302.04314747 -16.375 306.5 C-16.85259766 307.66982422 -17.33019531 308.83964844 -17.82226562 310.04492188 C-18.29212891 311.16318359 -18.76199219 312.28144531 -19.24609375 313.43359375 C-19.66689209 314.44349365 -20.08769043 315.45339355 -20.52124023 316.49389648 C-22.03309931 319.23588395 -23.23071856 320.52120733 -25.9375 322.0625 C-29.30786311 321.82175978 -30.52548021 321.47451979 -32.9375 319.0625 C-33.46719603 314.1297057 -32.22998139 310.64688326 -30.3125 306.1328125 C-30.04614746 305.49761688 -29.77979492 304.86242126 -29.50537109 304.20797729 C-28.65934708 302.19678071 -27.79873194 300.19222447 -26.9375 298.1875 C-26.35839675 296.81812162 -25.78026151 295.44833344 -25.203125 294.078125 C-23.79241689 290.73476951 -22.36856135 287.3972028 -20.9375 284.0625 C-22.071875 284.03671875 -23.20625 284.0109375 -24.375 283.984375 C-41.65081027 283.41355878 -41.65081027 283.41355878 -47.38452148 277.59375 C-51.15833553 273.20466128 -54.29077346 268.61762976 -57.3125 263.6875 C-58.36630571 261.99424257 -59.42104185 260.30156393 -60.4765625 258.609375 C-61.31429199 257.26262695 -61.31429199 257.26262695 -62.16894531 255.88867188 C-65.30310348 250.88024905 -68.49753551 245.91049125 -71.6875 240.9375 C-73.04298862 238.82162731 -74.39845712 236.70574173 -75.75390625 234.58984375 C-77.14842411 232.41405392 -78.54295563 230.23827284 -79.9375 228.0625 C-82.13037308 224.64045063 -84.32283364 221.21813745 -86.51464844 217.79541016 C-87.88336618 215.65809502 -89.25248259 213.52103511 -90.62207031 211.38427734 C-92.39718177 208.6124431 -94.16799572 205.83791592 -95.9375 203.0625 C-96.69474365 201.88324951 -96.69474365 201.88324951 -97.46728516 200.68017578 C-98.14283447 199.61839111 -98.14283447 199.61839111 -98.83203125 198.53515625 C-99.2185083 197.9306665 -99.60498535 197.32617676 -100.00317383 196.70336914 C-103.04042169 191.36933651 -102.56011932 184.98088136 -101.9375 179.0625 C-99.66919392 173.05760673 -95.43824226 168.68637372 -89.61328125 165.984375 C-83.8449442 163.99703552 -77.30003128 164.08992287 -71.6875 166.5625 C-62.74666355 171.87281498 -58.11879332 181.4582417 -52.94140625 190.10546875 C-49.51082961 195.81336435 -45.94990181 201.44275223 -42.16244507 206.92146301 C-38.95340804 211.63269832 -36.35609938 216.21901056 -34.14331055 221.47802734 C-28.87055338 233.18317752 -28.87055338 233.18317752 -19.03998184 240.84322739 C-8.01985295 243.92739709 4.1011677 242.80923683 15.3918457 242.24267578 C19.86889017 242.04540588 24.34755819 241.99318777 28.828125 241.92773438 C37.58071616 241.77898323 46.3182685 241.47259001 55.0625 241.0625 C54.51192429 239.1653273 54.51192429 239.1653273 53.95022583 237.22982788 C50.22742389 224.33920045 46.73422056 211.40162236 43.3671875 198.4140625 C42.84748959 196.41728833 42.32755636 194.4205754 41.80740356 192.42391968 C40.45550067 187.23222931 39.10646672 182.03979814 37.75817871 176.84716797 C36.12220689 170.54856694 34.48309561 164.25078234 32.84411812 157.95296288 C31.56874956 153.05228115 30.29391633 148.15146295 29.02096558 143.25015259 C28.55548433 141.45924798 28.08999981 139.66834423 27.62451172 137.87744141 C27.4046353 137.03002695 27.18475887 136.1826125 26.95821953 135.30951881 C25.9366441 131.38105939 24.90322402 127.45668029 23.83648682 123.54022217 C23.64763979 122.84460867 23.45879276 122.14899517 23.2642231 121.43230247 C22.76176228 119.58848784 22.25439104 117.74601327 21.74661255 115.90365601 C21.0625 113.0625 21.0625 113.0625 21.0625 110.0625 C11.84019633 113.36923591 2.11481356 118.01018644 -4.9375 125.0625 C-6.67294358 125.18415996 -8.41292122 125.24221526 -10.15234375 125.2734375 C-11.23193359 125.30179687 -12.31152344 125.33015625 -13.42382812 125.359375 C-15.68930522 125.41065914 -17.9549483 125.45515239 -20.22070312 125.4921875 C-29.38096249 125.75189952 -37.47148078 127.06091963 -45.3125 132.0625 C-46.49972656 132.805 -46.49972656 132.805 -47.7109375 133.5625 C-49.95854097 135.03400633 -49.95854097 135.03400633 -52.0390625 136.734375 C-53.9375 138.0625 -53.9375 138.0625 -56.9375 138.3125 C-60.32883197 136.89944501 -60.61905272 136.42922203 -62.125 133.25 C-71.12816615 109.69171524 -69.83169872 83.91783051 -59.80419922 60.96484375 C-54.62098738 49.58805877 -47.79675919 40.79896973 -38.9375 32.0625 C-38.19757813 31.31226562 -37.45765625 30.56203125 -36.6953125 29.7890625 C-28.01086969 21.49787747 -16.7776989 14.48625836 -4.9375 12.0625 C-5.4325 11.0725 -5.4325 11.0725 -5.9375 10.0625 C-6.140625 8.1875 -6.140625 8.1875 -6.1875 6.0625 C-6.21328125 5.36125 -6.2390625 4.66 -6.265625 3.9375 C-6.15734375 3.31875 -6.0490625 2.7 -5.9375 2.0625 C-2.9375 0.0625 -2.9375 0.0625 0 0 Z M28.0625 18.0625 C28.8875 19.01125 29.7125 19.96 30.5625 20.9375 C31.73085308 22.31106732 32.89736602 23.68620101 34.0625 25.0625 C34.67738281 25.77664062 35.29226562 26.49078125 35.92578125 27.2265625 C49.57212061 43.58029183 57.82415257 62.78939978 63.80517578 83.06665039 C64.07313965 83.96375732 64.34110352 84.86086426 64.6171875 85.78515625 C64.84905762 86.58703369 65.08092773 87.38891113 65.31982422 88.21508789 C65.90469131 90.25987461 65.90469131 90.25987461 68.0625 91.0625 C70.13751997 90.20133732 72.17433764 89.24723936 74.1875 88.25 C84.23006105 83.51377033 93.07841053 82.60598359 104.0625 82.0625 C97.33382763 58.96503813 84.40970152 39.60666022 62.875 27.75 C52.08846688 22.10277628 40.23232607 18.64201553 28.0625 18.0625 Z M9.0625 21.0625 C12.4268091 36.02331541 16.36582454 50.83119114 20.29058838 65.65283203 C21.17066147 68.97839883 22.04812002 72.3046554 22.92578125 75.63085938 C24.63526739 82.10880627 26.34897097 88.58561602 28.0625 95.0625 C37.3025 94.7325 46.5425 94.4025 56.0625 94.0625 C48.83553702 68.4067814 38.30313578 36.25619832 13.6875 22.125 C11.22549734 20.93743575 11.22549734 20.93743575 9.0625 21.0625 Z M-2.9375 25.0625 C-16.56075386 50.76675257 -14.08084862 82.68698763 -5.9375 110.0625 C-1.40768288 108.35715708 2.86886334 106.23361788 7.1875 104.0625 C7.90292969 103.70671875 8.61835938 103.3509375 9.35546875 102.984375 C10.04511719 102.63890625 10.73476562 102.2934375 11.4453125 101.9375 C12.06809082 101.62554687 12.69086914 101.31359375 13.33251953 100.9921875 C15.31947948 99.95960657 15.31947948 99.95960657 18.0625 98.0625 C15.62926404 88.68963731 13.18736212 79.31908903 10.73424721 69.95140934 C9.59554364 65.6019331 8.45988457 61.25170838 7.33105469 56.8996582 C6.2423423 52.70272861 5.14580144 48.50791783 4.04371262 44.31448174 C3.62383668 42.71118113 3.20682686 41.10712721 2.79268265 39.5023365 C2.21383523 37.2613185 1.62501708 35.02315283 1.03369141 32.78540039 C0.70059967 31.50854874 0.36750793 30.23169708 0.02432251 28.91615295 C-0.60762093 25.93379767 -0.60762093 25.93379767 -2.9375 25.0625 Z M-19.9375 31.0625 C-39.51582179 46.13706335 -53.06899524 65.16256942 -56.34375 90.1640625 C-57.42425248 101.04275797 -56.19097798 111.38920886 -53.9375 122.0625 C-50.55280756 121.34405113 -47.60557673 120.06311227 -44.4375 118.6875 C-35.57622282 115.193625 -26.34174556 114.21576242 -16.9375 113.0625 C-17.63794067 107.02119924 -18.64100701 101.11140797 -19.83203125 95.15039062 C-21.75392887 85.25941246 -22.16173155 75.57420618 -22.1875 65.5 C-22.19150314 64.50545303 -22.19150314 64.50545303 -22.19558716 63.49081421 C-22.21323644 54.29498437 -21.69130339 45.72796712 -19.49609375 36.80078125 C-18.68486279 33.98796608 -18.68486279 33.98796608 -19.9375 31.0625 Z M-88.9375 179.0625 C-91.47398933 182.86723399 -91.43219138 184.53630506 -90.9375 189.0625 C-89.67798171 191.99445694 -87.99843085 194.58713773 -86.25 197.25 C-85.51003784 198.41740723 -85.51003784 198.41740723 -84.75512695 199.60839844 C-83.16614019 202.10441834 -81.55417449 204.58433998 -79.9375 207.0625 C-78.89286311 208.67814879 -77.84859019 210.29403298 -76.8046875 211.91015625 C-74.65322318 215.23230451 -72.49121188 218.54733926 -70.32421875 221.859375 C-66.81634875 227.23166009 -63.37436801 232.64461975 -59.9375 238.0625 C-58.77233593 239.8920548 -57.60697163 241.72148209 -56.44140625 243.55078125 C-54.06016425 247.2894977 -51.69644255 251.03868075 -49.33984375 254.79296875 C-48.18535896 256.61227314 -47.03042837 258.43129473 -45.875 260.25 C-45.35099609 261.09369141 -44.82699219 261.93738281 -44.28710938 262.80664062 C-43.53977539 263.97549805 -43.53977539 263.97549805 -42.77734375 265.16796875 C-42.34800537 265.85012451 -41.91866699 266.53228027 -41.47631836 267.23510742 C-39.03755667 270.13120948 -36.66583603 271.83642478 -32.82254219 272.33914733 C-30.13251977 272.45047364 -27.45732615 272.46209408 -24.76501465 272.44345093 C-23.73113161 272.4481309 -22.69724856 272.45281087 -21.63203573 272.45763266 C-18.16276367 272.46961217 -14.69388447 272.46011363 -11.22460938 272.45068359 C-8.73940296 272.45474797 -6.25419836 272.46008909 -3.76899719 272.46661377 C2.28334259 272.47888625 8.33552783 272.47707201 14.38786161 272.46837585 C19.30666417 272.46160094 24.22543545 272.46068174 29.14424133 272.4639473 C30.19430933 272.46463684 30.19430933 272.46463684 31.26559082 272.46534032 C32.6877155 272.4662995 34.10984017 272.46727214 35.53196484 272.4682581 C48.86752151 272.47681292 62.20301631 272.46697643 75.53856283 272.450857 C86.98130595 272.43745372 98.42395776 272.43978179 109.86669922 272.45361328 C123.15450529 272.46966749 136.44225713 272.47598893 149.73007154 272.46677649 C151.14696724 272.46582084 152.56386295 272.46487773 153.98075867 272.4639473 C155.02647076 272.46325306 155.02647076 272.46325306 156.09330836 272.46254479 C161.00625466 272.45995442 165.91916657 272.46432691 170.83210754 272.47138596 C177.44441059 272.48067784 184.05656773 272.47406319 190.6688633 272.45670319 C193.09850083 272.45272969 195.52815285 272.45388706 197.95778465 272.46049118 C201.26872559 272.46866243 204.57910941 272.45843806 207.89001465 272.44345093 C209.33966732 272.45348918 209.33966732 272.45348918 210.8186059 272.46373022 C215.71049615 272.42064116 219.11044928 272.29007625 223.0625 269.0625 C225.39099047 265.84696554 225.60707007 262.95228623 225.0625 259.0625 C222.99477415 255.63484676 220.94121765 253.35540588 217.0625 252.0625 C215.67880848 251.97784381 214.29132939 251.94833447 212.90506458 251.95456123 C211.62858247 251.9565251 211.62858247 251.9565251 210.32631284 251.95852864 C208.92351899 251.96831645 208.92351899 251.96831645 207.49238586 251.978302 C206.49908034 251.98112525 205.50577482 251.9839485 204.48236912 251.9868573 C201.1383603 251.99729532 197.79442048 252.01466708 194.45043945 252.03173828 C192.05906873 252.04016191 189.66769587 252.047996 187.27632141 252.05528259 C183.45090771 252.06704928 179.62549956 252.07925617 175.80009329 252.09325147 C166.31155388 252.12776002 156.8231171 252.14419907 147.33451843 252.14889526 C146.64836505 252.1492651 145.96221166 252.14963493 145.25526575 252.15001597 C139.60399505 252.15299081 133.9527241 252.15516712 128.30145289 252.15691677 C123.21016398 252.15850389 118.11887601 252.16077355 113.02758789 252.1640625 C112.30167287 252.1645228 111.57575786 252.1649831 110.82784542 252.16545735 C99.07065316 252.1740065 87.31384245 252.21844384 75.55679629 252.27523984 C63.48349932 252.33265558 51.41065257 252.34820431 39.33723801 252.32583606 C32.5591783 252.31453693 25.78230728 252.3228388 19.00444984 252.38016129 C12.62711981 252.43231867 6.25184143 252.43320411 -0.12556648 252.39479256 C-2.4652928 252.38979719 -4.80514677 252.40361247 -7.14463043 252.43767738 C-24.82985977 252.67971862 -24.82985977 252.67971862 -30.04702187 248.67652512 C-32.13242481 245.86767 -33.5565117 243.26510561 -34.9375 240.0625 C-35.82540692 238.61244133 -36.73117755 237.17287457 -37.66796875 235.75390625 C-38.49087461 234.37992974 -39.30981215 233.00356964 -40.125 231.625 C-45.05717753 223.42928979 -50.20445074 215.39442227 -55.453125 207.3984375 C-57.97786581 203.55031413 -60.45840757 199.67668491 -62.921875 195.7890625 C-63.59057617 194.74194092 -64.25927734 193.69481934 -64.94824219 192.6159668 C-66.24897254 190.57850712 -67.54164905 188.5358775 -68.82519531 186.48754883 C-69.41913086 185.56224365 -70.01306641 184.63693848 -70.625 183.68359375 C-71.40423828 182.45274048 -71.40423828 182.45274048 -72.19921875 181.19702148 C-74.75128776 178.06320978 -77.42617719 176.28919842 -81.4375 175.6875 C-84.55452765 176.15505415 -86.40091418 177.21147791 -88.9375 179.0625 Z " fill="#000000" transform="translate(188.9375,94.9375)"/>
</svg>
