<?xml version="1.0" encoding="UTF-8"?>
<!DOCTYPE svg PUBLIC "-//W3C//DTD SVG 1.1//EN" "http://www.w3.org/Graphics/SVG/1.1/DTD/svg11.dtd">
<svg xmlns="http://www.w3.org/2000/svg" version="1.1" width="512px" height="512px" style="shape-rendering:geometricPrecision; text-rendering:geometricPrecision; image-rendering:optimizeQuality; fill-rule:evenodd; clip-rule:evenodd" xmlns:xlink="http://www.w3.org/1999/xlink">
<g><path style="opacity:0.938" fill="#000000" d="M 511.5,376.5 C 511.5,391.5 511.5,406.5 511.5,421.5C 508.761,426.026 504.761,427.526 499.5,426C 490.167,420.667 480.833,415.333 471.5,410C 327.5,409.333 183.5,409.333 39.5,410C 30.1667,415.333 20.8333,420.667 11.5,426C 6.23886,427.526 2.23886,426.026 -0.5,421.5C -0.5,406.5 -0.5,391.5 -0.5,376.5C 2.52291,366.297 8.18958,357.797 16.5,351C 72.5,317.667 128.5,284.333 184.5,251C 191.51,243.802 197.677,235.969 203,227.5C 214.608,214.445 229.108,206.778 246.5,204.5C 247.332,193.834 250.832,184.168 257,175.5C 263.207,169.625 269.707,164.125 276.5,159C 291.727,144.11 292.894,128.277 280,111.5C 264.014,99.7013 247.848,99.5347 231.5,111C 225.755,116.994 222.588,124.16 222,132.5C 221.5,139.492 221.334,146.492 221.5,153.5C 215.5,153.5 209.5,153.5 203.5,153.5C 203.334,145.493 203.5,137.493 204,129.5C 207.112,107.389 219.279,92.8891 240.5,86C 263.579,80.5833 282.746,86.75 298,104.5C 310.253,125.17 309.587,145.504 296,165.5C 288.187,172.736 280.187,179.736 272,186.5C 268.138,191.754 265.638,197.587 264.5,204C 289.143,208.32 307.31,221.487 319,243.5C 323.673,249.077 329.173,253.577 335.5,257C 388.665,288.081 441.665,319.415 494.5,351C 502.81,357.797 508.477,366.297 511.5,376.5 Z M 252.5,221.5 C 270.082,221.542 284.582,228.209 296,241.5C 301.405,251.47 308.571,259.97 317.5,267C 372.335,299.919 427.335,332.585 482.5,365C 487.513,368.688 491.013,373.522 493,379.5C 493.667,386.833 493.667,394.167 493,401.5C 416.916,356.541 340.749,311.707 264.5,267C 258.5,262.333 252.5,262.333 246.5,267C 170.251,311.707 94.0844,356.541 18,401.5C 17.3333,394.167 17.3333,386.833 18,379.5C 19.2666,375.131 21.4333,371.297 24.5,368C 77.5031,335.83 130.836,304.163 184.5,273C 197.718,265.449 207.885,254.949 215,241.5C 224.984,229.927 237.484,223.26 252.5,221.5 Z M 254.5,283.5 C 316.439,318.805 378.106,354.638 439.5,391C 316.833,391.667 194.167,391.667 71.5,391C 132.669,355.303 193.669,319.47 254.5,283.5 Z"/></g>
</svg>
