<?xml version="1.0" encoding="UTF-8"?>
<!DOCTYPE svg PUBLIC "-//W3C//DTD SVG 1.1//EN" "http://www.w3.org/Graphics/SVG/1.1/DTD/svg11.dtd">
<svg xmlns="http://www.w3.org/2000/svg" version="1.1" width="512px" height="512px" style="shape-rendering:geometricPrecision; text-rendering:geometricPrecision; image-rendering:optimizeQuality; fill-rule:evenodd; clip-rule:evenodd" xmlns:xlink="http://www.w3.org/1999/xlink">
<g><path style="opacity:0.975" fill="#000000" d="M 91.5,15.5 C 190.915,15.0047 290.248,15.5047 389.5,17C 390.126,17.7504 390.626,18.5838 391,19.5C 391.5,103.499 391.667,187.499 391.5,271.5C 400.839,271.334 410.173,271.5 419.5,272C 421.333,272.5 422.5,273.667 423,275.5C 421.662,303.888 419.328,332.221 416,360.5C 415.55,362.519 414.717,364.352 413.5,366C 406.074,370.462 398.908,375.295 392,380.5C 391.667,408.5 391.333,436.5 391,464.5C 386.833,480.667 376.667,490.833 360.5,495C 279.833,495.667 199.167,495.667 118.5,495C 102.333,490.833 92.1667,480.667 88,464.5C 87.3333,316.167 87.3333,167.833 88,19.5C 88.6897,17.6498 89.8564,16.3164 91.5,15.5 Z M 103.5,31.5 C 108.833,31.5 114.167,31.5 119.5,31.5C 123.423,73.1476 127.256,114.814 131,156.5C 135.568,186.902 153.068,203.902 183.5,207.5C 183.5,212.833 183.5,218.167 183.5,223.5C 171.495,223.333 159.495,223.5 147.5,224C 145.667,224.5 144.5,225.667 144,227.5C 143.333,230.167 143.333,232.833 144,235.5C 148.5,244.5 153,253.5 157.5,262.5C 127.778,299.051 115.945,340.717 122,387.5C 123.787,391.577 125.954,395.41 128.5,399C 120.173,399.5 111.84,399.666 103.5,399.5C 103.5,276.833 103.5,154.167 103.5,31.5 Z M 136.5,31.5 C 157.5,31.5 178.5,31.5 199.5,31.5C 200.143,47.6387 208.143,58.1387 223.5,63C 234.167,63.6667 244.833,63.6667 255.5,63C 270.857,58.1387 278.857,47.6387 279.5,31.5C 300.511,31.167 321.511,31.5003 342.5,32.5C 338.365,75.1496 334.198,117.816 330,160.5C 324.268,179.559 311.435,189.726 291.5,191C 274.167,191.167 256.833,191.333 239.5,191.5C 219.141,191.609 198.808,191.109 178.5,190C 160.791,184.626 150.625,172.793 148,154.5C 144.375,113.454 140.541,72.4537 136.5,31.5 Z M 216.5,31.5 C 231.833,31.5 247.167,31.5 262.5,31.5C 262.52,38.621 259.187,43.4543 252.5,46C 242.239,48.4839 232.239,47.8173 222.5,44C 218.476,40.7868 216.476,36.6201 216.5,31.5 Z M 359.5,31.5 C 364.833,31.5 370.167,31.5 375.5,31.5C 375.5,111.5 375.5,191.5 375.5,271.5C 359.83,271.667 344.163,271.5 328.5,271C 325.808,268.443 323.475,265.609 321.5,262.5C 326,253.5 330.5,244.5 335,235.5C 335.817,232.036 335.483,228.702 334,225.5C 333.25,224.874 332.416,224.374 331.5,224C 319.505,223.5 307.505,223.333 295.5,223.5C 295.5,218.167 295.5,212.833 295.5,207.5C 325.932,203.902 343.432,186.902 348,156.5C 351.744,114.814 355.577,73.1476 359.5,31.5 Z M 199.5,207.5 C 226.167,207.5 252.833,207.5 279.5,207.5C 279.5,212.833 279.5,218.167 279.5,223.5C 252.833,223.5 226.167,223.5 199.5,223.5C 199.5,218.167 199.5,212.833 199.5,207.5 Z M 165.5,239.5 C 214.838,239.167 264.171,239.5 313.5,240.5C 311.167,245.167 308.833,249.833 306.5,254.5C 261.833,255.833 217.167,255.833 172.5,254.5C 169.882,249.599 167.548,244.599 165.5,239.5 Z M 172.5,271.5 C 217.168,271.333 261.835,271.5 306.5,272C 323.025,290.549 333.525,312.049 338,336.5C 319.049,346.614 298.882,351.114 277.5,350C 272.744,348.978 268.077,347.644 263.5,346C 250.344,339.589 237.344,332.922 224.5,326C 196.255,315.99 168.755,317.824 142,331.5C 147.125,308.917 157.292,288.917 172.5,271.5 Z M 338.5,288.5 C 360.996,287.337 383.663,287.17 406.5,288C 404.041,308.083 401.875,328.249 400,348.5C 399.955,351.334 399.121,353.834 397.5,356C 395.667,357.167 393.833,358.333 392,359.5C 391.974,341.41 391.307,323.41 390,305.5C 389.25,304.874 388.416,304.374 387.5,304C 373.833,303.667 360.167,303.333 346.5,303C 344.099,297.905 341.432,293.072 338.5,288.5 Z M 352.5,319.5 C 360.167,319.5 367.833,319.5 375.5,319.5C 375.5,346.167 375.5,372.833 375.5,399.5C 367.16,399.666 358.827,399.5 350.5,399C 357.697,389.548 360.697,378.881 359.5,367C 359.28,350.847 356.947,335.014 352.5,319.5 Z M 181.5,336.5 C 195.125,334.996 208.125,337.163 220.5,343C 231.548,349.524 242.882,355.524 254.5,361C 271.001,367.564 288.001,369.23 305.5,366C 317.537,363.265 329.204,359.432 340.5,354.5C 341.086,354.709 341.586,355.043 342,355.5C 342.876,364.23 342.542,372.896 341,381.5C 337.388,391.785 330.221,397.618 319.5,399C 264.135,399.975 208.802,399.641 153.5,398C 141.078,391.498 135.412,381.165 136.5,367C 136.33,361.7 136.996,356.534 138.5,351.5C 152.459,345.071 166.792,340.071 181.5,336.5 Z M 103.5,415.5 C 194.167,415.5 284.833,415.5 375.5,415.5C 375.899,430.877 375.399,446.21 374,461.5C 370.295,472.204 362.795,478.037 351.5,479C 276.833,479.667 202.167,479.667 127.5,479C 116.205,478.037 108.705,472.204 105,461.5C 103.601,446.21 103.101,430.877 103.5,415.5 Z"/></g>
</svg>
