<?xml version="1.0" encoding="UTF-8"?>
<svg version="1.1" xmlns="http://www.w3.org/2000/svg" width="512" height="512">
<path d="M0 0 C1.03060547 0.28206299 1.03060547 0.28206299 2.08203125 0.56982422 C24.17158987 6.73469438 42.39633302 18.35423689 59 34 C59.61359375 34.56074219 60.2271875 35.12148438 60.859375 35.69921875 C82.37908219 56.08371203 95.26832422 88.2135047 96.2734375 117.53515625 C96.68525397 139.16704023 94.38228294 159.23257728 85 179 C84.71817871 179.60183105 84.43635742 180.20366211 84.14599609 180.82373047 C69.50152338 211.62483294 43.11750199 235.05512021 11.12304688 246.67626953 C-13.88800144 255.14547551 -41.51833731 256.08217746 -67 249 C-67.65387695 248.82871582 -68.30775391 248.65743164 -68.98144531 248.48095703 C-82.6519052 244.82637338 -95.30347257 237.83992524 -107 230 C-107.00238835 231.04361002 -107.00477671 232.08722004 -107.00723743 233.16245461 C-107.06611992 258.59525977 -107.1420567 284.02797087 -107.23571491 309.46067238 C-107.28061609 321.75990566 -107.32004384 334.05911036 -107.34643555 346.35839844 C-107.36946162 357.08265507 -107.40291106 367.8068208 -107.44870156 378.53100526 C-107.47257161 384.20555541 -107.4913411 389.88001587 -107.49761391 395.55461502 C-107.50369292 400.90458034 -107.523794 406.25431637 -107.55427551 411.60419655 C-107.56301076 413.55916942 -107.56678777 415.51417232 -107.56500816 417.46916389 C-107.554017 435.12771787 -108.66219154 450.07553141 -121.0625 463.75 C-126.45224108 468.91937688 -134.32965925 474 -142 474 C-141.97679687 474.68964844 -141.95359375 475.37929688 -141.9296875 476.08984375 C-141.757666 485.04724874 -142.09022832 492.84606586 -148 500 C-155.73744891 507.68878571 -161.41480137 509.37562745 -172.1875 509.4375 C-173.17814453 509.47037109 -174.16878906 509.50324219 -175.18945312 509.53710938 C-183.20523605 509.59492814 -189.83589159 507.72233973 -195.91235352 502.29052734 C-203.73975561 494.06342279 -203 486.63407294 -203 475 C-231.05 475 -259.1 475 -288 475 C-288 480.28 -288 485.56 -288 491 C-290.27447926 498.120109 -294.85681782 502.76537927 -301 507 C-309.83104223 511.04646263 -323.18115759 510.4744578 -332.453125 508.125 C-339.65221707 504.76836811 -344.39491144 499.24975663 -347.40893555 491.96191406 C-348.44848421 488.51135105 -348.31494565 485.134246 -348.1875 481.5625 C-348.17396484 480.83095703 -348.16042969 480.09941406 -348.14648438 479.34570312 C-348.11153874 477.56347578 -348.05774805 475.78163427 -348 474 C-349.918125 473.690625 -349.918125 473.690625 -351.875 473.375 C-363.00389119 470.82826314 -371.35076081 463.33605163 -377.37890625 453.82421875 C-380.62289213 447.65944854 -382.24840214 441.40355861 -382.25726891 434.42219925 C-382.2637178 433.13315603 -382.27016669 431.8441128 -382.276811 430.51600766 C-382.27386915 429.09784992 -382.27073375 427.67969258 -382.26742554 426.26153564 C-382.27116412 424.74540504 -382.27576647 423.22927637 -382.28115618 421.71315074 C-382.29337597 417.55440159 -382.29312692 413.39573295 -382.29076743 409.23696995 C-382.29035901 404.74875718 -382.30140088 400.26057014 -382.31088257 395.77236938 C-382.32748803 386.98178863 -382.33299191 378.19123469 -382.33410732 369.40063956 C-382.33505803 362.25415734 -382.33916945 355.10768396 -382.34550858 347.96120453 C-382.36311987 327.69406892 -382.37234764 307.42695448 -382.37084763 287.15981117 C-382.37076772 286.06744458 -382.3706878 284.97507798 -382.37060547 283.84960938 C-382.37048283 282.20905591 -382.37048283 282.20905591 -382.37035771 280.53535995 C-382.36954488 262.81198412 -382.38868213 245.08869329 -382.4168822 227.36534205 C-382.44561765 209.1616915 -382.45942213 190.9580824 -382.45769465 172.7544086 C-382.45703097 162.53662702 -382.46251365 152.31893454 -382.48405075 142.1011734 C-382.50227123 133.40122258 -382.50660275 124.70140125 -382.4930319 116.0014396 C-382.4865066 111.56460373 -382.48636918 107.12801624 -382.5037384 102.69120407 C-382.51949365 98.62475998 -382.5165807 94.5587607 -382.49917014 90.4923273 C-382.49610562 89.0259959 -382.49971193 87.55963111 -382.51089029 86.09333912 C-382.61171181 71.92303663 -379.36247748 61.75652284 -370 51 C-360.78832111 41.92265809 -348.40429528 38.8449428 -335.84237671 38.85955811 C-334.63457202 38.85510142 -334.63457202 38.85510142 -333.40236723 38.8505547 C-330.71273288 38.84190504 -328.02314323 38.84036262 -325.33349609 38.83886719 C-323.40136623 38.83423632 -321.46923727 38.8292113 -319.53710938 38.82382202 C-314.29302488 38.81072075 -309.04895317 38.80425734 -303.80485487 38.79981136 C-300.52522199 38.7968766 -297.24559258 38.792771 -293.96596146 38.78830719 C-283.69516497 38.77463743 -273.42437644 38.76496856 -263.15357149 38.7611053 C-251.31553523 38.75662754 -239.47761461 38.73909052 -227.63961351 38.7101047 C-218.47759497 38.68845346 -209.31560889 38.67839916 -200.15356505 38.67706418 C-194.68705204 38.6760185 -189.22064781 38.67016134 -183.75416183 38.65224457 C-178.6077229 38.63570463 -173.46147382 38.63363706 -168.3150177 38.64238358 C-166.43335586 38.64315082 -164.55168357 38.6388528 -162.67004776 38.62892532 C-153.52377155 38.58352645 -145.14041877 38.6213068 -136.33208656 41.45393753 C-133.76220178 42.0556809 -132.44505009 41.9370372 -130 41 C-127.96747717 39.33050326 -127.96747717 39.33050326 -126.0625 37.25 C-125.41410156 36.57453125 -124.76570313 35.8990625 -124.09765625 35.203125 C-123.40542969 34.47609375 -122.71320313 33.7490625 -122 33 C-91.61988171 2.0402928 -42.15913563 -12.05201377 0 0 Z M-110 47 C-110.60328125 47.53882813 -111.2065625 48.07765625 -111.828125 48.6328125 C-129.51241957 65.07755371 -140.99968866 91.62429937 -142.12304688 115.62939453 C-143.01295967 148.52903656 -134.51771568 175.86684503 -112.66796875 200.64453125 C-92.55088339 221.82918996 -64.14900256 234.51092745 -34.95581055 235.35375977 C-3.46702013 235.63321756 24.40507893 223.93360631 47 202 C67.01199729 182.0557252 78.37245272 154.3564541 79.01123047 126.17626953 C78.85026115 94.98321433 66.56433751 67.22964945 45 45 C1.1892621 1.99245896 -66.85775807 6.38678604 -110 47 Z M-358 65 C-381.97867689 96.66176715 -364 144.28294517 -364 184 C-292.06 184 -220.12 184 -146 184 C-148.64 177.4 -151.28 170.8 -154 164 C-162.90419265 129.98141783 -161.37681951 94.86237936 -144.22265625 63.72265625 C-142.62679033 60.99111178 -142.62679033 60.99111178 -144 58 C-147.63466229 56.7884459 -150.96402373 56.85517745 -154.74784851 56.85955811 C-155.54514352 56.85658698 -156.34243853 56.85361586 -157.163894 56.8505547 C-159.84454339 56.84185978 -162.52514816 56.84035878 -165.20581055 56.83886719 C-167.12428381 56.83423951 -169.04275615 56.82921492 -170.96122742 56.82382202 C-176.18042839 56.81068965 -181.39961648 56.80425123 -186.6188314 56.79981136 C-189.87948833 56.7968815 -193.14014173 56.79277681 -196.40079689 56.78830719 C-206.60218372 56.77462897 -216.80356249 56.76496436 -227.00495785 56.7611053 C-238.78137394 56.75662605 -250.55767388 56.73908564 -262.33405465 56.7101047 C-271.43565346 56.68848389 -280.53721961 56.67840077 -289.63884383 56.67706418 C-295.07509277 56.67601628 -300.51123256 56.6701118 -305.94745445 56.65224457 C-311.06347289 56.63575744 -316.17930023 56.63361157 -321.29533577 56.64238358 C-323.17061246 56.64315365 -325.04589944 56.63881515 -326.92115021 56.62892532 C-329.4867377 56.61619104 -332.05164993 56.62209056 -334.61723328 56.63250732 C-335.35451005 56.62445092 -336.09178683 56.61639452 -336.85140532 56.60809398 C-344.79780107 56.68324283 -352.19617154 59.47859628 -358 65 Z M-364 202 C-364.11414797 231.89473292 -364.20259217 261.78945848 -364.25532665 291.68436249 C-364.26157992 295.21649593 -364.26805156 298.74862893 -364.2746582 302.28076172 C-364.27596976 302.9839237 -364.27728131 303.68708568 -364.2786326 304.4115556 C-364.30036868 315.78595382 -364.33978021 327.16022524 -364.38576398 338.53454833 C-364.43257884 350.21213956 -364.45993192 361.88965698 -364.47044247 373.56733763 C-364.47695735 380.12383876 -364.49225526 386.68005263 -364.52865028 393.23646164 C-364.56264421 399.41047537 -364.57304581 405.58408409 -364.56553841 411.75818253 C-364.5669114 414.02126009 -364.57682316 416.28435152 -364.59602737 418.54734802 C-364.62101797 421.64471891 -364.6148826 424.74057396 -364.60127258 427.83798218 C-364.61583679 428.72711756 -364.630401 429.61625294 -364.64540654 430.53233182 C-364.55829086 437.90037866 -362.273041 444.41422571 -357.24453622 449.92319524 C-351.16926757 455.60371545 -344.84393579 457.45414443 -336.6505127 457.38095093 C-335.4300093 457.38797089 -335.4300093 457.38797089 -334.18484926 457.39513266 C-331.47267382 457.40704852 -328.76100685 457.39763888 -326.04882812 457.38818359 C-324.09858405 457.39225081 -322.14834228 457.39759353 -320.19810486 457.40411377 C-314.91097029 457.41777527 -309.6240116 457.41249348 -304.33687401 457.40297651 C-298.80013942 457.39537392 -293.26341976 457.4024272 -287.72668457 457.40713501 C-278.42925314 457.4125908 -269.13189323 457.40540554 -259.83447266 457.39111328 C-249.08998333 457.37478714 -238.34566479 457.38007577 -227.6011796 457.3965925 C-218.37126661 457.41021235 -209.14140499 457.41212457 -199.9114852 457.40427649 C-194.40100906 457.39960274 -188.89061317 457.39896699 -183.38014221 457.40888596 C-178.19920938 457.41756056 -173.01849647 457.41152454 -167.83758736 457.39420319 C-165.9377078 457.39024101 -164.03780969 457.39136779 -162.13793755 457.39799118 C-159.54153875 457.40620736 -156.94584159 457.39588435 -154.3494873 457.38095093 C-153.22578633 457.39098918 -153.22578633 457.39098918 -152.07938433 457.40123022 C-144.67306596 457.31878843 -138.76214699 454.63477041 -133 450 C-126.87139274 442.39849541 -125.70146595 434.15517563 -125.70565796 424.67727661 C-125.69830458 423.77094825 -125.69095121 422.86461988 -125.683375 421.93082702 C-125.66144833 418.91105518 -125.65363912 415.89142129 -125.64599609 412.87158203 C-125.63345613 410.69945852 -125.62016158 408.52733926 -125.60617065 406.35522461 C-125.56422893 399.23945058 -125.54338556 392.12367632 -125.5234375 385.0078125 C-125.51533851 382.55386181 -125.50710455 380.09991156 -125.49873734 377.64596176 C-125.46067217 366.12043498 -125.43219669 354.59493358 -125.4155134 343.06935608 C-125.39595336 329.77757423 -125.34325992 316.48659361 -125.26251161 303.19503891 C-125.20217858 292.91029968 -125.17257508 282.62575107 -125.16595137 272.34083831 C-125.16125345 266.20234931 -125.14337327 260.06457211 -125.09302902 253.92627335 C-125.04643418 248.15245216 -125.03801277 242.37981076 -125.05855179 236.60585022 C-125.05954181 234.49110359 -125.04692076 232.37629849 -125.0194397 230.26173019 C-124.64157533 217.54249652 -124.64157533 217.54249652 -128.68240356 205.73425293 C-134.36086726 200.15044095 -142.09702179 200.73418483 -149.59146118 200.75579834 C-151.73481779 200.7911849 -153.8781587 200.82753293 -156.02148438 200.86474609 C-158.28864415 200.86756819 -160.55581306 200.86598084 -162.82296753 200.86032104 C-168.96772925 200.85745414 -175.11053524 200.91620518 -181.25484276 200.98606062 C-187.67960035 201.0486142 -194.10440382 201.05445107 -200.52941895 201.0663147 C-211.31006071 201.09385535 -222.0898484 201.15629667 -232.87011719 201.24560547 C-243.97099235 201.33747437 -255.07167272 201.40821936 -266.17285156 201.45068359 C-267.20021235 201.45462445 -267.20021235 201.45462445 -268.24832791 201.45864491 C-271.684498 201.47169581 -275.12066947 201.48433277 -278.55684185 201.49676394 C-307.03838747 201.60033781 -335.51915526 201.77713245 -364 202 Z M-330 475 C-330.99167862 485.08268995 -330.99167862 485.08268995 -327.97265625 489.15234375 C-324.2235342 491.48261277 -321.83241602 491.63669421 -317.4375 491.5625 C-315.48650391 491.56443359 -315.48650391 491.56443359 -313.49609375 491.56640625 C-309.48671667 491.26661122 -309.48671667 491.26661122 -306 487 C-306 483.04 -306 479.08 -306 475 C-313.92 475 -321.84 475 -330 475 Z M-185 475 C-185.99167862 485.08268995 -185.99167862 485.08268995 -182.97265625 489.15234375 C-179.2235342 491.48261277 -176.83241602 491.63669421 -172.4375 491.5625 C-170.48650391 491.56443359 -170.48650391 491.56443359 -168.49609375 491.56640625 C-164.55922592 490.92858967 -163.38044019 490.12102159 -161 487 C-159.3286871 483.1002699 -160 479.36692677 -160 475 C-168.25 475 -176.5 475 -185 475 Z " fill="#000000" transform="translate(399,3)"/>
<path d="M0 0 C2.18994248 3.28491373 2.35277339 4.83095639 2.625 8.6875 C2.73714844 10.17830078 2.73714844 10.17830078 2.8515625 11.69921875 C2.90054688 12.45847656 2.94953125 13.21773437 3 14 C3.72445312 13.50628906 4.44890625 13.01257813 5.1953125 12.50390625 C6.16210938 11.86324219 7.12890625 11.22257812 8.125 10.5625 C9.55199219 9.60537109 9.55199219 9.60537109 11.0078125 8.62890625 C14.14050491 6.92351104 16.4561186 6.25172417 20 6 C23.52906067 7.60411848 24.82772908 8.74159362 27 12 C27.4375 15.375 27.4375 15.375 27 19 C24.15807557 22.59590438 21.50778228 24.33819983 17.35546875 26.2421875 C11.69690508 29.00627602 6.57827331 31.65805121 3 37 C0.57147873 47.05850829 1.83724569 57.82142765 3 68 C3.74161377 67.25314941 4.48322754 66.50629883 5.24731445 65.73681641 C8.00111509 62.96490702 10.75823096 60.19631549 13.51635742 57.42871094 C14.70932155 56.23072005 15.90138634 55.03183291 17.0925293 53.83203125 C18.8054176 52.10700493 20.52152084 50.38523424 22.23828125 48.6640625 C22.76964188 48.12754059 23.3010025 47.59101868 23.84846497 47.03823853 C30.17230731 40.71344144 30.17230731 40.71344144 35.4375 40.5625 C38.92139617 40.65328557 39.74443862 40.79430425 42.5625 43.0625 C44.43864808 46.89636782 44.78853715 48.77057346 44 53 C39.03831417 60.04435646 32.16109973 65.95630528 26.0625 72 C25.0824469 72.97502386 24.1026276 73.9502828 23.12304688 74.92578125 C20.75097687 77.28616618 18.3765914 79.64416905 16 82 C34.08668478 84.83886028 34.08668478 84.83886028 50.82519531 79.98730469 C55.23717483 75.03021573 58.21450906 69.36629348 60.76855469 63.26831055 C62.18593323 60.65751276 63.4536478 59.50359754 66 58 C70.06004538 57.48326695 72.26198077 57.59890259 75.875 59.5625 C78.6905269 62.79207497 78.8634926 64.7374463 79 69 C77.78216974 71.5997653 76.67009005 73.62310177 75.0625 75.9375 C74.67642578 76.52595703 74.29035156 77.11441406 73.89257812 77.72070312 C72.94563927 79.15864731 71.97514167 80.58103017 71 82 C71.73605469 82.01417969 72.47210938 82.02835937 73.23046875 82.04296875 C77.95803841 82.27403887 81.15432811 82.45280054 85.1875 85.0625 C87.73024216 89.18349592 87.68549587 91.20152891 87 96 C84.59376573 99.12810455 82.5606341 100.79276826 78.6171875 101.31640625 C77.25980469 101.43822266 77.25980469 101.43822266 75.875 101.5625 C74.50988281 101.68818359 74.50988281 101.68818359 73.1171875 101.81640625 C72.41851562 101.87699219 71.71984375 101.93757813 71 102 C71.74056641 102.94359375 71.74056641 102.94359375 72.49609375 103.90625 C76.55512586 109.32918223 79.23328377 113.11812875 79 120 C78 122.875 78 122.875 76 125 C72.28423702 126.68260965 70.10898975 127.29845762 66.140625 126.23046875 C62.77989369 123.84368072 62.01604009 122.49893981 60.22265625 118.89453125 C55.42954047 109.41945004 55.42954047 109.41945004 48 102 C37.98990332 99.23646833 27.16390077 100.63923059 17 102 C17.74161377 102.72590332 18.48322754 103.45180664 19.24731445 104.19970703 C22.0113669 106.909231 24.76529199 109.62885856 27.51635742 112.3515625 C28.70569863 113.52586922 29.89772527 114.69746285 31.0925293 115.86621094 C32.81501543 117.55207898 34.52742911 119.2476488 36.23828125 120.9453125 C36.76964188 121.46118927 37.3010025 121.97706604 37.84846497 122.50857544 C41.07549686 125.73414574 43.29093581 128.76204973 45 133 C44.9270066 136.6496701 44.45383365 138.40029125 42.25 141.3125 C39.67504716 143.24371463 38.20848406 143.84348858 35 144 C29.98073739 142.64367696 27.12315141 139.51255904 23.60546875 135.8984375 C22.71714104 135.00374252 22.71714104 135.00374252 21.81086731 134.0909729 C19.92922646 132.19259897 18.05831177 130.28404067 16.1875 128.375 C14.91019999 127.08264627 13.63221253 125.79097161 12.35351562 124.5 C9.22765836 121.34114471 6.11137666 118.1731166 3 115 C0.16384796 133.07433909 0.16384796 133.07433909 4.99658203 149.80908203 C9.98302528 154.24307456 15.67311223 157.04304404 21.70117188 159.80444336 C24.69277925 161.36029524 26.36531558 163.05756804 28 166 C28 169.93657628 27.5993618 172.15645376 25.3125 175.375 C22.32111273 177.47705592 20.67767907 178 17 178 C11.90108988 176.17459018 7.4112399 173.08786793 3 170 C2.98582031 170.73605469 2.97164063 171.47210938 2.95703125 172.23046875 C2.72596113 176.95803841 2.54719946 180.15432811 -0.0625 184.1875 C-4.18349592 186.73024216 -6.20152891 186.68549587 -11 186 C-14.12810455 183.59376573 -15.79276826 181.5606341 -16.31640625 177.6171875 C-16.43822266 176.25980469 -16.43822266 176.25980469 -16.5625 174.875 C-16.68818359 173.50988281 -16.68818359 173.50988281 -16.81640625 172.1171875 C-16.87699219 171.41851562 -16.93757813 170.71984375 -17 170 C-17.72445312 170.49371094 -18.44890625 170.98742187 -19.1953125 171.49609375 C-20.16210938 172.13675781 -21.12890625 172.77742187 -22.125 173.4375 C-23.55199219 174.39462891 -23.55199219 174.39462891 -25.0078125 175.37109375 C-28.97088084 177.52853435 -32.23465275 178.3284367 -36.6875 177.5 C-40.1596546 175.24779161 -40.88912794 172.92072493 -42 169 C-41.71156534 165.53878414 -40.82948434 163.8079647 -38.34375 161.38671875 C-34.75048961 158.4705466 -31.69692091 156.24821841 -27.29296875 154.6796875 C-22.8392567 152.93962209 -19.33903753 151.35096294 -17 147 C-15.15121873 136.51536889 -16.16111327 125.55245756 -17 115 C-17.82201904 115.84296631 -18.64403809 116.68593262 -19.4909668 117.55444336 C-22.5464909 120.68242535 -25.61528161 123.79710327 -28.68823242 126.90795898 C-30.01577861 128.25560723 -31.33971091 129.60682549 -32.65991211 130.96166992 C-34.55942533 132.90976039 -36.47161211 134.84459576 -38.38671875 136.77734375 C-38.97337814 137.38464828 -39.56003754 137.99195282 -40.16447449 138.61766052 C-45.41312886 143.86914556 -45.41312886 143.86914556 -50 144 C-53.39535851 143.02989757 -55.92511972 141.9048324 -58 139 C-58.9375 136.25 -58.9375 136.25 -59 133 C-56.4525233 127.83504018 -53.47047939 124.05129108 -49.359375 120.06640625 C-48.83232971 119.5436058 -48.30528442 119.02080536 -47.76226807 118.48216248 C-46.09849846 116.83501328 -44.42454791 115.19868291 -42.75 113.5625 C-41.61128536 112.43885372 -40.47325776 111.31451073 -39.3359375 110.18945312 C-36.56516123 107.45152489 -33.78521099 104.72323973 -31 102 C-48.56498349 99.20250608 -48.56498349 99.20250608 -64.79394531 104.01269531 C-69.21377342 108.97860257 -72.23809026 114.65175108 -74.86621094 120.73168945 C-76.45245259 123.90519746 -77.93690987 125.58657606 -81.25 126.875 C-85.19069707 127.05412259 -87.59399895 125.92792512 -91 124 C-92.85806234 121.13548723 -93.05152588 119.58641353 -92.75390625 116.19921875 C-91.89848723 112.56922818 -90.50877355 110.21308057 -88.4375 107.125 C-87.47650391 105.67480469 -87.47650391 105.67480469 -86.49609375 104.1953125 C-85.75552734 103.10863281 -85.75552734 103.10863281 -85 102 C-86.01320313 101.92652344 -86.01320313 101.92652344 -87.046875 101.8515625 C-87.93890625 101.77679688 -88.8309375 101.70203125 -89.75 101.625 C-90.63171875 101.55539063 -91.5134375 101.48578125 -92.421875 101.4140625 C-95.0512314 100.99177193 -96.76337938 100.42949231 -99 99 C-101.46944489 95.29583267 -101.770187 92.2946297 -101 88 C-99.1875 85.0625 -99.1875 85.0625 -96 83 C-92.33237503 82.30974474 -88.72748736 82.07180799 -85 82 C-85.75796875 80.948125 -85.75796875 80.948125 -86.53125 79.875 C-92.5073903 71.14793797 -92.5073903 71.14793797 -92.75 66.625 C-91.82223518 62.14080335 -90.78008292 60.57367348 -87 58 C-83.12794642 57.37770567 -80.99544431 57.42589076 -77.58203125 59.39453125 C-75.05279251 61.94672828 -74.18456521 63.53814201 -72.79296875 66.765625 C-70.07395876 72.72642788 -67.48492373 78.15897272 -62 82 C-51.64148301 84.57879398 -40.49130275 83.21915559 -30 82 C-30.81267334 81.19256348 -31.62534668 80.38512695 -32.46264648 79.55322266 C-35.47119139 76.56274972 -38.47644859 73.5689915 -41.48071289 70.57421875 C-42.78254894 69.27741787 -44.08528023 67.98151508 -45.38891602 66.68652344 C-47.26032661 64.82721402 -49.12851582 62.9647206 -50.99609375 61.1015625 C-51.58152451 60.52129303 -52.16695526 59.94102356 -52.77012634 59.34317017 C-57.85778628 54.25622122 -57.85778628 54.25622122 -58.375 49.6875 C-58 46 -58 46 -56 43.0625 C-52.97337512 40.98169539 -50.91594794 39.99459019 -47.19921875 40.296875 C-42.79569391 41.7047515 -39.88124563 45.0264139 -36.70507812 48.26416016 C-34.60925678 50.39779271 -32.48417059 52.50069429 -30.359375 54.60546875 C-25.88438544 59.04877697 -21.43553837 63.51733676 -17 68 C-14.11948682 50.35960495 -14.11948682 50.35960495 -19.12695312 34.12402344 C-24.39289612 29.48062685 -30.37164738 26.21175448 -36.75341797 23.33911133 C-39.32936971 21.80367389 -40.01787585 20.79551007 -41 18 C-41.47580309 14.2728758 -41.27363413 12.49254144 -39.4375 9.1875 C-36.13516223 6.22386354 -34.44023205 5.85441862 -30 6 C-25.21172067 7.98972418 -21.09663812 10.85585336 -17 14 C-16.96261719 13.33613281 -16.92523438 12.67226563 -16.88671875 11.98828125 C-16.18104536 2.51011901 -16.18104536 2.51011901 -13 -1 C-7.87419911 -3.79589139 -4.96081378 -2.76660769 0 0 Z " fill="#000000" transform="translate(374,36)"/>
<path d="M0 0 C2.96858157 2.20740681 3.82865791 3.48597373 5 7 C5.10280185 8.76784778 5.14847645 10.53926955 5.16113281 12.31005859 C5.17074036 13.3948349 5.1803479 14.47961121 5.19024658 15.59725952 C5.19449646 16.76914825 5.19874634 17.94103699 5.203125 19.1484375 C5.20882507 20.35311676 5.21452515 21.55779602 5.22039795 22.79898071 C5.22985005 25.34937664 5.23638276 27.89978478 5.24023438 30.45019531 C5.24994384 34.35242998 5.28096779 38.2541389 5.3125 42.15625 C5.31902965 44.63280937 5.32428027 47.10937251 5.328125 49.5859375 C5.3404718 50.75377777 5.3528186 51.92161804 5.36553955 53.12484741 C5.36253845 54.21592804 5.35953735 55.30700867 5.35644531 56.43115234 C5.36009094 57.38806976 5.36373657 58.34498718 5.36749268 59.3309021 C4.92482192 62.54601812 3.90747758 64.39180424 2 67 C-1.48804095 69.32536063 -2.90140754 69.33457898 -7 69 C-10.34265205 67.79293121 -10.94704566 67.07943151 -13 64 C-13.27415466 61.43301392 -13.27415466 61.43301392 -13.30639648 58.32275391 C-13.32238388 57.15789459 -13.33837128 55.99303528 -13.35484314 54.7928772 C-13.36020584 53.53349335 -13.36556854 52.2741095 -13.37109375 50.9765625 C-13.38012222 49.68309906 -13.3891507 48.38963562 -13.39845276 47.05697632 C-13.41493815 44.31823228 -13.42264193 41.57961042 -13.42553711 38.84082031 C-13.43091907 35.33777176 -13.46859019 31.83587744 -13.51428127 28.33315468 C-13.55124764 24.98512917 -13.55256769 21.63728517 -13.55859375 18.2890625 C-13.57812607 17.03372711 -13.59765839 15.77839172 -13.61778259 14.48501587 C-13.56753608 4.80263361 -13.56753608 4.80263361 -10.59619141 1.70874023 C-6.55587253 -0.95048412 -4.76599227 -0.68085604 0 0 Z " fill="#000000" transform="translate(64,102)"/>
<path d="M0 0 C2.25726011 1.89121793 3.68646424 3.37292849 5 6 C5.10584501 7.72447787 5.14877428 9.45298517 5.16113281 11.18066406 C5.17074036 12.26228821 5.1803479 13.34391235 5.19024658 14.45831299 C5.19449646 15.63222595 5.19874634 16.80613892 5.203125 18.015625 C5.20882507 19.21934753 5.21452515 20.42307007 5.22039795 21.66326904 C5.22985918 24.21544513 5.23638637 26.7676335 5.24023438 29.31982422 C5.24992532 33.21994463 5.28093306 37.11953495 5.3125 41.01953125 C5.31903134 43.4973927 5.3242813 45.97525792 5.328125 48.453125 C5.3404718 49.61894104 5.3528186 50.78475708 5.36553955 51.98590088 C5.3369153 62.42261011 5.3369153 62.42261011 2 67 C-2.1046009 68.9361325 -4.0118225 69.35425231 -8.3125 67.8125 C-11 66 -11 66 -13 63 C-13.26742554 60.42628479 -13.26742554 60.42628479 -13.29052734 57.30688477 C-13.30328705 56.13879776 -13.31604675 54.97071075 -13.32919312 53.76722717 C-13.33141876 52.50470627 -13.33364441 51.24218536 -13.3359375 49.94140625 C-13.3425943 48.64557114 -13.3492511 47.34973602 -13.35610962 46.01463318 C-13.36808135 43.27168446 -13.37179053 40.52886167 -13.37060547 37.78588867 C-13.37040218 34.27393354 -13.39771298 30.76278679 -13.43214989 27.25102329 C-13.45975608 23.89780508 -13.4585677 20.54473669 -13.4609375 17.19140625 C-13.47530853 15.93090958 -13.48967957 14.6704129 -13.50448608 13.37171936 C-13.49833282 12.20048019 -13.49217957 11.02924103 -13.48583984 9.82250977 C-13.48868988 8.79231216 -13.49153992 7.76211456 -13.49447632 6.70069885 C-12.86817281 3.27999474 -11.70006717 2.12611429 -9 0 C-5.41563853 -1.19478716 -3.63093708 -0.96330984 0 0 Z " fill="#000000" transform="translate(64,222)"/>
</svg>
