<?xml version="1.0" encoding="UTF-8"?>
<!DOCTYPE svg PUBLIC "-//W3C//DTD SVG 1.1//EN" "http://www.w3.org/Graphics/SVG/1.1/DTD/svg11.dtd">
<svg xmlns="http://www.w3.org/2000/svg" version="1.1" width="512px" height="512px" style="shape-rendering:geometricPrecision; text-rendering:geometricPrecision; image-rendering:optimizeQuality; fill-rule:evenodd; clip-rule:evenodd" xmlns:xlink="http://www.w3.org/1999/xlink">
<g><path style="opacity:0.953" fill="#000000" d="M 63.5,41.5 C 192.834,41.3333 322.167,41.5 451.5,42C 454.333,42.8333 456.167,44.6667 457,47.5C 457.5,57.4944 457.666,67.4944 457.5,77.5C 473.401,80.9006 483.235,90.5673 487,106.5C 487.667,220.5 487.667,334.5 487,448.5C 484.09,459.743 476.923,466.576 465.5,469C 331.5,469.667 197.5,469.667 63.5,469C 42.9939,464.829 29.8273,452.662 24,432.5C 23.3333,314.5 23.3333,196.5 24,78.5C 30.0029,58.3251 43.1695,45.9918 63.5,41.5 Z M 65.5,58.5 C 140.167,58.5 214.833,58.5 289.5,58.5C 289.5,122.5 289.5,186.5 289.5,250.5C 214.833,250.333 140.166,250.5 65.5,251C 55.8911,251.89 47.3911,255.39 40,261.5C 39.0312,201.476 39.3645,141.476 41,81.5C 44.8871,69.1084 53.0538,61.4417 65.5,58.5 Z M 306.5,58.5 C 311.5,58.5 316.5,58.5 321.5,58.5C 321.5,122.5 321.5,186.5 321.5,250.5C 316.5,250.5 311.5,250.5 306.5,250.5C 306.5,186.5 306.5,122.5 306.5,58.5 Z M 338.5,58.5 C 343.833,58.5 349.167,58.5 354.5,58.5C 354.5,122.5 354.5,186.5 354.5,250.5C 349.167,250.5 343.833,250.5 338.5,250.5C 338.5,186.5 338.5,122.5 338.5,58.5 Z M 370.5,58.5 C 375.5,58.5 380.5,58.5 385.5,58.5C 385.5,122.5 385.5,186.5 385.5,250.5C 380.5,250.5 375.5,250.5 370.5,250.5C 370.5,186.5 370.5,122.5 370.5,58.5 Z M 402.5,58.5 C 415.167,58.5 427.833,58.5 440.5,58.5C 440.5,122.5 440.5,186.5 440.5,250.5C 427.833,250.5 415.167,250.5 402.5,250.5C 402.5,186.5 402.5,122.5 402.5,58.5 Z M 457.5,95.5 C 466.202,99.2146 470.702,105.881 471,115.5C 471.833,174.17 471.667,232.836 470.5,291.5C 469.205,290.902 467.872,290.402 466.5,290C 333.833,289.333 201.167,289.333 68.5,290C 64.1434,293.997 63.4768,298.497 66.5,303.5C 67.9122,304.806 69.5789,305.64 71.5,306C 202.167,306.333 332.833,306.667 463.5,307C 470.414,310.77 472.247,316.27 469,323.5C 467.833,324.667 466.667,325.833 465.5,327C 332.222,328.661 198.889,328.995 65.5,328C 52.8779,325.379 44.7113,317.879 41,305.5C 38.4402,285.405 46.9402,272.905 66.5,268C 195.914,267.997 325.247,267.33 454.5,266C 455.893,264.829 456.727,263.329 457,261.5C 457.5,206.168 457.667,150.834 457.5,95.5 Z M 39.5,334.5 C 46.6176,339.889 54.6176,343.389 63.5,345C 138.833,345.5 214.166,345.667 289.5,345.5C 289.5,355.5 289.5,365.5 289.5,375.5C 213.166,375.333 136.833,375.5 60.5,376C 52.9124,377.636 46.0791,380.802 40,385.5C 39.5001,368.503 39.3334,351.503 39.5,334.5 Z M 468.5,343.5 C 469.5,343.5 470.5,343.5 471.5,343.5C 471.833,367.509 471.5,391.509 470.5,415.5C 469.205,414.902 467.872,414.402 466.5,414C 333.833,413.333 201.167,413.333 68.5,414C 64.8697,417.05 63.703,420.883 65,425.5C 66.6374,427.81 68.804,429.31 71.5,430C 202.167,430.333 332.833,430.667 463.5,431C 473.084,438.872 472.417,445.872 461.5,452C 328.833,452.667 196.167,452.667 63.5,452C 53.3519,449.513 45.8519,443.68 41,434.5C 35.3842,418.456 39.5509,405.622 53.5,396C 57.2316,393.867 61.2316,392.534 65.5,392C 194.5,391.667 323.5,391.333 452.5,391C 455.102,390.065 456.602,388.232 457,385.5C 457.5,372.171 457.667,358.837 457.5,345.5C 461.489,345.884 465.155,345.217 468.5,343.5 Z M 306.5,345.5 C 311.5,345.5 316.5,345.5 321.5,345.5C 321.5,355.5 321.5,365.5 321.5,375.5C 316.5,375.5 311.5,375.5 306.5,375.5C 306.5,365.5 306.5,355.5 306.5,345.5 Z M 338.5,345.5 C 343.833,345.5 349.167,345.5 354.5,345.5C 354.5,355.5 354.5,365.5 354.5,375.5C 349.167,375.5 343.833,375.5 338.5,375.5C 338.5,365.5 338.5,355.5 338.5,345.5 Z M 370.5,345.5 C 375.5,345.5 380.5,345.5 385.5,345.5C 385.5,355.5 385.5,365.5 385.5,375.5C 380.5,375.5 375.5,375.5 370.5,375.5C 370.5,365.5 370.5,355.5 370.5,345.5 Z M 402.5,345.5 C 415.167,345.5 427.833,345.5 440.5,345.5C 440.5,355.5 440.5,365.5 440.5,375.5C 427.833,375.5 415.167,375.5 402.5,375.5C 402.5,365.5 402.5,355.5 402.5,345.5 Z"/></g>
</svg>
