<?xml version="1.0" encoding="UTF-8"?>
<!DOCTYPE svg PUBLIC "-//W3C//DTD SVG 1.1//EN" "http://www.w3.org/Graphics/SVG/1.1/DTD/svg11.dtd">
<svg xmlns="http://www.w3.org/2000/svg" version="1.1" width="512px" height="512px" style="shape-rendering:geometricPrecision; text-rendering:geometricPrecision; image-rendering:optimizeQuality; fill-rule:evenodd; clip-rule:evenodd" xmlns:xlink="http://www.w3.org/1999/xlink">
<g><path style="opacity:0.931" fill="#000000" d="M 301.5,-0.5 C 308.5,-0.5 315.5,-0.5 322.5,-0.5C 325.694,0.516883 328.861,1.85022 332,3.5C 332.667,8.16667 332.667,12.8333 332,17.5C 319.969,25.7598 317.303,36.4265 324,49.5C 332.304,58.788 342.137,61.288 353.5,57C 357.067,59.9447 360.4,63.1114 363.5,66.5C 360.295,77.5915 354.128,86.5915 345,93.5C 346.775,113.254 339.275,128.087 322.5,138C 319.226,139.202 315.893,140.202 312.5,141C 269.167,141.667 225.833,141.667 182.5,141C 160.309,135.807 148.643,121.807 147.5,99C 149.286,74.5453 162.286,60.212 186.5,56C 201.524,28.6566 224.524,17.6566 255.5,23C 258.903,23.5783 262.07,24.7449 265,26.5C 273.762,12.7211 285.929,3.72111 301.5,-0.5 Z M 303.5,15.5 C 305.857,15.3367 308.19,15.5034 310.5,16C 300.03,35.6229 303.03,52.9562 319.5,68C 325.838,72.3341 332.838,74.6675 340.5,75C 328.657,88.5049 314.323,92.1715 297.5,86C 276.136,73.7556 270.303,56.2556 280,33.5C 285.739,24.5742 293.572,18.5742 303.5,15.5 Z M 234.5,37.5 C 243.598,36.6007 252.265,38.1007 260.5,42C 256.867,74.0445 270.534,94.7112 301.5,104C 310.289,105.002 318.955,104.502 327.5,102.5C 327.585,114.103 321.918,121.603 310.5,125C 268.5,125.667 226.5,125.667 184.5,125C 169.256,120.018 162.422,109.518 164,93.5C 169.336,77.532 180.503,70.3653 197.5,72C 203.333,53.328 215.666,41.828 234.5,37.5 Z"/></g>
<g><path style="opacity:0.973" fill="#000000" d="M -0.5,151.5 C 14.5,151.5 29.5,151.5 44.5,151.5C 44.5,158.833 44.5,166.167 44.5,173.5C 185.167,173.5 325.833,173.5 466.5,173.5C 466.5,166.167 466.5,158.833 466.5,151.5C 481.5,151.5 496.5,151.5 511.5,151.5C 511.5,271.5 511.5,391.5 511.5,511.5C 496.5,511.5 481.5,511.5 466.5,511.5C 466.5,501.5 466.5,491.5 466.5,481.5C 456.5,481.5 446.5,481.5 436.5,481.5C 436.5,476.5 436.5,471.5 436.5,466.5C 446.5,466.5 456.5,466.5 466.5,466.5C 466.5,451.5 466.5,436.5 466.5,421.5C 325.833,421.5 185.167,421.5 44.5,421.5C 44.5,436.5 44.5,451.5 44.5,466.5C 170.167,466.5 295.833,466.5 421.5,466.5C 421.5,471.5 421.5,476.5 421.5,481.5C 295.833,481.5 170.167,481.5 44.5,481.5C 44.5,491.5 44.5,501.5 44.5,511.5C 29.5,511.5 14.5,511.5 -0.5,511.5C -0.5,411.5 -0.5,311.5 -0.5,211.5C 4.5,211.5 9.5,211.5 14.5,211.5C 14.5,306.5 14.5,401.5 14.5,496.5C 19.5,496.5 24.5,496.5 29.5,496.5C 29.5,386.5 29.5,276.5 29.5,166.5C 24.5,166.5 19.5,166.5 14.5,166.5C 14.5,176.5 14.5,186.5 14.5,196.5C 9.5,196.5 4.5,196.5 -0.5,196.5C -0.5,181.5 -0.5,166.5 -0.5,151.5 Z M 481.5,166.5 C 486.5,166.5 491.5,166.5 496.5,166.5C 496.5,276.5 496.5,386.5 496.5,496.5C 491.5,496.5 486.5,496.5 481.5,496.5C 481.5,386.5 481.5,276.5 481.5,166.5 Z M 44.5,189.5 C 185.167,189.5 325.833,189.5 466.5,189.5C 466.5,194.167 466.5,198.833 466.5,203.5C 325.833,203.5 185.167,203.5 44.5,203.5C 44.5,198.833 44.5,194.167 44.5,189.5 Z M 44.5,219.5 C 58.5,219.5 72.5,219.5 86.5,219.5C 86.5,251.833 86.5,284.167 86.5,316.5C 70.6349,315.288 56.8016,319.955 45,330.5C 44.5,293.502 44.3333,256.502 44.5,219.5 Z M 102.5,219.5 C 107.167,219.5 111.833,219.5 116.5,219.5C 116.5,271.833 116.5,324.167 116.5,376.5C 111.833,376.5 107.167,376.5 102.5,376.5C 102.5,324.167 102.5,271.833 102.5,219.5 Z M 132.5,219.5 C 149.5,219.5 166.5,219.5 183.5,219.5C 183.5,251.833 183.5,284.167 183.5,316.5C 166.5,316.5 149.5,316.5 132.5,316.5C 132.5,284.167 132.5,251.833 132.5,219.5 Z M 199.5,219.5 C 204.167,219.5 208.833,219.5 213.5,219.5C 213.5,271.833 213.5,324.167 213.5,376.5C 208.833,376.5 204.167,376.5 199.5,376.5C 199.5,324.167 199.5,271.833 199.5,219.5 Z M 229.5,219.5 C 246.833,219.5 264.167,219.5 281.5,219.5C 281.5,251.833 281.5,284.167 281.5,316.5C 264.167,316.5 246.833,316.5 229.5,316.5C 229.5,284.167 229.5,251.833 229.5,219.5 Z M 297.5,219.5 C 302.167,219.5 306.833,219.5 311.5,219.5C 311.5,271.833 311.5,324.167 311.5,376.5C 306.833,376.5 302.167,376.5 297.5,376.5C 297.5,324.167 297.5,271.833 297.5,219.5 Z M 327.5,219.5 C 344.5,219.5 361.5,219.5 378.5,219.5C 378.5,251.833 378.5,284.167 378.5,316.5C 361.5,316.5 344.5,316.5 327.5,316.5C 327.5,284.167 327.5,251.833 327.5,219.5 Z M 394.5,219.5 C 399.167,219.5 403.833,219.5 408.5,219.5C 408.5,271.833 408.5,324.167 408.5,376.5C 403.833,376.5 399.167,376.5 394.5,376.5C 394.5,324.167 394.5,271.833 394.5,219.5 Z M 424.5,219.5 C 438.5,219.5 452.5,219.5 466.5,219.5C 466.667,256.502 466.5,293.502 466,330.5C 454.198,319.955 440.365,315.288 424.5,316.5C 424.5,284.167 424.5,251.833 424.5,219.5 Z M 81.5,331.5 C 83.1667,331.5 84.8333,331.5 86.5,331.5C 86.5,346.5 86.5,361.5 86.5,376.5C 72.5,376.5 58.5,376.5 44.5,376.5C 44.2208,350.804 56.5542,335.804 81.5,331.5 Z M 132.5,331.5 C 149.5,331.5 166.5,331.5 183.5,331.5C 183.5,346.5 183.5,361.5 183.5,376.5C 166.5,376.5 149.5,376.5 132.5,376.5C 132.5,361.5 132.5,346.5 132.5,331.5 Z M 229.5,331.5 C 246.833,331.5 264.167,331.5 281.5,331.5C 281.5,346.5 281.5,361.5 281.5,376.5C 264.167,376.5 246.833,376.5 229.5,376.5C 229.5,361.5 229.5,346.5 229.5,331.5 Z M 327.5,331.5 C 344.5,331.5 361.5,331.5 378.5,331.5C 378.5,346.5 378.5,361.5 378.5,376.5C 361.5,376.5 344.5,376.5 327.5,376.5C 327.5,361.5 327.5,346.5 327.5,331.5 Z M 424.5,331.5 C 445.028,331.502 458.528,341.168 465,360.5C 465.684,365.822 466.184,371.156 466.5,376.5C 452.5,376.5 438.5,376.5 424.5,376.5C 424.5,361.5 424.5,346.5 424.5,331.5 Z M 44.5,391.5 C 185.167,391.5 325.833,391.5 466.5,391.5C 466.5,396.5 466.5,401.5 466.5,406.5C 325.833,406.5 185.167,406.5 44.5,406.5C 44.5,401.5 44.5,396.5 44.5,391.5 Z"/></g>
<g><path style="opacity:1" fill="#000000" d="M 406.5,436.5 C 411.5,436.5 416.5,436.5 421.5,436.5C 421.5,441.5 421.5,446.5 421.5,451.5C 416.5,451.5 411.5,451.5 406.5,451.5C 406.5,446.5 406.5,441.5 406.5,436.5 Z"/></g>
<g><path style="opacity:1" fill="#000000" d="M 436.5,436.5 C 441.5,436.5 446.5,436.5 451.5,436.5C 451.5,441.5 451.5,446.5 451.5,451.5C 446.5,451.5 441.5,451.5 436.5,451.5C 436.5,446.5 436.5,441.5 436.5,436.5 Z"/></g>
</svg>
