<?xml version="1.0" encoding="UTF-8"?>
<svg version="1.1" xmlns="http://www.w3.org/2000/svg" width="512" height="512">
<path d="M0 0 C3.96812702 2.13668378 6.40310924 3.77074759 8 8 C8.24774647 10.75836086 8.24774647 10.75836086 8.24482727 13.99009705 C8.24876495 15.2168364 8.25270264 16.44357574 8.25675964 17.70748901 C8.25115084 19.06402648 8.24539329 20.42056334 8.23950195 21.77709961 C8.24061503 23.20798339 8.24267314 24.63886671 8.24560547 26.06974792 C8.25032618 29.14942403 8.24920916 32.22902389 8.24382973 35.30869865 C8.23622211 40.17896398 8.24687277 45.04908227 8.2610321 49.91932678 C8.29877872 63.76775687 8.31695511 77.61612039 8.30541992 91.46459961 C8.29920503 99.1143074 8.31077548 106.76377798 8.34186524 114.41342741 C8.36052962 119.25437976 8.35719216 124.09466075 8.33769763 128.93560207 C8.33081651 131.94822052 8.34477127 134.96047476 8.36464691 137.97302437 C8.36969472 139.36901055 8.36620769 140.76505789 8.35351372 142.16099548 C8.22574903 150.02610651 8.22574903 150.02610651 10.7384491 157.31837463 C15.92646147 159.99326565 21.05768219 159.78348411 26.8125 159.8125 C27.98232422 159.83763672 29.15214844 159.86277344 30.35742188 159.88867188 C33.2386193 159.94747182 36.11829983 159.98380532 39 160 C38.99539104 159.21700972 38.99078207 158.43401943 38.98603344 157.62730217 C38.87559939 138.57316558 38.79286541 119.51909288 38.74093914 100.46470451 C38.71516032 91.25011577 38.68001603 82.03574067 38.62280273 72.82128906 C38.57295781 64.78971562 38.54070664 56.75829692 38.52955753 48.72657311 C38.52304056 44.47397272 38.50773096 40.22181501 38.47134972 35.96935654 C38.43737277 31.96542871 38.42695028 27.96212524 38.43446159 23.95806694 C38.43308778 22.48990039 38.42316474 21.02171263 38.40397263 19.55367088 C38.24889776 7.07813035 38.24889776 7.07813035 41.39289856 3.13650513 C45.20518475 0.0123578 48.1691443 -0.38646846 53 0 C56.7833464 1.56268656 58.88444862 3.5295122 61 7 C61.36914349 9.88164902 61.36914349 9.88164902 61.36076355 13.28948975 C61.36488754 14.58235397 61.36901154 15.8752182 61.3732605 17.20726013 C61.36264368 18.63784999 61.35173926 20.06843774 61.34057617 21.49902344 C61.33972986 23.00698327 61.34020512 24.51494433 61.34190369 26.02290344 C61.34276491 30.11561948 61.32511861 34.2080721 61.30418181 38.30072689 C61.28543624 42.57817692 61.28366625 46.8556329 61.28010559 51.13311768 C61.27077889 59.23267447 61.24615666 67.33210988 61.21605712 75.43161321 C61.18253256 84.65279514 61.166032 93.87398285 61.15097082 103.09521055 C61.11960764 122.06354254 61.06683499 141.03176151 61 160 C65.06373807 159.97716246 69.12467576 159.89980036 73.1875 159.8125 C74.33798828 159.80669922 75.48847656 159.80089844 76.67382812 159.79492188 C81.42101224 159.67108229 85.00942026 159.51102538 89.26353455 157.31639099 C92.13317206 151.83580975 91.66541591 146.19109918 91.59594727 140.12524414 C91.59785194 138.69583178 91.60200904 137.2664209 91.60824585 135.83702087 C91.61702933 132.76318926 91.6102961 129.68992258 91.59158516 126.61613655 C91.56247259 121.75382623 91.57029149 116.89200172 91.58348083 112.02964783 C91.60413935 102.58477882 91.58854911 93.14014523 91.56800842 83.69528961 C91.54286291 71.67681424 91.53002038 59.6584704 91.55796474 47.63999075 C91.56791042 42.80852676 91.55780885 37.97764619 91.53205693 33.14624608 C91.51986969 30.13803545 91.5240963 27.13000622 91.53263474 24.12178993 C91.53316898 22.72942873 91.52685417 21.33704504 91.51309395 19.94475174 C91.3901445 6.86694948 91.3901445 6.86694948 96 2 C98.86895744 -0.00542966 100.98701218 -0.26640265 104.4375 0.0625 C105.17871094 0.11535156 105.91992188 0.16820312 106.68359375 0.22265625 C110.10295348 1.3701311 111.69530728 3.25897445 114 6 C114.62641239 8.97676373 114.62641239 8.97676373 114.62818909 12.342453 C114.64084305 13.6222403 114.65349701 14.90202759 114.66653442 16.22059631 C114.65521872 17.6316874 114.64339126 19.04277446 114.63110352 20.45385742 C114.63624394 21.9457484 114.64352616 23.4376333 114.65278625 24.92950439 C114.67130124 28.97750003 114.65835829 33.02483694 114.63869596 37.07280517 C114.62229351 41.31622933 114.63112527 45.55961227 114.63621521 49.80305481 C114.64073686 56.93432101 114.6248681 64.06532501 114.59692383 71.1965332 C114.56493291 79.42346881 114.56486354 87.64992993 114.5821386 95.87689894 C114.59804937 103.80535042 114.59123699 111.73362913 114.57420158 119.66207314 C114.56735578 123.02827914 114.56833821 126.39434563 114.57574654 129.76054955 C114.58345451 133.73423104 114.57113769 137.70737854 114.54389763 141.68096924 C114.53705733 143.13289621 114.53686865 144.58487347 114.54411316 146.03679848 C114.58734341 155.83633356 113.46793053 163.34855765 108.3125 171.75 C102.07566184 177.81827496 95.15760283 182.11918119 86.3125 182.0390625 C85.50425781 182.03342285 84.69601563 182.0277832 83.86328125 182.02197266 C83.24839844 182.01472168 82.63351563 182.0074707 82 182 C82.00227832 182.60272665 82.00455664 183.2054533 82.00690401 183.82644439 C82.14126991 219.57541995 82.24416845 255.32435193 82.30639198 291.07352762 C82.31389592 295.36916858 82.32166188 299.66480902 82.32958984 303.96044922 C82.33116371 304.81560793 82.33273757 305.67076665 82.33435912 306.55183926 C82.36044326 320.38541204 82.40773757 334.21883471 82.46291678 348.05231854 C82.51909223 362.25436297 82.55236669 376.45632896 82.56453097 390.65847993 C82.57275002 399.4169696 82.59867712 408.17503492 82.6474988 416.93339393 C82.67929659 422.94521393 82.68878213 428.95681563 82.68100826 434.96871355 C82.67717778 438.43369686 82.68290929 441.89794043 82.71523285 445.36279106 C82.74521548 449.12954981 82.73786119 452.89451307 82.7215271 456.66131592 C82.73900415 457.74306398 82.7564812 458.82481205 82.77448785 459.93934035 C82.6730803 468.62852468 80.06277324 476.40461464 74.22498643 483.00771022 C66.39678673 490.30898614 57.56672512 492.3477898 47.125 492.20703125 C38.22297688 491.61727222 31.23978093 488.41840061 25 482 C21.07104786 476.56054735 17.88324698 471.41709998 17.86298561 464.58430672 C17.85791107 463.67573422 17.85283653 462.76716172 17.84760821 461.83105671 C17.84711045 460.83155928 17.84661269 459.83206185 17.84609985 458.80227661 C17.8417176 457.74151755 17.83733535 456.68075849 17.8328203 455.58785522 C17.81941259 452.0157624 17.81324906 448.44369426 17.80712891 444.87158203 C17.79922967 442.31770719 17.79096083 439.76383347 17.78234863 437.20996094 C17.7583786 429.5344505 17.74320045 421.85894127 17.73028857 414.18340522 C17.72657661 412.01604995 17.7226034 409.84869532 17.7185359 407.68134069 C17.69330382 394.22533207 17.67124857 380.76932243 17.65880775 367.31329536 C17.65587802 364.19698203 17.65291636 361.08066873 17.64990234 357.96435547 C17.64915629 357.18980368 17.64841024 356.4152519 17.64764158 355.61722885 C17.63498092 343.06273385 17.60174744 330.50838024 17.56010051 317.95395137 C17.51770461 305.06829989 17.49411562 292.18272087 17.48888719 279.29699981 C17.48547084 272.06053478 17.4736892 264.82429089 17.44078445 257.58789444 C17.40989468 250.7834836 17.40435379 243.97952615 17.41616821 237.17503357 C17.41638983 234.67442768 17.40801273 232.17380441 17.39051437 229.67325974 C17.36796145 226.26559934 17.37605446 222.85935635 17.39199829 219.45169067 C17.3781162 218.45665468 17.36423412 217.46161869 17.34993136 216.4364301 C17.40403889 211.75963428 17.45691679 209.69561702 20.41300011 205.90926933 C24.02859615 203.24087083 26.33476043 202.60300328 30.89453125 202.64453125 C34.65569115 203.27953227 36.40291048 205.27622319 39 208 C39.92773823 210.7832147 40.12565384 212.4370833 40.12749195 215.309165 C40.1304996 216.19397043 40.13350725 217.07877586 40.13660604 217.99039358 C40.13398048 219.44980795 40.13398048 219.44980795 40.13130188 220.93870544 C40.13341759 221.9715852 40.13553331 223.00446496 40.13771313 224.06864411 C40.14372772 227.54634291 40.14271195 231.02400559 40.1418457 234.50170898 C40.14487618 236.98824119 40.14839732 239.47477284 40.15237427 241.96130371 C40.16027134 247.32403609 40.16543164 252.68676118 40.16866493 258.0494976 C40.17415946 266.5235024 40.19105433 274.9974669 40.21000671 283.47145081 C40.21636346 286.36981481 40.22267188 289.26817891 40.22898388 292.16654301 C40.23056764 292.89087739 40.2321514 293.61521177 40.23378316 294.36149568 C40.25172163 302.60761207 40.26794769 310.8537313 40.28295898 319.09985352 C40.28433486 319.85373331 40.28571073 320.6076131 40.28712829 321.38433773 C40.30906752 333.60641106 40.31981683 345.82847403 40.32732973 358.05056357 C40.33539563 370.59386208 40.35866794 383.13707164 40.3952834 395.68031937 C40.41732947 403.42011096 40.42696668 411.15971974 40.42078307 418.89954115 C40.41723868 424.82739693 40.43444222 430.75507632 40.45946121 436.68288422 C40.46640352 439.11777079 40.46646718 441.55268782 40.45926094 443.98757362 C40.45043596 447.30350999 40.46596389 450.6184554 40.48774719 453.93431091 C40.47930466 454.90502311 40.47086212 455.8757353 40.46216375 456.87586302 C40.48108613 462.06522111 40.48108613 462.06522111 42.8210783 466.57051182 C45.94314555 468.6187535 48.28004164 468.93586279 52 469 C56.32393774 467.45204133 56.32393774 467.45204133 59 464 C59.09828775 462.45236419 59.13384922 460.90055207 59.1386652 459.34980583 C59.14413964 458.36350618 59.14961409 457.37720653 59.15525442 456.36101902 C59.15623253 455.26959728 59.15721064 454.17817554 59.15821838 453.05368042 C59.16315636 451.9004098 59.16809434 450.74713919 59.17318195 449.55892098 C59.18592441 446.34819395 59.19419068 443.13749045 59.20060861 439.92674565 C59.20859848 436.46797641 59.2223011 433.00922937 59.23532104 429.55047607 C59.2571039 423.55475432 59.27524175 417.55903033 59.29092598 411.56328964 C59.31360816 402.89438317 59.34175326 394.22550127 59.37124526 385.55661561 C59.41894145 371.49299546 59.46220013 357.42936528 59.50268555 343.36572266 C59.54203017 329.70165221 59.5834539 316.03759069 59.62768555 302.37353516 C59.63040982 301.53172785 59.63313409 300.68992054 59.63594092 299.82260393 C59.64962022 295.59963699 59.66334053 291.37667019 59.67708123 287.15370345 C59.79107785 252.10248744 59.89788015 217.05125255 60 182 C59.38327423 182.00888245 58.76654846 182.01776489 58.13113403 182.0269165 C51.67410614 182.11586221 45.21725415 182.17592916 38.75976562 182.21972656 C36.35442019 182.23976034 33.94912297 182.26699522 31.54394531 182.30175781 C28.07344622 182.35063808 24.60359474 182.37305205 21.1328125 182.390625 C20.06886261 182.41127014 19.00491272 182.43191528 17.90872192 182.45318604 C9.68656487 182.45562071 3.26108797 180.61475853 -3.75 176.3125 C-10.40476204 169.47288346 -14.23399004 162.1442626 -14.27415466 152.50364685 C-14.28412979 151.21525909 -14.29410492 149.92687134 -14.30438232 148.59944153 C-14.30527797 147.18405164 -14.30594162 145.76866159 -14.30639648 144.35327148 C-14.3140232 142.8531249 -14.32245158 141.3529822 -14.33161926 139.85284424 C-14.35351277 135.78893621 -14.36235548 131.72510339 -14.36744571 127.66114306 C-14.37109348 125.12128039 -14.37733554 122.5814373 -14.3844471 120.04158211 C-14.40891764 111.17883567 -14.42198961 102.31614763 -14.42553711 93.45336914 C-14.42917697 85.19392079 -14.45911046 76.93484297 -14.50094169 68.67550796 C-14.53561898 61.57981322 -14.55108505 54.48424153 -14.55178314 47.3884626 C-14.55257643 43.15223141 -14.56133958 38.91637847 -14.58978081 34.68023491 C-14.61591997 30.69834071 -14.61819053 26.71713967 -14.60212517 22.73519897 C-14.60030769 21.27468926 -14.60702849 19.81414002 -14.62294388 18.3537159 C-14.64335565 16.35903632 -14.6298804 14.36409599 -14.61473083 12.36936951 C-14.61674216 11.25349677 -14.61875349 10.13762403 -14.62082577 8.98793697 C-13.79677799 5.02192437 -12.09379689 3.52776823 -9 1 C-5.64870516 -0.11709828 -3.51689744 -0.34479387 0 0 Z " fill="#414141" transform="translate(46,10)"/>
<path d="M0 0 C3.56034352 2.78965941 6.8006632 5.80592527 10 9 C10.70125 9.68964844 11.4025 10.37929688 12.125 11.08984375 C34.5049049 34.56251745 37.77818636 68.94342275 37.24153137 99.68119812 C37.00410015 108.75154603 35.50451551 117.29224742 33 126 C32.73509766 126.98806641 32.73509766 126.98806641 32.46484375 127.99609375 C28.54092674 142.44192156 20.65245859 161.59854342 7.9022274 170.45755768 C4.82371531 174.57217584 5.46515171 178.87693692 5.52139282 183.8782959 C5.51812497 185.00030726 5.51485711 186.12231862 5.51149023 187.27833033 C5.50522166 191.05234347 5.52744874 194.82566208 5.54931641 198.59960938 C5.55265825 201.29991158 5.54987547 204.00019841 5.54719543 206.70050049 C5.54433412 212.52380314 5.55541601 218.34694447 5.57527542 224.17021179 C5.60348644 232.60275861 5.60399696 241.03513908 5.59659235 249.46772176 C5.58475965 263.16599622 5.58635309 276.86422839 5.60058594 290.5625 C5.60143119 291.38249995 5.60227645 292.20249989 5.60314731 293.04734832 C5.61286465 302.18692672 5.62581954 311.32649594 5.64239502 320.46606445 C5.64835226 323.77555332 5.65428012 327.08504224 5.66015625 330.39453125 C5.66161257 331.2111063 5.66306888 332.02768134 5.66456933 332.86900109 C5.68824598 346.50620879 5.6886175 360.14330789 5.67088258 373.78052378 C5.66094748 382.18612112 5.67096609 390.5912297 5.70698939 398.99675804 C5.73023936 404.7642123 5.73185824 410.53141823 5.71678568 416.29889864 C5.70882371 419.62230696 5.71382094 422.94433807 5.73877525 426.2677536 C5.93139179 453.37820467 5.93139179 453.37820467 -2.77506065 462.95186615 C-10.44749721 470.3758718 -19.51461492 472.3466933 -29.875 472.20703125 C-38.77702312 471.61727222 -45.76021907 468.41840061 -52 462 C-55.86911704 456.64338628 -59.11820349 451.49561019 -59.13422108 444.75609779 C-59.13867892 443.88584264 -59.14313676 443.01558749 -59.14772969 442.11896098 C-59.14754533 441.16226397 -59.14736097 440.20556697 -59.14717102 439.21987915 C-59.15084771 438.20403917 -59.1545244 437.18819918 -59.1583125 436.14157617 C-59.16936745 432.72149495 -59.17319622 429.30144409 -59.17700195 425.88134766 C-59.18326511 423.43584598 -59.18991177 420.99034525 -59.19691467 418.54484558 C-59.21615271 411.19562157 -59.22674329 403.84640563 -59.23564246 396.49716383 C-59.24002563 393.03702203 -59.24539228 389.57688177 -59.25063133 386.11674118 C-59.2676411 374.61648438 -59.28213643 363.11622853 -59.28938007 351.61596107 C-59.29128998 348.63199487 -59.29321032 345.64802867 -59.29516602 342.6640625 C-59.29564976 341.92240748 -59.2961335 341.18075246 -59.2966319 340.41662304 C-59.30493664 328.39563806 -59.33028214 316.37475243 -59.36274669 304.35381086 C-59.39579821 292.01508433 -59.41382701 279.67640835 -59.41702431 267.33763731 C-59.41919094 260.4086086 -59.42796192 253.47972489 -59.45348549 246.55073929 C-59.47743028 240.03531104 -59.48103022 233.52009725 -59.47072411 227.00461769 C-59.47022681 224.61044637 -59.47660385 222.21626251 -59.49028015 219.8221302 C-59.50788024 216.55913247 -59.50095105 213.29708524 -59.48774719 210.03408813 C-59.49871644 209.08185258 -59.50968568 208.12961702 -59.52098733 207.14852583 C-59.47932375 202.89777477 -59.38268527 200.6154808 -57.0945158 196.93536949 C-53.40288476 193.52423738 -50.35946049 193.60930664 -45.484375 193.64453125 C-43 194 -43 194 -39.9375 196.3125 C-37.50784165 199.68267126 -36.87521838 202.08735306 -36.87250805 206.13737392 C-36.8695004 206.983862 -36.86649275 207.83035008 -36.86339396 208.70248932 C-36.86601952 210.09770304 -36.86601952 210.09770304 -36.86869812 211.52110291 C-36.86658241 212.50906359 -36.86446669 213.49702427 -36.86228687 214.51492316 C-36.8562734 217.84060756 -36.85728797 221.16625416 -36.8581543 224.49194336 C-36.85512375 226.87010259 -36.85160259 229.24826123 -36.84762573 231.62641907 C-36.83972923 236.75506086 -36.83458903 241.88369566 -36.83133507 247.01234245 C-36.82584001 255.11669383 -36.8089446 263.2210031 -36.78999329 271.32533264 C-36.78363656 274.09739201 -36.77732814 276.86945149 -36.77101612 279.64151096 C-36.76943236 280.33427761 -36.7678486 281.02704425 -36.76621684 281.74080382 C-36.74827897 289.62724835 -36.73205262 297.51369585 -36.71704102 305.40014648 C-36.71566514 306.12112951 -36.71428927 306.84211254 -36.71287171 307.58494354 C-36.69093276 319.27352835 -36.68018321 330.96210232 -36.67267027 342.65070408 C-36.66460395 354.64707871 -36.64133032 366.64336034 -36.6047166 378.63968188 C-36.58465209 385.3769471 -36.5720204 392.11406515 -36.57755089 398.85136223 C-36.58217968 405.18546565 -36.5684888 411.51925918 -36.54053879 417.85330009 C-36.5335974 420.18175744 -36.53353186 422.51024662 -36.54073906 424.83870316 C-36.54956635 428.01014657 -36.5340326 431.18055451 -36.51225281 434.35191345 C-36.52491661 435.7437811 -36.52491661 435.7437811 -36.53783625 437.16376728 C-36.50136166 442.19256652 -36.50136166 442.19256652 -34.1789217 446.54441166 C-31.06134824 448.62704895 -28.73377513 448.93562457 -25 449 C-20.67606226 447.45204133 -20.67606226 447.45204133 -18 444 C-17.90229367 442.56704593 -17.86617306 441.12966111 -17.8613348 439.69338799 C-17.85586036 438.78372304 -17.85038591 437.87405809 -17.84474558 436.93682754 C-17.84376747 435.93100667 -17.84278936 434.92518579 -17.84178162 433.8888855 C-17.83684364 432.82545303 -17.83190566 431.76202057 -17.82681805 430.66636288 C-17.8113794 427.07949747 -17.80306524 423.49265005 -17.79467773 419.90576172 C-17.78510421 417.34392131 -17.77509445 414.78208249 -17.76467896 412.22024536 C-17.74319273 406.6927023 -17.72475953 401.16516228 -17.70907402 395.63759995 C-17.68639001 387.64561218 -17.65824516 379.65365104 -17.62875474 371.66168584 C-17.5810608 358.69618121 -17.53780151 345.73066571 -17.49731445 332.76513672 C-17.45796869 320.1681229 -17.41654468 307.57111875 -17.37231445 294.97412109 C-17.36959018 294.19802769 -17.36686591 293.42193429 -17.36405908 292.6223229 C-17.35037976 288.72900552 -17.33665945 284.83568829 -17.32291877 280.94237113 C-17.20892568 248.62826736 -17.1021226 216.31414354 -17 184 C-17.66 184.33 -18.32 184.66 -19 185 C-35.66974277 186.01264792 -48.67363787 182.56447221 -61.625 171.4375 C-80.27662406 153.60835154 -90.52848038 125.63852339 -91.26396179 100.08421326 C-91.32704587 96.49317886 -91.33050316 92.90395765 -91.3125 89.3125 C-91.31067719 88.55954651 -91.30885437 87.80659302 -91.30697632 87.03082275 C-91.26228545 76.07879432 -90.86880049 65.63075667 -88 55 C-87.83371094 54.35047363 -87.66742188 53.70094727 -87.49609375 53.03173828 C-83.69940636 38.43206908 -77.21873963 24.96131467 -68 13 C-67.278125 11.989375 -66.55625 10.97875 -65.8125 9.9375 C-49.1225369 -9.19887463 -21.3749353 -13.77039101 0 0 Z M-54.75 32.30859375 C-69.39490213 54.92428897 -72.49954188 86.12970349 -67.41235352 112.10571289 C-63.57656638 129.70735571 -56.38304874 148.21051523 -41 158.81640625 C-35.35496356 162.15712117 -29.63722767 164.11666023 -23 163 C-10.65903209 159.16106974 -2.12658352 150.29748891 4.01367188 139.16162109 C17.07356743 113.60022591 19.12891992 81.32918967 10.48828125 54.0546875 C5.52981294 39.37373231 -1.91675903 23.83985267 -16.375 16.375 C-32.66826535 10.3691932 -45.18689728 19.6929828 -54.75 32.30859375 Z " fill="#424242" transform="translate(443,30)"/>
<path d="M0 0 C2.93423195 1.79646854 4.47205355 2.9441071 6 6 C6.10172693 8.37613897 6.142909 10.72323884 6.1398077 13.09983635 C6.14423484 14.21476434 6.14423484 14.21476434 6.14875141 15.35221612 C6.15748492 17.86876299 6.1590269 20.38526413 6.16062927 22.90182495 C6.16535738 24.71403683 6.1705079 26.52624765 6.17604691 28.33845723 C6.18998973 33.33886279 6.197547 38.33926106 6.2040199 43.33968115 C6.21038042 47.62378277 6.22045208 51.90787233 6.23058056 56.19196646 C6.26394698 70.3114969 6.28543591 84.43103468 6.30378041 98.55059165 C6.30857368 102.22679187 6.31355722 105.90299178 6.31858563 109.57919168 C6.34955956 132.39955409 6.37625035 155.21991901 6.39300442 178.04029655 C6.39695405 183.32927327 6.40095702 188.61824994 6.4050293 193.90722656 C6.40603766 195.22180895 6.40704602 196.53639133 6.40808494 197.89080955 C6.42508707 219.18014469 6.46618872 240.46933953 6.51705229 261.75862239 C6.5688266 283.60866309 6.59794664 305.45864398 6.6052013 327.3087455 C6.60986427 339.57956998 6.62462282 351.85020409 6.6649456 364.12096786 C6.69925069 374.57333172 6.71318298 385.02547087 6.70052146 395.47788779 C6.69469544 400.81007219 6.69855496 406.1417814 6.7286911 411.47389412 C6.75607968 416.35982338 6.75553495 421.24494046 6.73318065 426.130888 C6.72996164 427.89416456 6.73680311 429.65749575 6.75497787 431.42068158 C6.86339117 442.62133533 6.10564789 452.17220231 -1.77498728 460.98492515 C-9.53925254 468.33701859 -18.4668943 470.3473366 -28.875 470.20703125 C-37.77702312 469.61727222 -44.76021907 466.41840061 -51 460 C-56.01516956 453.05672954 -58.15342824 447.61937169 -58.1111145 439.06906128 C-58.11111352 438.25205407 -58.11111253 437.43504687 -58.11111152 436.59328187 C-58.11007549 433.84585464 -58.10205296 431.09848988 -58.09423828 428.35107422 C-58.09235968 426.38496442 -58.09101445 424.41885404 -58.09016418 422.45274353 C-58.08787796 418.21299599 -58.0831513 413.97326027 -58.07696915 409.73351669 C-58.06857391 403.02659874 -58.07399307 396.31973818 -58.08297729 389.61282349 C-58.0844483 388.48125442 -58.08591931 387.34968536 -58.08743489 386.18382633 C-58.09050575 383.86957925 -58.09362578 381.55533224 -58.09679389 379.24108529 C-58.11798335 363.62420055 -58.13169523 348.00750234 -58.09960938 332.390625 C-58.07807463 321.86043639 -58.08123508 311.3305765 -58.11301792 300.80040944 C-58.12886565 295.22813897 -58.13211186 289.65649696 -58.10525894 284.08425522 C-58.08020491 278.83906272 -58.08780235 273.59492208 -58.12013817 268.34977913 C-58.12622032 266.42816327 -58.12041769 264.50646611 -58.10164452 262.58493233 C-57.65800365 250.86638016 -57.65800365 250.86638016 -62.41110229 240.54251099 C-63.6024323 239.35666079 -64.79830612 238.17534662 -66 237 C-67.61136536 234.35888275 -68.91710755 231.6313708 -70.1875 228.8125 C-70.69047607 227.71349365 -70.69047607 227.71349365 -71.20361328 226.59228516 C-90.99461394 182.16606324 -79.40898869 119.377945 -62.92626953 75.35595703 C-54.44060782 53.77276369 -29.22782972 -3.91569011 0 0 Z M-17 39 C-49.11161487 74.46769814 -57.21371005 130.48119666 -57.5 176.4375 C-57.51053406 177.29714355 -57.52106812 178.15678711 -57.53192139 179.04248047 C-57.74819247 201.77872668 -52.15966407 221.44259256 -35.9140625 238.14453125 C-26.93303237 246.69174177 -26.93303237 246.69174177 -16 251 C-16 181.04 -16 111.08 -16 39 C-16.33 39 -16.66 39 -17 39 Z M-36 266 C-36.11675595 288.86113401 -36.2049503 311.72221893 -36.25906086 334.58359051 C-36.28485217 345.19832508 -36.32002049 355.8128745 -36.37719727 366.42749023 C-36.42700376 375.6782472 -36.45928427 384.92887009 -36.47044247 394.17975742 C-36.47696589 399.07896286 -36.49231705 403.97778469 -36.52865028 408.87686729 C-36.56256622 413.48732372 -36.57306188 418.09723821 -36.56553841 422.70780754 C-36.56691493 424.40053502 -36.57687384 426.09328045 -36.59602737 427.78590012 C-36.62089824 430.09696237 -36.61492909 432.40597741 -36.60127258 434.71708679 C-36.60588155 436.01036235 -36.61049051 437.30363791 -36.61523914 438.63610363 C-35.83593452 442.89704835 -34.36275727 444.35311942 -31 447 C-26.83911606 448.21043896 -24.75291539 448.28411902 -20.6875 446.75 C-17.79291751 445.11682876 -17.79291751 445.11682876 -16 442 C-15.70203509 438.90218246 -15.70203509 438.90218246 -15.75949097 435.29927063 C-15.75692769 434.27249585 -15.75692769 434.27249585 -15.75431263 433.22497815 C-15.7510127 430.92632823 -15.76202952 428.62796883 -15.77294922 426.3293457 C-15.77351322 424.68360399 -15.77319698 423.03786178 -15.77206421 421.39212036 C-15.77148928 416.91925627 -15.78326624 412.44649898 -15.79721212 407.97365975 C-15.80969615 403.30114547 -15.81088814 398.62862886 -15.81326294 393.95610046 C-15.81948456 385.10572648 -15.8359046 376.25540177 -15.85596192 367.4050495 C-15.87829971 357.33020876 -15.88930901 347.25536568 -15.89935279 337.18050635 C-15.92027024 316.45364337 -15.95545946 295.72682479 -16 275 C-18.02025905 274.06126309 -20.0412364 273.12407197 -22.0625 272.1875 C-23.18785156 271.66542969 -24.31320312 271.14335937 -25.47265625 270.60546875 C-28.96217544 269.01721583 -32.47071638 267.4971356 -36 266 Z " fill="#414141" transform="translate(282,32)"/>
</svg>
