<?xml version="1.0" encoding="UTF-8"?>
<svg version="1.1" xmlns="http://www.w3.org/2000/svg" width="512" height="512">
<path d="M0 0 C0.85435733 -0.00581376 1.70871466 -0.01162753 2.5889616 -0.01761746 C5.4714958 -0.03229516 8.35318882 -0.0182961 11.23571777 -0.00457001 C13.31522306 -0.00917585 15.3947251 -0.01552662 17.47422028 -0.02347898 C23.20394158 -0.04023891 28.93339777 -0.03189569 34.66312027 -0.01953411 C40.83634525 -0.01051315 47.00952346 -0.02443864 53.18273926 -0.0354538 C64.582214 -0.0522443 75.98158018 -0.05074445 87.38105226 -0.03980792 C97.91114844 -0.02975478 108.44121348 -0.02711464 118.97131348 -0.0318985 C119.6691768 -0.03220404 120.36704012 -0.03250958 121.08605081 -0.03282438 C123.91874205 -0.03406969 126.75143327 -0.03534328 129.58412448 -0.03666343 C156.16940655 -0.04890576 182.75463452 -0.03779558 209.33990824 -0.01627585 C232.9712227 0.00270729 256.60245094 0.00100881 280.23376465 -0.01811981 C306.76970493 -0.0395277 333.30559739 -0.04803762 359.8415451 -0.03567076 C362.66914367 -0.03438784 365.49674224 -0.03313649 368.32434082 -0.0318985 C369.02059297 -0.03158219 369.71684512 -0.03126588 370.43419582 -0.03093999 C380.95895126 -0.02638569 391.48367219 -0.03171938 402.00842285 -0.04181671 C413.97280025 -0.05323781 425.93707578 -0.05004233 437.9014492 -0.02869374 C444.01023517 -0.01815415 450.1188458 -0.01411096 456.22763062 -0.02729034 C461.81361349 -0.03915988 467.39925757 -0.03274183 472.98520947 -0.01138014 C475.01206214 -0.00689092 477.03894311 -0.00923186 479.06577778 -0.01888329 C481.80948366 -0.03095183 484.5520112 -0.01867005 487.2956543 0 C488.49106228 -0.014047 488.49106228 -0.014047 489.71061993 -0.02837777 C493.02290028 0.0170345 495.28241517 0.2818991 498.13837767 2.01281404 C500.28607839 5.55646173 500.19845338 8.83354083 500.15119171 12.85553741 C500.15700547 13.70989474 500.16281924 14.56425207 500.16880918 15.44449902 C500.18348687 18.32703321 500.16948781 21.20872623 500.15576172 24.09125519 C500.16036756 26.17076047 500.16671833 28.25026251 500.1746707 30.32975769 C500.19143062 36.059479 500.1830874 41.78893519 500.17072582 47.51865768 C500.16170486 53.69188266 500.17563035 59.86506088 500.18664551 66.03827667 C500.20343601 77.43775141 500.20193616 88.83711759 500.19099963 100.23658967 C500.18094649 110.76668585 500.17830635 121.2967509 500.18309021 131.82685089 C500.18354852 132.87364587 500.18354852 132.87364587 500.18401609 133.94158822 C500.1852614 136.77427946 500.18653499 139.60697069 500.18785514 142.43966189 C500.20009747 169.02494396 500.18898729 195.61017193 500.16746756 222.19544566 C500.14848442 245.82676011 500.1501829 269.45798836 500.16931152 293.08930206 C500.19071941 319.62524235 500.19922933 346.1611348 500.18686247 372.69708252 C500.18557955 375.52468108 500.1843282 378.35227965 500.18309021 381.17987823 C500.1827739 381.87613038 500.18245759 382.57238253 500.1821317 383.28973323 C500.1775774 393.81448867 500.18291109 404.3392096 500.19300842 414.86396027 C500.20442952 426.82833766 500.20123404 438.79261319 500.17988545 450.75698662 C500.16934586 456.86577258 500.16530267 462.97438322 500.17848206 469.08316803 C500.19035159 474.66915091 500.18393354 480.25479499 500.16257185 485.84074688 C500.15808263 487.86759956 500.16042357 489.89448052 500.170075 491.92131519 C500.18214354 494.66502107 500.16986176 497.40754861 500.15119171 500.15119171 C500.16055638 500.94813037 500.16992104 501.74506903 500.17956948 502.56615734 C500.13415721 505.87843769 499.86929261 508.13795259 498.13837767 510.99391508 C494.59472998 513.14161581 491.31765088 513.05399079 487.2956543 513.00672913 C486.44129697 513.01254289 485.58693964 513.01835665 484.7066927 513.02434659 C481.8241585 513.03902428 478.94246548 513.02502522 476.05993652 513.01129913 C473.98043124 513.01590497 471.9009292 513.02225575 469.82143402 513.03020811 C464.09171271 513.04696803 458.36225652 513.03862481 452.63253403 513.02626324 C446.45930905 513.01724227 440.28613084 513.03116776 434.11291504 513.04218292 C422.7134403 513.05897343 411.31407412 513.05747358 399.91460204 513.04653705 C389.38450586 513.03648391 378.85444081 513.03384377 368.32434082 513.03862762 C367.6264775 513.03893316 366.92861418 513.03923871 366.20960349 513.0395535 C363.37691225 513.04079881 360.54422103 513.04207241 357.71152982 513.04339256 C331.12624775 513.05563488 304.54101978 513.04452471 277.95574605 513.02300497 C254.3244316 513.00402184 230.69320335 513.00572032 207.06188965 513.02484894 C180.52594937 513.04625682 153.99005691 513.05476675 127.45410919 513.04239988 C124.62651063 513.04111697 121.79891206 513.03986561 118.97131348 513.03862762 C118.27506133 513.03831132 117.57880918 513.03799501 116.86145848 513.03766911 C106.33670304 513.03311481 95.81198211 513.03844851 85.28723145 513.04854584 C73.32285405 513.05996694 61.35857852 513.05677146 49.39420509 513.03542286 C43.28541913 513.02488328 37.1768085 513.02084009 31.06802368 513.03401947 C25.48204081 513.045889 19.89639672 513.03947095 14.31044483 513.01810926 C12.28359216 513.01362004 10.25671119 513.01596099 8.22987652 513.02561241 C5.48617064 513.03768096 2.7436431 513.02539917 0 513.00672913 C-1.19540799 513.02077612 -1.19540799 513.02077612 -2.41496563 513.0351069 C-5.72724598 512.98969463 -7.98676088 512.72483002 -10.84272337 510.99391508 C-12.9904241 507.4502674 -12.90279908 504.1731883 -12.85553741 500.15119171 C-12.86135118 499.29683438 -12.86716494 498.44247705 -12.87315488 497.56223011 C-12.88783257 494.67969592 -12.87383351 491.7980029 -12.86010742 488.91547394 C-12.86471326 486.83596865 -12.87106403 484.75646662 -12.8790164 482.67697144 C-12.89577632 476.94725013 -12.8874331 471.21779394 -12.87507153 465.48807144 C-12.86605056 459.31484646 -12.87997605 453.14166825 -12.89099121 446.96845245 C-12.90778172 435.56897771 -12.90628186 424.16961153 -12.89534534 412.77013946 C-12.8852922 402.24004327 -12.88265206 391.70997823 -12.88743591 381.17987823 C-12.88774145 380.48201492 -12.88804699 379.7841516 -12.88836179 379.0651409 C-12.8896071 376.23244966 -12.8908807 373.39975844 -12.89220085 370.56706724 C-12.90444317 343.98178516 -12.89333299 317.3965572 -12.87181326 290.81128347 C-12.85283013 267.17996901 -12.85452861 243.54874077 -12.87365723 219.91742706 C-12.89506511 193.38148678 -12.90357503 166.84559432 -12.89120817 140.30964661 C-12.88992526 137.48204805 -12.8886739 134.65444947 -12.88743591 131.82685089 C-12.8871196 131.13059874 -12.88680329 130.43434659 -12.8864774 129.71699589 C-12.8819231 119.19224045 -12.8872568 108.66751953 -12.89735413 98.14276886 C-12.90877522 86.17839146 -12.90557975 74.21411593 -12.88423115 62.24974251 C-12.87369156 56.14095654 -12.86964837 50.03234591 -12.88282776 43.9235611 C-12.89469729 38.33757822 -12.88827924 32.75193414 -12.86691755 27.16598225 C-12.86242833 25.13912957 -12.86476928 23.1122486 -12.8744207 21.08541393 C-12.88648924 18.34170805 -12.87420746 15.59918052 -12.85553741 12.85553741 C-12.86958441 11.66012943 -12.86958441 11.66012943 -12.88391519 10.44057178 C-12.83850291 7.12829144 -12.57363831 4.86877654 -10.84272337 2.01281404 C-7.29907569 -0.13488668 -4.02199659 -0.04726167 0 0 Z M3.64782715 16.50336456 C3.64782715 174.90336456 3.64782715 333.30336456 3.64782715 496.50336456 C162.04782715 496.50336456 320.44782715 496.50336456 483.64782715 496.50336456 C483.64782715 338.10336456 483.64782715 179.70336456 483.64782715 16.50336456 C325.24782715 16.50336456 166.84782715 16.50336456 3.64782715 16.50336456 Z " fill="#000000" transform="translate(12.3521728515625,-0.5033645629882813)"/>
<path d="M0 0 C1.55460937 0.5259375 1.55460937 0.5259375 3.140625 1.0625 C26.48819588 9.86367855 43.01426408 27.60933692 53.15869141 50.01318359 C61.31343344 69.2712482 62.61499084 94.36693703 55 114 C52.65159027 119.51053428 49.95462244 124.79208205 47 130 C46.51660156 130.85207031 46.03320312 131.70414063 45.53515625 132.58203125 C33.15714596 152.49448259 12.55123042 165.56189675 -10 171 C-33.37364074 175.37548084 -57.33906642 171.38395186 -77.5 158.71875 C-94.18619466 147.24699117 -106.35253233 132.23270896 -113 113 C-113.39316406 111.87980469 -113.78632813 110.75960937 -114.19140625 109.60546875 C-120.72528823 87.86380573 -118.59068293 63.60721022 -108.13256836 43.53808594 C-96.08022397 21.4333495 -77.84103006 6.15948558 -53.875 -1.4375 C-36.77163771 -6.39081142 -16.78648316 -5.87913696 0 0 Z M-78.88964844 32.35498047 C-91.83898454 45.07147362 -100.09321135 61.80002822 -100.38037109 80.11987305 C-100.34360246 100.26406797 -95.66433814 116.6730808 -82 132 C-81.07574219 133.04800781 -81.07574219 133.04800781 -80.1328125 134.1171875 C-68.33910397 146.69388083 -51.90255062 154.52608496 -34.65234375 155.37109375 C-22.49794122 155.62983288 -12.240871 154.70427203 -1 150 C-0.06027344 149.61585938 0.87945312 149.23171875 1.84765625 148.8359375 C8.33817124 145.88661539 13.67503359 141.69449039 19 137 C19.77472656 136.32066406 20.54945313 135.64132812 21.34765625 134.94140625 C32.92860087 124.11530879 40.92357932 108.5342868 42.19287109 92.57495117 C42.61117126 79.42891776 42.11303027 68.19802814 37 56 C36.60425781 55.04867187 36.20851563 54.09734375 35.80078125 53.1171875 C27.87335494 35.89281273 12.6894786 22.98479491 -4.75 16.125 C-30.9061677 7.57059926 -58.73139042 13.47592521 -78.88964844 32.35498047 Z " fill="#000000" transform="translate(389,212)"/>
<path d="M0 0 C13.68124376 11.81465546 24.38404468 28.91737107 26.51953125 47.17578125 C27.80514911 70.97665739 24.48066489 91.35499691 8.62890625 109.91015625 C-3.46029702 122.89485606 -20.86500025 134.22851937 -39.13671875 135.33691406 C-63.63484444 135.69866523 -82.2183674 132.05970631 -101.48046875 116.17578125 C-102.42599609 115.40041016 -102.42599609 115.40041016 -103.390625 114.609375 C-115.5355414 103.5710569 -124.2680941 85.25872401 -125.76806641 69.07226562 C-125.88025934 65.95458713 -125.89796464 62.85762415 -125.85546875 59.73828125 C-125.84386719 58.64008057 -125.83226562 57.54187988 -125.8203125 56.41040039 C-125.43742297 37.44469952 -118.51176433 21.76587997 -106.48046875 7.17578125 C-105.70509766 6.23025391 -105.70509766 6.23025391 -104.9140625 5.265625 C-77.78342228 -24.5848789 -30.3298716 -23.41811675 0 0 Z M-92.66796875 17.86328125 C-104.60206217 30.28448052 -109.15361072 44.88284439 -108.94897461 61.77563477 C-108.31618521 79.10216856 -100.91661336 92.89757444 -88.390625 104.734375 C-74.63980766 116.27029558 -59.30952181 119.4888894 -41.82373047 118.39453125 C-25.31342272 116.85324809 -11.98618044 107.51308083 -1.48046875 95.17578125 C8.8984496 81.12099598 11.61583185 64.10212327 9.21923828 47.03759766 C6.15148497 31.54251246 -3.62066087 18.94795343 -16.171875 9.703125 C-41.24685074 -6.88624135 -71.20603109 -2.3057686 -92.66796875 17.86328125 Z " fill="#000000" transform="translate(189.48046875,248.82421875)"/>
<path d="M0 0 C13.68124376 11.81465546 24.38404468 28.91737107 26.51953125 47.17578125 C27.80514911 70.97665739 24.48066489 91.35499691 8.62890625 109.91015625 C-3.46029702 122.89485606 -20.86500025 134.22851937 -39.13671875 135.33691406 C-63.63484444 135.69866523 -82.2183674 132.05970631 -101.48046875 116.17578125 C-102.42599609 115.40041016 -102.42599609 115.40041016 -103.390625 114.609375 C-115.5355414 103.5710569 -124.2680941 85.25872401 -125.76806641 69.07226562 C-125.88025934 65.95458713 -125.89796464 62.85762415 -125.85546875 59.73828125 C-125.84386719 58.64008057 -125.83226562 57.54187988 -125.8203125 56.41040039 C-125.43742297 37.44469952 -118.51176433 21.76587997 -106.48046875 7.17578125 C-105.70509766 6.23025391 -105.70509766 6.23025391 -104.9140625 5.265625 C-77.78342228 -24.5848789 -30.3298716 -23.41811675 0 0 Z M-92.66796875 17.86328125 C-104.60206217 30.28448052 -109.15361072 44.88284439 -108.94897461 61.77563477 C-108.31618521 79.10216856 -100.91661336 92.89757444 -88.390625 104.734375 C-74.63980766 116.27029558 -59.30952181 119.4888894 -41.82373047 118.39453125 C-25.31342272 116.85324809 -11.98618044 107.51308083 -1.48046875 95.17578125 C8.8984496 81.12099598 11.61583185 64.10212327 9.21923828 47.03759766 C6.15148497 31.54251246 -3.62066087 18.94795343 -16.171875 9.703125 C-41.24685074 -6.88624135 -71.20603109 -2.3057686 -92.66796875 17.86328125 Z " fill="#000000" transform="translate(189.48046875,64.82421875)"/>
<path d="M0 0 C0.87398438 0.36222656 1.74796875 0.72445312 2.6484375 1.09765625 C19.64501156 8.81148601 30.22394899 23.03316094 37.16796875 39.82421875 C41.44573387 53.58135072 40.91933828 71.91051088 35 85 C34.525625 86.07121094 34.05125 87.14242187 33.5625 88.24609375 C25.53216014 104.6349364 12.16958173 115.82172733 -5 122 C-22.41583776 127.05565077 -41.59997305 125.04391086 -57.41992188 116.45800781 C-74.01348922 106.84535938 -83.29171747 92.23924455 -88.54418945 74.12304688 C-92.26634629 56.78620922 -88.3583481 38.65283905 -79.20947266 23.81640625 C-69.87596627 9.79919037 -55.0079121 -0.15444843 -38.51611328 -3.60522461 C-25.76822399 -5.60535434 -11.88337086 -5.22251889 0 0 Z M-61.921875 29.4375 C-71.34393465 41.05567882 -73.29073726 54.57601116 -72 69 C-69.62496484 81.17205521 -62.55680434 91.24966477 -53 99 C-40.32093138 106.72630744 -27.03484463 109.15314042 -12.4765625 106.3125 C0.63893345 102.26658865 11.10575248 93.51700779 17.74609375 81.5390625 C23.30895705 70.27469757 24.05263196 56.56082819 20.4375 44.5 C15.05666194 30.80159888 4.93212023 21.09272151 -8.23046875 14.9609375 C-27.81109287 7.74879712 -47.99594834 15.02465282 -61.921875 29.4375 Z " fill="#000000" transform="translate(409,52)"/>
<path d="M0 0 C5.82485779 3.51996782 10.54466582 8.98962934 12.5625 15.5 C13.36764105 23.33608208 13.68710392 31.11922577 8.5625 37.5 C3.75801361 42.54521222 -0.59927055 46.10562995 -7.70703125 46.8359375 C-16.22326573 46.92983204 -22.11345494 46.6177288 -28.40234375 40.62890625 C-34.7841668 33.72505269 -35.91792252 28.29832071 -35.7421875 18.9453125 C-35.04689797 11.08319245 -31.38995981 6.95041296 -25.53515625 1.9453125 C-18.47077988 -2.92213491 -7.84396301 -3.47595223 0 0 Z M-16.8125 17.125 C-18.92456506 20.21186432 -19.04945145 21.8282913 -18.4375 25.5 C-16.9375 28 -16.9375 28 -14.4375 29.5 C-10.7657913 30.11195145 -9.14936432 29.98706506 -6.0625 27.875 C-3.95043494 24.78813568 -3.82554855 23.1717087 -4.4375 19.5 C-5.9375 17 -5.9375 17 -8.4375 15.5 C-12.1092087 14.88804855 -13.72563568 15.01293494 -16.8125 17.125 Z " fill="#000000" transform="translate(435.4375,417.5)"/>
<path d="M0 0 C5.82485779 3.51996782 10.54466582 8.98962934 12.5625 15.5 C13.36764105 23.33608208 13.68710392 31.11922577 8.5625 37.5 C3.75801361 42.54521222 -0.59927055 46.10562995 -7.70703125 46.8359375 C-16.22326573 46.92983204 -22.11345494 46.6177288 -28.40234375 40.62890625 C-34.7841668 33.72505269 -35.91792252 28.29832071 -35.7421875 18.9453125 C-35.04689797 11.08319245 -31.38995981 6.95041296 -25.53515625 1.9453125 C-18.47077988 -2.92213491 -7.84396301 -3.47595223 0 0 Z M-16.8125 17.125 C-18.92456506 20.21186432 -19.04945145 21.8282913 -18.4375 25.5 C-16.9375 28 -16.9375 28 -14.4375 29.5 C-10.7657913 30.11195145 -9.14936432 29.98706506 -6.0625 27.875 C-3.95043494 24.78813568 -3.82554855 23.1717087 -4.4375 19.5 C-5.9375 17 -5.9375 17 -8.4375 15.5 C-12.1092087 14.88804855 -13.72563568 15.01293494 -16.8125 17.125 Z " fill="#000000" transform="translate(323.4375,417.5)"/>
<path d="M0 0 C5.82485779 3.51996782 10.54466582 8.98962934 12.5625 15.5 C13.36764105 23.33608208 13.68710392 31.11922577 8.5625 37.5 C3.75801361 42.54521222 -0.59927055 46.10562995 -7.70703125 46.8359375 C-16.22326573 46.92983204 -22.11345494 46.6177288 -28.40234375 40.62890625 C-34.7841668 33.72505269 -35.91792252 28.29832071 -35.7421875 18.9453125 C-35.04689797 11.08319245 -31.38995981 6.95041296 -25.53515625 1.9453125 C-18.47077988 -2.92213491 -7.84396301 -3.47595223 0 0 Z M-16.8125 17.125 C-18.92456506 20.21186432 -19.04945145 21.8282913 -18.4375 25.5 C-16.9375 28 -16.9375 28 -14.4375 29.5 C-10.7657913 30.11195145 -9.14936432 29.98706506 -6.0625 27.875 C-3.95043494 24.78813568 -3.82554855 23.1717087 -4.4375 19.5 C-5.9375 17 -5.9375 17 -8.4375 15.5 C-12.1092087 14.88804855 -13.72563568 15.01293494 -16.8125 17.125 Z " fill="#000000" transform="translate(211.4375,417.5)"/>
<path d="M0 0 C5.82485779 3.51996782 10.54466582 8.98962934 12.5625 15.5 C13.36764105 23.33608208 13.68710392 31.11922577 8.5625 37.5 C3.75801361 42.54521222 -0.59927055 46.10562995 -7.70703125 46.8359375 C-16.22326573 46.92983204 -22.11345494 46.6177288 -28.40234375 40.62890625 C-34.7841668 33.72505269 -35.91792252 28.29832071 -35.7421875 18.9453125 C-35.04689797 11.08319245 -31.38995981 6.95041296 -25.53515625 1.9453125 C-18.47077988 -2.92213491 -7.84396301 -3.47595223 0 0 Z M-16.8125 17.125 C-18.92456506 20.21186432 -19.04945145 21.8282913 -18.4375 25.5 C-16.9375 28 -16.9375 28 -14.4375 29.5 C-10.7657913 30.11195145 -9.14936432 29.98706506 -6.0625 27.875 C-3.95043494 24.78813568 -3.82554855 23.1717087 -4.4375 19.5 C-5.9375 17 -5.9375 17 -8.4375 15.5 C-12.1092087 14.88804855 -13.72563568 15.01293494 -16.8125 17.125 Z " fill="#000000" transform="translate(99.4375,417.5)"/>
</svg>
