<?xml version="1.0" encoding="UTF-8"?>
<!DOCTYPE svg PUBLIC "-//W3C//DTD SVG 1.1//EN" "http://www.w3.org/Graphics/SVG/1.1/DTD/svg11.dtd">
<svg xmlns="http://www.w3.org/2000/svg" version="1.1" width="512px" height="512px" style="shape-rendering:geometricPrecision; text-rendering:geometricPrecision; image-rendering:optimizeQuality; fill-rule:evenodd; clip-rule:evenodd" xmlns:xlink="http://www.w3.org/1999/xlink">
<g><path style="opacity:0.905" fill="#000000" d="M 121.5,57.5 C 167.08,66.2491 212.413,76.0824 257.5,87C 260.762,89.592 263.262,92.7587 265,96.5C 275.54,129.952 286.373,163.286 297.5,196.5C 315.167,186.333 332.833,176.167 350.5,166C 356.765,164.516 363.098,164.182 369.5,165C 408.288,185.893 446.621,207.56 484.5,230C 486.986,233.137 488.819,236.637 490,240.5C 490.27,279.004 490.77,317.504 491.5,356C 491.558,362.886 491.058,369.719 490,376.5C 488.92,378.996 487.586,381.33 486,383.5C 449.748,405.711 413.248,427.544 376.5,449C 367.518,454.994 358.518,454.994 349.5,449C 313.996,428.414 278.329,408.08 242.5,388C 238.896,385.292 236.396,381.792 235,377.5C 234.276,355.168 233.61,332.835 233,310.5C 226.5,317.667 220,324.833 213.5,332C 209.385,334.654 204.885,336.154 200,336.5C 157.142,327.462 114.309,318.295 71.5,309C 62.5799,304.701 57.4132,297.535 56,287.5C 44.3333,251.167 32.6667,214.833 21,178.5C 18.506,170.475 19.8393,163.142 25,156.5C 54.1667,124.667 83.3333,92.8333 112.5,61C 115.571,59.7043 118.571,58.5377 121.5,57.5 Z M 127.5,70.5 C 168.907,79.3481 210.241,88.5147 251.5,98C 265.43,138.124 278.763,178.457 291.5,219C 249.795,210.659 208.128,201.826 166.5,192.5C 153.094,151.949 140.094,111.282 127.5,70.5 Z M 114.5,76.5 C 115.117,76.6107 115.617,76.944 116,77.5C 128.641,117.089 141.474,156.589 154.5,196C 126.45,227.261 98.2836,258.428 70,289.5C 57.4688,251.573 45.1355,213.573 33,175.5C 32.3333,172.833 32.3333,170.167 33,167.5C 60.0036,136.998 87.1702,106.664 114.5,76.5 Z M 354.5,177.5 C 355.266,214.502 355.933,251.668 356.5,289C 356.167,293.833 355.833,298.667 355.5,303.5C 319.203,324.634 283.036,345.967 247,367.5C 246.387,343.829 246.053,320.162 246,296.5C 264.333,276.167 282.667,255.833 301,235.5C 305.419,227.136 305.586,218.636 301.5,210C 301.833,209.5 302.167,209 302.5,208.5C 319.897,198.141 337.23,187.807 354.5,177.5 Z M 367.5,177.5 C 404.381,197.856 440.881,218.856 477,240.5C 478.65,282.107 478.983,323.774 478,365.5C 441.667,344.833 405.333,324.167 369,303.5C 368.017,261.505 367.517,219.505 367.5,177.5 Z M 163.5,204.5 C 204.907,213.348 246.241,222.515 287.5,232C 260.167,262 232.833,292 205.5,322C 203.649,322.837 201.816,323.671 200,324.5C 159.921,315.44 119.754,306.606 79.5,298C 107.337,266.664 135.337,235.498 163.5,204.5 Z M 360.5,314.5 C 361.873,314.343 363.207,314.51 364.5,315C 400.004,335.586 435.671,355.92 471.5,376C 472.451,376.718 472.617,377.551 472,378.5C 438.751,397.874 405.584,417.374 372.5,437C 367.012,441.12 361.345,441.454 355.5,438C 321.167,418.333 286.833,398.667 252.5,379C 288.67,357.637 324.67,336.137 360.5,314.5 Z"/></g>
<g><path style="opacity:0.904" fill="#000000" d="M 155.5,91.5 C 167.842,91.6714 176.675,97.338 182,108.5C 183.332,119.278 178.832,122.445 168.5,118C 157.891,113.585 152.724,105.751 153,94.5C 154.045,93.6266 154.878,92.6266 155.5,91.5 Z"/></g>
<g><path style="opacity:0.908" fill="#000000" d="M 104.5,109.5 C 112.239,109.578 115.906,113.578 115.5,121.5C 115.494,129.697 112.494,136.53 106.5,142C 100.643,144.95 96.4767,143.45 94,137.5C 91.7321,125.846 95.2321,116.513 104.5,109.5 Z"/></g>
<g><path style="opacity:0.909" fill="#000000" d="M 93.5,162.5 C 95.7567,162.962 97.7567,163.962 99.5,165.5C 103.764,176.429 101.764,186.262 93.5,195C 88.4236,198.539 84.257,197.705 81,192.5C 78.0474,181.256 80.8807,171.756 89.5,164C 91.0581,163.79 92.3915,163.29 93.5,162.5 Z"/></g>
<g><path style="opacity:0.914" fill="#000000" d="M 123.5,165.5 C 131.217,165.52 134.883,169.52 134.5,177.5C 134.357,183.713 132.524,189.379 129,194.5C 122.888,201.435 117.554,201.101 113,193.5C 110.711,181.853 114.211,172.52 123.5,165.5 Z"/></g>
<g><path style="opacity:0.908" fill="#000000" d="M 58.5,170.5 C 63.929,170.426 67.0957,173.093 68,178.5C 69.3381,188.154 66.5047,196.32 59.5,203C 54.0799,205.856 49.9132,204.689 47,199.5C 44.3265,186.982 48.1598,177.316 58.5,170.5 Z"/></g>
<g><path style="opacity:0.906" fill="#000000" d="M 238.5,171.5 C 249.776,171.723 258.276,176.723 264,186.5C 265.368,189.738 265.701,193.072 265,196.5C 263.147,198.592 260.814,199.592 258,199.5C 246.718,197.551 239.051,191.218 235,180.5C 233.98,176.553 235.147,173.553 238.5,171.5 Z"/></g>
<g><path style="opacity:0.906" fill="#000000" d="M 393.5,206.5 C 401.55,208.042 407.05,212.708 410,220.5C 411.492,225.411 411.826,230.411 411,235.5C 410.535,236.931 409.701,238.097 408.5,239C 405.036,239.817 401.702,239.483 398.5,238C 389.259,230.377 386.259,220.877 389.5,209.5C 390.901,208.479 392.235,207.479 393.5,206.5 Z"/></g>
<g><path style="opacity:0.905" fill="#000000" d="M 179.5,222.5 C 184.515,222.256 188.682,223.923 192,227.5C 192.584,230.257 192.25,232.923 191,235.5C 183.48,244.673 173.98,247.84 162.5,245C 157.743,241.38 157.243,237.213 161,232.5C 166.186,227.16 172.353,223.827 179.5,222.5 Z"/></g>
<g><path style="opacity:0.91" fill="#000000" d="M 76.5,226.5 C 84.1892,226.53 87.8559,230.53 87.5,238.5C 87.087,246.491 84.087,253.324 78.5,259C 73.0799,261.856 68.9132,260.689 66,255.5C 63.4969,243.498 66.9969,233.832 76.5,226.5 Z"/></g>
<g><path style="opacity:0.905" fill="#000000" d="M 443.5,235.5 C 452.735,235.89 458.902,240.556 462,249.5C 464.422,255.682 463.922,261.516 460.5,267C 457.537,268.85 454.537,268.85 451.5,267C 442.639,260.436 438.805,251.602 440,240.5C 440.997,238.677 442.164,237.01 443.5,235.5 Z"/></g>
<g><path style="opacity:0.908" fill="#000000" d="M 393.5,241.5 C 400.533,241.267 405.699,244.267 409,250.5C 413.873,257.839 414.373,265.339 410.5,273C 407.2,274.879 403.866,274.879 400.5,273C 391.563,265.952 388.063,256.785 390,245.5C 390.69,243.65 391.856,242.316 393.5,241.5 Z"/></g>
<g><path style="opacity:0.912" fill="#000000" d="M 187.5,255.5 C 191.936,255.21 196.27,255.71 200.5,257C 203.886,260.373 204.386,264.206 202,268.5C 193.018,278.84 182.685,280.84 171,274.5C 170.21,271.366 170.543,268.366 172,265.5C 176.308,260.665 181.475,257.331 187.5,255.5 Z"/></g>
<g><path style="opacity:0.903" fill="#000000" d="M 299.5,256.5 C 306.197,256.703 309.197,260.203 308.5,267C 307.984,276.713 303.651,284.046 295.5,289C 289.958,290.892 286.458,289.059 285,283.5C 284.149,276.235 285.816,269.569 290,263.5C 292.529,260.115 295.696,257.782 299.5,256.5 Z"/></g>
<g><path style="opacity:0.905" fill="#000000" d="M 445.5,269.5 C 456.958,272.693 462.958,280.359 463.5,292.5C 463.451,301.859 459.117,304.692 450.5,301C 440.42,293.17 437.587,283.337 442,271.5C 443.302,270.915 444.469,270.249 445.5,269.5 Z"/></g>
<g><path style="opacity:0.911" fill="#000000" d="M 392.5,276.5 C 400.196,275.432 405.696,278.432 409,285.5C 412.248,291.452 413.248,297.785 412,304.5C 411.535,305.931 410.701,307.097 409.5,308C 406.036,308.817 402.702,308.483 399.5,307C 388.966,298.389 386.633,288.223 392.5,276.5 Z"/></g>
<g><path style="opacity:0.911" fill="#000000" d="M 194.5,287.5 C 199.628,287.112 204.628,287.612 209.5,289C 212.834,292.492 213.001,296.325 210,300.5C 201.806,309.673 191.973,312.173 180.5,308C 178.027,304.654 177.86,301.154 180,297.5C 183.977,292.774 188.811,289.441 194.5,287.5 Z"/></g>
<g><path style="opacity:0.905" fill="#000000" d="M 444.5,304.5 C 453.587,305.063 459.754,309.73 463,318.5C 465.422,324.682 464.922,330.516 461.5,336C 457.666,338.037 453.999,337.704 450.5,335C 440.361,326.165 438.361,315.999 444.5,304.5 Z"/></g>
<g><path style="opacity:0.907" fill="#000000" d="M 359.5,336.5 C 365.424,336.451 371.09,337.618 376.5,340C 381.057,343.329 381.557,347.162 378,351.5C 367.777,357.517 357.277,358.017 346.5,353C 342.103,347.972 342.77,343.639 348.5,340C 352.161,338.407 355.828,337.241 359.5,336.5 Z"/></g>
<g><path style="opacity:0.92" fill="#000000" d="M 298.5,366.5 C 304.925,366.13 311.258,366.63 317.5,368C 324.583,371.825 325.25,376.492 319.5,382C 311.11,385.817 302.443,386.483 293.5,384C 288.076,381.983 286.242,378.15 288,372.5C 291.069,369.554 294.569,367.554 298.5,366.5 Z"/></g>
<g><path style="opacity:0.921" fill="#000000" d="M 413.5,369.5 C 419.593,369.139 425.593,369.639 431.5,371C 439.309,374.382 440.309,379.049 434.5,385C 424.474,389.63 414.474,389.63 404.5,385C 400.5,381.333 400.5,377.667 404.5,374C 407.437,372.199 410.437,370.699 413.5,369.5 Z"/></g>
<g><path style="opacity:0.907" fill="#000000" d="M 362.5,401.5 C 368.678,401.107 374.678,401.94 380.5,404C 387.808,410.784 386.641,415.95 377,419.5C 368.599,422.493 360.432,421.993 352.5,418C 347.137,413.366 347.47,409.032 353.5,405C 356.571,403.704 359.571,402.538 362.5,401.5 Z"/></g>
</svg>
