<?xml version="1.0" encoding="UTF-8"?>
<!DOCTYPE svg PUBLIC "-//W3C//DTD SVG 1.1//EN" "http://www.w3.org/Graphics/SVG/1.1/DTD/svg11.dtd">
<svg xmlns="http://www.w3.org/2000/svg" version="1.1" width="512px" height="512px" style="shape-rendering:geometricPrecision; text-rendering:geometricPrecision; image-rendering:optimizeQuality; fill-rule:evenodd; clip-rule:evenodd" xmlns:xlink="http://www.w3.org/1999/xlink">
<g><path style="opacity:0.932" fill="#000000" d="M 276.5,17.5 C 325.168,17.3333 373.834,17.5 422.5,18C 423.333,18.8333 424.167,19.6667 425,20.5C 425.667,29.8333 425.667,39.1667 425,48.5C 424.692,49.3081 424.192,49.9747 423.5,50.5C 399.985,57.796 376.319,64.6293 352.5,71C 371.933,75.3764 390.599,82.043 408.5,91C 414.405,97.7135 413.072,102.547 404.5,105.5C 376.732,91.8913 347.399,84.2247 316.5,82.5C 315.546,89.4066 312.713,95.4066 308,100.5C 307.333,109.833 307.333,119.167 308,128.5C 337.905,133.072 359.239,149.072 372,176.5C 374.555,182.943 376.222,189.61 377,196.5C 377.667,288.5 377.667,380.5 377,472.5C 374.167,483.333 367.333,490.167 356.5,493C 305.167,493.667 253.833,493.667 202.5,493C 192.433,490.6 185.933,484.434 183,474.5C 181.843,428.045 181.343,381.545 181.5,335C 181.353,287.143 181.853,239.309 183,191.5C 191.784,155.212 214.617,134.546 251.5,129.5C 251.666,119.828 251.5,110.161 251,100.5C 250.535,99.0692 249.701,97.9025 248.5,97C 204.271,100.197 173.104,122.031 155,162.5C 151.406,172.208 149.073,182.208 148,192.5C 147.333,232.5 147.333,272.5 148,312.5C 149.667,320.167 151.333,327.833 153,335.5C 156.825,336.21 160.658,337.044 164.5,338C 165.701,338.903 166.535,340.069 167,341.5C 167.99,391.25 167.657,440.916 166,490.5C 165.167,491.333 164.333,492.167 163.5,493C 138.5,493.667 113.5,493.667 88.5,493C 87.6667,492.167 86.8333,491.333 86,490.5C 85.3333,440.5 85.3333,390.5 86,340.5C 89.7846,337.036 94.2846,335.702 99.5,336.5C 100.805,329.141 102.305,321.808 104,314.5C 104.061,270.48 104.727,226.48 106,182.5C 116.338,121.168 150.838,80.3349 209.5,60C 222.308,56.5515 235.308,54.2182 248.5,53C 254.523,44.8248 262.523,39.9915 272.5,38.5C 272.334,32.8236 272.501,27.1569 273,21.5C 273.69,19.6498 274.856,18.3164 276.5,17.5 Z M 287.5,32.5 C 328.5,32.5 369.5,32.5 410.5,32.5C 410.5,34.8333 410.5,37.1667 410.5,39.5C 379.38,47.6969 348.38,56.3636 317.5,65.5C 314.308,58.2965 309.975,51.7965 304.5,46C 299.551,41.8585 293.884,39.3585 287.5,38.5C 287.5,36.5 287.5,34.5 287.5,32.5 Z M 274.5,52.5 C 293.108,51.9417 302.275,60.9417 302,79.5C 296.093,95.8688 284.926,101.035 268.5,95C 253.983,83.4117 252.983,70.745 265.5,57C 268.592,55.4541 271.592,53.9541 274.5,52.5 Z M 234.5,69.5 C 237.187,69.3359 239.854,69.5026 242.5,70C 241.341,74.1189 241.341,78.2856 242.5,82.5C 198.555,87.0522 166.055,108.719 145,147.5C 138.193,161.394 134.193,176.061 133,191.5C 132.5,229.165 132.333,266.832 132.5,304.5C 128.167,304.5 123.833,304.5 119.5,304.5C 119.333,267.832 119.5,231.165 120,194.5C 125.157,140.317 152.324,101.817 201.5,79C 212.309,74.7189 223.309,71.5523 234.5,69.5 Z M 266.5,110.5 C 275,113.148 283.5,113.148 292,110.5C 292.499,116.491 292.666,122.491 292.5,128.5C 283.833,128.5 275.167,128.5 266.5,128.5C 266.5,122.5 266.5,116.5 266.5,110.5 Z M 251.5,143.5 C 270.17,143.333 288.836,143.5 307.5,144C 337.877,149.377 356.044,167.21 362,197.5C 362.667,288.167 362.667,378.833 362,469.5C 360.474,473.693 357.641,476.526 353.5,478C 304.167,478.667 254.833,478.667 205.5,478C 200.901,476.402 198.068,473.235 197,468.5C 196.018,376.807 196.351,285.141 198,193.5C 205.776,165.885 223.61,149.218 251.5,143.5 Z M 226.5,255.5 C 261.833,255.5 297.167,255.5 332.5,255.5C 332.5,292.833 332.5,330.167 332.5,367.5C 297.167,367.5 261.833,367.5 226.5,367.5C 226.5,330.167 226.5,292.833 226.5,255.5 Z M 118.5,319.5 C 123.833,319.5 129.167,319.5 134.5,319.5C 135.372,325.191 136.372,330.858 137.5,336.5C 129.826,336.666 122.159,336.5 114.5,336C 115.894,330.532 117.228,325.032 118.5,319.5 Z M 100.5,351.5 C 117.833,351.5 135.167,351.5 152.5,351.5C 152.5,393.833 152.5,436.167 152.5,478.5C 135.167,478.5 117.833,478.5 100.5,478.5C 100.5,436.167 100.5,393.833 100.5,351.5 Z"/></g>
<g><path style="opacity:0.934" fill="#000000" d="M 215.5,240.5 C 258.168,240.333 300.835,240.5 343.5,241C 344.416,241.374 345.25,241.874 346,242.5C 347.656,287.75 347.989,333.083 347,378.5C 346.167,379.333 345.333,380.167 344.5,381C 302.251,382.655 259.917,382.989 217.5,382C 215.671,381.727 214.171,380.893 213,379.5C 211.344,334.584 211.011,289.584 212,244.5C 212.69,242.65 213.856,241.316 215.5,240.5 Z M 226.5,255.5 C 226.5,292.833 226.5,330.167 226.5,367.5C 261.833,367.5 297.167,367.5 332.5,367.5C 332.5,330.167 332.5,292.833 332.5,255.5C 297.167,255.5 261.833,255.5 226.5,255.5 Z"/></g>
</svg>
