<?xml version="1.0" encoding="UTF-8"?>
<!DOCTYPE svg PUBLIC "-//W3C//DTD SVG 1.1//EN" "http://www.w3.org/Graphics/SVG/1.1/DTD/svg11.dtd">
<svg xmlns="http://www.w3.org/2000/svg" version="1.1" width="512px" height="512px" style="shape-rendering:geometricPrecision; text-rendering:geometricPrecision; image-rendering:optimizeQuality; fill-rule:evenodd; clip-rule:evenodd" xmlns:xlink="http://www.w3.org/1999/xlink">
<g><path style="opacity:0.942" fill="#000000" d="M 58.5,129.5 C 190.89,129.005 323.223,129.505 455.5,131C 456.701,131.903 457.535,133.069 458,134.5C 458.994,215.915 458.661,297.248 457,378.5C 455.829,379.893 454.329,380.727 452.5,381C 320.111,381.995 187.778,381.661 55.5,380C 54.2986,379.097 53.4652,377.931 53,376.5C 52.3333,295.833 52.3333,215.167 53,134.5C 54.1065,131.887 55.9399,130.22 58.5,129.5 Z M 69.5,146.5 C 169.167,146.5 268.833,146.5 368.5,146.5C 368.5,219.167 368.5,291.833 368.5,364.5C 268.833,364.5 169.167,364.5 69.5,364.5C 69.5,291.833 69.5,219.167 69.5,146.5 Z M 385.5,146.5 C 404.167,146.5 422.833,146.5 441.5,146.5C 441.5,219.167 441.5,291.833 441.5,364.5C 422.833,364.5 404.167,364.5 385.5,364.5C 385.5,291.833 385.5,219.167 385.5,146.5 Z M 95.5,173.5 C 177.5,173.5 259.5,173.5 341.5,173.5C 341.5,211.167 341.5,248.833 341.5,286.5C 321.5,286.5 301.5,286.5 281.5,286.5C 282.728,280.191 283.895,273.858 285,267.5C 288.529,266.869 292.029,266.036 295.5,265C 300.143,258.881 299.143,253.881 292.5,250C 243.5,249.333 194.5,249.333 145.5,250C 142.768,250.398 140.935,251.898 140,254.5C 138.677,264.008 142.843,268.008 152.5,266.5C 153.5,273.168 154.5,279.835 155.5,286.5C 135.5,286.5 115.5,286.5 95.5,286.5C 95.5,248.833 95.5,211.167 95.5,173.5 Z M 169.5,266.5 C 202.167,266.5 234.833,266.5 267.5,266.5C 266.5,273.167 265.5,279.833 264.5,286.5C 234.159,286.833 203.826,286.5 173.5,285.5C 171.909,279.212 170.576,272.879 169.5,266.5 Z M 95.5,303.5 C 177.5,303.5 259.5,303.5 341.5,303.5C 341.5,314.833 341.5,326.167 341.5,337.5C 259.5,337.5 177.5,337.5 95.5,337.5C 95.5,326.167 95.5,314.833 95.5,303.5 Z"/></g>
<g><path style="opacity:0.943" fill="#000000" d="M 83.5,156.5 C 173.834,156.333 264.167,156.5 354.5,157C 355.667,158.167 356.833,159.333 358,160.5C 358.667,223.833 358.667,287.167 358,350.5C 356.833,351.667 355.667,352.833 354.5,354C 263.419,354.995 172.419,354.661 81.5,353C 80.2986,352.097 79.4652,350.931 79,349.5C 78.3333,286.833 78.3333,224.167 79,161.5C 80.025,159.313 81.525,157.646 83.5,156.5 Z M 95.5,173.5 C 95.5,211.167 95.5,248.833 95.5,286.5C 115.5,286.5 135.5,286.5 155.5,286.5C 154.5,279.835 153.5,273.168 152.5,266.5C 142.843,268.008 138.677,264.008 140,254.5C 140.935,251.898 142.768,250.398 145.5,250C 194.5,249.333 243.5,249.333 292.5,250C 299.143,253.881 300.143,258.881 295.5,265C 292.029,266.036 288.529,266.869 285,267.5C 283.895,273.858 282.728,280.191 281.5,286.5C 301.5,286.5 321.5,286.5 341.5,286.5C 341.5,248.833 341.5,211.167 341.5,173.5C 259.5,173.5 177.5,173.5 95.5,173.5 Z M 169.5,266.5 C 170.576,272.879 171.909,279.212 173.5,285.5C 203.826,286.5 234.159,286.833 264.5,286.5C 265.5,279.833 266.5,273.167 267.5,266.5C 234.833,266.5 202.167,266.5 169.5,266.5 Z M 95.5,303.5 C 95.5,314.833 95.5,326.167 95.5,337.5C 177.5,337.5 259.5,337.5 341.5,337.5C 341.5,326.167 341.5,314.833 341.5,303.5C 259.5,303.5 177.5,303.5 95.5,303.5 Z"/></g>
<g><path style="opacity:0.923" fill="#000000" d="M 409.5,182.5 C 424.14,181.972 430.64,188.972 429,203.5C 423.104,214.686 414.604,217.186 403.5,211C 397.194,204.666 396.028,197.5 400,189.5C 402.529,186.115 405.696,183.782 409.5,182.5 Z"/></g>
<g><path style="opacity:0.924" fill="#000000" d="M 409.5,231.5 C 426.592,232.079 432.425,240.412 427,256.5C 416.878,266.317 407.545,265.65 399,254.5C 395.54,243.507 399.04,235.84 409.5,231.5 Z"/></g>
<g><path style="opacity:0.912" fill="#000000" d="M 400.5,301.5 C 409.506,301.334 418.506,301.5 427.5,302C 432.155,304.897 433.655,309.063 432,314.5C 430.786,316.049 429.286,317.215 427.5,318C 418.167,318.667 408.833,318.667 399.5,318C 394.391,314.634 393.224,310.134 396,304.5C 397.652,303.601 399.152,302.601 400.5,301.5 Z"/></g>
<g><path style="opacity:0.918" fill="#000000" d="M 401.5,325.5 C 410.582,325.086 419.582,325.586 428.5,327C 430.333,327.5 431.5,328.667 432,330.5C 433.444,335.256 432.277,339.089 428.5,342C 418.5,342.667 408.5,342.667 398.5,342C 392.559,335.143 393.559,329.643 401.5,325.5 Z"/></g>
</svg>
