<?xml version="1.0" encoding="UTF-8"?>
<!DOCTYPE svg PUBLIC "-//W3C//DTD SVG 1.1//EN" "http://www.w3.org/Graphics/SVG/1.1/DTD/svg11.dtd">
<svg xmlns="http://www.w3.org/2000/svg" version="1.1" width="512px" height="512px" style="shape-rendering:geometricPrecision; text-rendering:geometricPrecision; image-rendering:optimizeQuality; fill-rule:evenodd; clip-rule:evenodd" xmlns:xlink="http://www.w3.org/1999/xlink">
<g><path style="opacity:0.936" fill="#000000" d="M 243.5,-0.5 C 251.833,-0.5 260.167,-0.5 268.5,-0.5C 293.929,5.65369 314.096,19.6537 329,41.5C 345.341,66.6927 354.174,94.3594 355.5,124.5C 374.302,121.844 385.302,129.677 388.5,148C 388.115,158.113 383.448,165.446 374.5,170C 369.098,171.135 363.931,172.635 359,174.5C 357.146,192.519 355.146,210.519 353,228.5C 351.36,237.449 347.36,245.115 341,251.5C 342.615,273.2 344.781,294.866 347.5,316.5C 362.028,314.397 370.695,320.397 373.5,334.5C 371.741,347.257 364.408,353.59 351.5,353.5C 352.998,366.472 353.831,379.472 354,392.5C 347.994,398.33 342.994,397.663 339,390.5C 337.436,378.198 336.27,365.865 335.5,353.5C 331.167,353.5 326.833,353.5 322.5,353.5C 331.138,400.857 339.971,448.19 349,495.5C 349.654,496.696 350.154,496.696 350.5,495.5C 346.789,468.606 344.289,441.606 343,414.5C 345.513,410.788 349.013,409.622 353.5,411C 356.108,412.378 357.608,414.545 358,417.5C 361.463,446.791 364.129,476.125 366,505.5C 364.64,508.023 362.807,510.023 360.5,511.5C 353.833,511.5 347.167,511.5 340.5,511.5C 337.443,509.605 335.277,506.938 334,503.5C 324.508,453.543 315.342,403.543 306.5,353.5C 272.833,353.5 239.167,353.5 205.5,353.5C 196.272,402.475 187.105,451.475 178,500.5C 177.333,505.183 175.167,508.85 171.5,511.5C 164.5,511.5 157.5,511.5 150.5,511.5C 146.837,508.814 144.837,505.147 144.5,500.5C 149.703,451.797 155.037,403.131 160.5,354.5C 141.637,352.427 135.137,342.427 141,324.5C 147.145,317.173 154.978,314.507 164.5,316.5C 166.235,296.48 168.235,276.48 170.5,256.5C 169.962,251.423 167.795,247.09 164,243.5C 158.335,232.507 156.001,220.84 157,208.5C 160.892,202.741 165.559,202.074 171,206.5C 172.494,213.776 173.828,221.109 175,228.5C 178.833,239 186,246.167 196.5,250C 234.453,251.642 272.453,251.975 310.5,251C 322.64,248.197 331.14,241.03 336,229.5C 339.22,210.635 341.387,191.635 342.5,172.5C 339.833,172.5 337.167,172.5 334.5,172.5C 333.199,187.18 331.699,201.847 330,216.5C 326.649,233.36 316.316,241.027 299,239.5C 278.794,240.944 266.127,231.944 261,212.5C 260.5,199.171 260.333,185.837 260.5,172.5C 257.167,172.5 253.833,172.5 250.5,172.5C 250.667,186.504 250.5,200.504 250,214.5C 244.173,232.31 231.839,240.643 213,239.5C 197.529,241.334 187.195,235.001 182,220.5C 180.129,204.49 178.295,188.49 176.5,172.5C 173.833,172.5 171.167,172.5 168.5,172.5C 169.625,177.249 169.458,181.916 168,186.5C 162.967,190.779 158.3,190.446 154,185.5C 153.077,181.21 152.577,176.877 152.5,172.5C 129.779,172.038 120.612,160.705 125,138.5C 131.768,126.839 141.934,122.172 155.5,124.5C 157.251,89.7318 168.751,58.7318 190,31.5C 204.471,15.0224 222.304,4.3557 243.5,-0.5 Z M 255.5,14.5 C 278.282,16.4758 296.782,26.4758 311,44.5C 328.52,68.221 338.02,94.8876 339.5,124.5C 338.167,124.5 336.833,124.5 335.5,124.5C 334.703,108.682 331.536,93.3487 326,78.5C 321.957,73.1467 317.291,72.48 312,76.5C 311.042,78.1992 310.542,80.0326 310.5,82C 315.317,95.7697 318.317,109.936 319.5,124.5C 276.828,124.833 234.161,124.5 191.5,123.5C 193.723,97.3124 202.89,73.9791 219,53.5C 238.934,32.1935 260.767,29.6935 284.5,46C 289.867,51.0318 294.867,56.3651 299.5,62C 310.16,63.8463 313.66,59.6797 310,49.5C 299.114,34.3093 284.614,24.476 266.5,20C 239.621,17.357 218.121,26.857 202,48.5C 185.925,71.2217 177.092,96.5551 175.5,124.5C 174.167,124.5 172.833,124.5 171.5,124.5C 173.366,88.2818 187.033,57.4484 212.5,32C 224.958,21.3524 239.291,15.5191 255.5,14.5 Z M 144.5,140.5 C 218.834,140.333 293.167,140.5 367.5,141C 374.584,147.003 373.918,152.003 365.5,156C 292.5,156.667 219.5,156.667 146.5,156C 140.347,154.535 138.18,150.702 140,144.5C 141.397,142.93 142.897,141.596 144.5,140.5 Z M 192.5,172.5 C 206.5,172.5 220.5,172.5 234.5,172.5C 234.947,186.573 234.447,200.573 233,214.5C 228.43,221.921 221.764,224.921 213,223.5C 209.833,223.333 206.667,223.167 203.5,223C 201,221.833 199.167,220 198,217.5C 196.055,202.491 194.221,187.491 192.5,172.5 Z M 276.5,172.5 C 290.5,172.5 304.5,172.5 318.5,172.5C 317.14,187.904 315.307,203.237 313,218.5C 309.336,223.002 304.502,224.668 298.5,223.5C 289.278,224.805 282.445,221.471 278,213.5C 276.554,199.907 276.054,186.24 276.5,172.5 Z M 185.5,263.5 C 191.946,265.823 198.613,267.323 205.5,268C 201.911,284.029 198.911,300.196 196.5,316.5C 191.167,316.5 185.833,316.5 180.5,316.5C 182.24,298.84 183.907,281.174 185.5,263.5 Z M 323.5,263.5 C 325.117,264.589 325.95,266.256 326,268.5C 327.546,284.418 329.38,300.251 331.5,316C 326.136,316.829 320.802,316.663 315.5,315.5C 312.243,299.55 309.243,283.55 306.5,267.5C 312.575,267.422 318.241,266.089 323.5,263.5 Z M 221.5,267.5 C 244.169,267.333 266.836,267.5 289.5,268C 293.089,284.029 296.089,300.196 298.5,316.5C 269.833,316.5 241.167,316.5 212.5,316.5C 215.392,300.147 218.392,283.814 221.5,267.5 Z M 155.5,332.5 C 222.503,332.167 289.503,332.5 356.5,333.5C 357.668,334.906 357.335,336.072 355.5,337C 288.833,337.667 222.167,337.667 155.5,337C 154.272,335.51 154.272,334.01 155.5,332.5 Z M 176.5,353.5 C 180.5,353.5 184.5,353.5 188.5,353.5C 180.248,401.26 171.415,448.927 162,496.5C 166.171,448.786 171.005,401.12 176.5,353.5 Z"/></g>
</svg>
