<?xml version="1.0" encoding="UTF-8"?>
<!DOCTYPE svg PUBLIC "-//W3C//DTD SVG 1.1//EN" "http://www.w3.org/Graphics/SVG/1.1/DTD/svg11.dtd">
<svg xmlns="http://www.w3.org/2000/svg" version="1.1" width="512px" height="512px" style="shape-rendering:geometricPrecision; text-rendering:geometricPrecision; image-rendering:optimizeQuality; fill-rule:evenodd; clip-rule:evenodd" xmlns:xlink="http://www.w3.org/1999/xlink">
<g><path style="opacity:0.933" fill="#000000" d="M 200.5,62.5 C 238.548,62.0245 276.548,62.5245 314.5,64C 324.884,68.3916 330.718,76.2249 332,87.5C 332.5,97.4944 332.666,107.494 332.5,117.5C 376.168,117.333 419.835,117.5 463.5,118C 483.922,121.754 495.422,133.921 498,154.5C 498.984,242.53 498.651,330.53 497,418.5C 492.197,434.97 481.363,444.803 464.5,448C 325.167,448.667 185.833,448.667 46.5,448C 29.6366,444.803 18.8033,434.97 14,418.5C 12.3489,330.197 12.0156,241.863 13,153.5C 16.0412,133.459 27.5412,121.625 47.5,118C 91.1654,117.5 134.832,117.333 178.5,117.5C 178.334,107.161 178.5,96.828 179,86.5C 180.903,73.6445 188.069,65.6445 200.5,62.5 Z M 202.5,77.5 C 237.835,77.3333 273.168,77.5 308.5,78C 313.099,79.5981 315.932,82.7647 317,87.5C 317.5,97.4944 317.666,107.494 317.5,117.5C 276.167,117.5 234.833,117.5 193.5,117.5C 193.334,107.494 193.5,97.4944 194,87.5C 195.261,82.7452 198.095,79.4118 202.5,77.5 Z M 48.5,132.5 C 64.1667,132.5 79.8333,132.5 95.5,132.5C 95.5,232.833 95.5,333.167 95.5,433.5C 79.4965,433.667 63.4965,433.5 47.5,433C 36.5795,430.412 30.0795,423.579 28,412.5C 27.3333,326.167 27.3333,239.833 28,153.5C 31.0161,142.652 37.8495,135.652 48.5,132.5 Z M 110.5,132.5 C 207.167,132.5 303.833,132.5 400.5,132.5C 400.5,232.833 400.5,333.167 400.5,433.5C 303.833,433.5 207.167,433.5 110.5,433.5C 110.5,333.167 110.5,232.833 110.5,132.5 Z M 415.5,132.5 C 432.556,132.058 449.556,132.558 466.5,134C 473.667,137.167 478.833,142.333 482,149.5C 483.154,194.13 483.654,238.797 483.5,283.5C 483.656,327.878 483.156,372.211 482,416.5C 478.816,425.342 472.649,430.842 463.5,433C 447.503,433.5 431.503,433.667 415.5,433.5C 415.5,333.167 415.5,232.833 415.5,132.5 Z M 241.5,225.5 C 250.833,225.5 260.167,225.5 269.5,225.5C 269.036,239.265 269.536,252.932 271,266.5C 272.171,267.893 273.671,268.727 275.5,269C 288.162,269.5 300.829,269.667 313.5,269.5C 313.5,278.833 313.5,288.167 313.5,297.5C 299.402,297.035 285.402,297.535 271.5,299C 270.874,299.75 270.374,300.584 270,301.5C 269.5,314.829 269.333,328.163 269.5,341.5C 260.167,341.5 250.833,341.5 241.5,341.5C 241.965,327.402 241.465,313.402 240,299.5C 239.5,299 239,298.5 238.5,298C 224.837,297.5 211.171,297.333 197.5,297.5C 197.5,288.167 197.5,278.833 197.5,269.5C 211.24,269.946 224.907,269.446 238.5,268C 239.701,267.097 240.535,265.931 241,264.5C 241.5,251.504 241.667,238.504 241.5,225.5 Z"/></g>
<g><path style="opacity:0.935" fill="#000000" d="M 230.5,210.5 C 247.17,210.333 263.837,210.5 280.5,211C 282.049,212.214 283.215,213.714 284,215.5C 284.5,228.496 284.667,241.496 284.5,254.5C 297.837,254.333 311.171,254.5 324.5,255C 326.049,256.214 327.215,257.714 328,259.5C 328.667,275.167 328.667,290.833 328,306.5C 327.215,308.286 326.049,309.786 324.5,311C 311.171,311.5 297.837,311.667 284.5,311.5C 284.964,325.265 284.464,338.932 283,352.5C 282.167,353.333 281.333,354.167 280.5,355C 263.833,355.667 247.167,355.667 230.5,355C 229.667,354.167 228.833,353.333 228,352.5C 226.536,338.932 226.036,325.265 226.5,311.5C 213.163,311.667 199.829,311.5 186.5,311C 184.951,309.786 183.785,308.286 183,306.5C 182.333,290.833 182.333,275.167 183,259.5C 183.785,257.714 184.951,256.214 186.5,255C 199.829,254.5 213.163,254.333 226.5,254.5C 226.333,241.496 226.5,228.496 227,215.5C 227.997,213.677 229.164,212.01 230.5,210.5 Z M 241.5,225.5 C 241.667,238.504 241.5,251.504 241,264.5C 240.535,265.931 239.701,267.097 238.5,268C 224.907,269.446 211.24,269.946 197.5,269.5C 197.5,278.833 197.5,288.167 197.5,297.5C 211.171,297.333 224.837,297.5 238.5,298C 239,298.5 239.5,299 240,299.5C 241.465,313.402 241.965,327.402 241.5,341.5C 250.833,341.5 260.167,341.5 269.5,341.5C 269.333,328.163 269.5,314.829 270,301.5C 270.374,300.584 270.874,299.75 271.5,299C 285.402,297.535 299.402,297.035 313.5,297.5C 313.5,288.167 313.5,278.833 313.5,269.5C 300.829,269.667 288.162,269.5 275.5,269C 273.671,268.727 272.171,267.893 271,266.5C 269.536,252.932 269.036,239.265 269.5,225.5C 260.167,225.5 250.833,225.5 241.5,225.5 Z"/></g>
</svg>
