<?xml version="1.0" encoding="UTF-8"?>
<!DOCTYPE svg PUBLIC "-//W3C//DTD SVG 1.1//EN" "http://www.w3.org/Graphics/SVG/1.1/DTD/svg11.dtd">
<svg xmlns="http://www.w3.org/2000/svg" version="1.1" width="512px" height="512px" style="shape-rendering:geometricPrecision; text-rendering:geometricPrecision; image-rendering:optimizeQuality; fill-rule:evenodd; clip-rule:evenodd" xmlns:xlink="http://www.w3.org/1999/xlink">
<g><path style="opacity:0.858" fill="#000000" d="M 36.5,147.5 C 41.6184,146.889 46.2851,148.056 50.5,151C 68.9063,162.399 87.573,173.399 106.5,184C 108.833,185 110.5,186.667 111.5,189C 207.5,189.667 303.5,189.667 399.5,189C 400.5,186.667 402.167,185 404.5,184C 425.167,172 445.833,160 466.5,148C 477,146.5 481.5,151 480,161.5C 479.215,163.286 478.049,164.786 476.5,166C 456.002,177.748 435.669,189.748 415.5,202C 412.623,203.127 409.623,203.794 406.5,204C 405.167,206 403.5,207.667 401.5,209C 385.167,209.333 368.833,209.667 352.5,210C 325,237.5 297.5,265 270,292.5C 269.333,293.167 269.333,293.833 270,294.5C 297.333,321.833 324.667,349.167 352,376.5C 354.833,388.333 350.333,392.833 338.5,390C 310.986,362.32 283.32,334.82 255.5,307.5C 227.68,334.82 200.014,362.32 172.5,390C 164.611,392.888 159.611,390.221 157.5,382C 158.137,379.755 158.97,377.588 160,375.5C 187,348.5 214,321.5 241,294.5C 241.667,293.833 241.667,293.167 241,292.5C 213.5,265 186,237.5 158.5,210C 142.167,209.667 125.833,209.333 109.5,209C 84.0987,194.949 58.7653,180.282 33.5,165C 28.7937,158.098 29.7937,152.265 36.5,147.5 Z M 38.5,155.5 C 40.6547,155.372 42.6547,155.872 44.5,157C 64.3333,168.833 84.1667,180.667 104,192.5C 104.483,193.448 104.649,194.448 104.5,195.5C 101.575,195.54 98.9088,194.707 96.5,193C 78.0937,181.601 59.427,170.601 40.5,160C 38.9632,158.89 38.2965,157.39 38.5,155.5 Z M 468.5,155.5 C 469.833,155.5 471.167,155.5 472.5,155.5C 472.703,157.39 472.037,158.89 470.5,160C 451.833,171 433.167,182 414.5,193C 412.091,194.707 409.425,195.54 406.5,195.5C 406.452,192.708 407.785,190.875 410.5,190C 430.062,178.726 449.395,167.226 468.5,155.5 Z M 112.5,197.5 C 207.834,197.333 303.167,197.5 398.5,198C 399.833,199 399.833,200 398.5,201C 303.167,201.667 207.833,201.667 112.5,201C 111.316,199.855 111.316,198.688 112.5,197.5 Z M 170.5,210.5 C 171.601,209.402 172.934,209.235 174.5,210C 199.333,234.833 224.167,259.667 249,284.5C 249.563,285.725 249.23,286.725 248,287.5C 222.299,261.632 196.465,235.965 170.5,210.5 Z M 185.5,210.5 C 231.998,209.335 278.665,209.168 325.5,210C 302.32,233.347 278.986,256.514 255.5,279.5C 232.146,256.479 208.812,233.479 185.5,210.5 Z M 337.5,209.5 C 338.873,209.343 340.207,209.51 341.5,210C 283.639,268.194 225.473,326.028 167,383.5C 165.385,382.344 165.385,381.011 167,379.5C 223.728,322.605 280.562,265.938 337.5,209.5 Z M 262.5,299.5 C 290.416,325.914 317.916,352.914 345,380.5C 345.563,381.725 345.23,382.725 344,383.5C 316.361,356.862 289.028,329.862 262,302.5C 261.53,301.423 261.697,300.423 262.5,299.5 Z"/></g>
</svg>
