<?xml version="1.0" encoding="UTF-8"?>
<svg version="1.1" xmlns="http://www.w3.org/2000/svg" width="512" height="512">
<path d="M0 0 C1.42696307 -0.0034588 2.85392347 -0.00822485 4.28087831 -0.01418173 C8.19288702 -0.02669037 12.10467581 -0.02052209 16.01668525 -0.01122308 C20.23889633 -0.00443261 24.46106973 -0.01491364 28.68327332 -0.02316284 C36.94981638 -0.036501 45.21627773 -0.03362247 53.482824 -0.02492492 C60.19888585 -0.01815095 66.91492479 -0.01723041 73.63098907 -0.02049637 C75.06451662 -0.02118592 75.06451662 -0.02118592 76.52700432 -0.0218894 C78.46838139 -0.02284856 80.40975846 -0.0238212 82.35113552 -0.02480717 C100.55285022 -0.03336083 118.75451959 -0.02352634 136.95622686 -0.00740607 C152.58389803 0.00600569 168.21150238 0.00366191 183.83917236 -0.01016235 C201.98176908 -0.02620377 220.1243261 -0.03254592 238.26692891 -0.02332556 C240.19995832 -0.02236989 242.13298773 -0.02142678 244.06601715 -0.02049637 C245.01714814 -0.02003354 245.96827913 -0.01957072 246.94823228 -0.01909386 C253.66051281 -0.01650029 260.37276822 -0.02088268 267.08504486 -0.02793503 C275.25857465 -0.03633388 283.43201797 -0.03410366 291.6055378 -0.0180928 C295.77805557 -0.01018957 299.95042897 -0.00715334 304.12294579 -0.01704025 C307.93849694 -0.02594491 311.75376918 -0.02112481 315.56929484 -0.0051076 C316.95338004 -0.00174185 318.33748855 -0.00349383 319.7215589 -0.01073496 C321.5954528 -0.01979078 323.46941223 -0.00875419 325.34328842 0.00342751 C326.90793008 0.00415809 326.90793008 0.00415809 328.50418067 0.00490344 C331.08087158 0.38095093 331.08087158 0.38095093 332.88478303 1.72485864 C334.71488319 4.25879708 334.95690654 6.28182487 335.08087158 9.38095093 C333.94307286 11.70826649 332.91246444 13.54935807 331.08087158 15.38095093 C329.29337417 15.48162582 327.50185786 15.51126722 325.71152973 15.5140295 C323.95323698 15.52039107 323.95323698 15.52039107 322.15942317 15.52688116 C320.85517916 15.52649503 319.55093514 15.52610889 318.20716858 15.52571106 C316.82052292 15.52884219 315.43387819 15.53241638 314.04723471 15.53639847 C310.21874593 15.54613345 306.39027207 15.54965295 302.5617727 15.55224144 C298.43961198 15.55612439 294.31746458 15.56576233 290.1953125 15.57479858 C283.04604678 15.5897612 275.89678212 15.60129505 268.7475071 15.61074638 C258.40419648 15.62459849 248.06091046 15.64578352 237.71761747 15.66917492 C220.92944692 15.70712567 204.14127191 15.7420822 187.35308838 15.77377319 C185.84454166 15.77662393 185.84454166 15.77662393 184.30551925 15.77953226 C170.0381782 15.80635507 155.77083373 15.83022941 141.50348558 15.85291726 C140.49930372 15.85451456 139.49512187 15.85611186 138.46051025 15.85775757 C137.45754789 15.85935103 136.45458552 15.8609445 135.42123035 15.86258625 C118.70374821 15.88934494 101.98629216 15.92374212 85.26883811 15.96441132 C74.95117551 15.98920325 64.63354101 16.0075205 54.31585332 16.01756693 C47.24493033 16.02495303 40.17404504 16.03947191 33.10314701 16.05963116 C29.02147019 16.07103274 24.9398542 16.07915602 20.85816002 16.07862282 C17.12182475 16.07819541 13.38562639 16.08689792 9.64932629 16.10287262 C7.65657255 16.10900087 5.6637961 16.10531008 3.67103702 16.10127729 C2.48580312 16.10812609 1.30056922 16.11497488 0.07941914 16.12203121 C-0.94148648 16.12376746 -1.9623921 16.12550371 -3.01423424 16.12729257 C-7.1898249 16.49190945 -10.76550859 17.18755111 -13.73162842 20.25595093 C-16.26157812 24.78322934 -16.07083334 29.33811998 -16.0773468 34.41677856 C-16.08228478 35.23282318 -16.08722276 36.0488678 -16.09231037 36.88964105 C-16.10768299 39.62730218 -16.11604537 42.36493987 -16.12445068 45.10263062 C-16.13402939 47.06378893 -16.14403947 49.02494517 -16.15444946 50.98609924 C-16.18150538 56.31419165 -16.20251125 61.64229292 -16.22245145 66.97041607 C-16.24430674 72.53714809 -16.27169767 78.10385277 -16.29850769 83.67056274 C-16.34844074 94.21374804 -16.39337732 104.75694851 -16.43653005 115.30016351 C-16.48589718 127.30246435 -16.54081726 139.30473777 -16.59620965 151.30701208 C-16.71003911 175.99829944 -16.81687607 200.68961311 -16.91912842 225.38095093 C-13.28912842 225.38095093 -9.65912842 225.38095093 -5.91912842 225.38095093 C-6.18467529 224.4605603 -6.45022217 223.54016968 -6.72381592 222.59188843 C-16.16116216 188.76899058 -13.04928414 153.28786247 4.08087158 122.38095093 C9.05911747 113.96572591 15.30035192 106.51208868 21.69805908 99.15829468 C23.59391734 96.94853202 25.35160897 94.71861149 27.08087158 92.38095093 C26.50119629 92.07914917 25.921521 91.77734741 25.32427979 91.46640015 C22.67331973 90.0764015 20.03347978 88.66644472 17.39337158 87.25595093 C16.48135986 86.78157593 15.56934814 86.30720093 14.62969971 85.81845093 C9.3043738 82.95245735 5.38192193 80.51289312 2.08087158 75.38095093 C1.41680908 72.81845093 1.41680908 72.81845093 1.45587158 70.38095093 C1.44298096 69.57657593 1.43009033 68.77220093 1.41680908 67.94345093 C2.66993379 63.1078638 5.4690718 60.43806971 9.52130127 57.78036499 C12.40352254 56.11680781 15.31944202 54.54799931 18.26837158 53.00595093 C19.27835205 52.46067749 20.28833252 51.91540405 21.32891846 51.35360718 C28.77142609 47.38095093 28.77142609 47.38095093 31.08087158 47.38095093 C31.36011475 46.65335571 31.63935791 45.9257605 31.92706299 45.17611694 C33.76983973 40.71188695 36.13723699 36.54995907 38.45587158 32.31845093 C38.93798096 31.4206189 39.42009033 30.52278687 39.91680908 29.5977478 C40.39118408 28.73085327 40.86555908 27.86395874 41.35430908 26.97079468 C41.78147217 26.18567505 42.20863525 25.40055542 42.64874268 24.59164429 C44.97637755 20.99861091 46.98478012 18.74631475 51.08087158 17.38095093 C56.05407099 16.97331163 59.28320677 16.76010612 63.53424072 19.77767944 C67.04234845 23.41426088 68.76774205 28.48533209 70.89337158 33.00595093 C76.38419518 43.95511766 81.91195471 49.7590329 93.16119385 54.50033569 C95.07419159 55.37788661 96.67408102 56.43289347 98.41290283 57.61141968 C103.00795695 60.29273523 107.73521868 59.6826161 112.89337158 59.44345093 C120.3307784 59.26979883 127.4322379 59.39804583 134.76837158 60.69345093 C135.87825439 60.88789795 135.87825439 60.88789795 137.01055908 61.08627319 C141.12760234 61.86521107 144.92861295 63.01282999 148.89337158 64.38095093 C156.43120287 66.45015952 163.72801762 63.71018467 171.03009033 61.67782593 C189.23751319 56.73353905 210.88520149 58.20575384 228.86602783 63.49423218 C236.3313757 65.5533257 244.18631666 62.78749272 251.55352783 61.09970093 C282.12133282 54.87104521 316.68018065 61.91292664 342.70587158 79.06845093 C372.37474041 99.31937375 391.15585605 127.85558602 398.50274658 162.96688843 C402.008553 183.67009663 400.93727477 205.46473213 394.08087158 225.38095093 C397.71087158 225.38095093 401.34087158 225.38095093 405.08087158 225.38095093 C405.02034944 199.5553973 404.94285818 173.72994286 404.84515667 147.90450191 C404.80018811 135.91334347 404.76077583 123.92221479 404.73443604 111.93099976 C404.71146461 101.47965307 404.67807606 91.02840051 404.63217002 80.57712847 C404.60822638 75.04308808 404.58950503 69.50914098 404.58325768 63.97504997 C404.57721206 58.76545493 404.55723086 53.55609863 404.52659607 48.34659195 C404.51780751 46.43544357 404.51409496 44.524264 404.51586342 42.61309624 C404.51751723 40.00096932 404.5008078 37.38956924 404.479599 34.77754211 C404.48444658 34.02363329 404.48929415 33.26972447 404.49428862 32.49296993 C404.42532935 27.33639323 403.49832301 23.85156771 401.08087158 19.38095093 C396.13329864 16.39795058 391.53500495 15.96129425 385.88165283 16.00985718 C384.32761399 15.99249125 382.77357757 15.97490672 381.21954346 15.9571228 C378.79689291 15.94702124 376.37439203 15.94346421 373.95172119 15.94515991 C371.59458553 15.94159246 369.23858614 15.91428365 366.88165283 15.88485718 C365.7971862 15.89713097 365.7971862 15.89713097 364.69081116 15.90965271 C361.28697543 15.85925754 359.39582115 15.61338314 356.62457275 13.56820679 C354.36339893 10.36437059 354.5346794 8.20429622 355.08087158 4.38095093 C356.51739502 2.19540405 356.51739502 2.19540405 359.08087158 0.38095093 C362.25130368 -0.21671 365.37792578 -0.17942248 368.59649658 -0.15029907 C369.52629333 -0.15412598 370.45609009 -0.15795288 371.4140625 -0.16189575 C373.38097211 -0.16461584 375.34791783 -0.15724789 377.3147583 -0.14053345 C380.30664144 -0.11922167 383.29609673 -0.14028143 386.28790283 -0.16592407 C388.20327267 -0.16327892 390.11864101 -0.15815008 392.03399658 -0.15029907 C393.3640976 -0.16244446 393.3640976 -0.16244446 394.72106934 -0.17483521 C402.29986151 -0.06206575 408.50447901 2.19966507 413.89337158 7.69345093 C414.43606689 8.22583374 414.97876221 8.75821655 415.53790283 9.30673218 C420.56425461 16.06367596 420.51132046 22.44560943 420.46855164 30.59602356 C420.47662994 32.44025212 420.47662994 32.44025212 420.48487145 34.32173783 C420.49668211 37.72252155 420.49508953 41.12281378 420.48770463 44.52357781 C420.48296896 48.1957851 420.49548631 51.86794014 420.50572205 55.54013062 C420.52290741 62.72950395 420.52375064 69.91878988 420.51850914 77.10817843 C420.51446583 82.95225047 420.51591292 88.7962967 420.5212574 94.64036751 C420.52200582 95.47249303 420.52275424 96.30461855 420.52352535 97.16195999 C420.52505684 98.85248041 420.52659519 100.54300082 420.52814031 102.23352123 C420.54186433 118.0823966 420.53642829 133.93122259 420.5249551 149.78009684 C420.51502213 164.27548197 420.52796465 178.77073948 420.55188929 193.26610493 C420.57627873 208.15542185 420.58588859 223.04467932 420.57923657 237.93401581 C420.57574409 246.29107981 420.57797833 254.64804564 420.59548759 263.00509453 C420.61020761 270.1189997 420.61084766 277.23273757 420.59341668 284.34663945 C420.5849027 287.97503641 420.58276655 291.60313448 420.59806824 295.23151588 C420.61446131 299.1674619 420.59977182 303.10294646 420.58207703 307.03889465 C420.59168203 308.18199252 420.60128704 309.32509039 420.61118311 310.50282758 C420.53907746 318.29148831 419.18650314 323.29078349 414.40509033 329.58798218 C413.86497314 330.11778687 413.32485596 330.64759155 412.76837158 331.19345093 C411.96979736 332.0074939 411.96979736 332.0074939 411.15509033 332.83798218 C405.93499735 336.7211022 401.16485758 337.75601046 394.74505711 337.76126766 C394.03701351 337.76592758 393.32896992 337.7705875 392.59947047 337.77538863 C390.23277441 337.78731601 387.86665483 337.77795224 385.49995422 337.76863098 C383.78369388 337.77280489 382.0674363 337.77828272 380.35118383 337.78495079 C375.63933447 337.79941656 370.92765986 337.79515713 366.21580088 337.78778398 C361.13254374 337.78305744 356.04932468 337.79555759 350.96607971 337.80580139 C341.00941427 337.8230046 331.05281189 337.82382627 321.09613544 337.81858849 C313.00425852 337.81454852 304.91240025 337.81598829 296.82052422 337.82133675 C295.66923215 337.82208517 294.51794009 337.82283359 293.33176039 337.82360469 C290.99298497 337.82513615 288.65420956 337.8266745 286.31543415 337.82821966 C264.37902426 337.84195012 242.44265003 337.83650309 220.50624096 337.82503445 C200.4334904 337.81510071 180.360832 337.82804423 160.28809566 337.85196864 C139.68091968 337.87634514 119.07378665 337.88597112 98.46659654 337.87931591 C86.89579014 337.87582057 75.32505463 337.87807656 63.75425911 337.89556694 C53.90468402 337.91027075 44.05522975 337.91094813 34.20565707 337.89349603 C29.17985534 337.88496883 24.15426962 337.88287849 19.128479 337.89814758 C14.52742973 337.91195328 9.92678238 337.90728465 5.3257566 337.88790835 C3.66163651 337.88413537 1.99748454 337.88710756 0.33339275 337.89752 C-9.22015928 337.95304541 -16.21304735 337.71353284 -24.12615967 331.70516968 C-24.65596436 331.16505249 -25.18576904 330.6249353 -25.73162842 330.06845093 C-26.27432373 329.53606812 -26.81701904 329.0036853 -27.37615967 328.45516968 C-32.40251145 321.69822589 -32.3495773 315.31629243 -32.30680847 307.1658783 C-32.31219401 305.93639259 -32.31757955 304.70690688 -32.32312828 303.44016403 C-32.33493895 300.03938031 -32.33334636 296.63908807 -32.32596147 293.23832405 C-32.3212258 289.56611676 -32.33374315 285.89396171 -32.34397888 282.22177124 C-32.36116424 275.0323979 -32.36200747 267.84311197 -32.35676598 260.65372343 C-32.35272266 254.80965139 -32.35416975 248.96560516 -32.35951424 243.12153435 C-32.36063687 241.87334607 -32.36063687 241.87334607 -32.36178218 240.59994186 C-32.36331368 238.90942144 -32.36485202 237.21890103 -32.36639715 235.52838062 C-32.38012116 219.67950525 -32.37468513 203.83067926 -32.36321194 187.98180502 C-32.35327897 173.48641988 -32.36622149 158.99116238 -32.39014613 144.49579693 C-32.41453557 129.60648001 -32.42414543 114.71722254 -32.4174934 99.82788604 C-32.41400092 91.47082205 -32.41623517 83.11385622 -32.43374443 74.75680733 C-32.44846444 67.64290216 -32.4491045 60.52916429 -32.43167352 53.41526241 C-32.42315954 49.78686544 -32.42102338 46.15876737 -32.43632507 42.53038597 C-32.45271815 38.59443995 -32.43802866 34.65895539 -32.42033386 30.7230072 C-32.42993887 29.57990933 -32.43954388 28.43681147 -32.44943994 27.25907427 C-32.37733429 19.47041355 -31.02475997 14.47111836 -26.24334717 8.17391968 C-25.70322998 7.64411499 -25.16311279 7.1143103 -24.60662842 6.56845093 C-24.07424561 6.02575562 -23.54186279 5.4830603 -22.99334717 4.92391968 C-15.77867646 -0.44292576 -8.70135874 -0.04411632 0 0 Z M54.08087158 37.38095093 C53.78954346 37.96062622 53.49821533 38.54030151 53.19805908 39.13754272 C51.84762957 41.79301585 50.46477181 44.43027701 49.08087158 47.06845093 C48.62325439 47.98046265 48.16563721 48.89247437 47.69415283 49.8321228 C44.40122835 56.03454906 41.35811121 59.28727737 35.08087158 62.38095093 C33.87111627 63.05156923 32.66271168 63.72463174 31.45587158 64.40048218 C30.34212158 64.99216187 29.22837158 65.58384155 28.08087158 66.19345093 C26.94649658 66.79802124 25.81212158 67.40259155 24.64337158 68.02548218 C23.79774658 68.47278687 22.95212158 68.92009155 22.08087158 69.38095093 C24.98027408 72.72467744 28.00095279 74.53642971 31.8682251 76.52450562 C38.94163433 80.16441599 43.81934435 82.90452697 47.08087158 90.38095093 C48.01560738 92.11460621 48.95103885 93.84794116 49.90093994 95.57333374 C51.3217902 98.16127354 52.70045302 100.77128356 54.08087158 103.38095093 C56.41476956 101.26407387 57.6600516 99.43938088 58.85821533 96.53720093 C65.09746434 82.79306904 73.41629455 77.28038841 87.08087158 71.38095093 C87.08087158 70.72095093 87.08087158 70.06095093 87.08087158 69.38095093 C86.537854 69.15770142 85.99483643 68.9344519 85.43536377 68.70443726 C69.39181827 61.81141585 62.15455895 53.19544314 55.08087158 37.38095093 C54.75087158 37.38095093 54.42087158 37.38095093 54.08087158 37.38095093 Z M102.08087158 80.38095093 C97.34922605 83.27060591 92.38198503 85.76815981 87.45196533 88.3008728 C80.92875601 91.81498879 77.32042939 94.73310834 74.08087158 101.38095093 C73.28077855 102.77702828 72.47340776 104.16895868 71.65899658 105.55673218 C70.88097957 106.93452485 70.10493311 108.31343214 69.33087158 109.69345093 C68.93255127 110.39534546 68.53423096 111.09723999 68.12384033 111.82040405 C66.53480429 114.64565627 65.1084529 117.29820698 64.08087158 120.38095093 C59.70451698 122.36073039 55.84585647 122.89148502 51.08087158 122.38095093 C44.11336376 119.47782267 41.48290306 112.7824066 38.08087158 106.38095093 C19.30029834 120.21213122 8.62240188 145.98758241 5.08087158 168.38095093 C2.18300882 188.44150792 5.13568982 206.05911019 11.08087158 225.38095093 C23.29087158 225.38095093 35.50087158 225.38095093 48.08087158 225.38095093 C45.77087158 219.77095093 43.46087158 214.16095093 41.08087158 208.38095093 C35.40786369 186.23792013 37.55156972 165.34623098 48.83087158 145.25595093 C52.2979428 139.72282449 56.51671856 135.02920057 61.08087158 130.38095093 C61.75762939 129.67970093 62.43438721 128.97845093 63.13165283 128.25595093 C77.7858626 114.12609142 97.88838954 108.85063643 117.81524658 109.16610718 C136.45474845 109.84752403 156.01430604 117.90262386 169.08087158 131.38095093 C184.86352696 148.37526685 190.97153104 169.27276457 190.21710205 192.1211853 C189.5128253 203.80359684 185.27162025 214.9994536 180.08087158 225.38095093 C192.29087158 225.38095093 204.50087158 225.38095093 217.08087158 225.38095093 C226.4966617 193.36726453 227.35045445 162.80276506 211.21295166 132.79940796 C207.46967777 126.13320433 203.08773601 120.15368372 198.08087158 114.38095093 C197.41700439 113.57270874 196.75313721 112.76446655 196.06915283 111.93173218 C179.56179514 92.49515759 156.05068506 80.50955765 131.08087158 76.38095093 C129.80212158 76.15407593 128.52337158 75.92720093 127.20587158 75.69345093 C125.8335111 75.55890578 124.45744798 75.46165474 123.08087158 75.38095093 C121.80598877 75.30489624 120.53110596 75.22884155 119.21759033 75.15048218 C117.77631528 75.0985281 116.33489753 75.05040256 114.89337158 75.00595093 C114.20323975 74.96768188 113.51310791 74.92941284 112.80206299 74.88998413 C107.24944459 74.80046919 105.77207432 76.49964333 102.08087158 80.38095093 Z M178.08087158 76.38095093 C181.57452816 79.21278549 185.14153762 81.91006395 188.76837158 84.56845093 C202.5907742 94.9605996 202.5907742 94.9605996 207.54962158 101.59188843 C213.20734278 109.10059915 217.91122574 112.7944295 226.80377197 115.99301147 C233.48166017 118.39818624 238.63051789 121.81847743 244.08087158 126.38095093 C244.88009033 127.01903687 245.67930908 127.6571228 246.50274658 128.31454468 C259.94908817 139.52734966 268.857399 157.06050116 271.08087158 174.38095093 C272.51654908 191.09387063 270.61656516 206.2224294 263.03399658 221.34188843 C261.93971977 223.30778537 261.93971977 223.30778537 262.08087158 225.38095093 C273.96087158 225.38095093 285.84087158 225.38095093 298.08087158 225.38095093 C302.55245851 211.07187276 305.4677705 200.2055906 305.39337158 185.63095093 C305.38845703 184.48714966 305.38354248 183.34334839 305.378479 182.16488647 C305.25922837 173.5378677 304.47477882 165.70632065 302.08087158 157.38095093 C301.75216064 156.18083374 301.42344971 154.98071655 301.08477783 153.74423218 C292.82868919 126.40486598 274.16457428 103.01034183 249.15509033 89.15048218 C226.89446956 77.34399965 203.03870034 72.86815778 178.08087158 76.38095093 Z M259.08087158 76.38095093 C262.39532138 79.07654475 265.7766466 81.60825475 269.26837158 84.06845093 C278.06184942 90.45727799 285.56205188 97.66876469 292.75665283 105.80282593 C293.52364502 106.65360718 294.29063721 107.50438843 295.08087158 108.38095093 C295.84270752 109.2343103 296.60454346 110.08766968 297.38946533 110.96688843 C300.63316237 113.87632931 303.89774446 115.46287371 307.83087158 117.25595093 C314.23405771 120.32753925 319.79230085 123.57596546 325.08087158 128.38095093 C325.82594971 129.03450562 326.57102783 129.6880603 327.33868408 130.36141968 C341.56819586 143.60210098 348.99515824 162.21070974 350.36602783 181.36532593 C350.8399657 195.27201712 347.84722072 207.78252476 342.08087158 220.38095093 C341.42087158 222.03095093 340.76087158 223.68095093 340.08087158 225.38095093 C352.29087158 225.38095093 364.50087158 225.38095093 377.08087158 225.38095093 C386.94965269 191.82709517 386.64678892 162.41072107 370.02056885 131.16879272 C366.35822026 124.5519558 362.17725104 118.98415265 357.08087158 113.38095093 C356.49434814 112.64231812 355.90782471 111.9036853 355.30352783 111.14266968 C338.9434254 90.98788266 311.73152045 78.77339177 286.43292236 75.59921265 C277.61347704 74.78080034 267.73236335 74.20049365 259.08087158 76.38095093 Z M66.21368408 147.44345093 C55.91340573 160.25208722 51.54471689 176.12187539 53.08087158 192.38095093 C54.58384256 202.10158785 57.48852332 211.19638476 63.08087158 219.38095093 C63.75585693 220.40505066 64.43084229 221.42915039 65.12628174 222.48428345 C67.31444895 225.06642355 68.77439458 225.82840066 72.14117432 226.14285278 C73.7652236 226.17836453 75.39019988 226.18095962 77.01446533 226.15731812 C78.34950607 226.17308899 78.34950607 226.17308899 79.71151733 226.18917847 C82.64785366 226.21554508 85.58201399 226.19811954 88.51837158 226.17782593 C90.56191422 226.1818685 92.60545405 226.18769229 94.64898682 226.19522095 C98.92962137 226.20406291 103.20950418 226.19122222 107.49005127 226.16317749 C112.97509088 226.12899138 118.45836913 226.14867653 123.94334412 226.18461227 C128.16250869 226.20630169 132.38125616 226.19938955 136.60043335 226.18384552 C138.62263193 226.17984517 140.64486847 226.18474742 142.66702271 226.19872284 C145.49479341 226.21397744 148.31971894 226.19072015 151.14727783 226.15731812 C152.39893234 226.17553619 152.39893234 226.17553619 153.6758728 226.19412231 C157.99247668 226.126711 157.99247668 226.126711 161.6751709 224.10697174 C172.18866828 211.80687905 176.34230118 195.25663007 175.29229736 179.42001343 C173.70182749 164.0809783 166.78737646 152.12431125 156.08087158 141.38095093 C155.46598877 140.74286499 154.85110596 140.10477905 154.21759033 139.44735718 C143.47991848 129.12355705 128.71803806 124.41073982 114.08087158 124.00595093 C94.23094283 124.55489807 79.21797886 133.07887427 66.21368408 147.44345093 Z M230.08087158 135.38095093 C230.25102783 135.92880249 230.42118408 136.47665405 230.59649658 137.04110718 C238.67631893 163.47244092 241.78967403 188.09009044 236.08087158 215.38095093 C235.76182861 217.0283728 235.76182861 217.0283728 235.43634033 218.70907593 C235.00384875 220.93687431 234.54658426 223.15985968 234.08087158 225.38095093 C237.02195678 225.69119198 239.21800781 225.91051352 242.08087158 225.38095093 C244.22995519 223.20612979 245.3879754 221.71815514 246.83087158 219.13095093 C247.20792236 218.50067993 247.58497314 217.87040894 247.97344971 217.22103882 C251.23394149 211.5725912 253.49632684 205.7096981 255.08087158 199.38095093 C255.27165283 198.62040405 255.46243408 197.85985718 255.65899658 197.07626343 C258.3121531 180.12554123 254.97790022 163.80957002 245.19415283 149.65048218 C241.05856842 144.27990988 236.50794951 139.4681767 231.08087158 135.38095093 C230.75087158 135.38095093 230.42087158 135.38095093 230.08087158 135.38095093 Z M313.08087158 139.38095093 C313.26262939 140.01259155 313.44438721 140.64423218 313.63165283 141.29501343 C320.56907671 165.98512713 323.01464865 191.19857997 317.08087158 216.38095093 C316.86817627 217.3786853 316.65548096 218.37641968 316.43634033 219.40438843 C316.00915781 221.40200453 315.55076325 223.39294771 315.08087158 225.38095093 C317.43370539 225.69986257 317.43370539 225.69986257 320.08087158 225.38095093 C330.06527361 216.81382631 334.33442094 201.49173887 335.36602783 188.90048218 C335.82252184 171.01782565 329.90365996 155.85470961 317.72540283 142.93539429 C316.54048824 141.72064821 315.31445631 140.54624031 314.08087158 139.38095093 C313.75087158 139.38095093 313.42087158 139.38095093 313.08087158 139.38095093 Z M-16.91912842 241.38095093 C-16.91912842 246.00095093 -16.91912842 250.62095093 -16.91912842 255.38095093 C122.34087158 255.38095093 261.60087158 255.38095093 405.08087158 255.38095093 C405.08087158 250.76095093 405.08087158 246.14095093 405.08087158 241.38095093 C265.82087158 241.38095093 126.56087158 241.38095093 -16.91912842 241.38095093 Z M-16.91912842 271.38095093 C-16.99357752 276.94936232 -17.0478716 282.51748057 -17.08392334 288.08627319 C-17.09896087 289.97857718 -17.11939627 291.87084659 -17.14544678 293.76303101 C-17.1820524 296.49122678 -17.19890532 299.21895964 -17.21209717 301.94735718 C-17.22758102 302.78617935 -17.24306488 303.62500153 -17.25901794 304.48924255 C-17.2605455 309.88439566 -16.45358451 313.59347339 -13.91912842 318.38095093 C-9.56457153 322.59503823 -5.03802545 322.50636307 0.80045795 322.51237869 C1.47832563 322.51443133 2.15619331 322.51648396 2.85460243 322.51859879 C5.13653064 322.524274 7.4183986 322.52281091 9.70033264 322.52139282 C11.34871687 322.52397615 12.99710047 322.52698922 14.6454832 322.53039622 C19.18356417 322.53847312 23.72162932 322.54025618 28.25971663 322.54099369 C33.1507641 322.54284302 38.04180335 322.55038971 42.93284607 322.55712891 C53.63108401 322.57071721 64.3293182 322.5767376 75.02756333 322.58113956 C81.70524758 322.5839009 88.38293037 322.58813803 95.06061363 322.59264374 C113.5428359 322.60483658 132.02505701 322.61513617 150.50728321 322.61851883 C152.28199783 322.61884818 152.28199783 322.61884818 154.09256528 322.61918418 C155.87156315 322.6195116 155.87156315 322.6195116 157.68650037 322.61984563 C160.08984872 322.6202891 162.49319706 322.62073566 164.89654541 322.6211853 C166.08869314 322.62140673 167.28084087 322.62162816 168.50911429 322.6218563 C187.83259602 322.62580557 207.15604007 322.64326346 226.47950725 322.66654482 C246.3102568 322.6902449 266.14098744 322.70272005 285.97175139 322.70388675 C297.10940616 322.70480421 308.24701183 322.71057463 319.38465309 322.72870636 C328.86723053 322.74408914 338.34974368 322.74923855 347.83233122 322.74096826 C352.67163643 322.73705542 357.51081211 322.73802226 362.35010147 322.7520256 C366.77967974 322.76472635 371.20903064 322.76360077 375.63860842 322.75143489 C377.24156592 322.74947126 378.84453932 322.75258699 380.44747446 322.76127926 C382.62651296 322.77234801 384.80474564 322.76490066 386.98376179 322.75288773 C388.19404051 322.75348481 389.40431924 322.7540819 390.65127307 322.75469708 C395.41602119 322.2354508 399.53637092 320.97693494 402.95587158 317.44345093 C404.77946924 314.10018855 405.20634281 311.02986007 405.19439697 307.25497437 C405.19428368 306.05418243 405.19428368 306.05418243 405.19416809 304.82913208 C405.18900681 303.97482605 405.18384552 303.12052002 405.17852783 302.24032593 C405.17711288 301.35814392 405.17569794 300.47596191 405.17424011 299.56704712 C405.1686516 296.75498027 405.15610119 293.94299363 405.14337158 291.13095093 C405.1383551 289.22209791 405.13379245 287.31324365 405.12969971 285.40438843 C405.11868592 280.72987845 405.10142916 276.05542828 405.08087158 271.38095093 C399.67337213 271.1821458 394.26802926 271.03754435 388.85772705 270.9414978 C387.0204358 270.90143729 385.18339687 270.84696903 383.34698486 270.7774353 C372.93063941 270.03634151 372.93063941 270.03634151 363.25665283 273.02377319 C361.2767472 275.03172749 359.69436692 277.0743267 358.08087158 279.38095093 C334.03477742 301.98884516 300.10648053 311.15650715 267.87774658 310.64266968 C258.52766487 310.33710131 249.28113459 308.91360342 240.30352783 306.26766968 C233.22868041 304.32101469 225.62410264 307.07567114 218.64337158 308.66220093 C199.59565429 312.50516144 177.75381582 311.89148141 159.33087158 305.44345093 C153.44795735 303.67675532 148.49544143 305.50546324 142.80743408 307.25204468 C114.05513999 315.96212119 80.19048579 309.70117889 54.01837158 296.00595093 C45.89010499 291.56361633 37.73858126 286.57984681 31.61236572 279.54721069 C26.53024696 273.90088539 22.70993896 270.81584619 14.9540863 270.33670044 C10.56648217 270.28566335 6.21133541 270.46099049 1.83087158 270.69345093 C0.00680192 270.74874051 -1.81743045 270.79891074 -3.64178467 270.84384155 C-8.07164876 270.96394742 -12.49355485 271.15304218 -16.91912842 271.38095093 Z M46.08087158 271.38095093 C63.17402879 288.47410814 90.53300418 295.64887057 114.08087158 295.88095093 C138.68233131 295.6384867 162.67220259 287.63061942 182.08087158 272.38095093 C182.08087158 272.05095093 182.08087158 271.72095093 182.08087158 271.38095093 C137.20087158 271.38095093 92.32087158 271.38095093 46.08087158 271.38095093 Z M197.08087158 280.38095093 C194.57388478 282.48738236 191.94924056 284.3779536 189.26837158 286.25595093 C187.99101668 287.16999785 186.71367261 288.0840599 185.43634033 288.99813843 C184.85416748 289.41031616 184.27199463 289.8224939 183.67218018 290.24716187 C181.78359198 291.59275922 179.92643546 292.97702072 178.08087158 294.38095093 C206.12433121 299.09286013 234.54622723 292.05225528 258.08087158 276.38095093 C259.7690136 274.73603996 261.43921572 273.07225858 263.08087158 271.38095093 C255.80501628 271.17145874 248.52982145 271.01203194 241.25154972 270.91464138 C237.87089316 270.86787072 234.49231452 270.80456241 231.112854 270.70199585 C227.21753003 270.59229871 223.32511922 270.54166434 219.42852783 270.50204468 C218.22817398 270.45559311 217.02782013 270.40914154 215.79109192 270.36128235 C206.43581076 270.35570628 202.93958162 273.41883066 197.08087158 280.38095093 Z M278.78692627 278.83309937 C278.22392822 279.67389038 277.66093018 280.5146814 277.08087158 281.38095093 C275.10137939 283.09286499 275.10137939 283.09286499 273.14727783 284.43954468 C272.56139893 284.84495483 271.97552002 285.25036499 271.37188721 285.6680603 C270.51627197 286.23750366 270.51627197 286.23750366 269.64337158 286.81845093 C264.54511742 290.21488018 264.54511742 290.21488018 260.08087158 294.38095093 C278.48620096 300.51606072 304.08905155 293.34517715 321.08087158 285.38095093 C328.4402332 281.67987122 335.59752217 277.47501118 342.08087158 272.38095093 C342.08087158 272.05095093 342.08087158 271.72095093 342.08087158 271.38095093 C334.43186029 271.12623417 326.78395135 270.95180253 319.13165283 270.83163452 C316.53195329 270.78151594 313.93253324 270.71339927 311.33380127 270.6265564 C292.89213895 269.06699711 292.89213895 269.06699711 278.78692627 278.83309937 Z " fill="#000000" transform="translate(61.91912841796875,104.61904907226563)"/>
<path d="M0 0 C0.82781322 -0.00235223 1.65562643 -0.00470446 2.50852489 -0.00712797 C5.31255677 -0.01384239 8.11654256 -0.01335902 10.92058182 -0.01294994 C12.93918467 -0.01624705 14.95778687 -0.01997229 16.97638822 -0.02409142 C22.54705799 -0.03413696 28.11771699 -0.03783231 33.68839455 -0.04048073 C39.68717154 -0.04437622 45.68593993 -0.05395503 51.68471146 -0.0626936 C65.49762841 -0.08154361 79.31054602 -0.09171708 93.12347218 -0.10015428 C99.94656956 -0.10435846 106.76966606 -0.10958075 113.59276269 -0.11483881 C136.9404205 -0.13273013 160.28807855 -0.14772709 183.63574219 -0.155159 C185.10195421 -0.15563376 186.56816623 -0.15610965 188.03437825 -0.15658666 C189.12506259 -0.15694122 189.12506259 -0.15694122 190.23778096 -0.15730295 C193.92186318 -0.15850417 197.6059454 -0.15971961 201.29002762 -0.16094494 C202.38671151 -0.16130516 202.38671151 -0.16130516 203.50555063 -0.16167267 C227.21615642 -0.16956753 250.92671221 -0.19300262 274.63729617 -0.22550088 C299.69447068 -0.25978223 324.75161593 -0.27950856 349.80881429 -0.28280324 C352.55840382 -0.28322079 355.30799334 -0.28370036 358.05758286 -0.28422642 C359.07315215 -0.28441121 359.07315215 -0.28441121 360.109238 -0.28459973 C371.01491196 -0.28693385 381.92052795 -0.30260564 392.82618124 -0.32306826 C403.78392485 -0.34330276 414.74160816 -0.34848084 425.69936845 -0.33929763 C431.6382785 -0.33473807 437.57699995 -0.3367351 443.5158844 -0.35605907 C448.94906842 -0.37358544 454.38192479 -0.37277905 459.81511179 -0.35716178 C461.78419409 -0.35476963 463.75329846 -0.3591917 465.72234687 -0.37099043 C468.39294703 -0.386006 471.06237064 -0.37650894 473.73294067 -0.36076355 C474.50273616 -0.37098576 475.27253165 -0.38120796 476.06565428 -0.39173993 C481.23122862 -0.3249781 484.13224617 0.88957887 488.11815262 4.13422108 C492.47095683 9.07524207 493.26573207 11.95372131 493.2523737 18.39137363 C493.25472593 19.1516519 493.25707816 19.91193017 493.25950167 20.69524717 C493.26621406 23.26954404 493.26573277 25.84379069 493.26532364 28.41809559 C493.26862087 30.27170649 493.27234614 32.12531668 493.27646512 33.97892594 C493.28650923 39.09353286 493.29020577 44.20812803 493.29285443 49.32274342 C493.29675034 54.83071869 493.30632913 60.33868461 493.31506729 65.84665394 C493.33485162 79.15853261 493.34490027 92.47041208 493.35379508 105.78230178 C493.35817464 112.04561753 493.3635423 118.30893243 493.36878395 124.57224751 C493.38579797 145.38341428 493.40031822 166.1945809 493.40753269 187.00575352 C493.40800745 188.35206205 493.40848334 189.69837059 493.40896035 191.04467912 C493.40931492 192.0461678 493.40931492 192.0461678 493.40967665 193.06788857 C493.41087786 196.45067649 493.41209331 199.83346441 493.41331863 203.21625233 C493.41355878 203.88758121 493.41379893 204.5589101 493.41404636 205.25058228 C493.42194089 227.02111783 493.44537529 248.79159892 493.47787458 270.56211069 C493.51215864 293.57013882 493.53188136 316.57814446 493.53517693 339.58620095 C493.53734524 352.13177056 493.54614072 364.67726013 493.57163811 377.22280598 C493.59329739 387.90477907 493.60141909 398.5866527 493.59167133 409.26864526 C493.5871128 414.72149772 493.58910278 420.17414477 493.60843277 425.62696934 C493.62596657 430.61606147 493.62514669 435.60479685 493.60953548 440.59389225 C493.60714447 442.40146857 493.61155967 444.20906897 493.62336413 446.01660833 C493.63839394 448.46941059 493.62887334 450.92093417 493.61313725 453.37370396 C493.62335945 454.07932563 493.63358166 454.7849473 493.64411363 455.51195145 C493.57412473 460.49316809 492.2078892 463.28205703 489.11815262 467.13422108 C483.39163128 472.17901368 483.39163128 472.17901368 479.11961746 472.02875233 C475.18222219 471.94063691 471.93127969 472.12021566 468.11815262 473.13422108 C464.57023224 476.60039214 462.76190454 480.6464192 460.74315262 485.13422108 C454.78555561 497.46373238 449.50462101 507.20241187 436.11815262 512.13422108 C431.72912482 512.81789617 427.419342 512.81057961 422.98390579 512.76913929 C421.04584432 512.78083922 421.04584432 512.78083922 419.0686301 512.79277551 C415.50722579 512.81352975 411.94649665 512.80338686 408.38509083 512.78784442 C404.53507491 512.77648819 400.6851716 512.79401422 396.83517838 512.80774403 C389.30459816 512.82993183 381.77426765 512.82519634 374.24367781 512.81068082 C368.12503179 512.799376 362.0064556 512.79786303 355.88780212 512.8032999 C354.58020862 512.80444915 354.58020862 512.80444915 353.24619909 512.80562162 C351.47522234 512.80722027 349.7042456 512.80884133 347.93326889 512.81048457 C331.34432667 512.82472769 314.75552283 512.80836931 298.16660331 512.78148274 C283.92870428 512.75912164 269.69100896 512.76304521 255.45311356 512.78607655 C238.91310297 512.81281931 222.37321331 512.82337937 205.83318412 512.80801523 C204.07065894 512.80642248 202.30813374 512.80485063 200.54560852 512.8032999 C199.67842651 512.80252853 198.8112445 512.80175715 197.91778425 512.8009624 C191.80253863 512.79664257 185.68736968 512.80393751 179.57213593 512.81569767 C172.12583995 512.82970326 164.67980759 512.82596287 157.23354192 512.79929395 C153.43342921 512.78613298 149.63375645 512.78104193 145.83364677 512.79753971 C141.71887887 512.81513399 137.60522661 512.79416086 133.49049759 512.76913929 C132.28332144 512.7802929 131.07614529 512.79144651 129.83238804 512.8029381 C121.78755393 512.70749853 121.78755393 512.70749853 118.37613106 509.78594494 C116.84024342 506.54840941 116.51571378 504.67354927 117.11815262 501.13422108 C119.14107584 498.57628179 120.34103413 497.29263601 123.57538491 496.6333164 C124.96630453 496.63266429 124.96630453 496.63266429 126.38532352 496.63199902 C127.45837327 496.62178482 128.53142301 496.61157063 129.63698941 496.60104692 C130.81508434 496.61017158 131.99317926 496.61929623 133.20697403 496.6286974 C135.085168 496.61956222 135.085168 496.61956222 137.00130528 496.61024249 C140.47918124 496.59382949 143.95662349 496.60229745 147.43449962 496.6147337 C151.18445965 496.62377992 154.93434026 496.60977409 158.68428421 496.59846973 C165.18364696 496.5819555 171.68288666 496.57983736 178.18226433 496.58723545 C187.58690865 496.5977448 196.99140223 496.58436981 206.39602651 496.56477089 C221.66399807 496.53341772 236.93193782 496.5184243 252.19993973 496.51508045 C253.57097056 496.51477447 253.57097056 496.51477447 254.96969899 496.51446231 C255.88485283 496.51425894 256.80000667 496.51405557 257.74289244 496.51384604 C270.71035053 496.51092755 283.67779879 496.5041279 296.64525223 496.49261951 C298.01325062 496.49141157 298.01325062 496.49141157 299.40888534 496.49017923 C314.61563386 496.47642366 329.82236485 496.45463279 345.02909726 496.42874968 C354.40956368 496.41330387 363.78997276 496.40609546 373.17045166 496.4095446 C379.59892029 496.41158504 386.02736043 496.40692281 392.45582167 496.39700125 C396.16500446 496.39156913 399.87411345 496.38949327 403.58329582 496.39617443 C407.60505035 496.40338246 411.62663061 496.39528182 415.64838028 496.38577747 C416.81978304 496.39044069 417.9911858 496.3951039 419.19808561 496.39990842 C427.37071672 496.39209429 427.37071672 496.39209429 435.11815262 494.13422108 C440.50626479 487.67521451 440.50626479 487.67521451 448.11815262 473.13422108 C308.85815262 473.13422108 169.59815262 473.13422108 26.11815262 473.13422108 C32.13556571 487.22253923 32.13556571 487.22253923 43.62375259 495.87535572 C46.10990623 496.13336528 48.52902774 496.26558274 51.02855301 496.27606678 C51.97626068 496.28310123 52.92396835 496.29013569 53.90039444 496.29738331 C54.9119812 496.30154758 55.92356796 496.30571186 56.96580887 496.31000233 C59.11881359 496.3331867 61.27180843 496.35730346 63.42479324 496.38226795 C66.81101109 496.4174667 70.19686138 496.44678504 73.58324051 496.46014881 C76.85704375 496.47558792 80.12978509 496.5157534 83.40330887 496.56000233 C84.41691986 496.55809391 85.43053085 496.55618549 86.47485733 496.55421925 C93.45290052 496.67604847 93.45290052 496.67604847 96.75658035 498.95135975 C98.7735781 502.18499375 98.65056387 504.40734232 98.11815262 508.13422108 C96.07726351 510.77104303 94.88015198 511.97980406 91.57844925 512.64888477 C90.62265976 512.65508335 89.66687027 512.66128193 88.68211746 512.66766834 C87.59353439 512.68350468 86.50495132 512.69934101 85.38338089 512.71565723 C84.21046494 512.71069736 83.03754898 512.7057375 81.82909012 512.70062733 C80.61548813 512.7068259 79.40188614 512.71302448 78.15150833 512.7194109 C75.58099037 512.72651725 73.01042646 512.72332099 70.43992996 512.71063709 C66.52840825 512.69684539 62.61931328 512.73074688 58.70799637 512.7689867 C56.2066937 512.76993864 53.70538807 512.76807509 51.20409012 512.76312733 C50.04331955 512.77638554 48.88254898 512.78964375 47.68660355 512.80330372 C38.87767681 512.70361644 32.52524836 510.66887237 25.62450027 505.13422108 C19.57141596 498.08462388 15.73077389 490.10858215 11.93455887 481.66937733 C10.23348966 478.3190279 8.80838042 475.76624819 6.11815262 473.13422108 C2.35412778 472.14545278 -0.84181311 471.98535266 -4.72462082 472.10199451 C-9.19767241 472.14765202 -10.68639855 471.16148839 -13.88184738 468.13422108 C-18.05247888 463.39999073 -19.00669894 461.04428874 -19.01327515 454.77449608 C-19.0163541 453.779619 -19.0163541 453.779619 -19.01949525 452.7646434 C-19.02519366 450.52043182 -19.02370452 448.27628107 -19.02228928 446.03206348 C-19.02487128 444.41555299 -19.02788397 442.79904313 -19.03129268 441.18253416 C-19.03938516 436.72342457 -19.04115349 432.26433106 -19.04189014 427.805215 C-19.04373677 423.00282584 -19.05128205 418.20044511 -19.05802536 413.3980608 C-19.07162451 402.8900496 -19.07763568 392.38204221 -19.08203602 381.87402368 C-19.08479541 375.31799345 -19.08903216 368.7619647 -19.09354019 362.20593548 C-19.10573424 344.06863625 -19.11603373 325.9313382 -19.11941528 307.79403496 C-19.11963485 306.63255627 -19.11985442 305.47107759 -19.12008063 304.27440258 C-19.12029891 303.11008555 -19.12051719 301.94576852 -19.12074208 300.74616915 C-19.12118555 298.38666888 -19.12163212 296.02716861 -19.12208176 293.66766834 C-19.12230319 292.49726529 -19.12252462 291.32686223 -19.12275276 290.12099241 C-19.12670323 271.14387339 -19.14416425 252.16679271 -19.16744128 233.18968851 C-19.19112433 213.72514557 -19.20361572 194.2606219 -19.2047832 174.79606432 C-19.20570161 163.85971581 -19.21149552 152.92341727 -19.22960281 141.98708248 C-19.24496267 132.67708349 -19.25014866 123.3671499 -19.24186471 114.05714066 C-19.23794373 109.3034053 -19.23895797 104.54980183 -19.25292206 99.7960825 C-19.26557458 95.44928432 -19.2645404 91.10271828 -19.25233135 86.75592082 C-19.25035924 85.17854651 -19.25352179 83.60115624 -19.26217571 82.02380443 C-19.27315265 79.88884508 -19.26586438 77.75472192 -19.25378418 75.61978722 C-19.25438127 74.43120757 -19.25497836 73.24262792 -19.25559354 72.0180307 C-18.88184738 69.13422108 -18.88184738 69.13422108 -17.49336696 67.25377554 C-15.36657465 65.77625094 -13.95531143 65.73348644 -11.38184738 65.75922108 C-10.22169113 65.74761951 -10.22169113 65.74761951 -9.03809738 65.73578358 C-6.26902491 66.24746001 -5.55544572 66.87440114 -3.88184738 69.13422108 C-3.50283986 71.98827189 -3.50283986 71.98827189 -3.49708652 75.54728699 C-3.4919363 76.20438862 -3.48678607 76.86149025 -3.48147978 77.53850405 C-3.46779183 79.75485777 -3.47556093 81.97062542 -3.48311996 84.18700123 C-3.47769019 85.78202257 -3.47094588 87.3770399 -3.46299362 88.97205067 C-3.44487956 93.37590036 -3.4455639 97.77958235 -3.44913043 102.18346058 C-3.4497182 106.99752574 -3.43294791 111.81153541 -3.41834164 116.62557411 C-3.3925796 125.97874454 -3.38225446 135.3318692 -3.37725906 144.68507125 C-3.3708216 155.49942081 -3.34529141 166.31366926 -3.31971359 177.12799549 C-3.26162699 205.69254219 -3.2295916 234.25713706 -3.19434738 262.82172108 C-3.09122238 326.61484608 -2.98809738 390.40797108 -2.88184738 456.13422108 C155.51815262 456.13422108 313.91815262 456.13422108 477.11815262 456.13422108 C477.11815262 310.93422108 477.11815262 165.73422108 477.11815262 16.13422108 C394.61815262 15.80422108 312.11815262 15.47422108 227.11815262 15.13422108 C227.11815262 28.66422108 227.11815262 42.19422108 227.11815262 56.13422108 C222.11815262 62.13422108 222.11815262 62.13422108 220.11815262 63.13422108 C217.95042228 63.23722816 215.77945018 63.2737641 213.60928726 63.2813921 C212.93323655 63.28506879 212.25718584 63.28874547 211.56064874 63.29253358 C209.28448033 63.30358868 207.00835755 63.30741732 204.73216629 63.31122303 C203.10453521 63.31748627 201.47690556 63.32413295 199.8492775 63.33113575 C195.4194544 63.34855768 190.98964211 63.35910063 186.55979323 63.36734128 C183.79348611 63.37248862 181.02718236 63.37856446 178.26087761 63.38485241 C169.60951233 63.40390732 160.9581556 63.41813814 152.30677336 63.42646438 C142.31312395 63.43624068 132.3196958 63.46256913 122.32612437 63.50296527 C114.60632263 63.53310185 106.88658441 63.54793089 99.16672498 63.55124539 C94.55378208 63.55359858 89.94107548 63.56259383 85.32819557 63.58770657 C80.98859619 63.6109496 76.64938932 63.61523584 72.30974388 63.60494518 C70.71700995 63.6044488 69.12425695 63.61079945 67.53158188 63.62450123 C65.35657205 63.64216582 63.18297919 63.63514256 61.0079689 63.62196827 C59.18256718 63.6255508 59.18256718 63.6255508 57.32028866 63.6292057 C53.49195046 63.03742305 51.85833906 61.81771371 49.11815262 59.13422108 C46.49771781 54.7282891 46.86051961 50.08781725 46.92284012 45.11468983 C46.92485428 44.35305531 46.92686844 43.59142078 46.92894363 42.80670643 C46.9393592 39.97831617 46.96728166 37.15001219 46.99315262 34.32172108 C47.03440262 27.98984608 47.07565262 21.65797108 47.11815262 15.13422108 C30.61815262 15.46422108 14.11815262 15.79422108 -2.88184738 16.13422108 C-3.09173575 24.55538676 -3.09173575 24.55538676 -3.26978683 32.97723866 C-3.30289963 34.02548817 -3.33601242 35.07373768 -3.37012863 36.15375233 C-3.39631271 37.22729969 -3.4224968 38.30084705 -3.44947433 39.40692616 C-3.88184738 42.13422108 -3.88184738 42.13422108 -5.27906418 43.98309803 C-7.39831941 45.50515263 -8.7909168 45.53513038 -11.38184738 45.50922108 C-12.54200363 45.52082264 -12.54200363 45.52082264 -13.72559738 45.53265858 C-16.51012293 45.01812668 -17.20998526 44.42053576 -18.88184738 42.13422108 C-19.45211479 37.77158923 -19.35433075 33.38812988 -19.3278923 28.99286366 C-19.3194159 26.83913011 -19.34808417 24.68808085 -19.37989426 22.5346117 C-19.38150744 21.1550552 -19.38092649 19.77549404 -19.37794113 18.39593983 C-19.37979416 17.14772449 -19.38164719 15.89950916 -19.38355637 14.61346912 C-18.62341711 9.34206057 -16.18815593 6.28501671 -12.25684738 2.82172108 C-8.11820335 -0.11889442 -4.93914651 -0.00940479 0 0 Z M63.11815262 15.13422108 C63.11815262 26.02422108 63.11815262 36.91422108 63.11815262 48.13422108 C111.95815262 48.13422108 160.79815262 48.13422108 211.11815262 48.13422108 C211.11815262 37.24422108 211.11815262 26.35422108 211.11815262 15.13422108 C162.27815262 15.13422108 113.43815262 15.13422108 63.11815262 15.13422108 Z " fill="#000000" transform="translate(18.881847381591797,-0.13422107696533203)"/>
<path d="M0 0 C6.97219303 5.42458954 11.13432102 10.73816888 12.51953125 19.703125 C13.12872374 27.15304154 11.50645057 33.51830162 6.70703125 39.328125 C0.28856602 45.70622252 -4.33959353 48.60847867 -13.60546875 48.703125 C-21.24717145 48.64314303 -25.93216423 47.55064955 -31.4765625 42.234375 C-38.45448145 34.77136008 -39.88100536 29.17029794 -39.6015625 18.99609375 C-38.97187944 11.51163308 -35.56799154 6.80982831 -30.1171875 1.8046875 C-22.22673689 -4.58201557 -8.71293581 -5.39101039 0 0 Z M-22.29296875 17.328125 C-23.84321339 20.42861428 -23.5828889 22.90706718 -23.29296875 26.328125 C-21.4973447 29.08141521 -20.24041953 30.85439961 -17.29296875 32.328125 C-11.37381212 32.97126339 -11.37381212 32.97126339 -6.35546875 30.140625 C-4.25275559 27.27328887 -3.38106729 25.85206676 -3.29296875 22.328125 C-4.355704 18.36702087 -5.93505475 15.71401127 -9.29296875 13.328125 C-15.16323228 12.58269471 -18.01625788 12.92181683 -22.29296875 17.328125 Z " fill="#000000" transform="translate(435.29296875,32.671875)"/>
<path d="M0 0 C5.78949793 4.22217529 9.6250382 9.48697652 11.12109375 16.546875 C12.2421978 25.88940872 10.10128527 32.92349003 4.43359375 40.359375 C-1.02083357 46.17923541 -6.97397693 47.78580028 -14.81640625 48.109375 C-23.18635145 47.83850299 -29.54678082 45.38488035 -35.31640625 39.234375 C-40.563924 32.32192244 -41.96922184 25.13464158 -40.87890625 16.546875 C-38.91042617 9.55154184 -34.97585239 3.40206633 -28.984375 -0.7734375 C-19.9303094 -5.57763557 -8.77015488 -5.12672436 0 0 Z M-21.81640625 14.609375 C-24.31099719 18.16227725 -24.95506339 20.20591805 -24.87890625 24.546875 C-22.64910957 28.80485876 -22.64910957 28.80485876 -18.87890625 31.546875 C-13.00252811 32.16469541 -13.00252811 32.16469541 -7.94140625 29.484375 C-5.44681531 25.93147275 -4.80274911 23.88783195 -4.87890625 19.546875 C-7.10870293 15.28889124 -7.10870293 15.28889124 -10.87890625 12.546875 C-16.75528439 11.92905459 -16.75528439 11.92905459 -21.81640625 14.609375 Z " fill="#000000" transform="translate(376.87890625,33.453125)"/>
<path d="M0 0 C6.02677796 3.69255543 11.53126135 9.7518763 13.5625 16.5625 C14.24071796 23.60492602 14.85582109 31.54290987 11.03125 37.78515625 C5.84874551 44.05653801 0.38589338 49.09798507 -7.92578125 49.8984375 C-17.77216305 49.99901341 -23.87342749 49.03094864 -31.25 42.25 C-36.51475548 36.60148103 -38.42471851 30.16748803 -38.4375 22.5625 C-37.83397924 16.12128757 -35.72549335 10.45718785 -31.4375 5.5625 C-22.7695467 -1.44498421 -10.72733405 -4.72002698 0 0 Z M-21.4375 19.5625 C-22.56397713 22.56643902 -22.57992194 24.0316546 -21.75 27.125 C-20.20457231 29.99508 -19.11364558 31.66102814 -16.4375 33.5625 C-11.62666379 34.17339984 -9.5946007 34.30107492 -5.5 31.6875 C-2.8464313 28.95352013 -2.48713742 28.08865669 -2.125 24.25 C-2.48625942 19.98713889 -3.45742054 18.54257946 -6.4375 15.5625 C-12.64302312 12.45973844 -17.55387907 14.26665327 -21.4375 19.5625 Z " fill="#000000" transform="translate(314.4375,31.4375)"/>
</svg>
