<?xml version="1.0" encoding="UTF-8"?>
<!DOCTYPE svg PUBLIC "-//W3C//DTD SVG 1.1//EN" "http://www.w3.org/Graphics/SVG/1.1/DTD/svg11.dtd">
<svg xmlns="http://www.w3.org/2000/svg" version="1.1" width="512px" height="512px" style="shape-rendering:geometricPrecision; text-rendering:geometricPrecision; image-rendering:optimizeQuality; fill-rule:evenodd; clip-rule:evenodd" xmlns:xlink="http://www.w3.org/1999/xlink">
<g><path style="opacity:0.996" fill="#000000" d="M 112.5,63.5 C 207.834,63.3333 303.167,63.5 398.5,64C 406.667,66.8333 412.167,72.3333 415,80.5C 415.667,197.167 415.667,313.833 415,430.5C 412.167,438.667 406.667,444.167 398.5,447C 303.167,447.667 207.833,447.667 112.5,447C 104.333,444.167 98.8333,438.667 96,430.5C 95.3333,313.833 95.3333,197.167 96,80.5C 99.0191,72.3156 104.519,66.649 112.5,63.5 Z M 119.5,79.5 C 210.167,79.3333 300.834,79.5 391.5,80C 396,80.5 398.5,83 399,87.5C 399.5,100.829 399.667,114.163 399.5,127.5C 303.5,127.5 207.5,127.5 111.5,127.5C 111.333,114.163 111.5,100.829 112,87.5C 112.68,82.9895 115.18,80.3228 119.5,79.5 Z M 111.5,143.5 C 207.5,143.5 303.5,143.5 399.5,143.5C 399.993,237.89 399.493,332.224 398,426.5C 396.661,429.094 394.494,430.594 391.5,431C 300.833,431.667 210.167,431.667 119.5,431C 115,430.5 112.5,428 112,423.5C 111.5,330.167 111.333,236.834 111.5,143.5 Z M 253.5,175.5 C 301.826,177.729 336.659,200.395 358,243.5C 374.273,286.602 367.94,325.935 339,361.5C 302.603,398.224 260.103,407.724 211.5,390C 168.824,369.007 146.158,334.674 143.5,287C 146.457,239.727 169.123,205.727 211.5,185C 225.138,179.587 239.138,176.421 253.5,175.5 Z M 249.5,207.5 C 292.612,207.798 320.445,228.465 333,269.5C 335.395,282.837 334.895,296.003 331.5,309C 313.394,316.764 294.728,318.764 275.5,315C 265.056,311.277 254.722,307.277 244.5,303C 222.658,297.561 201.158,298.728 180,306.5C 171.213,268.559 183.38,239.059 216.5,218C 227.022,212.546 238.022,209.046 249.5,207.5 Z M 321.5,330.5 C 302.799,357.674 276.799,369.508 243.5,366C 217.016,360.826 197.349,346.493 184.5,323C 211.45,312.769 237.45,314.769 262.5,329C 282.02,335.619 301.686,336.119 321.5,330.5 Z"/></g>
<g><path style="opacity:0.967" fill="#000000" d="M 131.5,95.5 C 144.837,95.3334 158.171,95.5001 171.5,96C 173.333,96.5 174.5,97.6667 175,99.5C 175.667,102.167 175.667,104.833 175,107.5C 174.5,109.333 173.333,110.5 171.5,111C 158.167,111.667 144.833,111.667 131.5,111C 128.484,109.471 127.151,106.971 127.5,103.5C 127.282,99.9342 128.616,97.2675 131.5,95.5 Z"/></g>
<g><path style="opacity:0.931" fill="#000000" d="M 195.5,95.5 C 201.621,95.0899 207.621,95.5899 213.5,97C 218.196,107.45 214.863,112.283 203.5,111.5C 193.665,113.166 189.832,109.166 192,99.5C 192.69,97.6498 193.856,96.3164 195.5,95.5 Z"/></g>
<g><path style="opacity:0.933" fill="#000000" d="M 239.5,159.5 C 294.148,155.295 336.314,175.962 366,221.5C 384.26,253.658 388.593,287.658 379,323.5C 361.55,375.618 325.717,406.118 271.5,415C 214.301,419.653 171.135,397.486 142,348.5C 126.559,317.452 123.225,285.118 132,251.5C 149.618,199.371 185.452,168.704 239.5,159.5 Z M 253.5,175.5 C 239.138,176.421 225.138,179.587 211.5,185C 169.123,205.727 146.457,239.727 143.5,287C 146.158,334.674 168.824,369.007 211.5,390C 260.103,407.724 302.603,398.224 339,361.5C 367.94,325.935 374.273,286.602 358,243.5C 336.659,200.395 301.826,177.729 253.5,175.5 Z M 249.5,207.5 C 238.022,209.046 227.022,212.546 216.5,218C 183.38,239.059 171.213,268.559 180,306.5C 201.158,298.728 222.658,297.561 244.5,303C 254.722,307.277 265.056,311.277 275.5,315C 294.728,318.764 313.394,316.764 331.5,309C 334.895,296.003 335.395,282.837 333,269.5C 320.445,228.465 292.612,207.798 249.5,207.5 Z M 321.5,330.5 C 301.686,336.119 282.02,335.619 262.5,329C 237.45,314.769 211.45,312.769 184.5,323C 197.349,346.493 217.016,360.826 243.5,366C 276.799,369.508 302.799,357.674 321.5,330.5 Z"/></g>
<g><path style="opacity:0.933" fill="#000000" d="M 241.5,191.5 C 291,187.898 325.834,208.565 346,253.5C 360.531,302.916 346.698,342.083 304.5,371C 275.927,385.735 246.594,387.402 216.5,376C 171.7,352.566 153.367,315.733 161.5,265.5C 173.179,224.483 199.846,199.816 241.5,191.5 Z M 249.5,207.5 C 238.022,209.046 227.022,212.546 216.5,218C 183.38,239.059 171.213,268.559 180,306.5C 201.158,298.728 222.658,297.561 244.5,303C 254.722,307.277 265.056,311.277 275.5,315C 294.728,318.764 313.394,316.764 331.5,309C 334.895,296.003 335.395,282.837 333,269.5C 320.445,228.465 292.612,207.798 249.5,207.5 Z M 321.5,330.5 C 301.686,336.119 282.02,335.619 262.5,329C 237.45,314.769 211.45,312.769 184.5,323C 197.349,346.493 217.016,360.826 243.5,366C 276.799,369.508 302.799,357.674 321.5,330.5 Z"/></g>
<g><path style="opacity:0.907" fill="#000000" d="M 229.5,228.5 C 238.008,228.833 241.175,233.166 239,241.5C 231.267,246.208 224.267,251.874 218,258.5C 215.418,263.333 212.585,268 209.5,272.5C 202.227,276.031 197.56,273.864 195.5,266C 201.109,248.228 212.443,235.728 229.5,228.5 Z"/></g>
</svg>
