<?xml version="1.0" encoding="UTF-8"?>
<!DOCTYPE svg PUBLIC "-//W3C//DTD SVG 1.1//EN" "http://www.w3.org/Graphics/SVG/1.1/DTD/svg11.dtd">
<svg xmlns="http://www.w3.org/2000/svg" version="1.1" width="512px" height="512px" style="shape-rendering:geometricPrecision; text-rendering:geometricPrecision; image-rendering:optimizeQuality; fill-rule:evenodd; clip-rule:evenodd" xmlns:xlink="http://www.w3.org/1999/xlink">
<g><path style="opacity:0.945" fill="#000000" d="M 367.5,-0.5 C 414.5,-0.5 461.5,-0.5 508.5,-0.5C 509.167,0.833333 510.167,1.83333 511.5,2.5C 511.5,5.5 511.5,8.5 511.5,11.5C 510.373,12.1217 509.373,12.955 508.5,14C 465.167,14.3333 421.833,14.6667 378.5,15C 349.185,17.6619 333.185,33.6619 330.5,63C 332.586,87.7501 345.586,103.417 369.5,110C 400.5,110.333 431.5,110.667 462.5,111C 488.215,113.89 504.548,127.723 511.5,152.5C 511.5,159.5 511.5,166.5 511.5,173.5C 509.893,179.734 507.393,185.734 504,191.5C 495.667,201.833 487.333,212.167 479,222.5C 479.885,226.557 480.718,230.724 481.5,235C 481.06,238.593 480.227,242.093 479,245.5C 475.246,251.258 470.746,256.425 465.5,261C 480.774,312.612 496.107,364.112 511.5,415.5C 511.5,419.833 511.5,424.167 511.5,428.5C 509.45,432.061 506.783,435.228 503.5,438C 496.243,439.883 488.91,441.55 481.5,443C 472.167,447 465.5,453.667 461.5,463C 474.624,468.997 479.79,479.164 477,493.5C 474.317,502.682 468.483,508.682 459.5,511.5C 307.167,511.5 154.833,511.5 2.5,511.5C 1.83333,510.167 0.833333,509.167 -0.5,508.5C -0.5,503.833 -0.5,499.167 -0.5,494.5C 4.71306,478.119 15.5464,467.119 32,461.5C 51.4146,425.521 75.5812,393.021 104.5,364C 91.4311,354.471 87.9311,342.305 94,327.5C 104.007,316.396 115.507,314.563 128.5,322C 132.333,325.833 136.167,329.667 140,333.5C 184.57,299.459 233.737,273.626 287.5,256C 305.858,250.212 324.358,245.046 343,240.5C 350.613,243.028 352.446,247.861 348.5,255C 288.251,269.185 231.918,292.519 179.5,325C 125.839,360.325 82.8387,405.659 50.5,461C 66.5,461.333 82.5,461.667 98.5,462C 103.446,466.3 103.779,470.967 99.5,476C 78.2305,477.3 56.8972,477.967 35.5,478C 26.4568,480.876 20.1235,486.709 16.5,495.5C 161.832,496.667 307.166,496.833 452.5,496C 459.448,494.6 462.281,490.433 461,483.5C 459.833,481 458,479.167 455.5,478C 344.5,477.667 233.5,477.333 122.5,477C 116.902,474.305 115.402,470.138 118,464.5C 118.903,463.299 120.069,462.465 121.5,462C 229.167,461.667 336.833,461.333 444.5,461C 453.548,437.794 470.548,425.627 495.5,424.5C 493.302,413.042 490.469,401.709 487,390.5C 473.616,343.627 459.616,296.96 445,250.5C 441.406,246.453 436.906,244.119 431.5,243.5C 411.485,245.147 391.652,247.814 372,251.5C 362.805,248.514 361.305,243.348 367.5,236C 389.255,231.225 411.255,228.225 433.5,227C 437.909,221.92 442.909,217.586 448.5,214C 453.995,212.293 459.495,212.127 465,213.5C 472.333,204.833 479.667,196.167 487,187.5C 497.943,172.073 498.276,156.406 488,140.5C 482.706,134.437 476.206,130.271 468.5,128C 434.867,126.709 401.2,126.042 367.5,126C 346.493,121.914 330.993,110.414 321,91.5C 309.206,62.7525 314.039,37.2525 335.5,15C 345.07,7.3803 355.737,2.21363 367.5,-0.5 Z M 455.5,228.5 C 466.708,230.298 468.208,235.298 460,243.5C 457.203,239.701 454.036,236.201 450.5,233C 452.063,231.264 453.73,229.764 455.5,228.5 Z M 395.5,295.5 C 400.28,294.641 403.78,296.308 406,300.5C 413.472,328.718 420.139,357.051 426,385.5C 424.833,388 423,389.833 420.5,391C 403.847,392.416 387.181,393.582 370.5,394.5C 370.87,388.075 370.37,381.742 369,375.5C 367.108,371.942 364.275,369.442 360.5,368C 335.875,366.382 311.208,366.049 286.5,367C 279.951,367.884 275.451,371.384 273,377.5C 272.5,385.493 272.334,393.493 272.5,401.5C 249.773,399.951 239.606,387.951 242,365.5C 243.616,360.221 246.449,355.721 250.5,352C 296.059,325.881 344.392,307.048 395.5,295.5 Z M 110.5,333.5 C 113.32,333.248 115.986,333.748 118.5,335C 121.35,337.682 124.016,340.516 126.5,343.5C 123.789,347.212 120.456,350.212 116.5,352.5C 111.853,349.356 108.52,345.19 106.5,340C 107.25,337.429 108.583,335.262 110.5,333.5 Z M 288.5,382.5 C 310.5,382.5 332.5,382.5 354.5,382.5C 354.5,386.833 354.5,391.167 354.5,395.5C 332.53,397.248 310.53,398.581 288.5,399.5C 288.5,393.833 288.5,388.167 288.5,382.5 Z"/></g>
<g><path style="opacity:0.932" fill="#000000" d="M 393.5,279.5 C 407.408,277.928 416.908,283.595 422,296.5C 429.308,325.397 436.141,354.397 442.5,383.5C 441.517,395.651 435.183,403.484 423.5,407C 371.829,410.459 320.162,413.959 268.5,417.5C 241.728,414.394 227.061,399.394 224.5,372.5C 225.417,359.169 230.75,348.002 240.5,339C 288.426,311.193 339.426,291.359 393.5,279.5 Z M 395.5,295.5 C 344.392,307.048 296.059,325.881 250.5,352C 246.449,355.721 243.616,360.221 242,365.5C 239.606,387.951 249.773,399.951 272.5,401.5C 272.334,393.493 272.5,385.493 273,377.5C 275.451,371.384 279.951,367.884 286.5,367C 311.208,366.049 335.875,366.382 360.5,368C 364.275,369.442 367.108,371.942 369,375.5C 370.37,381.742 370.87,388.075 370.5,394.5C 387.181,393.582 403.847,392.416 420.5,391C 423,389.833 424.833,388 426,385.5C 420.139,357.051 413.472,328.718 406,300.5C 403.78,296.308 400.28,294.641 395.5,295.5 Z M 288.5,382.5 C 288.5,388.167 288.5,393.833 288.5,399.5C 310.53,398.581 332.53,397.248 354.5,395.5C 354.5,391.167 354.5,386.833 354.5,382.5C 332.5,382.5 310.5,382.5 288.5,382.5 Z"/></g>
</svg>
