<?xml version="1.0" encoding="UTF-8"?>
<!DOCTYPE svg PUBLIC "-//W3C//DTD SVG 1.1//EN" "http://www.w3.org/Graphics/SVG/1.1/DTD/svg11.dtd">
<svg xmlns="http://www.w3.org/2000/svg" version="1.1" width="512px" height="512px" style="shape-rendering:geometricPrecision; text-rendering:geometricPrecision; image-rendering:optimizeQuality; fill-rule:evenodd; clip-rule:evenodd" xmlns:xlink="http://www.w3.org/1999/xlink">
<g><path style="opacity:0.972" fill="#000000" d="M 511.5,278.5 C 511.5,282.5 511.5,286.5 511.5,290.5C 498.835,355.666 486.335,420.999 474,486.5C 472.833,488.333 471.333,489.833 469.5,491C 326.167,491.667 182.833,491.667 39.5,491C 18.319,485.652 4.98567,472.485 -0.5,451.5C -0.5,320.833 -0.5,190.167 -0.5,59.5C 4.98567,38.5149 18.319,25.3483 39.5,20C 147.5,19.3333 255.5,19.3333 363.5,20C 384.667,25.1667 397.833,38.3333 403,59.5C 403.5,109.166 403.667,158.832 403.5,208.5C 435.508,208.422 462.008,220.422 483,244.5C 489.789,253.296 495.789,262.63 501,272.5C 502.734,273.249 504.567,273.749 506.5,274C 508.037,275.707 509.704,277.207 511.5,278.5 Z M 49.5,39.5 C 153.193,39.0154 256.86,39.5154 360.5,41C 374.32,45.458 381.82,54.958 383,69.5C 383.5,82.1623 383.667,94.8289 383.5,107.5C 262.167,107.5 140.833,107.5 19.5,107.5C 19.3334,94.8289 19.5001,82.1623 20,69.5C 22.0111,51.6564 31.8445,41.6564 49.5,39.5 Z M 19.5,127.5 C 140.833,127.5 262.167,127.5 383.5,127.5C 383.667,155.502 383.5,183.502 383,211.5C 373.234,214.8 364.067,219.3 355.5,225C 345.833,225.333 336.167,225.667 326.5,226C 319.568,226.923 312.901,228.756 306.5,231.5C 272.029,189.059 227.695,172.559 173.5,182C 164.888,183.806 156.555,186.473 148.5,190C 143.404,194.248 142.237,199.415 145,205.5C 147.265,208.466 150.265,209.799 154,209.5C 196.652,192.693 236.152,198.193 272.5,226C 277.534,230.699 282.2,235.699 286.5,241C 280.392,245.271 274.726,250.104 269.5,255.5C 245.126,227.765 214.793,217.932 178.5,226C 138.319,239.349 117.319,267.183 115.5,309.5C 116.674,347.695 134.674,374.529 169.5,390C 203.513,401.751 234.013,395.918 261,372.5C 263.377,381.043 264.71,389.71 265,398.5C 225.752,424.053 185.586,425.553 144.5,403C 99.9013,371.894 84.0679,329.728 97,276.5C 100.473,270.576 101.806,264.242 101,257.5C 98.0812,251.975 93.5812,250.142 87.5,252C 85.3762,253.122 83.5429,254.622 82,256.5C 62.5588,306.414 69.2255,352.414 102,394.5C 136.632,431.822 179.132,445.989 229.5,437C 243.991,433.835 257.491,428.335 270,420.5C 273.617,437.42 276.784,454.42 279.5,471.5C 202.833,471.667 126.166,471.5 49.5,471C 31.6667,469.167 21.8333,459.333 20,441.5C 19.5,336.834 19.3333,232.167 19.5,127.5 Z M 400.5,229.5 C 434.111,229.303 459.444,243.636 476.5,272.5C 459.5,273.833 442.5,273.833 425.5,272.5C 415.475,255.322 401.475,242.489 383.5,234C 389.253,232.314 394.919,230.814 400.5,229.5 Z M 201.5,243.5 C 224.309,244.734 242.309,254.568 255.5,273C 245.888,275.028 242.722,280.862 246,290.5C 247.394,297.869 248.894,305.202 250.5,312.5C 237.139,316.581 224.806,314.414 213.5,306C 193.21,284.719 169.043,278.552 141,287.5C 146.795,269.362 158.628,256.529 176.5,249C 184.707,245.928 193.041,244.095 201.5,243.5 Z M 340.5,245.5 C 364.297,246.139 383.964,255.306 399.5,273C 360.5,273.667 321.5,273.667 282.5,273C 298.21,255.977 317.543,246.81 340.5,245.5 Z M 268.5,293.5 C 341.833,293.5 415.167,293.5 488.5,293.5C 477.886,352.572 466.886,411.572 455.5,470.5C 404.167,471.833 352.833,471.833 301.5,470.5C 290.114,411.572 279.114,352.572 268.5,293.5 Z M 155.5,304.5 C 167.967,302.95 179.3,305.783 189.5,313C 207.201,331.845 228.867,339.011 254.5,334.5C 255.084,338.232 255.584,341.898 256,345.5C 238.365,369.602 214.865,378.769 185.5,373C 156.161,363.784 139.994,343.95 137,313.5C 142.794,309.519 148.96,306.519 155.5,304.5 Z"/></g>
<g><path style="opacity:0.907" fill="#000000" d="M 58.5,63.5 C 70.3244,61.8236 75.1577,66.8236 73,78.5C 69.3449,83.2745 64.5116,84.7745 58.5,83C 53.7255,79.3449 52.2255,74.5116 54,68.5C 55.3657,66.6383 56.8657,64.9717 58.5,63.5 Z"/></g>
<g><path style="opacity:0.899" fill="#000000" d="M 117.5,63.5 C 128.49,61.9918 133.324,66.6585 132,77.5C 128.723,83.1088 123.89,84.9422 117.5,83C 109.556,76.4652 109.556,69.9652 117.5,63.5 Z"/></g>
<g><path style="opacity:0.896" fill="#000000" d="M 176.5,63.5 C 186.974,61.8142 191.807,66.1475 191,76.5C 188.315,83.0566 183.481,85.2233 176.5,83C 170.61,79.2198 169.11,74.0531 172,67.5C 173.397,65.9297 174.897,64.5964 176.5,63.5 Z"/></g>
<g><path style="opacity:0.896" fill="#000000" d="M 235.5,63.5 C 244.125,61.6337 249.125,64.9671 250.5,73.5C 249.125,82.1951 244.125,85.3618 235.5,83C 229.975,80.0812 228.142,75.5812 230,69.5C 231.36,66.9774 233.193,64.9774 235.5,63.5 Z"/></g>
<g><path style="opacity:0.973" fill="#000000" d="M 293.5,63.5 C 310.503,63.3334 327.503,63.5001 344.5,64C 349.275,67.6551 350.775,72.4884 349,78.5C 347.833,80.3333 346.333,81.8333 344.5,83C 327.5,83.6667 310.5,83.6667 293.5,83C 288.725,79.3449 287.225,74.5116 289,68.5C 290.366,66.6383 291.866,64.9717 293.5,63.5 Z"/></g>
<g><path style="opacity:0.891" fill="#000000" d="M 112.5,214.5 C 120.732,213.075 125.732,216.408 127.5,224.5C 125.66,233.586 120.326,236.753 111.5,234C 106.78,230.702 105.28,226.202 107,220.5C 108.36,217.977 110.193,215.977 112.5,214.5 Z"/></g>
</svg>
