<?xml version="1.0" encoding="UTF-8"?>
<!DOCTYPE svg PUBLIC "-//W3C//DTD SVG 1.1//EN" "http://www.w3.org/Graphics/SVG/1.1/DTD/svg11.dtd">
<svg xmlns="http://www.w3.org/2000/svg" version="1.1" width="512px" height="512px" style="shape-rendering:geometricPrecision; text-rendering:geometricPrecision; image-rendering:optimizeQuality; fill-rule:evenodd; clip-rule:evenodd" xmlns:xlink="http://www.w3.org/1999/xlink">
<g><path style="opacity:0.944" fill="#000000" d="M 135.5,-0.5 C 138.833,-0.5 142.167,-0.5 145.5,-0.5C 204.873,16.4119 242.04,55.0785 257,115.5C 259.539,126.4 261.539,137.4 263,148.5C 316.577,107.087 377.411,87.2533 445.5,89C 447.049,90.214 448.215,91.714 449,93.5C 449.167,110.51 449.667,127.51 450.5,144.5C 458.872,147.568 467.206,150.735 475.5,154C 478.078,156.228 479.411,159.061 479.5,162.5C 486.921,162.109 494.254,162.609 501.5,164C 506.443,166.106 509.776,169.606 511.5,174.5C 511.5,283.167 511.5,391.833 511.5,500.5C 508.753,505.582 504.753,509.249 499.5,511.5C 423.167,511.5 346.833,511.5 270.5,511.5C 260.5,499.5 250.5,499.5 240.5,511.5C 164.167,511.5 87.8333,511.5 11.5,511.5C 6.24704,509.249 2.24704,505.582 -0.5,500.5C -0.5,484.167 -0.5,467.833 -0.5,451.5C 4.33731,446.232 9.17064,446.232 14,451.5C 14.1832,465.878 14.6832,480.211 15.5,494.5C 88.1644,495.667 160.831,495.833 233.5,495C 248.167,483.667 262.833,483.667 277.5,495C 350.169,495.833 422.836,495.667 495.5,494.5C 496.664,389.873 496.831,285.207 496,180.5C 490.803,178.58 485.303,177.913 479.5,178.5C 479.995,278.248 479.495,377.915 478,477.5C 477.167,478.333 476.333,479.167 475.5,480C 328.833,480.667 182.167,480.667 35.5,480C 34.6667,479.167 33.8333,478.333 33,477.5C 31.5046,377.915 31.0046,278.248 31.5,178.5C 25.6973,177.913 20.1973,178.58 15,180.5C 14.6667,258.167 14.3333,335.833 14,413.5C 12.6071,416.366 10.2738,417.699 7,417.5C 3.63354,417.57 1.13354,416.237 -0.5,413.5C -0.5,333.833 -0.5,254.167 -0.5,174.5C 1.22399,169.606 4.55732,166.106 9.5,164C 16.7458,162.609 24.0791,162.109 31.5,162.5C 31.3919,157.979 33.3919,154.812 37.5,153C 51.7163,146.983 66.383,142.483 81.5,139.5C 81.3333,104.165 81.5,68.8318 82,33.5C 82.7845,31.714 83.9512,30.214 85.5,29C 101.354,29.9219 116.52,33.7552 131,40.5C 131.333,28.5 131.667,16.5 132,4.5C 132.997,2.67694 134.164,1.01027 135.5,-0.5 Z M 147.5,17.5 C 190.657,29.8213 219.824,57.1546 235,99.5C 241.427,117.301 245.427,135.635 247,154.5C 247.667,232.833 247.667,311.167 247,389.5C 227.848,344.686 194.682,316.353 147.5,304.5C 147.5,208.833 147.5,113.167 147.5,17.5 Z M 97.5,46.5 C 108.823,49.1632 119.823,52.8299 130.5,57.5C 131.333,142.831 131.833,228.165 132,313.5C 132.833,315.667 134.333,317.167 136.5,318C 181.508,327.682 213.342,353.515 232,395.5C 237.235,407.785 240.902,420.451 243,433.5C 206.975,382.221 158.475,348.887 97.5,333.5C 97.5,237.833 97.5,142.167 97.5,46.5 Z M 418.5,104.5 C 423.5,104.5 428.5,104.5 433.5,104.5C 433.333,130.835 433.5,157.169 434,183.5C 437.892,189.259 442.559,189.926 448,185.5C 449.105,177.581 449.939,169.581 450.5,161.5C 454.5,163.167 458.5,164.833 462.5,166.5C 463.833,257.167 463.833,347.833 462.5,438.5C 421.997,425.559 380.663,421.726 338.5,427C 372.588,413.874 407.921,407.207 444.5,407C 446.667,406.167 448.167,404.667 449,402.5C 449.667,342.833 449.667,283.167 449,223.5C 446.774,219.139 443.274,217.639 438.5,219C 436.333,219.833 434.833,221.333 434,223.5C 433.5,279.499 433.333,335.499 433.5,391.5C 370.179,392.991 313.679,412.991 264,451.5C 263.333,357.5 263.333,263.5 264,169.5C 301.162,136.84 344.329,116.34 393.5,108C 401.973,106.765 410.306,105.599 418.5,104.5 Z M 231.5,445.5 C 171.439,420.517 110.439,418.184 48.5,438.5C 47.1667,347.833 47.1667,257.167 48.5,166.5C 58.9481,162.221 69.6147,158.554 80.5,155.5C 81.007,218.58 81.8403,281.58 83,344.5C 83.9025,345.701 85.0692,346.535 86.5,347C 147.769,361.152 196.102,393.985 231.5,445.5 Z M 124.5,440.5 C 162.16,439.464 197.826,447.298 231.5,464C 170.168,464.5 108.834,464.667 47.5,464.5C 47.1826,461.428 47.5159,458.428 48.5,455.5C 73.2841,447.04 98.6174,442.04 124.5,440.5 Z M 368.5,440.5 C 400.716,440.102 432.049,445.102 462.5,455.5C 463.484,458.428 463.817,461.428 463.5,464.5C 402.166,464.667 340.832,464.5 279.5,464C 307.668,450.043 337.335,442.209 368.5,440.5 Z"/></g>
</svg>
