<?xml version="1.0" encoding="UTF-8"?>
<svg version="1.1" xmlns="http://www.w3.org/2000/svg" width="512" height="512">
<path d="M0 0 C1.79015895 -0.00935994 1.79015895 -0.00935994 3.61648273 -0.01890898 C6.91673595 -0.03207689 10.21607495 -0.02737453 13.51627207 -0.0149641 C17.08008328 -0.00589981 20.64381562 -0.01989014 24.20761108 -0.03088379 C31.18411933 -0.04865896 38.16045532 -0.04483355 45.13697028 -0.03323323 C50.80752458 -0.02419521 56.47803065 -0.02297649 62.14859009 -0.02732849 C62.95602608 -0.02794142 63.76346207 -0.02855436 64.59536582 -0.02918586 C66.23571898 -0.03046478 67.87607212 -0.03176163 69.51642525 -0.03307623 C84.89364333 -0.04447909 100.27076598 -0.03137295 115.64796841 -0.00987476 C128.83884639 0.00799597 142.02958355 0.00489178 155.22045898 -0.0135498 C170.54310391 -0.03496173 185.86566522 -0.04338048 201.18832302 -0.03110075 C202.82260067 -0.02982657 204.45687833 -0.02856909 206.09115601 -0.02732849 C206.89522631 -0.02671139 207.6992966 -0.02609429 208.52773267 -0.02545848 C214.19067889 -0.02200655 219.85357202 -0.02783055 225.51651001 -0.0372467 C232.41891919 -0.04847165 239.32114645 -0.04541631 246.22353482 -0.02412373 C249.74446578 -0.01361985 253.26509355 -0.00947985 256.78602219 -0.02272034 C260.60410116 -0.03686099 264.42168497 -0.01996294 268.23974609 0 C269.35073827 -0.00892289 270.46173044 -0.01784577 271.60638905 -0.02703905 C277.97538653 0.03766367 282.07404004 0.47167009 287.11987305 4.50793457 C290.80589176 9.83989315 291.70153065 13.60028406 291.62323761 20.00222778 C291.62905137 20.83551062 291.63486514 21.66879346 291.64085507 22.5273273 C291.65545547 25.320149 291.64156968 28.1120919 291.62780762 30.90490723 C291.63241651 32.92711651 291.63876934 34.94932245 291.64671659 36.97152138 C291.66343455 42.52905385 291.65515222 48.08631202 291.64277172 53.64384556 C291.63373371 59.6371148 291.64768477 65.63033637 291.65869141 71.62359619 C291.67546533 82.6859053 291.67399032 93.74813884 291.66304553 104.81044847 C291.65298429 115.02987135 291.65035604 125.24926214 291.65513611 135.46868896 C291.65544165 136.14650184 291.65574719 136.82431471 291.65606199 137.52266736 C291.65730734 140.27411367 291.65858094 143.02555997 291.65990104 145.77700625 C291.67213773 171.58899756 291.66104211 197.4009331 291.63951346 223.21291581 C291.62053094 246.14657173 291.62222945 269.0801388 291.64135742 292.01379395 C291.6627748 317.7784963 291.67126992 343.5431494 291.65890837 369.30785942 C291.65762549 372.05429966 291.65637413 374.80073991 291.65513611 377.54718018 C291.6548198 378.22342645 291.65450349 378.89967272 291.65417759 379.5964113 C291.64962722 389.80954732 291.65494969 400.02264772 291.66505432 410.23577881 C291.67648616 421.84828884 291.67325774 433.46071432 291.65193135 445.07321501 C291.64140596 451.0001213 291.63732461 456.92684711 291.65052795 462.85375214 C291.66242661 468.27693846 291.65593077 473.69977661 291.63461775 479.12293124 C291.63014099 481.08716383 291.63244191 483.0514257 291.6421209 485.01563954 C291.65425458 487.68206055 291.64184063 490.34728324 291.62323761 493.01364136 C291.63260227 493.7793806 291.64196694 494.54511983 291.65161538 495.33406329 C291.57518456 500.80119998 290.23858257 503.99660912 287.11987305 508.50793457 C281.18291099 513.25703131 275.63672593 513.07527767 268.23974609 513.01586914 C267.04630679 513.0221091 265.85286749 513.02834907 264.62326336 513.03477812 C261.32301014 513.04794603 258.02367115 513.04324367 254.72347403 513.03083324 C251.15966281 513.02176895 247.59593047 513.03575928 244.03213501 513.04675293 C237.05562676 513.0645281 230.07929077 513.06070269 223.10277581 513.04910237 C217.43222151 513.04006435 211.76171544 513.03884563 206.09115601 513.04319763 C205.28372001 513.04381056 204.47628402 513.0444235 203.64438027 513.045055 C202.00402711 513.04633392 200.36367397 513.04763077 198.72332084 513.04894537 C183.34610276 513.06034823 167.96898011 513.04724209 152.59177768 513.0257439 C139.40089971 513.00787317 126.21016254 513.01097736 113.01928711 513.02941895 C97.69664218 513.05083087 82.37408087 513.05924962 67.05142307 513.04696989 C65.41714542 513.04569571 63.78286776 513.04443823 62.14859009 513.04319763 C61.34451979 513.04258053 60.54044949 513.04196343 59.71201342 513.04132763 C54.04906721 513.03787569 48.38617408 513.0436997 42.72323608 513.05311584 C35.8208269 513.06434079 28.91859964 513.06128545 22.01621127 513.03999287 C18.49528031 513.02948899 14.97465254 513.02534899 11.45372391 513.03858948 C7.63564493 513.05273013 3.81806113 513.03583208 0 513.01586914 C-1.11099217 513.02479203 -2.22198435 513.03371491 -3.36664295 513.04290819 C-9.73564044 512.97820547 -13.83429394 512.54419905 -18.88012695 508.50793457 C-22.56614566 503.17597599 -23.46178456 499.41558508 -23.38349152 493.01364136 C-23.38930528 492.18035852 -23.39511904 491.34707568 -23.40110898 490.48854184 C-23.41570937 487.69572014 -23.40182358 484.90377724 -23.38806152 482.11096191 C-23.39267041 480.08875263 -23.39902325 478.06654669 -23.4069705 476.04434776 C-23.42368845 470.48681529 -23.41540612 464.92955712 -23.40302563 459.37202358 C-23.39398761 453.37875434 -23.40793867 447.38553277 -23.41894531 441.39227295 C-23.43571924 430.32996384 -23.43424423 419.26773031 -23.42329944 408.20542067 C-23.41323819 397.98599779 -23.41060995 387.766607 -23.41539001 377.54718018 C-23.41569556 376.8693673 -23.4160011 376.19155443 -23.41631589 375.49320178 C-23.41756124 372.74175547 -23.41883484 369.99030917 -23.42015495 367.23886289 C-23.43239164 341.42687158 -23.42129602 315.61493604 -23.39976736 289.80295333 C-23.38078485 266.86929741 -23.38248336 243.93573034 -23.40161133 221.0020752 C-23.42302871 195.23737284 -23.43152383 169.47271975 -23.41916227 143.70800972 C-23.4178794 140.96156948 -23.41662804 138.21512923 -23.41539001 135.46868896 C-23.41507371 134.79244269 -23.4147574 134.11619642 -23.4144315 133.41945784 C-23.40988113 123.20632182 -23.4152036 112.99322142 -23.42530823 102.78009033 C-23.43674007 91.1675803 -23.43351164 79.55515482 -23.41218525 67.94265413 C-23.40165986 62.01574784 -23.39757852 56.08902203 -23.41078186 50.162117 C-23.42268052 44.73893068 -23.41618468 39.31609253 -23.39487165 33.8929379 C-23.3903949 31.92870531 -23.39269581 29.96444344 -23.4023748 28.0002296 C-23.41450849 25.33380859 -23.40209453 22.6685859 -23.38349152 20.00222778 C-23.39285618 19.23648854 -23.40222085 18.47074931 -23.41186929 17.68180585 C-23.33543846 12.21466916 -21.99883648 9.01926002 -18.88012695 4.50793457 C-12.94316489 -0.24116217 -7.39697983 -0.05940853 0 0 Z M-6.88012695 16.50793457 C-6.88012695 174.90793457 -6.88012695 333.30793457 -6.88012695 496.50793457 C86.17987305 496.50793457 179.23987305 496.50793457 275.11987305 496.50793457 C275.11987305 338.10793457 275.11987305 179.70793457 275.11987305 16.50793457 C182.05987305 16.50793457 88.99987305 16.50793457 -6.88012695 16.50793457 Z " fill="#000000" transform="translate(121.880126953125,-0.5079345703125)"/>
<path d="M0 0 C0.70974976 -0.0038269 1.41949951 -0.00765381 2.15075684 -0.01159668 C3.64332508 -0.01430462 5.13594168 -0.00702191 6.62841797 0.00976562 C8.90050013 0.03119577 11.16942129 0.00993053 13.44140625 -0.015625 C14.89844441 -0.01298152 16.35548062 -0.00785611 17.8125 0 C19.78186523 0.00676758 19.78186523 0.00676758 21.79101562 0.01367188 C26.78989503 0.72934073 29.91255067 2.83152318 33.21875 6.59375 C35.21695634 9.8539814 35.52284764 12.48601304 35.46875 16.21875 C35.45972656 17.02699219 35.45070313 17.83523437 35.44140625 18.66796875 C35.42980469 19.28285156 35.41820312 19.89773437 35.40625 20.53125 C36.20289063 20.49644531 36.99953125 20.46164063 37.8203125 20.42578125 C48.59519758 20.15051046 48.59519758 20.15051046 53.40625 23.53125 C54.97325442 26.66525885 55.25789561 30.16280095 54.40625 33.53125 C51.53856063 36.45155752 49.97014768 37.46921505 45.85546875 37.921875 C44.61410156 37.87546875 43.37273437 37.8290625 42.09375 37.78125 C40.83949219 37.74515625 39.58523438 37.7090625 38.29296875 37.671875 C37.34035156 37.62546875 36.38773437 37.5790625 35.40625 37.53125 C35.42196045 38.77213379 35.4376709 40.01301758 35.45385742 41.29150391 C35.50829088 45.90960155 35.54264892 50.527671 35.57104492 55.14599609 C35.58610098 57.14213841 35.60655027 59.13824781 35.63256836 61.13427734 C35.66909161 64.00887185 35.68600837 66.88302772 35.69921875 69.7578125 C35.71470261 70.64554352 35.73018646 71.53327454 35.74613953 72.44790649 C35.74752135 77.57299997 35.27704228 81.10105189 32.40625 85.53125 C27.57805734 89.88839947 24.54756322 90.70187335 18.203125 90.76953125 C17.48771545 90.777603 16.77230591 90.78567474 16.03521729 90.79399109 C14.51878276 90.80782958 13.00231712 90.8185528 11.48583984 90.82641602 C9.17875106 90.84358257 6.87311318 90.88746124 4.56640625 90.93164062 C3.09115635 90.94177212 1.61589428 90.9502868 0.140625 90.95703125 C-0.5439679 90.97453934 -1.22856079 90.99204742 -1.93389893 91.01008606 C-6.97303575 90.98753655 -9.7754583 89.77235024 -13.59375 86.53125 C-17.11144174 82.08017284 -18.09650022 79.16727364 -18.11132812 73.51953125 C-18.1183374 72.84554291 -18.12534668 72.17155457 -18.13256836 71.47714233 C-18.15006771 69.26558323 -18.13855598 67.05532043 -18.125 64.84375 C-18.12769727 63.29727942 -18.13158165 61.7508105 -18.13659668 60.2043457 C-18.14248075 56.96972441 -18.13396455 53.73554618 -18.11523438 50.50097656 C-18.09244485 46.36488067 -18.10557388 42.2298231 -18.12952423 38.09376526 C-18.14401213 34.90230556 -18.13936266 31.71109006 -18.12901306 28.5196228 C-18.12635401 26.99506506 -18.12958655 25.47048479 -18.13893127 23.94595337 C-18.14914712 21.81103199 -18.13352939 19.67776742 -18.11132812 17.54296875 C-18.10814575 16.33084717 -18.10496338 15.11872559 -18.10168457 13.86987305 C-17.30331245 8.62222161 -14.80772209 5.55556564 -10.81835938 2.18945312 C-6.95475278 0.20265603 -4.33204102 0.01488674 0 0 Z M-1.59375 16.53125 C-1.59375 35.67125 -1.59375 54.81125 -1.59375 74.53125 C5.00625 74.53125 11.60625 74.53125 18.40625 74.53125 C18.40625 62.32125 18.40625 50.11125 18.40625 37.53125 C14.44625 37.20125 10.48625 36.87125 6.40625 36.53125 C5.08625 36.20125 3.76625 35.87125 2.40625 35.53125 C2.1556481 34.11821762 1.93163079 32.70045526 1.71875 31.28125 C1.52732422 30.09789062 1.52732422 30.09789062 1.33203125 28.890625 C1.40625 26.53125 1.40625 26.53125 2.4375 24.3125 C5.29303981 21.72891636 7.81084991 21.69771606 11.59375 21.28125 C13.50220703 21.05695313 13.50220703 21.05695313 15.44921875 20.828125 C16.42503906 20.73015625 17.40085937 20.6321875 18.40625 20.53125 C18.40625 19.21125 18.40625 17.89125 18.40625 16.53125 C11.80625 16.53125 5.20625 16.53125 -1.59375 16.53125 Z " fill="#000000" transform="translate(335.59375,210.46875)"/>
</svg>
