<?xml version="1.0" encoding="UTF-8"?>
<!DOCTYPE svg PUBLIC "-//W3C//DTD SVG 1.1//EN" "http://www.w3.org/Graphics/SVG/1.1/DTD/svg11.dtd">
<svg xmlns="http://www.w3.org/2000/svg" version="1.1" width="512px" height="512px" style="shape-rendering:geometricPrecision; text-rendering:geometricPrecision; image-rendering:optimizeQuality; fill-rule:evenodd; clip-rule:evenodd" xmlns:xlink="http://www.w3.org/1999/xlink">
<g><path style="opacity:0.937" fill="#000000" d="M 149.5,5.5 C 220.167,5.33334 290.834,5.5 361.5,6C 380.678,11.1806 391.178,23.6806 393,43.5C 393.667,179.5 393.667,315.5 393,451.5C 391.336,462.833 385.003,470.166 374,473.5C 369.333,482.833 364.667,492.167 360,501.5C 358.833,502.667 357.667,503.833 356.5,505C 348.167,505.667 339.833,505.667 331.5,505C 325.325,494.987 319.659,484.654 314.5,474C 275.167,473.333 235.833,473.333 196.5,474C 191.341,484.654 185.675,494.987 179.5,505C 171.167,505.667 162.833,505.667 154.5,505C 153,504.167 151.833,503 151,501.5C 146.333,492.167 141.667,482.833 137,473.5C 125.997,470.166 119.664,462.833 118,451.5C 117.333,315.5 117.333,179.5 118,43.5C 120.015,23.6633 130.515,10.9966 149.5,5.5 Z M 152.5,22.5 C 221.167,22.3333 289.834,22.5 358.5,23C 369.673,26.8415 375.506,34.6748 376,46.5C 376.5,81.1651 376.667,115.832 376.5,150.5C 295.833,150.5 215.167,150.5 134.5,150.5C 134.333,115.832 134.5,81.1651 135,46.5C 135.696,34.6523 141.529,26.6523 152.5,22.5 Z M 135.5,167.5 C 215.833,167.5 296.167,167.5 376.5,167.5C 376.99,262.544 376.49,357.544 375,452.5C 373.833,453.667 372.667,454.833 371.5,456C 294.167,456.667 216.833,456.667 139.5,456C 138.333,454.833 137.167,453.667 136,452.5C 135.5,357.501 135.333,262.501 135.5,167.5 Z M 156.5,474.5 C 163.011,473.182 169.678,473.182 176.5,474.5C 174.333,478.833 172.167,483.167 170,487.5C 167.861,488.769 165.695,488.769 163.5,487.5C 161.392,482.946 159.059,478.612 156.5,474.5 Z M 334.5,473.5 C 341.175,473.334 347.842,473.5 354.5,474C 352.039,478.421 349.706,482.921 347.5,487.5C 345.305,488.769 343.139,488.769 341,487.5C 338.548,482.932 336.382,478.265 334.5,473.5 Z"/></g>
<g><path style="opacity:0.936" fill="#000000" d="M 219.5,37.5 C 243.502,37.3334 267.502,37.5 291.5,38C 298.112,43.7371 297.778,49.0704 290.5,54C 267.167,54.6667 243.833,54.6667 220.5,54C 216.956,52.4606 214.956,49.7939 214.5,46C 215.123,42.5459 216.789,39.7126 219.5,37.5 Z"/></g>
<g><path style="opacity:0.932" fill="#000000" d="M 156.5,69.5 C 161.382,69.175 164.882,71.175 167,75.5C 167.667,93.1667 167.667,110.833 167,128.5C 165.877,132.819 163.044,134.819 158.5,134.5C 155.209,134.721 152.709,133.387 151,130.5C 150.333,111.833 150.333,93.1667 151,74.5C 152.352,72.251 154.185,70.5844 156.5,69.5 Z"/></g>
<g><path style="opacity:0.93" fill="#000000" d="M 155.5,182.5 C 161.086,181.271 164.919,183.271 167,188.5C 167.667,206.5 167.667,224.5 167,242.5C 162.026,249.918 156.693,250.252 151,243.5C 150.333,224.833 150.333,206.167 151,187.5C 152.025,185.313 153.525,183.646 155.5,182.5 Z"/></g>
</svg>
