<?xml version="1.0" encoding="UTF-8"?>
<!DOCTYPE svg PUBLIC "-//W3C//DTD SVG 1.1//EN" "http://www.w3.org/Graphics/SVG/1.1/DTD/svg11.dtd">
<svg xmlns="http://www.w3.org/2000/svg" version="1.1" width="512px" height="512px" style="shape-rendering:geometricPrecision; text-rendering:geometricPrecision; image-rendering:optimizeQuality; fill-rule:evenodd; clip-rule:evenodd" xmlns:xlink="http://www.w3.org/1999/xlink">
<g><path style="opacity:0.953" fill="#000000" d="M 96.5,18.5 C 131.874,18.0333 167.207,18.5333 202.5,20C 215.059,23.2363 225.559,29.7363 234,39.5C 238.148,48.6641 235.314,52.8307 225.5,52C 220.457,47.2879 215.123,42.9546 209.5,39C 205.05,36.7388 200.383,35.0722 195.5,34C 179.533,32.6547 163.533,32.1547 147.5,32.5C 147.5,38.5 147.5,44.5 147.5,50.5C 154.508,50.3337 161.508,50.5004 168.5,51C 169.333,51.8333 170.167,52.6667 171,53.5C 171.5,68.4963 171.667,83.4963 171.5,98.5C 179.174,98.3336 186.841,98.5003 194.5,99C 195.333,99.8333 196.167,100.667 197,101.5C 197.5,108.492 197.666,115.492 197.5,122.5C 231.215,120.411 252.715,135.411 262,167.5C 262.5,210.165 262.667,252.832 262.5,295.5C 282.169,295.667 301.836,295.5 321.5,295C 327.088,283.579 335.754,275.413 347.5,270.5C 355.06,244.885 371.726,235.719 397.5,243C 404.614,246.447 410.114,251.614 414,258.5C 429.033,256.6 440.533,262.1 448.5,275C 464.662,280.805 473.495,292.305 475,309.5C 484.051,317.932 489.718,328.265 492,340.5C 492.667,376.5 492.667,412.5 492,448.5C 486.051,472.116 471.218,486.616 447.5,492C 305.5,492.667 163.5,492.667 21.5,492C 20.6667,491.167 19.8333,490.333 19,489.5C 18.3333,382.167 18.3333,274.833 19,167.5C 28.2725,135.416 49.7725,120.416 83.5,122.5C 83.3337,115.492 83.5004,108.492 84,101.5C 84.8333,100.667 85.6667,99.8333 86.5,99C 94.1594,98.5003 101.826,98.3336 109.5,98.5C 109.333,83.4963 109.5,68.4963 110,53.5C 110.833,52.6667 111.667,51.8333 112.5,51C 119.492,50.5004 126.492,50.3337 133.5,50.5C 133.5,44.5 133.5,38.5 133.5,32.5C 121.162,32.6665 108.829,32.4999 96.5,32C 92.5548,27.5026 92.5548,23.0026 96.5,18.5 Z M 123.5,65.5 C 134.5,65.5 145.5,65.5 156.5,65.5C 156.5,76.5 156.5,87.5 156.5,98.5C 145.5,98.5 134.5,98.5 123.5,98.5C 123.5,87.5 123.5,76.5 123.5,65.5 Z M 98.5,113.5 C 126.5,113.5 154.5,113.5 182.5,113.5C 182.5,116.5 182.5,119.5 182.5,122.5C 154.5,122.5 126.5,122.5 98.5,122.5C 98.5,119.5 98.5,116.5 98.5,113.5 Z M 68.5,137.5 C 116.501,137.333 164.501,137.5 212.5,138C 234.645,142.478 246.478,155.978 248,178.5C 248.5,192.496 248.667,206.496 248.5,220.5C 176.5,220.5 104.5,220.5 32.5,220.5C 32.3334,206.496 32.5001,192.496 33,178.5C 34.7102,155.963 46.5435,142.296 68.5,137.5 Z M 32.5,235.5 C 104.5,235.5 176.5,235.5 248.5,235.5C 248.667,256.836 248.5,278.169 248,299.5C 229.963,307.881 218.963,321.881 215,341.5C 214.5,354.162 214.333,366.829 214.5,379.5C 153.833,379.5 93.1667,379.5 32.5,379.5C 32.5,331.5 32.5,283.5 32.5,235.5 Z M 382.5,254.5 C 392.435,255.598 398.935,260.931 402,270.5C 403.214,272.049 404.714,273.215 406.5,274C 417.054,270.451 426.221,272.618 434,280.5C 435.123,283.249 436.623,285.749 438.5,288C 450.249,290.354 457.249,297.354 459.5,309C 458.778,314.777 456.444,319.777 452.5,324C 447.854,326.319 443.354,328.819 439,331.5C 436.168,353.356 424.001,362.522 402.5,359C 396.509,356.179 391.509,352.179 387.5,347C 386.271,346.219 384.938,345.719 383.5,345.5C 362.52,354.223 346.353,348.889 335,329.5C 329.198,313.539 332.698,300.039 345.5,289C 350.929,285.972 356.429,283.139 362,280.5C 361.999,266.065 368.832,257.398 382.5,254.5 Z M 139.5,278.5 C 141.017,278.511 142.184,279.177 143,280.5C 149.631,289.427 154.964,299.093 159,309.5C 163.892,326.729 157.725,337.396 140.5,341.5C 124.868,338.579 118.368,329.246 121,313.5C 124.834,300.526 131.001,288.859 139.5,278.5 Z M 262.5,310.5 C 280.833,310.5 299.167,310.5 317.5,310.5C 317.064,317.304 317.73,323.971 319.5,330.5C 291.203,334.358 273.703,350.025 267,377.5C 266.333,388.833 266.333,400.167 267,411.5C 271.775,433.609 284.942,448.109 306.5,455C 336.127,456.626 365.793,456.96 395.5,456C 419.218,450.616 434.051,436.116 440,412.5C 440.667,400.5 440.667,388.5 440,376.5C 439.321,373.45 438.488,370.45 437.5,367.5C 444.904,360.697 449.737,352.364 452,342.5C 458.914,338.752 464.748,333.752 469.5,327.5C 473.414,331.709 475.914,336.709 477,342.5C 478.597,374.142 478.93,405.808 478,437.5C 476.38,457.783 465.88,470.95 446.5,477C 415.523,478.131 384.523,478.631 353.5,478.5C 322.807,478.635 292.141,478.135 261.5,477C 245,472.5 234.5,462 230,445.5C 229.333,411.167 229.333,376.833 230,342.5C 234.763,325.569 245.597,314.903 262.5,310.5 Z M 314.5,346.5 C 319.214,346.173 323.88,346.507 328.5,347.5C 342.532,362.896 359.699,367.896 380,362.5C 392.281,374.288 406.614,377.955 423,373.5C 427.221,386.649 427.554,399.983 424,413.5C 417.423,431.379 404.589,440.879 385.5,442C 364.167,442.667 342.833,442.667 321.5,442C 302.44,440.889 289.607,431.389 283,413.5C 281.421,401.892 281.088,390.225 282,378.5C 286.763,361.569 297.597,350.903 314.5,346.5 Z M 32.5,394.5 C 93.1667,394.5 153.833,394.5 214.5,394.5C 214.333,412.17 214.5,429.836 215,447.5C 217.24,459.483 222.74,469.65 231.5,478C 165.168,478.5 98.8342,478.667 32.5,478.5C 32.5,450.5 32.5,422.5 32.5,394.5 Z"/></g>
<g><path style="opacity:0.922" fill="#000000" d="M 315.5,98.5 C 340.308,98.4738 352.474,110.807 352,135.5C 346.484,155.428 333.484,163.762 313,160.5C 295.761,154.702 288.094,142.702 290,124.5C 293.348,110.653 301.848,101.986 315.5,98.5 Z M 317.5,113.5 C 330.973,113.483 337.473,120.149 337,133.5C 332.472,145.345 324.305,148.845 312.5,144C 301.855,134.761 301.855,125.428 312.5,116C 314.315,115.243 315.981,114.41 317.5,113.5 Z"/></g>
<g><path style="opacity:0.922" fill="#000000" d="M 377.5,152.5 C 397.247,151.441 409.414,160.441 414,179.5C 415.18,198.311 406.68,210.144 388.5,215C 369.495,216.92 357.328,208.753 352,190.5C 349.815,170.51 358.315,157.844 377.5,152.5 Z M 379.5,167.5 C 389.783,166.955 396.283,171.622 399,181.5C 399.669,190.846 395.503,197.013 386.5,200C 372.178,200.677 365.678,193.843 367,179.5C 369.208,173.337 373.375,169.337 379.5,167.5 Z"/></g>
<g><path style="opacity:0.922" fill="#000000" d="M 94.5,158.5 C 125.168,158.333 155.835,158.5 186.5,159C 192.729,163.171 193.062,167.837 187.5,173C 156.167,173.667 124.833,173.667 93.5,173C 88.0028,167.683 88.3361,162.85 94.5,158.5 Z"/></g>
<g><path style="opacity:0.924" fill="#000000" d="M 316.5,200.5 C 332.978,200.144 340.812,208.144 340,224.5C 333.918,238.974 323.752,242.807 309.5,236C 298.833,225.333 298.833,214.667 309.5,204C 311.925,202.787 314.259,201.621 316.5,200.5 Z M 319.5,215.5 C 324.365,215.684 326.032,218.018 324.5,222.5C 320.751,225.418 318.085,224.585 316.5,220C 316.957,218.06 317.957,216.56 319.5,215.5 Z"/></g>
<g><path style="opacity:0.92" fill="#000000" d="M 137.5,259.5 C 140.32,259.248 142.986,259.748 145.5,261C 160.092,275.011 169.925,291.845 175,311.5C 178.551,330.226 172.051,344.059 155.5,353C 133.202,360.353 117.036,353.519 107,332.5C 103.57,315.648 106.57,299.981 116,285.5C 121.929,275.744 129.096,267.078 137.5,259.5 Z M 139.5,278.5 C 131.001,288.859 124.834,300.526 121,313.5C 118.368,329.246 124.868,338.579 140.5,341.5C 157.725,337.396 163.892,326.729 159,309.5C 154.964,299.093 149.631,289.427 143,280.5C 142.184,279.177 141.017,278.511 139.5,278.5 Z"/></g>
</svg>
