<?xml version="1.0" encoding="UTF-8"?>
<!DOCTYPE svg PUBLIC "-//W3C//DTD SVG 1.1//EN" "http://www.w3.org/Graphics/SVG/1.1/DTD/svg11.dtd">
<svg xmlns="http://www.w3.org/2000/svg" version="1.1" width="512px" height="512px" style="shape-rendering:geometricPrecision; text-rendering:geometricPrecision; image-rendering:optimizeQuality; fill-rule:evenodd; clip-rule:evenodd" xmlns:xlink="http://www.w3.org/1999/xlink">
<g><path style="opacity:0.944" fill="#000000" d="M 94.5,-0.5 C 146.167,-0.5 197.833,-0.5 249.5,-0.5C 276.373,6.20883 292.54,23.2088 298,50.5C 298.667,60.1667 298.667,69.8333 298,79.5C 297.215,81.286 296.049,82.786 294.5,84C 287.267,85.1333 279.934,85.6333 272.5,85.5C 265.066,85.6333 257.733,85.1333 250.5,84C 248.951,82.786 247.785,81.286 247,79.5C 246.667,71.8333 246.333,64.1667 246,56.5C 245.167,54.3333 243.667,52.8333 241.5,52C 220.836,51.5 200.169,51.3334 179.5,51.5C 179.5,56.8333 179.5,62.1667 179.5,67.5C 183.514,67.3345 187.514,67.5012 191.5,68C 193.378,69.5429 194.878,71.3762 196,73.5C 196.667,92.1667 196.667,110.833 196,129.5C 194.82,133.847 191.987,136.18 187.5,136.5C 186.952,146.57 190.619,154.737 198.5,161C 229.78,175.945 248.613,200.445 255,234.5C 255.667,310.5 255.667,386.5 255,462.5C 248.652,488.681 232.485,505.014 206.5,511.5C 165.167,511.5 123.833,511.5 82.5,511.5C 56.5146,505.014 40.3479,488.681 34,462.5C 33.3333,386.833 33.3333,311.167 34,235.5C 37.7511,211.159 48.9178,190.992 67.5,175C 76.0814,169.124 84.9147,163.624 94,158.5C 99.568,152.235 102.068,144.902 101.5,136.5C 97.0134,136.18 94.1801,133.847 93,129.5C 92.3333,111.167 92.3333,92.8333 93,74.5C 93.7386,71.4265 95.5719,69.2598 98.5,68C 102.152,67.5014 105.818,67.3347 109.5,67.5C 109.5,62.1667 109.5,56.8333 109.5,51.5C 84.871,52.3774 74.0377,40.7107 77,16.5C 80.1095,7.88855 85.9428,2.22189 94.5,-0.5 Z M 98.5,17.5 C 149.213,17.0182 199.88,17.5182 250.5,19C 272.537,27.5504 282.537,43.717 280.5,67.5C 275.167,67.5 269.833,67.5 264.5,67.5C 267.044,51.07 260.711,39.9033 245.5,34C 197.167,33.6667 148.833,33.3333 100.5,33C 92.0821,28.7079 91.4154,23.5412 98.5,17.5 Z M 127.5,51.5 C 138.833,51.5 150.167,51.5 161.5,51.5C 161.5,56.8333 161.5,62.1667 161.5,67.5C 150.167,67.5 138.833,67.5 127.5,67.5C 127.5,62.1667 127.5,56.8333 127.5,51.5 Z M 110.5,85.5 C 133.167,85.5 155.833,85.5 178.5,85.5C 178.5,96.5 178.5,107.5 178.5,118.5C 155.833,118.5 133.167,118.5 110.5,118.5C 110.5,107.5 110.5,96.5 110.5,85.5 Z M 119.5,136.5 C 136.167,136.5 152.833,136.5 169.5,136.5C 168.858,152.715 174.858,165.882 187.5,176C 212.606,186.767 228.772,205.267 236,231.5C 237.652,307.797 237.985,384.131 237,460.5C 232.765,475.736 223.265,486.236 208.5,492C 187.215,493.145 165.882,493.645 144.5,493.5C 124.5,493.333 104.5,493.167 84.5,493C 67.2513,488.084 56.418,476.918 52,459.5C 51.0152,383.797 51.3485,308.131 53,232.5C 59.8107,205.686 75.9774,186.852 101.5,176C 114.115,165.931 120.115,152.765 119.5,136.5 Z M 138.5,264.5 C 163.588,263.771 179.422,275.437 186,299.5C 186.667,327.167 186.667,354.833 186,382.5C 176.833,411.168 157.666,421.668 128.5,414C 114.39,407.558 105.89,396.724 103,381.5C 102.042,352.793 102.375,324.126 104,295.5C 109.834,278.837 121.334,268.504 138.5,264.5 Z"/></g>
<g><path style="opacity:0.934" fill="#000000" d="M 393.5,-0.5 C 398.167,-0.5 402.833,-0.5 407.5,-0.5C 426.282,8.00291 431.115,21.6696 422,40.5C 407.667,55.1667 393.333,55.1667 379,40.5C 371.628,26.8966 373.462,14.7299 384.5,4C 387.592,2.45406 390.592,0.95406 393.5,-0.5 Z M 397.5,17.5 C 406.56,17.0461 409.727,21.0461 407,29.5C 402.667,34.8333 398.333,34.8333 394,29.5C 391.458,24.3612 392.624,20.3612 397.5,17.5 Z"/></g>
<g><path style="opacity:0.934" fill="#000000" d="M 435.5,50.5 C 456.486,48.0193 470.319,56.6859 477,76.5C 479.322,105.175 466.156,119.342 437.5,119C 416.861,113.894 407.361,100.727 409,79.5C 411.91,64.3019 420.743,54.6353 435.5,50.5 Z M 438.5,68.5 C 455.153,68.3155 461.653,76.3155 458,92.5C 447.599,104.777 437.599,104.444 428,91.5C 425.026,80.7868 428.526,73.1201 438.5,68.5 Z"/></g>
<g><path style="opacity:0.943" fill="#000000" d="M 411.5,511.5 C 381.5,511.5 351.5,511.5 321.5,511.5C 295.518,505.018 279.352,488.685 273,462.5C 272.333,397.167 272.333,331.833 273,266.5C 276.428,246.474 285.928,229.974 301.5,217C 310.683,210.149 318.849,202.316 326,193.5C 329.879,186.316 331.713,178.65 331.5,170.5C 327.91,170.456 325.41,168.789 324,165.5C 323.333,150.833 323.333,136.167 324,121.5C 326.491,111.009 332.991,104.509 343.5,102C 358.833,101.333 374.167,101.333 389.5,102C 400,104.5 406.5,111 409,121.5C 409.667,136.167 409.667,150.833 409,165.5C 407.59,168.789 405.09,170.456 401.5,170.5C 401.005,179.519 403.171,187.852 408,195.5C 420.971,207.47 433.638,219.804 446,232.5C 453.6,242.961 458.266,254.627 460,267.5C 460.667,332.167 460.667,396.833 460,461.5C 454.101,488.231 437.935,504.897 411.5,511.5 Z M 346.5,119.5 C 359.837,119.333 373.171,119.5 386.5,120C 388.726,121.227 390.226,123.061 391,125.5C 391.5,134.494 391.666,143.494 391.5,152.5C 374.833,152.5 358.167,152.5 341.5,152.5C 341.334,143.161 341.5,133.827 342,124.5C 343.025,122.313 344.525,120.646 346.5,119.5 Z M 349.5,170.5 C 360.833,170.5 372.167,170.5 383.5,170.5C 382.881,189.426 389.548,205.259 403.5,218C 412.631,225.462 421.464,233.295 430,241.5C 435.003,248.507 438.67,256.174 441,264.5C 442.649,329.464 442.982,394.464 442,459.5C 437.609,476.891 426.776,488.058 409.5,493C 380.833,493.667 352.167,493.667 323.5,493C 306.224,488.058 295.391,476.891 291,459.5C 290.018,394.13 290.351,328.797 292,263.5C 294.085,255.33 297.752,247.996 303,241.5C 311.536,233.295 320.369,225.462 329.5,218C 343.442,205.277 350.109,189.443 349.5,170.5 Z M 359.5,307.5 C 379.216,305.603 392.383,313.936 399,332.5C 401.189,344.907 400.856,357.24 398,369.5C 390.472,385.347 377.972,392.514 360.5,391C 345.139,386.972 335.973,377.139 333,361.5C 331.647,349.594 332.647,337.927 336,326.5C 341.322,317.007 349.155,310.674 359.5,307.5 Z"/></g>
<g><path style="opacity:0.939" fill="#000000" d="M 136.5,246.5 C 172.555,245.091 195.055,261.758 204,296.5C 204.667,325.833 204.667,355.167 204,384.5C 196.637,416.028 176.804,433.028 144.5,435.5C 112.196,433.028 92.3627,416.028 85,384.5C 84.3333,355.5 84.3333,326.5 85,297.5C 90.7655,268.901 107.932,251.901 136.5,246.5 Z M 138.5,264.5 C 121.334,268.504 109.834,278.837 104,295.5C 102.375,324.126 102.042,352.793 103,381.5C 105.89,396.724 114.39,407.558 128.5,414C 157.666,421.668 176.833,411.168 186,382.5C 186.667,354.833 186.667,327.167 186,299.5C 179.422,275.437 163.588,263.771 138.5,264.5 Z"/></g>
<g><path style="opacity:0.936" fill="#000000" d="M 356.5,289.5 C 387.498,286.693 407.665,300.026 417,329.5C 419.239,343.906 418.906,358.239 416,372.5C 409.334,392.834 395.501,405 374.5,409C 341.462,411.068 321.629,395.901 315,363.5C 314.333,354.167 314.333,344.833 315,335.5C 318.987,311.14 332.82,295.806 356.5,289.5 Z M 359.5,307.5 C 349.155,310.674 341.322,317.007 336,326.5C 332.647,337.927 331.647,349.594 333,361.5C 335.973,377.139 345.139,386.972 360.5,391C 377.972,392.514 390.472,385.347 398,369.5C 400.856,357.24 401.189,344.907 399,332.5C 392.383,313.936 379.216,305.603 359.5,307.5 Z"/></g>
</svg>
