<?xml version="1.0" encoding="UTF-8"?>
<svg version="1.1" xmlns="http://www.w3.org/2000/svg" width="512" height="512">
<path d="M0 0 C20.95432891 16.46010287 32.26364034 42.19416664 35.53125 68.24609375 C37.32223079 86.72236712 37.76878001 106.98908783 33 125 C32.7848877 125.87720703 32.56977539 126.75441406 32.34814453 127.65820312 C25.47462612 155.56291466 13.90160999 181.44894102 1 207 C0.49404297 208.00240723 -0.01191406 209.00481445 -0.53320312 210.03759766 C-6.58715048 221.9560519 -13.08764644 233.55938012 -20 245 C-19.18015625 244.95359375 -18.3603125 244.9071875 -17.515625 244.859375 C-16.43796875 244.82328125 -15.3603125 244.7871875 -14.25 244.75 C-13.18265625 244.70359375 -12.1153125 244.6571875 -11.015625 244.609375 C-7.23794883 245.09871129 -6.34315877 246.05762887 -4 249 C-3.49663544 251.52575111 -3.49663544 251.52575111 -3.49206543 254.42495728 C-3.48078613 255.52667267 -3.46950684 256.62838806 -3.45788574 257.76348877 C-3.46598267 258.9676947 -3.47407959 260.17190063 -3.48242188 261.41259766 C-3.4754126 262.68459015 -3.46840332 263.95658264 -3.46118164 265.26712036 C-3.44294497 268.75520201 -3.45001973 272.24281036 -3.46269798 275.73090029 C-3.47283715 279.38843324 -3.46342855 283.04592612 -3.45715332 286.70346069 C-3.44987402 292.85202281 -3.4594661 299.00039284 -3.47851562 305.14892578 C-3.50022705 312.23807247 -3.49327627 319.32675793 -3.47121 326.4158932 C-3.45299438 332.51378411 -3.45052935 338.61153695 -3.46096468 344.70944631 C-3.46717343 348.34607378 -3.46810929 351.98248541 -3.45481873 355.61909866 C-3.44100407 359.68334978 -3.46020974 363.74682121 -3.48242188 367.81103516 C-3.47432495 369.0030957 -3.46622803 370.19515625 -3.45788574 371.42333984 C-3.55512913 381.06754004 -5.57955391 389.27646681 -12.296875 396.46875 C-20.52043885 403.86241291 -29.23445635 405.58190067 -40.01171875 405.3125 C-48.39741331 404.83817365 -55.402937 401.22530477 -61 395 C-65.54192933 388.96020036 -68.24073678 382.95982678 -68.26742554 375.29415894 C-68.27595551 374.18102325 -68.28448547 373.06788757 -68.29327393 371.92102051 C-68.29236755 370.71457886 -68.29146118 369.50813721 -68.29052734 368.26513672 C-68.29724457 366.98321442 -68.30396179 365.70129211 -68.31088257 364.38052368 C-68.32849319 360.87657067 -68.33323562 357.37271543 -68.33451414 353.86872244 C-68.33593819 351.67862659 -68.3402124 349.48855543 -68.34550858 347.29846573 C-68.36398685 339.65582964 -68.37218125 332.01326316 -68.37060547 324.37060547 C-68.36940207 317.24838287 -68.39054864 310.12646232 -68.4220928 303.00431621 C-68.44823157 296.88442366 -68.4589739 290.76463 -68.45769465 284.64468205 C-68.45718465 280.9914766 -68.4628895 277.33854025 -68.48405075 273.68539047 C-68.5069861 269.6154072 -68.49792717 265.54610408 -68.48583984 261.47607422 C-68.49707886 260.26558411 -68.50831787 259.05509399 -68.51989746 257.80792236 C-68.51150848 256.70042633 -68.50311951 255.5929303 -68.49447632 254.45187378 C-68.49556585 253.48994047 -68.49665539 252.52800716 -68.49777794 251.53692436 C-67.85082001 248.23970443 -66.61872117 247.04353218 -64 245 C-60.984375 244.609375 -60.984375 244.609375 -57.75 244.75 C-56.67234375 244.78609375 -55.5946875 244.8221875 -54.484375 244.859375 C-53.66453125 244.90578125 -52.8446875 244.9521875 -52 245 C-52.3309668 244.4237085 -52.66193359 243.84741699 -53.00292969 243.25366211 C-61.35454773 228.67856544 -69.41736494 213.99054319 -77 199 C-77.69971924 197.62473145 -77.69971924 197.62473145 -78.41357422 196.22167969 C-94.89352646 163.6078715 -108.50876472 128.31325094 -108.3125 91.375 C-108.31001251 90.62610504 -108.30752502 89.87721008 -108.30496216 89.10562134 C-108.14734853 58.38652033 -100.86727261 28.6054084 -79 6 C-57.1752586 -14.9839809 -24.69143871 -17.27738741 0 0 Z M-60 13 C-73.35721575 24.36841501 -81.78072618 36.77214495 -86.8125 53.5625 C-87.10471436 54.53316406 -87.10471436 54.53316406 -87.40283203 55.5234375 C-90.62484404 67.03751741 -91.4164479 78.65278305 -91.375 90.5625 C-91.37312683 91.26542175 -91.37125366 91.96834351 -91.36932373 92.69256592 C-91.20133122 121.93236592 -80.92035369 149.56212059 -69 176 C-68.67 176 -68.34 176 -68 176 C-68.77064872 167.10251029 -70.12148386 158.31818928 -71.5 149.5 C-78.05499683 107.56853382 -81.08269356 57.41437095 -60.71875 18.5234375 C-60.1515625 17.36070313 -59.584375 16.19796875 -59 15 C-59.33 14.34 -59.66 13.68 -60 13 Z M-13 13 C-11.61402852 17.34183483 -9.96745715 21.49356403 -8.1875 25.6875 C9.70000331 69.67217231 5.73324922 120.9779995 -3.46191406 166.45874023 C-3.67557617 167.53325439 -3.88923828 168.60776855 -4.109375 169.71484375 C-4.30499023 170.66480225 -4.50060547 171.61476074 -4.70214844 172.59350586 C-5.19253966 175.13965167 -5.19253966 175.13965167 -4 178 C3.40941488 161.29808055 10.0579356 144.61045485 15 127 C15.2386377 126.16936035 15.47727539 125.3387207 15.72314453 124.48291016 C23.81037741 95.25927564 20.67018974 60.52823876 6.59765625 33.71484375 C1.97641954 25.862131 -4.4919378 16.83696923 -13 13 Z M-45 23 C-49.10334217 32.02262271 -52.51848005 40.9659218 -54.8125 50.625 C-55.00674561 51.43348389 -55.20099121 52.24196777 -55.40112305 53.07495117 C-58.72901179 67.82610669 -59.37248195 82.26200198 -59.3125 97.3125 C-59.31034485 98.28520844 -59.3081897 99.25791687 -59.30596924 100.26010132 C-59.1888631 133.25458698 -53.55377834 165.16934696 -45 197 C-44.67 197 -44.34 197 -44 197 C-44 139.58 -44 82.16 -44 23 C-44.33 23 -44.66 23 -45 23 Z M-28 23 C-28 80.42 -28 137.84 -28 197 C-25.78376619 193.67564928 -25.04682292 190.64353445 -24.1953125 186.81640625 C-24.0311937 186.09697342 -23.86707489 185.37754059 -23.69798279 184.63630676 C-23.1649721 182.28022083 -22.64377543 179.92175883 -22.125 177.5625 C-21.94669647 176.7594342 -21.76839294 175.95636841 -21.58468628 175.12896729 C-18.28189383 160.18187402 -15.71775677 145.21915901 -14 130 C-13.91485138 129.25766617 -13.82970276 128.51533234 -13.74197388 127.75050354 C-13.11166898 121.93887218 -12.82704872 116.19926807 -12.796875 110.35546875 C-12.79117493 109.46499344 -12.78547485 108.57451813 -12.77960205 107.65705872 C-12.77022073 105.78058024 -12.76364569 103.9040858 -12.75976562 102.02758789 C-12.75015394 99.23227075 -12.71910306 96.43772059 -12.6875 93.64257812 C-12.54323828 69.15519781 -16.44861137 45.22680835 -27 23 C-27.33 23 -27.66 23 -28 23 Z M-68 176 C-67 178 -67 178 -67 178 Z M-52 261 C-52.06784191 275.44754441 -52.12285453 289.8949826 -52.15543652 304.34265041 C-52.1708749 311.05165262 -52.19190606 317.76054849 -52.22631836 324.46948242 C-52.2589721 330.94690641 -52.27686585 337.42422008 -52.28463173 343.90172005 C-52.29016439 346.36999307 -52.30096831 348.83826022 -52.31719017 351.30648613 C-52.33904387 354.7701295 -52.34196353 358.23331999 -52.34057617 361.69702148 C-52.351362 362.71194672 -52.36214783 363.72687195 -52.3732605 364.77255249 C-52.34529747 371.24635098 -52.08099039 378.55452519 -47.54796124 383.62381649 C-42.80174888 387.67958576 -39.60371802 388.35599202 -33.5390625 388.27734375 C-29.77539598 387.86623556 -27.78209813 386.5171364 -25 384 C-20.9319065 378.83242177 -19.87249528 374.60670734 -19.87974548 368.14677429 C-19.87837082 367.19751572 -19.87699615 366.24825714 -19.87557983 365.27023315 C-19.87917511 364.24092682 -19.88277039 363.21162048 -19.88647461 362.15112305 C-19.88632858 361.05799301 -19.88618256 359.96486298 -19.8860321 358.83860779 C-19.88672812 355.22962451 -19.89450604 351.620693 -19.90234375 348.01171875 C-19.90420903 345.50779753 -19.90563242 343.00387594 -19.90663147 340.49995422 C-19.91005799 334.58564584 -19.91793753 328.67135402 -19.92798096 322.75705415 C-19.94026754 315.36082586 -19.94562861 307.96459526 -19.95117188 300.56835938 C-19.96189389 287.37889499 -19.9794837 274.18945279 -20 261 C-30.56 261 -41.12 261 -52 261 Z " fill="#000000" transform="translate(292,91)"/>
<path d="M0 0 C20.37367433 17.4774167 28.87225877 43.90376051 31.125 69.90234375 C32.90977398 94.08388548 32.90977398 94.08388548 26.6484375 102.2265625 C15.36457445 113.87007058 -3.70240277 118.10078371 -19.3125 120.25 C-21.2925 120.25 -23.2725 120.25 -25.3125 120.25 C-25.3125 181.3 -25.3125 242.35 -25.3125 305.25 C-23.3325 305.58 -21.3525 305.91 -19.3125 306.25 C-17.08597611 309.58978584 -17.05871417 310.65750224 -17.04507446 314.55470276 C-17.03654449 315.65504349 -17.02801453 316.75538422 -17.01922607 317.8890686 C-17.02013245 319.09686981 -17.02103882 320.30467102 -17.02197266 321.54907227 C-17.01525543 322.82091873 -17.00853821 324.0927652 -17.00161743 325.40315247 C-16.98393287 328.89528961 -16.97926076 332.38732876 -16.97798586 335.87950635 C-16.976564 338.06410505 -16.97229353 340.24867888 -16.96699142 342.43327141 C-16.94847634 350.06335911 -16.94032182 357.69337691 -16.94189453 365.32348633 C-16.94309328 372.41996664 -16.92204755 379.51614149 -16.8904072 386.6125446 C-16.86417641 392.71463618 -16.85353022 398.81662851 -16.85480535 404.91877598 C-16.85531341 408.55880422 -16.84971897 412.19856162 -16.82844925 415.8385334 C-16.80532347 419.9076195 -16.81462909 423.97603188 -16.82666016 428.04516602 C-16.81542114 429.23879761 -16.80418213 430.4324292 -16.79260254 431.66223145 C-16.86491877 441.31774995 -18.8847264 449.5186212 -25.609375 456.71875 C-33.83293885 464.11241291 -42.54695635 465.83190067 -53.32421875 465.5625 C-61.70991331 465.08817365 -68.715437 461.47530477 -74.3125 455.25 C-78.85442933 449.21020036 -81.55323678 443.20982678 -81.57992554 435.54415894 C-81.58845551 434.43102325 -81.59698547 433.31788757 -81.60577393 432.17102051 C-81.60486755 430.96457886 -81.60396118 429.75813721 -81.60302734 428.51513672 C-81.60974457 427.23321442 -81.61646179 425.95129211 -81.62338257 424.63052368 C-81.64099319 421.12657067 -81.64573562 417.62271543 -81.64701414 414.11872244 C-81.64843819 411.92862659 -81.6527124 409.73855543 -81.65800858 407.54846573 C-81.67648685 399.90582964 -81.68468125 392.26326316 -81.68310547 384.62060547 C-81.68190207 377.49838287 -81.70304864 370.37646232 -81.7345928 363.25431621 C-81.76073157 357.13442366 -81.7714739 351.01463 -81.77019465 344.89468205 C-81.76968465 341.2414766 -81.7753895 337.58854025 -81.79655075 333.93539047 C-81.8194861 329.8654072 -81.81042717 325.79610408 -81.79833984 321.72607422 C-81.80957886 320.51558411 -81.82081787 319.30509399 -81.83239746 318.05792236 C-81.82400848 316.95042633 -81.81561951 315.8429303 -81.80697632 314.70187378 C-81.80806585 313.73994047 -81.80915539 312.77800716 -81.81027794 311.78692436 C-81.15836827 308.46446791 -79.99988927 307.25940987 -77.3125 305.25 C-75.9925 305.25 -74.6725 305.25 -73.3125 305.25 C-73.3125 244.2 -73.3125 183.15 -73.3125 120.25 C-77.2725 119.92 -81.2325 119.59 -85.3125 119.25 C-88.54582003 118.58068216 -91.6448899 117.88090113 -94.8125 117 C-95.62638184 116.77747559 -96.44026367 116.55495117 -97.27880859 116.32568359 C-108.5917259 113.14371538 -120.78549254 109.26396791 -127.8125 99.125 C-135.95346732 82.32263823 -128.56638395 53.59730788 -122.85009766 36.85546875 C-115.77071455 17.28380877 -104.04482045 0.86156208 -84.87670898 -8.37231445 C-57.93294603 -20.55920763 -23.78136112 -17.88182469 0 0 Z M-94.3125 20.25 C-104.7640818 32.5057239 -111.85594529 51.05114998 -111.3125 67.25 C-110.78108398 67.08395264 -110.24966797 66.91790527 -109.70214844 66.74682617 C-107.15995509 65.96212131 -104.61143296 65.20001672 -102.0625 64.4375 C-101.22847656 64.17646484 -100.39445312 63.91542969 -99.53515625 63.64648438 C-83.98586277 59.04979543 -68.10050129 57.74260352 -51.95800781 57.85888672 C-49.31262715 57.87499923 -46.66877327 57.85889955 -44.0234375 57.83984375 C-27.85948 57.81827213 -12.03610977 59.59452322 3.4375 64.4375 C4.34886719 64.71013672 5.26023437 64.98277344 6.19921875 65.26367188 C8.36599514 65.91370479 10.52829725 66.57533098 12.6875 67.25 C13.40676983 50.32468172 5.7079308 31.36845736 -5.4375 18.75 C-15.49596079 8.11985475 -28.42898516 2.55049692 -42.9765625 1.9765625 C-63.65617183 1.48891965 -79.56683053 4.72159808 -94.3125 20.25 Z M-112.3125 88.25 C-110.40870919 93.35612101 -106.55104679 94.5753112 -101.85546875 96.796875 C-70.84785281 109.51444184 -27.64061456 109.01751482 3.5 96.75 C7.42084957 95.07529369 10.4347632 93.00635865 13.6875 90.25 C11.78370919 85.14387899 7.92604679 83.9246888 3.23046875 81.703125 C-27.1427453 69.24575386 -85.42574678 65.46625221 -112.3125 88.25 Z M-57.3125 121.25 C-57.3125 181.97 -57.3125 242.69 -57.3125 305.25 C-52.0325 305.25 -46.7525 305.25 -41.3125 305.25 C-41.3125 244.53 -41.3125 183.81 -41.3125 121.25 C-46.5925 121.25 -51.8725 121.25 -57.3125 121.25 Z M-65.3125 321.25 C-65.38034191 335.69754441 -65.43535453 350.1449826 -65.46793652 364.59265041 C-65.4833749 371.30165262 -65.50440606 378.01054849 -65.53881836 384.71948242 C-65.5714721 391.19690641 -65.58936585 397.67422008 -65.59713173 404.15172005 C-65.60266439 406.61999307 -65.61346831 409.08826022 -65.62969017 411.55648613 C-65.65154387 415.0201295 -65.65446353 418.48331999 -65.65307617 421.94702148 C-65.663862 422.96194672 -65.67464783 423.97687195 -65.6857605 425.02255249 C-65.65779747 431.49635098 -65.39349039 438.80452519 -60.86046124 443.87381649 C-56.11424888 447.92958576 -52.91621802 448.60599202 -46.8515625 448.52734375 C-43.08789598 448.11623556 -41.09459813 446.7671364 -38.3125 444.25 C-34.2444065 439.08242177 -33.18499528 434.85670734 -33.19224548 428.39677429 C-33.19087082 427.44751572 -33.18949615 426.49825714 -33.18807983 425.52023315 C-33.19167511 424.49092682 -33.19527039 423.46162048 -33.19897461 422.40112305 C-33.19882858 421.30799301 -33.19868256 420.21486298 -33.1985321 419.08860779 C-33.19922812 415.47962451 -33.20700604 411.870693 -33.21484375 408.26171875 C-33.21670903 405.75779753 -33.21813242 403.25387594 -33.21913147 400.74995422 C-33.22255799 394.83564584 -33.23043753 388.92135402 -33.24048096 383.00705415 C-33.25276754 375.61082586 -33.25812861 368.21459526 -33.26367188 360.81835938 C-33.27439389 347.62889499 -33.2919837 334.43945279 -33.3125 321.25 C-43.8725 321.25 -54.4325 321.25 -65.3125 321.25 Z " fill="#000000" transform="translate(465.3125,30.75)"/>
<path d="M0 0 C3.30998914 0.01610582 6.61875788 0.00002471 9.92871094 -0.01904297 C36.2206455 -0.04521597 65.51967395 1.89768687 88.31152344 16.39111328 C91.94106696 20.29537533 91.64372203 23.34480243 91.49805641 28.45598412 C91.21811354 32.86093449 90.6633903 37.18155766 89.98217773 41.54077148 C89.84069305 42.48858994 89.69920837 43.43640839 89.55343628 44.41294861 C89.08916413 47.50724984 88.61299266 50.59957052 88.13574219 53.69189453 C87.80620247 55.85891909 87.47709273 58.02600907 87.14839172 60.19316101 C86.46026127 64.7167867 85.76604316 69.23942598 85.06762695 73.76147461 C84.17410485 79.55090626 83.29730838 85.34272949 82.42518902 91.13541889 C81.75036989 95.60351762 81.06603122 100.07011886 80.37888527 104.5363369 C80.05166281 106.67166184 79.72755477 108.8074665 79.40665245 110.94375038 C78.95722088 113.92690988 78.49482313 116.90778168 78.02905273 119.88842773 C77.89957748 120.76594696 77.77010223 121.64346619 77.63670349 122.5475769 C76.35022795 130.61111056 73.77253833 135.56194215 67.31152344 140.70361328 C66.73337891 141.17798828 66.15523437 141.65236328 65.55957031 142.14111328 C63.81780163 143.56741343 62.06552944 144.97990811 60.31152344 146.39111328 C58.4774046 147.89015271 56.64401601 149.39008627 54.81152344 150.89111328 C53.92851562 151.60912109 53.04550781 152.32712891 52.13574219 153.06689453 C48.4089533 156.1338923 44.73452079 159.26124056 41.07714844 162.41064453 C40.573125 162.84119141 40.06910156 163.27173828 39.54980469 163.71533203 C38.82915581 164.34755204 38.82915581 164.34755204 38.09394836 164.99254417 C36.31152344 166.39111328 36.31152344 166.39111328 34.28044128 167.46334267 C31.78754796 168.88581904 30.13764081 170.16217637 28.31152344 172.39111328 C27.1077536 177.11266808 27.24003884 181.81801518 27.31152344 186.65820312 C27.30391205 188.11721953 27.29278872 189.5762212 27.27842712 191.03518677 C27.24945494 194.9856711 27.26949641 198.9345551 27.29844284 202.88498259 C27.32035141 207.01705242 27.29704387 211.14886327 27.27856445 215.28091431 C27.25044625 223.10077052 27.26290115 230.92001299 27.28998852 238.73985159 C27.3188536 247.64438223 27.30240398 256.54864956 27.28217697 265.45318294 C27.24159239 283.76598906 27.25781984 302.07835313 27.31152344 320.39111328 C28.26027344 320.49423828 29.20902344 320.59736328 30.18652344 320.70361328 C33.31152344 321.39111328 33.31152344 321.39111328 35.31152344 324.39111328 C35.56879234 326.79381657 35.56879234 326.79381657 35.57894897 329.69581604 C35.58747894 330.79615677 35.59600891 331.8964975 35.60479736 333.03018188 C35.60389099 334.23798309 35.60298462 335.4457843 35.60205078 336.69018555 C35.60876801 337.96203201 35.61548523 339.23387848 35.62240601 340.54426575 C35.64009057 344.03640289 35.64476267 347.52844204 35.64603758 351.02061963 C35.64745944 353.20521834 35.6517299 355.38979216 35.65703201 357.57438469 C35.67554709 365.20447239 35.68370161 372.83449019 35.68212891 380.46459961 C35.68093016 387.56107992 35.70197589 394.65725477 35.73361623 401.75365788 C35.75984703 407.85574946 35.77049322 413.95774179 35.76921809 420.05988926 C35.76871003 423.6999175 35.77430446 427.3396749 35.79557419 430.97964668 C35.81869997 435.04873279 35.80939435 439.11714516 35.79736328 443.1862793 C35.80860229 444.37991089 35.81984131 445.57354248 35.8314209 446.80334473 C35.75910467 456.45886323 33.73929703 464.65973448 27.01464844 471.85986328 C18.79108459 479.25352619 10.07706709 480.97301395 -0.70019531 480.70361328 C-9.08588987 480.22928693 -16.09141356 476.61641805 -21.68847656 470.39111328 C-26.23040589 464.35131364 -28.92921334 458.35094006 -28.9559021 450.68527222 C-28.96443207 449.57213654 -28.97296204 448.45900085 -28.98175049 447.31213379 C-28.98084412 446.10569214 -28.97993774 444.89925049 -28.97900391 443.65625 C-28.98572113 442.3743277 -28.99243835 441.0924054 -28.99935913 439.77163696 C-29.01696976 436.26768395 -29.02171219 432.76382871 -29.0229907 429.25983572 C-29.02441475 427.06973988 -29.02868897 424.87966871 -29.03398514 422.68957901 C-29.05246341 415.04694292 -29.06065781 407.40437645 -29.05908203 399.76171875 C-29.05787863 392.63949615 -29.0790252 385.5175756 -29.11056936 378.39542949 C-29.13670813 372.27553694 -29.14745047 366.15574329 -29.14617121 360.03579533 C-29.14566121 356.38258989 -29.15136606 352.72965354 -29.17252731 349.07650375 C-29.19546267 345.00652049 -29.18640373 340.93721736 -29.17431641 336.8671875 C-29.18555542 335.65669739 -29.19679443 334.44620728 -29.20837402 333.19903564 C-29.19998505 332.09153961 -29.19159607 330.98404358 -29.18295288 329.84298706 C-29.18404242 328.88105375 -29.18513195 327.91912045 -29.1862545 326.92803764 C-28.53434483 323.60558119 -27.37586583 322.40052315 -24.68847656 320.39111328 C-23.36847656 320.39111328 -22.04847656 320.39111328 -20.68847656 320.39111328 C-20.56197585 301.24963013 -20.49855349 282.1089213 -20.5096941 262.96701145 C-20.51340544 254.07845686 -20.4966769 245.19082799 -20.43139648 236.30249023 C-20.37453245 228.55296996 -20.35646075 220.80448232 -20.38447016 213.0547871 C-20.39795361 208.95297152 -20.39235332 204.85323072 -20.34025002 200.75168037 C-20.29175056 196.88548177 -20.29538376 193.02273158 -20.33789062 189.15649605 C-20.34444885 187.74279686 -20.3324458 186.32886189 -20.29984093 184.91552353 C-20.17068402 178.93336858 -20.07468208 174.26055654 -24.10275841 169.5943737 C-26.86976827 167.31353125 -29.67818442 165.3339276 -32.68847656 163.39111328 C-33.88442888 162.42441871 -35.06521173 161.43818602 -36.21972656 160.42236328 C-41.21731696 156.16125989 -46.22894998 151.9235467 -51.31347656 147.76611328 C-52.63025391 146.68716797 -52.63025391 146.68716797 -53.97363281 145.58642578 C-55.88345495 144.0420804 -57.80954276 142.51774115 -59.74707031 141.00830078 C-60.73835938 140.22712891 -61.72964844 139.44595703 -62.75097656 138.64111328 C-63.64945313 137.94501953 -64.54792969 137.24892578 -65.47363281 136.53173828 C-70.07135678 132.08808267 -70.3781547 126.05607883 -71.29248047 120.00195312 C-71.43907608 119.0630423 -71.58567169 118.12413147 -71.73670959 117.1567688 C-72.21901358 114.0561189 -72.69239456 110.95418675 -73.16503906 107.85205078 C-73.4981953 105.68832015 -73.83164491 103.52463467 -74.16537476 101.36099243 C-74.86366529 96.82395653 -75.55736205 92.28624659 -76.24804688 87.74804688 C-77.13049573 81.95326896 -78.02580736 76.16056439 -78.92482948 70.36833763 C-79.61696502 65.89775283 -80.30138463 61.42601179 -80.9836235 56.95390701 C-81.31039362 54.81904781 -81.6397025 52.6845755 -81.97166824 50.55051804 C-82.43681249 47.55370979 -82.89129942 44.55546144 -83.34326172 41.55664062 C-83.48038071 40.68767151 -83.61749969 39.81870239 -83.7587738 38.92340088 C-86.19230237 22.49591552 -86.19230237 22.49591552 -82.56738281 17.42236328 C-59.27558531 0.98853058 -27.49049529 -0.15836474 0 0 Z M-67.68847656 28.39111328 C-64.52279131 50.33937806 -61.29408357 72.27868838 -57.96801758 94.20324707 C-57.61521682 96.53532678 -57.26479022 98.8677669 -56.91674805 101.20056152 C-56.42531223 104.49036661 -55.92518335 107.77873799 -55.42285156 111.06689453 C-55.27720764 112.05367691 -55.13156372 113.04045929 -54.98150635 114.05714417 C-54.84065613 114.96697556 -54.69980591 115.87680695 -54.5546875 116.81420898 C-54.43510681 117.60543655 -54.31552612 118.39666412 -54.19232178 119.21186829 C-53.05427745 124.13416848 -50.80354197 126.37711622 -46.87597656 129.45361328 C-45.88984375 130.23865234 -44.90371094 131.02369141 -43.88769531 131.83251953 C-43.10338135 132.45537842 -43.10338135 132.45537842 -42.30322266 133.09082031 C-39.5537269 135.30488357 -36.87415333 137.60042429 -34.18847656 139.89111328 C-29.28161151 144.06314785 -24.32556531 148.16795516 -19.32128906 152.22314453 C-16.68847656 154.39111328 -16.68847656 154.39111328 -15.26293945 155.95336914 C-10.72420036 160.62558012 -6.74296933 161.21579037 -0.33520508 161.37768555 C0.80634033 161.3614917 1.94788574 161.34529785 3.12402344 161.32861328 C4.29586182 161.31822021 5.4677002 161.30782715 6.67504883 161.29711914 C12.8687861 161.06065712 17.51807816 160.84553317 22.24902344 156.45361328 C23.62775756 154.7861254 24.9822628 153.09830096 26.31152344 151.39111328 C28.04483666 149.88837842 29.81805501 148.43070328 31.62402344 147.01611328 C34.63448709 144.58049064 37.63038815 142.13307795 40.58105469 139.62548828 C41.13446533 139.15522217 41.68787598 138.68495605 42.25805664 138.20043945 C43.3738699 137.2469263 44.48572858 136.28876524 45.59350586 135.32592773 C48.73380506 132.61988004 51.92485356 130.38700543 55.43652344 128.20361328 C59.47315028 125.04525132 60.06110038 122.29296237 60.87133789 117.3125 C61.04875125 116.25958173 61.04875125 116.25958173 61.22974873 115.18539238 C61.60636399 112.92291729 61.9599592 110.65760376 62.31152344 108.39111328 C62.5503022 106.91451722 62.78991336 105.43805552 63.03036499 103.96173096 C63.78872616 99.25711948 64.51034057 94.54716337 65.22949219 89.83642578 C65.49406033 88.11527681 65.75881933 86.39415717 66.02375793 84.67306519 C66.57241378 81.10520999 67.11931033 77.53709139 67.66479492 73.96875 C68.36469185 69.39078458 69.06832571 64.81340291 69.77314281 60.2361927 C70.31733674 56.70032667 70.86000287 53.16422758 71.40215492 49.62804794 C71.66133937 47.93824301 71.92090834 46.24849701 72.18086815 44.55881119 C72.54126792 42.21423873 72.8997065 39.86937505 73.25756836 37.52441406 C73.36506409 36.82738373 73.47255981 36.13035339 73.58331299 35.41220093 C74.12625643 31.9172671 74.12625643 31.9172671 74.31152344 28.39111328 C34.62308881 9.73219604 -27.9432767 9.99335636 -67.68847656 28.39111328 Z M-4.68847656 176.39111328 C-4.68847656 223.91111328 -4.68847656 271.43111328 -4.68847656 320.39111328 C0.59152344 320.39111328 5.87152344 320.39111328 11.31152344 320.39111328 C11.31152344 272.87111328 11.31152344 225.35111328 11.31152344 176.39111328 C6.03152344 176.39111328 0.75152344 176.39111328 -4.68847656 176.39111328 Z M-12.68847656 336.39111328 C-12.75631848 350.83865769 -12.81133109 365.28609588 -12.84391308 379.73376369 C-12.85935146 386.4427659 -12.88038262 393.15166177 -12.91479492 399.8605957 C-12.94744867 406.3380197 -12.96534241 412.81533336 -12.97310829 419.29283333 C-12.97864096 421.76110635 -12.98944487 424.2293735 -13.00566673 426.69759941 C-13.02752043 430.16124278 -13.0304401 433.62443327 -13.02905273 437.08813477 C-13.03983856 438.10306 -13.05062439 439.11798523 -13.06173706 440.16366577 C-13.03377404 446.63746426 -12.76946695 453.94563847 -8.2364378 459.01492977 C-3.49022544 463.07069904 -0.29219458 463.7471053 5.77246094 463.66845703 C9.53612746 463.25734884 11.52942531 461.90824968 14.31152344 459.39111328 C18.37961694 454.22353505 19.43902816 449.99782062 19.43177795 443.53788757 C19.43315262 442.588629 19.43452728 441.63937042 19.4359436 440.66134644 C19.43234833 439.6320401 19.42875305 438.60273376 19.42504883 437.54223633 C19.42519485 436.44910629 19.42534088 435.35597626 19.42549133 434.22972107 C19.42479531 430.62073779 19.4170174 427.01180628 19.40917969 423.40283203 C19.40731441 420.89891081 19.40589102 418.39498922 19.40489197 415.8910675 C19.40146545 409.97675912 19.39358591 404.06246731 19.38354248 398.14816743 C19.37125589 390.75193914 19.36589482 383.35570854 19.36035156 375.95947266 C19.34962954 362.77000827 19.33203973 349.58056607 19.31152344 336.39111328 C8.75152344 336.39111328 -1.80847656 336.39111328 -12.68847656 336.39111328 Z " fill="#000000" transform="translate(100.6884765625,15.60888671875)"/>
<path d="M0 0 C0.66 -0.0103125 1.32 -0.020625 2 -0.03125 C5.03119371 0.77391083 6.0938408 2.00546283 8 4.5 C8.39455787 7.4478527 8.54732315 10.02177283 8.51757812 12.96875 C8.5245874 13.82122314 8.53159668 14.67369629 8.53881836 15.55200195 C8.55641568 18.3683332 8.5447696 21.18365864 8.53125 24 C8.53394442 25.95768425 8.53782642 27.9153672 8.54284668 29.87304688 C8.54874408 33.97539007 8.54017093 38.07738482 8.52148438 42.1796875 C8.49869475 47.43920628 8.51181653 52.69790864 8.53577423 57.95739746 C8.55022563 61.9997371 8.54562923 66.04188305 8.53526306 70.08422852 C8.53259396 72.02351986 8.53587197 73.96282877 8.54518127 75.90209961 C8.55533602 78.6122905 8.53986128 81.32115775 8.51757812 84.03125 C8.52567505 84.83344971 8.53377197 85.63564941 8.54211426 86.4621582 C8.48724701 90.06262563 8.31076947 92.0933047 6.09265137 94.99609375 C3.82522778 96.62560192 2.76035207 97.0431305 0 97 C-0.66 97.0103125 -1.32 97.020625 -2 97.03125 C-5.03119371 96.22608917 -6.0938408 94.99453717 -8 92.5 C-8.39455787 89.5521473 -8.54732315 86.97822717 -8.51757812 84.03125 C-8.5245874 83.17877686 -8.53159668 82.32630371 -8.53881836 81.44799805 C-8.55641568 78.6316668 -8.5447696 75.81634136 -8.53125 73 C-8.53394442 71.04231575 -8.53782642 69.0846328 -8.54284668 67.12695312 C-8.54874408 63.02460993 -8.54017093 58.92261518 -8.52148438 54.8203125 C-8.49869475 49.56079372 -8.51181653 44.30209136 -8.53577423 39.04260254 C-8.55022563 35.0002629 -8.54562923 30.95811695 -8.53526306 26.91577148 C-8.53259396 24.97648014 -8.53587197 23.03717123 -8.54518127 21.09790039 C-8.55533602 18.3877095 -8.53986128 15.67884225 -8.51757812 12.96875 C-8.52567505 12.16655029 -8.53377197 11.36435059 -8.54211426 10.5378418 C-8.48724701 6.93737437 -8.31076947 4.9066953 -6.09265137 2.00390625 C-3.82522778 0.37439808 -2.76035207 -0.0431305 0 0 Z " fill="#000000" transform="translate(104,47.5)"/>
<path d="M0 0 C2.73041319 2.14568743 3.88681065 3.28953456 4.44075012 6.76649475 C4.40720932 7.80656174 4.37366852 8.84662872 4.33911133 9.91821289 C4.3024234 11.07427032 4.26573547 12.23032776 4.22793579 13.42141724 C3.8675554 19.07937493 3.28379847 24.68444286 2.57421875 30.30859375 C2.42596146 31.51894791 2.27770416 32.72930206 2.12495422 33.97633362 C1.81201595 36.51035716 1.49500923 39.04388137 1.17407227 41.5769043 C0.68591732 45.45005744 0.21828696 49.32533797 -0.24804688 53.20117188 C-0.55605775 55.67463313 -0.86526048 58.14794633 -1.17578125 60.62109375 C-1.31341385 61.77427597 -1.45104645 62.92745819 -1.59284973 64.11558533 C-2.91786576 74.33123146 -2.91786576 74.33123146 -6 79 C-9.12942465 80.56471233 -12.61082223 80.69701958 -16 80 C-18.73041319 77.85431257 -19.88681065 76.71046544 -20.44075012 73.23350525 C-20.40720932 72.19343826 -20.37366852 71.15337128 -20.33911133 70.08178711 C-20.3024234 68.92572968 -20.26573547 67.76967224 -20.22793579 66.57858276 C-19.8675554 60.92062507 -19.28379847 55.31555714 -18.57421875 49.69140625 C-18.42596146 48.48105209 -18.27770416 47.27069794 -18.12495422 46.02366638 C-17.81201595 43.48964284 -17.49500923 40.95611863 -17.17407227 38.4230957 C-16.68591732 34.54994256 -16.21828696 30.67466203 -15.75195312 26.79882812 C-15.44394225 24.32536687 -15.13473952 21.85205367 -14.82421875 19.37890625 C-14.61776985 17.64913292 -14.61776985 17.64913292 -14.40715027 15.88441467 C-13.08213424 5.66876854 -13.08213424 5.66876854 -10 1 C-6.87057535 -0.56471233 -3.38917777 -0.69701958 0 0 Z " fill="#000000" transform="translate(148,56)"/>
<path d="M0 0 C1.8984375 0.36328125 1.8984375 0.36328125 4.2734375 1.67578125 C8.4489839 8.5814926 8.40135129 18.56573015 9.40625 26.48046875 C9.53659637 27.49948273 9.66694275 28.5184967 9.80123901 29.56838989 C10.073419 31.7076546 10.34391709 33.84713391 10.61279297 35.98681641 C11.02164117 39.22405803 11.44230344 42.45962892 11.86328125 45.6953125 C15.0623869 70.71460131 15.0623869 70.71460131 13.8984375 76.36328125 C10.77607319 80.13015927 10.77607319 80.13015927 7.8984375 80.89453125 C4.61255216 80.84318929 2.43670805 80.66074656 -0.4765625 79.05078125 C-4.6521089 72.1450699 -4.60447629 62.16083235 -5.609375 54.24609375 C-5.73972137 53.22707977 -5.87006775 52.2080658 -6.00436401 51.15817261 C-6.276544 49.0189079 -6.54704209 46.87942859 -6.81591797 44.73974609 C-7.22476617 41.50250447 -7.64542844 38.26693358 -8.06640625 35.03125 C-11.2655119 10.01196119 -11.2655119 10.01196119 -10.1015625 4.36328125 C-6.85347631 0.44473003 -4.94123495 -0.32145581 0 0 Z " fill="#000000" transform="translate(66.1015625,55.63671875)"/>
</svg>
