<?xml version="1.0" encoding="UTF-8"?>
<svg version="1.1" xmlns="http://www.w3.org/2000/svg" width="512" height="512">
<path d="M0 0 C1.04412552 0.52038345 2.08825104 1.04076691 3.16401672 1.57691956 C6.59059477 3.29183021 9.99887904 5.04014983 13.40795898 6.78955078 C15.80916103 8.00340927 18.2139466 9.21009298 20.61863708 10.41702271 C26.29688339 13.2721663 31.96231744 16.15182448 37.62357134 19.04048741 C43.99545788 22.29011858 50.38192067 25.51058103 56.76947701 28.7292707 C93.17054546 47.07723345 93.17054546 47.07723345 108.27148438 55.09350586 C119.01601118 60.78850198 129.91434128 66.17185672 140.80993271 71.57050514 C144.54488047 73.42132894 148.27721617 75.27737989 152.00906372 77.13444519 C153.29840584 77.77598821 154.58774872 78.41752968 155.87709236 79.05906963 C156.52129324 79.37961201 157.16549412 79.70015439 157.82921624 80.03041017 C166.48366533 84.33627987 175.14008772 88.63812049 183.80200195 92.92895508 C189.69642885 95.84891627 195.58725926 98.77599828 201.47408974 101.71124572 C204.5738568 103.25646061 207.67533158 104.79799576 210.78130722 106.33069801 C214.2298283 108.03248072 217.6704598 109.7498306 221.1105957 111.46850586 C222.12875366 111.96781113 223.14691162 112.46711639 224.19592285 112.98155212 C230.6335461 116.21897838 234.80233356 119.05103452 238.84155273 125.10986328 C239.53079151 130.66384551 239.56576784 135.58096473 237.15405273 140.67236328 C233.60187698 144.41654854 230.79584263 146.25273278 225.60308361 146.47900677 C223.87965373 146.4915899 222.15605536 146.48758359 220.43266296 146.47062683 C219.48100669 146.47319011 218.52935042 146.47575338 217.54885608 146.47839433 C214.35808229 146.48333814 211.16778102 146.46682915 207.97705078 146.45043945 C205.69062817 146.44959331 203.40420473 146.45006807 201.11778259 146.45176697 C194.90746172 146.45262884 188.69731415 146.43497174 182.48703361 146.4140451 C175.99810394 146.39531048 169.50917044 146.39353039 163.0202179 146.38996887 C152.12786769 146.38169946 141.23558158 146.3629519 130.34326172 146.33618164 C119.12484042 146.30863861 107.9064365 146.28744063 96.68798828 146.2746582 C95.63990721 146.27345221 95.63990721 146.27345221 94.57065278 146.27222186 C88.49265218 146.26528319 82.41465108 146.25882485 76.33664989 146.25241375 C50.17155763 146.22419197 24.00663402 146.1644286 -2.15844727 146.10986328 C-2.15844727 195.93986328 -2.15844727 245.76986328 -2.15844727 297.10986328 C34.10168141 296.9515481 34.10168141 296.9515481 70.36157227 296.74951172 C77.38037109 296.73144531 77.38037109 296.73144531 80.66793823 296.72808838 C82.96020616 296.72195281 85.2524613 296.7078984 87.54464722 296.68756104 C91.02030814 296.65826936 94.49518135 296.65423961 97.97094727 296.65576172 C98.98924685 296.64136929 100.00754642 296.62697685 101.05670357 296.61214828 C106.97893247 296.64685221 110.32431289 297.17815279 114.84155273 301.10986328 C118.89785672 306.33246185 118.61552817 311.7632647 117.84155273 318.10986328 C115.65345904 322.7291722 113.33799297 324.8210146 108.84155273 327.10986328 C106.26615906 327.47062683 106.26615906 327.47062683 103.50048828 327.45043945 C101.93943611 327.45009956 101.93943611 327.45009956 100.34684753 327.44975281 C98.67940239 327.42652702 98.67940239 327.42652702 96.97827148 327.40283203 C95.83115189 327.39858719 94.68403229 327.39434235 93.50215149 327.38996887 C89.84421152 327.37319812 86.18682574 327.33554764 82.52905273 327.29736328 C80.04663882 327.28231443 77.56421627 327.26862637 75.08178711 327.25634766 C69.00152042 327.22329977 62.92157618 327.17311568 56.84155273 327.10986328 C56.64329895 327.93065872 56.44504517 328.75145416 56.24078369 329.59712219 C55.9765863 330.67551865 55.71238892 331.7539151 55.44018555 332.86499023 C55.18005676 333.93328568 54.91992798 335.00158112 54.6519165 336.10224915 C52.0433746 345.78368829 46.4985406 354.6967064 39.84155273 362.10986328 C39.11323242 362.93099609 38.38491211 363.75212891 37.63452148 364.59814453 C26.92467097 376.0000694 13.29399457 383.53445631 -2.15844727 386.10986328 C-2.15844727 416.13986328 -2.15844727 446.16986328 -2.15844727 477.10986328 C14.35573286 476.95177579 14.35573286 476.95177579 30.86938477 476.74951172 C32.94603655 476.73782473 35.02269753 476.72763293 37.09936523 476.71923828 C38.16985107 476.69877441 39.24033691 476.67831055 40.34326172 476.65722656 C46.50736609 476.65434681 50.17225121 476.9450665 54.84155273 481.10986328 C58.89785672 486.33246185 58.61552817 491.7632647 57.84155273 498.10986328 C55.6539547 502.7281258 53.34067846 504.82698144 48.84155273 507.10986328 C46.18158054 507.49018002 46.18158054 507.49018002 43.26942444 507.49754333 C41.60611839 507.51240028 41.60611839 507.51240028 39.90921021 507.52755737 C38.09886795 507.5208049 38.09886795 507.5208049 36.25195312 507.51391602 C34.33410759 507.52421089 34.33410759 507.52421089 32.3775177 507.53471375 C28.87744963 507.55263577 25.3776324 507.55147864 21.87753224 507.54577136 C18.95259725 507.542678 16.02771034 507.5487736 13.10278219 507.55481011 C6.20096765 507.56885066 -0.7007231 507.56729809 -7.60253906 507.5559082 C-14.71619651 507.54442793 -21.8294769 507.55850189 -28.94308466 507.58530468 C-35.05705603 507.60747613 -41.17090918 507.61409581 -47.28491789 507.60822827 C-50.93371426 507.60486083 -54.58226896 507.6072592 -58.23103142 507.62447929 C-62.30074744 507.64284828 -66.36973193 507.62874665 -70.43945312 507.61157227 C-71.64432373 507.62124023 -72.84919434 507.6309082 -74.09057617 507.64086914 C-80.39588145 507.58509171 -84.4115759 507.44103732 -89.15844727 503.10986328 C-93.21475125 497.88726471 -92.9324227 492.45646186 -92.15844727 486.10986328 C-89.99001911 481.5320705 -87.76143833 479.14911698 -83.15844727 477.10986328 C-79.27514465 476.69443064 -75.41536413 476.76122427 -71.51391602 476.81689453 C-70.51638306 476.81991577 -69.5188501 476.82293701 -68.49108887 476.8260498 C-64.77593595 476.84170889 -61.06093088 476.88359286 -57.34594727 476.92236328 C-44.87813477 477.01517578 -44.87813477 477.01517578 -32.15844727 477.10986328 C-32.15844727 447.07986328 -32.15844727 417.04986328 -32.15844727 386.10986328 C-38.09844727 384.62486328 -38.09844727 384.62486328 -44.15844727 383.10986328 C-52.64401075 379.69194937 -60.34077533 375.23210784 -67.15844727 369.10986328 C-67.97958008 368.38154297 -68.80071289 367.65322266 -69.64672852 366.90283203 C-80.97544614 356.26174522 -88.73138454 342.52405172 -91.15844727 327.10986328 C-91.79658356 327.11874573 -92.43471985 327.12762817 -93.0921936 327.13677979 C-99.74325591 327.22538074 -106.39415013 327.28565072 -113.0456543 327.32958984 C-115.52684338 327.34968569 -118.00798522 327.37696712 -120.48901367 327.41162109 C-124.05863108 327.46022622 -127.62762143 327.482853 -131.19750977 327.50048828 C-132.30397858 327.52113342 -133.41044739 327.54177856 -134.55044556 327.56304932 C-140.74379102 327.56484743 -144.47502919 327.31137072 -149.15844727 323.10986328 C-153.21475125 317.88726471 -152.9324227 312.45646186 -152.15844727 306.10986328 C-149.98896729 301.52984999 -147.74519272 299.18365224 -143.15844727 297.10986328 C-139.5719264 296.67925209 -136.00959907 296.73117329 -132.40136719 296.76928711 C-131.3005119 296.7689255 -130.19965662 296.7685639 -129.06544209 296.76819134 C-125.50641428 296.77042828 -121.94785937 296.79326446 -118.38891602 296.81689453 C-116.18990302 296.82130605 -113.99088689 296.82436617 -111.79187012 296.8260498 C-103.64318109 296.84177075 -95.49455952 296.88365443 -87.34594727 296.92236328 C-60.02813477 297.01517578 -60.02813477 297.01517578 -32.15844727 297.10986328 C-32.15844727 247.27986328 -32.15844727 197.44986328 -32.15844727 146.10986328 C-48.83633789 146.15626953 -65.51422852 146.20267578 -82.69750977 146.25048828 C-93.24308515 146.27091865 -103.78864624 146.29033919 -114.33422852 146.30517578 C-119.87280321 146.31300728 -125.41137746 146.32108921 -130.94995117 146.32958984 C-131.99120681 146.33117234 -131.99120681 146.33117234 -133.05349791 146.3327868 C-144.26050391 146.35018426 -155.46742782 146.38171962 -166.67438515 146.41847447 C-178.1756797 146.45588006 -189.67691651 146.4777989 -201.1782707 146.48621726 C-207.63846664 146.49143711 -214.09847646 146.50372609 -220.55861282 146.53278351 C-226.63736674 146.55990433 -232.71585762 146.5683149 -238.79466629 146.56229401 C-241.027165 146.56339572 -243.25967239 146.57136919 -245.49211884 146.58668518 C-248.53817123 146.60656043 -251.58322797 146.60181096 -254.62930298 146.59088135 C-255.51452593 146.60253271 -256.39974889 146.61418408 -257.31179678 146.62618852 C-262.74638425 146.57341151 -265.84898956 145.73305046 -270.15844727 142.10986328 C-272.97935027 138.47787611 -273.59007677 135.73374194 -273.59594727 131.17236328 C-273.6152832 130.17333984 -273.63461914 129.17431641 -273.65454102 128.14501953 C-273.03557057 124.35809009 -271.76625432 121.86349808 -269.15844727 119.10986328 C-265.9904625 116.95508161 -262.61184616 115.30313339 -259.17504883 113.62011719 C-258.16173618 113.10812586 -257.14842354 112.59613453 -256.10440445 112.06862831 C-252.79613196 110.40124173 -249.47740768 108.75585525 -246.15844727 107.10986328 C-243.94240211 105.99537252 -241.72719576 104.87921239 -239.51281738 103.76141357 C-232.95668827 100.45726627 -226.3879477 97.17877222 -219.81673717 93.90477705 C-216.5176702 92.26035561 -213.21998447 90.61316884 -209.92218018 88.96621704 C-201.58547917 84.80333952 -193.24706261 80.64390454 -184.90844727 76.48486328 C-175.88233068 71.98290438 -166.85655058 67.4802772 -157.83273149 62.97371447 C-154.57518732 61.34699407 -151.31723439 59.72110499 -148.05821991 58.097332 C-135.17557069 51.6784567 -122.32919695 45.21016547 -109.61404419 38.46456909 C-97.21318676 31.89120897 -84.67120145 25.58198053 -72.14527988 19.25134087 C-67.44128261 16.87347472 -62.74251629 14.48629206 -58.05419922 12.07763672 C-53.45877185 9.71703857 -48.85186232 7.38044451 -44.23606682 5.05994034 C-42.49727364 4.18079324 -40.76262758 3.29338875 -39.03253365 2.3972435 C-36.61474348 1.14681411 -34.18329411 -0.07210741 -31.74658203 -1.28515625 C-31.05281464 -1.65282608 -30.35904724 -2.02049591 -29.64425659 -2.39930725 C-19.19264449 -7.48703219 -9.86325623 -5.14617554 0 0 Z M-18.15844727 37.10986328 C-19.75068312 38.81547755 -19.75068312 38.81547755 -21.39672852 41.07080078 C-22.04512695 41.92544922 -22.69352539 42.78009766 -23.36157227 43.66064453 C-24.05766602 44.59263672 -24.75375977 45.52462891 -25.47094727 46.48486328 C-26.1915332 47.44005859 -26.91211914 48.39525391 -27.65454102 49.37939453 C-32.59818409 55.95636138 -37.43688321 62.60420039 -42.22216797 69.296875 C-46.42484684 75.15343654 -50.7714229 80.89046792 -55.15844727 86.60986328 C-60.4129343 93.46453435 -65.59510817 100.36253163 -70.65844727 107.35986328 C-71.21661133 108.12878906 -71.77477539 108.89771484 -72.34985352 109.68994141 C-73.10588867 110.74084961 -73.10588867 110.74084961 -73.87719727 111.81298828 C-74.31999023 112.42819336 -74.7627832 113.04339844 -75.21899414 113.67724609 C-76.24984227 114.96370696 -76.24984227 114.96370696 -76.15844727 116.10986328 C-37.21844727 116.10986328 1.72155273 116.10986328 41.84155273 116.10986328 C37.47971196 109.25554207 33.30624372 102.88728338 28.27905273 96.60986328 C21.52984714 88.05464711 15.04372202 79.32811791 8.61352539 70.53173828 C3.89743272 64.08593513 -0.84731521 57.66119272 -5.5925293 51.23681641 C-7.05786306 49.24648468 -8.51374649 47.24961867 -9.96704102 45.25048828 C-10.78068736 44.14099906 -11.5944773 43.03161511 -12.40844727 41.92236328 C-13.09422852 40.98005859 -13.78000977 40.03775391 -14.48657227 39.06689453 C-15.31415039 38.09816406 -15.31415039 38.09816406 -16.15844727 37.10986328 C-16.81844727 37.10986328 -17.47844727 37.10986328 -18.15844727 37.10986328 Z M35.84155273 54.10986328 C37.13540379 56.82799694 38.55817513 59.25920865 40.31811523 61.69970703 C40.81561279 62.39056396 41.31311035 63.0814209 41.82568359 63.79321289 C42.36717041 64.53708252 42.90865723 65.28095215 43.46655273 66.04736328 C44.03704346 66.8344165 44.60753418 67.62146973 45.1953125 68.43237305 C50.22017262 75.32896145 55.37218743 82.12601125 60.58032227 88.88500977 C61.19117676 89.67979736 61.80203125 90.47458496 62.43139648 91.29345703 C63.4798877 92.56781616 63.4798877 92.56781616 64.54956055 93.86791992 C66.48174055 96.60092144 67.71758538 98.94351348 69.07885742 101.95922852 C72.04461819 107.85073689 75.07368665 112.66913943 80.84155273 116.10986328 C92.29837484 119.64755478 105.70658885 117.97629933 117.49713135 117.41448975 C122.04775926 117.21849255 126.60040232 117.13301447 131.15405273 117.03759766 C140.05518538 116.83509356 148.947348 116.51182519 157.84155273 116.10986328 C154.33152112 113.39023984 150.65749954 111.39742688 146.68139648 109.44970703 C145.97745255 109.10033585 145.27350861 108.75096466 144.54823303 108.39100647 C142.29371688 107.27261858 140.03662152 106.15957459 137.77905273 105.04736328 C128.89448734 100.66183678 120.0388051 96.24331822 111.29077148 91.59033203 C98.35215916 84.72320823 85.22426612 78.2256639 72.11938477 71.68359375 C68.40250347 69.82805077 64.68748345 67.96881352 60.97294426 66.10858727 C58.09477183 64.66770307 55.21565839 63.22870773 52.33624649 61.79030228 C50.96355959 61.10429228 49.59116938 60.41768826 48.21908188 59.73048019 C46.32320011 58.78127879 44.42606879 57.83462451 42.52856445 56.88867188 C41.45113983 56.35035736 40.37371521 55.81204285 39.26364136 55.25741577 C37.13763316 54.03850299 37.13763316 54.03850299 35.84155273 54.10986328 Z M-71.15844727 54.10986328 C-79.43686565 58.2373584 -87.71412433 62.36716818 -95.99001026 66.49973869 C-99.83508481 68.41969424 -103.68051793 70.3389234 -107.52685547 72.25634766 C-128.75370607 82.8147486 -128.75370607 82.8147486 -149.78982544 93.74591064 C-158.22982387 98.23205009 -166.78807137 102.47925459 -175.34594727 106.73486328 C-176.99382972 107.55628531 -178.64161648 108.37789935 -180.28930664 109.19970703 C-184.2445959 111.17195683 -188.20114034 113.14166527 -192.15844727 115.10986328 C-192.15844727 115.43986328 -192.15844727 115.76986328 -192.15844727 116.10986328 C-182.34490034 116.5057467 -172.53328292 116.80676646 -162.71334553 116.9906702 C-158.15171019 117.07899851 -153.59557644 117.19847688 -149.03710938 117.39233398 C-128.41183291 119.35678045 -128.41183291 119.35678045 -110.04443359 112.57958984 C-107.0330947 109.10566694 -104.94820326 105.35645464 -103.09841919 101.16293335 C-101.85955143 98.45702028 -100.18074697 96.27131668 -98.31860352 93.96142578 C-97.28445811 92.55374075 -96.25186391 91.14491461 -95.22094727 89.73486328 C-94.05819693 88.15152254 -92.89543618 86.56818946 -91.73266602 84.98486328 C-91.15049316 84.19080078 -90.56832031 83.39673828 -89.96850586 82.57861328 C-86.82742033 78.2944675 -83.681086 74.01419545 -80.53344727 69.73486328 C-79.95344971 68.94418457 -79.37345215 68.15350586 -78.77587891 67.33886719 C-75.97644535 63.5322977 -73.14839462 59.77072565 -70.15844727 56.10986328 C-70.65344727 55.11986328 -70.65344727 55.11986328 -71.15844727 54.10986328 Z M-59.15844727 327.10986328 C-52.70953069 340.00769644 -47.60758934 346.79679124 -35.15844727 353.10986328 C-34.4971582 353.45146484 -33.83586914 353.79306641 -33.15454102 354.14501953 C-24.09029446 357.95874362 -11.29960216 357.58736472 -2.09594727 354.48486328 C11.65009637 348.48544148 18.05654666 340.67987543 24.84155273 327.10986328 C-2.87844727 327.10986328 -30.59844727 327.10986328 -59.15844727 327.10986328 Z " fill="#000000" transform="translate(273.158447265625,4.89013671875)"/>
<path d="M0 0 C4.66078276 2.2077392 6.67264615 4.49351846 9 9 C9.98384844 11.91690644 10.73277312 14.88163086 11.48022461 17.86669922 C11.70832321 18.75041702 11.93642181 19.63413483 12.1714325 20.54463196 C12.92265249 23.4627634 13.66249332 26.38365473 14.40234375 29.3046875 C14.92583857 31.34687479 15.45006588 33.38887443 15.97499084 35.43069458 C17.35648452 40.81209977 18.72845821 46.195887 20.09832764 51.58026123 C21.48143965 57.01060304 22.87267544 62.43886093 24.26367188 67.8671875 C25.83353038 73.9938855 27.40275449 80.12073084 28.96458435 86.2494812 C29.43980772 88.11278337 29.91507203 89.9760751 30.39038086 91.83935547 C30.61489394 92.7206909 30.83940702 93.60202633 31.07072353 94.51006889 C32.10004104 98.53747671 33.14377549 102.55961069 34.23269653 106.5713501 C34.42172578 107.26837603 34.61075502 107.96540195 34.80551243 108.68354988 C35.3062118 110.51889772 35.81265702 112.35267542 36.31959534 114.18630981 C37 117 37 117 37 120 C37.69776047 119.98889694 38.39552094 119.97779388 39.11442566 119.96635437 C45.74723204 119.86543201 52.37981871 119.78967454 59.0132246 119.74093914 C62.42215892 119.71503951 65.83044964 119.68001243 69.23901367 119.62280273 C73.17358213 119.55719116 77.10790619 119.53365733 81.04296875 119.51171875 C82.84534248 119.47300911 82.84534248 119.47300911 84.68412781 119.43351746 C98.39000426 119.42905616 108.83340409 124.27226321 118.671875 133.58203125 C125.1130638 140.4050431 130.09458256 149.98690834 130.14717102 159.46481323 C130.15790398 160.79790527 130.15790398 160.79790527 130.16885376 162.15792847 C130.17154266 163.12529938 130.17423157 164.09267029 130.17700195 165.08935547 C130.18357315 166.1141803 130.19014435 167.13900513 130.19691467 168.19488525 C130.2166231 171.58565342 130.22830326 174.9763774 130.23828125 178.3671875 C130.24235678 179.52548191 130.2464323 180.68377632 130.25063133 181.87717056 C130.27147901 188.00486319 130.28578785 194.1325335 130.29516602 200.26025391 C130.30624322 206.59113034 130.34066233 212.92165654 130.38033772 219.25240898 C130.40646538 224.12001199 130.41485432 228.98753093 130.41844749 233.85519791 C130.42332136 236.1891937 130.43495796 238.52318554 130.45348549 240.85711288 C130.4778 244.12231119 130.47692589 247.38659459 130.4699707 250.65185547 C130.48278076 251.61517792 130.49559082 252.57850037 130.50878906 253.5710144 C130.46378253 259.36788216 129.81141595 262.56019478 126 267 C120.77740143 271.05630398 115.34659858 270.77397544 109 270 C104.42220722 267.83157184 102.0392537 265.60299107 100 261 C99.58456735 257.11669738 99.65136099 253.25691686 99.70703125 249.35546875 C99.71005249 248.35793579 99.71307373 247.36040283 99.71618652 246.3326416 C99.73184561 242.61748868 99.77372958 238.90248361 99.8125 235.1875 C99.9053125 222.7196875 99.9053125 222.7196875 100 210 C80.53 210 61.06 210 41 210 C41.07893134 224.44929506 41.07893134 224.44929506 41.18017578 238.8984375 C41.18602275 240.72395594 41.19111782 242.54947701 41.1953125 244.375 C41.20554443 245.30570313 41.21577637 246.23640625 41.22631836 247.1953125 C41.2281291 254.0326595 41.16135951 260.45070417 36.5625 265.875 C31.45237222 270.11266694 28.44325009 270.43398098 21.953125 270.31640625 C17.02538795 269.78843442 14.43415287 267.73047927 11.35087585 264.01013184 C9.33207951 259.51168504 9.75753368 255.39036889 9.94848633 250.52539062 C10.00623713 248.31807231 10.06346138 246.11074017 10.12023926 243.90339661 C10.1557338 242.72700937 10.19122833 241.55062214 10.22779846 240.33858681 C10.40853377 233.95356849 10.50585896 227.56720115 10.60083008 221.18041992 C10.6109425 220.50829763 10.62105492 219.83617533 10.63147378 219.1436857 C11.50520765 159.78705443 5.31870725 107.25270757 -12.99878979 50.33727741 C-15.10654496 43.75293449 -16.98995731 37.12089108 -18.73046875 30.4296875 C-18.96424728 29.54488205 -19.19802582 28.6600766 -19.43888855 27.74845886 C-21.39827613 20.04164362 -22.82089731 12.84411654 -19.3125 5.4375 C-13.59131946 -0.59293354 -7.97795444 -0.97292127 0 0 Z M41 150 C41 159.9 41 169.8 41 180 C60.47 180 79.94 180 100 180 C100.58602684 166.8562484 100.58602684 166.8562484 96.4375 155.25 C90.38576346 149.66378166 82.3380782 149.57447136 74.49609375 149.70703125 C73.5322023 149.71127609 72.56831085 149.71552094 71.57521057 149.71989441 C68.52900985 149.73654319 65.48349712 149.77416889 62.4375 149.8125 C60.35873359 149.8275647 58.27995669 149.84124996 56.20117188 149.85351562 C51.13364321 149.8838359 46.06758189 149.942583 41 150 Z " fill="#000000" transform="translate(21,242)"/>
<path d="M0 0 C4.61618056 2.18661185 6.7225463 4.49924018 9 9 C10.11887581 16.95512596 8.51393729 24.59947657 6.46142578 32.25708008 C6.0565947 33.83755127 6.0565947 33.83755127 5.64358521 35.44995117 C4.75788797 38.89352908 3.85185402 42.33138777 2.9453125 45.76953125 C2.32109582 48.17909678 1.69814048 50.58898938 1.0763855 52.99919128 C-0.55726882 59.31759722 -2.20839384 65.63130908 -3.86315918 71.94421387 C-5.54349192 78.36815694 -7.20632032 84.79661816 -8.87109375 91.22460938 C-11.30621848 100.61531974 -13.74697757 110.0045292 -16.20263672 119.38989258 C-16.45726685 120.36510361 -16.71189697 121.34031464 -16.97424316 122.34507751 C-17.21258881 123.25450104 -17.45093445 124.16392456 -17.69650269 125.10090637 C-17.91848894 125.9567567 -18.1404752 126.81260702 -18.36918831 127.6943922 C-18.89587378 129.61942013 -19.51634953 131.51846794 -20.15887451 133.4079895 C-21.38358665 138.63809954 -21.27499848 143.72852726 -21.25537109 149.08227539 C-21.25899155 150.28310257 -21.262612 151.48392975 -21.26634216 152.72114563 C-21.27501152 155.99792535 -21.27525707 159.2745898 -21.2729907 162.55137563 C-21.27374135 165.98923713 -21.28882464 169.42702668 -21.30337524 172.86485291 C-21.35028458 184.56099936 -21.37434737 196.2571327 -21.38085938 207.95336914 C-21.38461295 214.4223634 -21.40266096 220.89116378 -21.43595374 227.36007494 C-21.45283024 230.77858228 -21.46200326 234.19673703 -21.45301437 237.61528206 C-21.44595889 241.42619291 -21.46319527 245.23628564 -21.48583984 249.04711914 C-21.47358116 250.73750305 -21.47358116 250.73750305 -21.46107483 252.46203613 C-21.52618063 258.61371625 -21.83764321 262.34230745 -26 267 C-31.22259857 271.05630398 -36.65340142 270.77397544 -43 270 C-47.51334264 267.86210085 -49.94285326 265.547377 -52 261 C-53.23540825 255.53702154 -53.12792844 250.13801244 -53.09765625 244.5703125 C-53.09664917 243.69173584 -53.09564209 242.81315918 -53.09460449 241.90795898 C-53.08939882 238.64695925 -53.07543766 235.38597822 -53.0625 232.125 C-53.041875 224.82375 -53.02125 217.5225 -53 210 C-72.47 210 -91.94 210 -112 210 C-111.84191251 226.51418012 -111.84191251 226.51418012 -111.63964844 243.02783203 C-111.62796145 245.10448382 -111.61776965 247.18114479 -111.609375 249.2578125 C-111.58891113 250.32829834 -111.56844727 251.39878418 -111.54736328 252.50170898 C-111.54448353 258.66581335 -111.83520322 262.33069847 -116 267 C-121.22259857 271.05630398 -126.65340142 270.77397544 -133 270 C-137.5842193 267.8285277 -139.89566935 265.5738108 -142 261 C-142.44897124 257.63684105 -142.43034634 254.29733685 -142.41992188 250.90820312 C-142.42839142 249.89447632 -142.43686096 248.88074951 -142.44558716 247.83630371 C-142.468985 244.48449138 -142.46997808 241.13313785 -142.46875 237.78125 C-142.47585356 235.44299131 -142.48355284 233.10473436 -142.49182129 230.76647949 C-142.5052752 225.8605465 -142.50683235 220.95477441 -142.50097656 216.04882812 C-142.49510178 209.78914091 -142.52557645 203.530235 -142.56609344 197.27069855 C-142.59206946 192.43709214 -142.59483845 187.60367085 -142.59120178 182.77000427 C-142.59288602 180.46412708 -142.60246077 178.15824069 -142.62034607 175.85243225 C-142.74463251 157.83681294 -141.28069252 144.92132444 -128.41796875 131.328125 C-121.05139647 124.37379399 -111.33409238 119.8644911 -101.22167969 119.88647461 C-100.0607782 119.88655014 -98.89987671 119.88662567 -97.70379639 119.88670349 C-96.45576233 119.89186478 -95.20772827 119.89702606 -93.921875 119.90234375 C-92.64016418 119.9037587 -91.35845337 119.90517365 -90.03790283 119.90663147 C-86.6381636 119.91044099 -83.2384674 119.92025786 -79.83874512 119.93133545 C-76.366461 119.94158326 -72.8941699 119.9461363 -69.421875 119.95117188 C-62.61456571 119.96188159 -55.80728492 119.97893916 -49 120 C-48.9087384 119.41540009 -48.81747681 118.83080017 -48.72344971 118.22848511 C-47.17004642 108.99272747 -44.78451573 99.99869291 -42.421875 90.9453125 C-41.96800789 89.19537341 -41.51442051 87.44536176 -41.06109619 85.69528198 C-40.11208701 82.03512981 -39.1603605 78.37569889 -38.20654297 74.71679688 C-37.00081084 70.09103783 -35.80090014 65.46379337 -34.60269928 60.83607864 C-32.14338866 51.3397101 -29.66095948 41.84973182 -27.15209961 32.36633301 C-26.43684587 29.66157885 -25.72931487 26.95528316 -25.02758789 24.24694824 C-24.24796152 21.24078054 -23.4487914 18.24078113 -22.640625 15.2421875 C-22.43757751 14.43999786 -22.23453003 13.63780823 -22.02532959 12.81130981 C-18.83590726 1.29678758 -10.86281465 -1.163873 0 0 Z M-109 156 C-113.26383446 163.60298193 -112 171.25988573 -112 180 C-92.53 180 -73.06 180 -53 180 C-53 170.1 -53 160.2 -53 150 C-59.13829158 149.95398199 -65.27597974 149.91418784 -71.41430664 149.89013672 C-73.50059034 149.88010573 -75.58686008 149.86647774 -77.6730957 149.84912109 C-80.67923438 149.82474506 -83.68518645 149.81348764 -86.69140625 149.8046875 C-87.61772354 149.79436493 -88.54404083 149.78404236 -89.49842834 149.77340698 C-96.87793849 149.77214076 -103.7053872 150.26416947 -109 156 Z " fill="#000000" transform="translate(503,242)"/>
</svg>
