<?xml version="1.0" encoding="UTF-8"?>
<!DOCTYPE svg PUBLIC "-//W3C//DTD SVG 1.1//EN" "http://www.w3.org/Graphics/SVG/1.1/DTD/svg11.dtd">
<svg xmlns="http://www.w3.org/2000/svg" version="1.1" width="512px" height="512px" style="shape-rendering:geometricPrecision; text-rendering:geometricPrecision; image-rendering:optimizeQuality; fill-rule:evenodd; clip-rule:evenodd" xmlns:xlink="http://www.w3.org/1999/xlink">
<g><path style="opacity:0.998" fill="#000000" d="M 75.5,15.5 C 195.5,15.3333 315.5,15.5 435.5,16C 436.416,16.3742 437.25,16.8742 438,17.5C 439.663,164.753 439.997,312.086 439,459.5C 437.461,462.521 434.961,463.854 431.5,463.5C 431.949,473.605 431.449,483.605 430,493.5C 429.25,494.126 428.416,494.626 427.5,495C 422.167,495.167 416.833,495.333 411.5,495.5C 405.395,495.624 399.395,495.124 393.5,494C 388.372,484.245 383.372,474.411 378.5,464.5C 296.5,463.167 214.5,463.167 132.5,464.5C 127.628,474.411 122.628,484.245 117.5,494C 106.264,495.622 94.9308,495.955 83.5,495C 81.6667,494.5 80.5,493.333 80,491.5C 79.5002,482.173 79.3335,472.839 79.5,463.5C 76.0388,463.854 73.5388,462.521 72,459.5C 71.3333,312.833 71.3333,166.167 72,19.5C 72.6897,17.6498 73.8564,16.3164 75.5,15.5 Z M 87.5,31.5 C 140.833,31.5 194.167,31.5 247.5,31.5C 247.5,143.5 247.5,255.5 247.5,367.5C 194.167,367.5 140.833,367.5 87.5,367.5C 87.5,255.5 87.5,143.5 87.5,31.5 Z M 263.5,31.5 C 316.833,31.5 370.167,31.5 423.5,31.5C 423.5,143.5 423.5,255.5 423.5,367.5C 370.167,367.5 316.833,367.5 263.5,367.5C 263.5,255.5 263.5,143.5 263.5,31.5 Z M 87.5,383.5 C 199.5,383.5 311.5,383.5 423.5,383.5C 423.5,404.833 423.5,426.167 423.5,447.5C 311.5,447.5 199.5,447.5 87.5,447.5C 87.5,426.167 87.5,404.833 87.5,383.5 Z M 95.5,463.5 C 101.537,463.171 107.537,463.504 113.5,464.5C 111.167,469.167 108.833,473.833 106.5,478.5C 102.893,479.489 99.226,479.823 95.5,479.5C 95.5,474.167 95.5,468.833 95.5,463.5 Z M 397.5,463.5 C 403.5,463.5 409.5,463.5 415.5,463.5C 415.5,468.833 415.5,474.167 415.5,479.5C 411.774,479.823 408.107,479.489 404.5,478.5C 401.882,473.599 399.548,468.599 397.5,463.5 Z"/></g>
<g><path style="opacity:1" fill="#000000" d="M 215.5,151.5 C 220.833,151.5 226.167,151.5 231.5,151.5C 231.5,167.5 231.5,183.5 231.5,199.5C 226.167,199.5 220.833,199.5 215.5,199.5C 215.5,183.5 215.5,167.5 215.5,151.5 Z"/></g>
<g><path style="opacity:1" fill="#000000" d="M 279.5,151.5 C 284.833,151.5 290.167,151.5 295.5,151.5C 295.5,167.5 295.5,183.5 295.5,199.5C 290.167,199.5 284.833,199.5 279.5,199.5C 279.5,183.5 279.5,167.5 279.5,151.5 Z"/></g>
<g><path style="opacity:1" fill="#000000" d="M 231.5,399.5 C 247.5,399.5 263.5,399.5 279.5,399.5C 279.5,404.833 279.5,410.167 279.5,415.5C 263.5,415.5 247.5,415.5 231.5,415.5C 231.5,410.167 231.5,404.833 231.5,399.5 Z"/></g>
</svg>
