<?xml version="1.0" encoding="UTF-8"?>
<!DOCTYPE svg PUBLIC "-//W3C//DTD SVG 1.1//EN" "http://www.w3.org/Graphics/SVG/1.1/DTD/svg11.dtd">
<svg xmlns="http://www.w3.org/2000/svg" version="1.1" width="512px" height="512px" style="shape-rendering:geometricPrecision; text-rendering:geometricPrecision; image-rendering:optimizeQuality; fill-rule:evenodd; clip-rule:evenodd" xmlns:xlink="http://www.w3.org/1999/xlink">
<g><path style="opacity:0.976" fill="#000000" d="M 112.5,23.5 C 127.367,21.0115 137.534,26.6782 143,40.5C 143.5,98.8324 143.667,157.166 143.5,215.5C 153.5,215.5 163.5,215.5 173.5,215.5C 169.084,170.088 164.084,124.755 158.5,79.5C 159.066,76.1829 160.733,73.6829 163.5,72C 219.5,71.3333 275.5,71.3333 331.5,72C 332.416,72.3742 333.25,72.8742 334,73.5C 335.555,78.3822 335.888,83.3822 335,88.5C 330.103,130.8 325.603,173.133 321.5,215.5C 327.509,215.334 333.509,215.501 339.5,216C 341.333,216.5 342.5,217.667 343,219.5C 343.667,223.833 343.667,228.167 343,232.5C 338.919,264.145 335.086,295.812 331.5,327.5C 373.168,327.333 414.835,327.5 456.5,328C 472.667,332.167 482.833,342.333 487,358.5C 487.667,391.167 487.667,423.833 487,456.5C 482.833,472.667 472.667,482.833 456.5,487C 347.833,487.667 239.167,487.667 130.5,487C 114.774,482.941 104.608,473.108 100,457.5C 90.3282,379.459 80.4949,301.459 70.5,223.5C 71.0663,220.183 72.733,217.683 75.5,216C 82.1583,215.5 88.825,215.334 95.5,215.5C 95.5,207.5 95.5,199.5 95.5,191.5C 77.1636,191.667 58.8303,191.5 40.5,191C 32.3333,188.167 26.8333,182.667 24,174.5C 23.3333,137.833 23.3333,101.167 24,64.5C 26.8333,56.3333 32.3333,50.8333 40.5,48C 58.8303,47.5001 77.1636,47.3334 95.5,47.5C 95.7347,35.6059 101.401,27.6059 112.5,23.5 Z M 116.5,40.5 C 122.326,39.4887 125.826,41.822 127,47.5C 127.5,103.499 127.667,159.499 127.5,215.5C 122.167,215.5 116.833,215.5 111.5,215.5C 111.333,159.499 111.5,103.499 112,47.5C 112.53,44.415 114.03,42.0817 116.5,40.5 Z M 47.5,63.5 C 63.5,63.5 79.5,63.5 95.5,63.5C 95.5,100.833 95.5,138.167 95.5,175.5C 79.4965,175.667 63.4965,175.5 47.5,175C 43,174.5 40.5,172 40,167.5C 39.5026,164.854 39.3359,162.187 39.5,159.5C 48.8393,159.666 58.1726,159.5 67.5,159C 70.516,157.471 71.8494,154.971 71.5,151.5C 71.8494,148.029 70.516,145.529 67.5,144C 58.1726,143.5 48.8393,143.334 39.5,143.5C 39.5,138.167 39.5,132.833 39.5,127.5C 48.8393,127.666 58.1726,127.5 67.5,127C 70.516,125.471 71.8494,122.971 71.5,119.5C 71.8494,116.029 70.516,113.529 67.5,112C 58.1726,111.5 48.8393,111.334 39.5,111.5C 39.5,106.167 39.5,100.833 39.5,95.5C 48.8393,95.6665 58.1726,95.4998 67.5,95C 70.516,93.4714 71.8494,90.9714 71.5,87.5C 71.8494,84.0286 70.516,81.5286 67.5,80C 58.1726,79.5002 48.8393,79.3335 39.5,79.5C 39.0011,74.6355 40.0011,70.1355 42.5,66C 44.3146,65.2432 45.9812,64.4098 47.5,63.5 Z M 177.5,87.5 C 224.167,87.5 270.833,87.5 317.5,87.5C 316.793,98.1958 315.793,108.862 314.5,119.5C 269.833,119.5 225.167,119.5 180.5,119.5C 179.207,108.862 178.207,98.1958 177.5,87.5 Z M 182.5,135.5 C 225.833,135.5 269.167,135.5 312.5,135.5C 309.777,161.505 306.944,187.505 304,213.5C 296.106,215.449 287.939,216.116 279.5,215.5C 279.667,202.163 279.5,188.829 279,175.5C 272.645,156.562 259.478,148.728 239.5,152C 227,155.167 219.167,163 216,175.5C 215.5,188.829 215.333,202.163 215.5,215.5C 207.061,216.116 198.894,215.449 191,213.5C 188.056,187.505 185.223,161.505 182.5,135.5 Z M 242.5,168.5 C 251.587,166.959 258.087,170.293 262,178.5C 263.394,190.78 263.894,203.114 263.5,215.5C 252.833,215.5 242.167,215.5 231.5,215.5C 231.106,203.114 231.606,190.78 233,178.5C 235.022,173.98 238.189,170.647 242.5,168.5 Z M 89.5,231.5 C 168.167,231.5 246.833,231.5 325.5,231.5C 321.914,263.188 318.081,294.855 314,326.5C 295.522,327.046 277.022,327.88 258.5,329C 244.394,334.106 235.56,343.939 232,358.5C 231.333,391.167 231.333,423.833 232,456.5C 232.952,461.902 235.118,466.735 238.5,471C 222,471.167 205.5,471.333 189,471.5C 170.464,471.626 151.964,471.126 133.5,470C 126.481,467.649 121.314,463.149 118,456.5C 107.763,381.606 98.2632,306.606 89.5,231.5 Z M 271.5,343.5 C 330.168,343.333 388.834,343.5 447.5,344C 461.65,345.483 469.483,353.317 471,367.5C 471.667,394.167 471.667,420.833 471,447.5C 469.167,461.333 461.333,469.167 447.5,471C 388.833,471.667 330.167,471.667 271.5,471C 257.333,469.5 249.5,461.667 248,447.5C 247.333,420.833 247.333,394.167 248,367.5C 249.695,353.307 257.528,345.307 271.5,343.5 Z M 319.5,375.5 C 346.169,375.333 372.835,375.5 399.5,376C 418.778,377.778 429.112,388.278 430.5,407.5C 430.032,423.605 422.032,433.771 406.5,438C 390.867,439.108 375.2,439.608 359.5,439.5C 346.167,439.333 332.833,439.167 319.5,439C 296.809,436.126 286.642,423.293 289,400.5C 293.514,385.172 303.681,376.839 319.5,375.5 Z"/></g>
<g><path style="opacity:0.957" fill="#000000" d="M 309.5,359.5 C 342.835,359.333 376.168,359.5 409.5,360C 437.921,368.654 450.421,387.82 447,417.5C 441.833,437.333 429.333,449.833 409.5,455C 376.167,455.667 342.833,455.667 309.5,455C 281.079,446.346 268.579,427.18 272,397.5C 277.349,377.652 289.849,364.985 309.5,359.5 Z M 319.5,375.5 C 303.681,376.839 293.514,385.172 289,400.5C 286.642,423.293 296.809,436.126 319.5,439C 332.833,439.167 346.167,439.333 359.5,439.5C 375.2,439.608 390.867,439.108 406.5,438C 422.032,433.771 430.032,423.605 430.5,407.5C 429.112,388.278 418.778,377.778 399.5,376C 372.835,375.5 346.169,375.333 319.5,375.5 Z"/></g>
</svg>
