<?xml version="1.0" encoding="UTF-8"?>
<!DOCTYPE svg PUBLIC "-//W3C//DTD SVG 1.1//EN" "http://www.w3.org/Graphics/SVG/1.1/DTD/svg11.dtd">
<svg xmlns="http://www.w3.org/2000/svg" version="1.1" width="512px" height="512px" style="shape-rendering:geometricPrecision; text-rendering:geometricPrecision; image-rendering:optimizeQuality; fill-rule:evenodd; clip-rule:evenodd" xmlns:xlink="http://www.w3.org/1999/xlink">
<g><path style="opacity:0.944" fill="#000000" d="M 235.5,-0.5 C 248.833,-0.5 262.167,-0.5 275.5,-0.5C 360.157,11.0692 419.323,56.0692 453,134.5C 480.052,214.546 466.719,286.88 413,351.5C 377.564,390.136 333.731,412.803 281.5,419.5C 281.5,432.833 281.5,446.167 281.5,459.5C 303.503,459.333 325.503,459.5 347.5,460C 356.147,462.236 362.314,467.402 366,475.5C 367.415,487.438 367.915,499.438 367.5,511.5C 292.833,511.5 218.167,511.5 143.5,511.5C 143.085,499.438 143.585,487.438 145,475.5C 148.686,467.402 154.853,462.236 163.5,460C 185.497,459.5 207.497,459.333 229.5,459.5C 229.5,446.167 229.5,432.833 229.5,419.5C 148.426,407.247 91.5931,363.58 59,288.5C 30.1124,205.279 44.4458,130.613 102,64.5C 138.823,27.1724 183.323,5.5057 235.5,-0.5 Z M 239.5,17.5 C 319.675,14.6699 380.842,47.0032 423,114.5C 456.613,177.662 456.946,240.995 424,304.5C 380.423,375.208 316.923,407.708 233.5,402C 152.743,389.239 98.5762,344.406 71,267.5C 49.7125,185.11 70.8792,115.943 134.5,60C 165.472,35.8459 200.472,21.6793 239.5,17.5 Z M 264.5,47.5 C 302.919,46.4478 329.752,63.4478 345,98.5C 355.78,137.842 344.28,168.675 310.5,191C 306.046,193.311 301.546,195.478 297,197.5C 291.468,181.967 280.802,171.967 265,167.5C 264.5,127.501 264.333,87.5014 264.5,47.5 Z M 160.5,116.5 C 200.109,115.122 227.442,132.622 242.5,169C 227.003,174.498 217.003,185.164 212.5,201C 172.501,201.5 132.501,201.667 92.5,201.5C 92.6026,154.902 115.269,126.569 160.5,116.5 Z M 249.5,185.5 C 270.977,184.81 281.144,195.143 280,216.5C 272.745,234.208 260.245,239.374 242.5,232C 229.54,222.083 227.04,209.916 235,195.5C 238.977,190.774 243.811,187.441 249.5,185.5 Z M 297.5,219.5 C 337.833,219.5 378.167,219.5 418.5,219.5C 418.884,263.597 397.884,291.43 355.5,303C 313.849,307.348 284.849,290.348 268.5,252C 284.379,246.626 294.045,235.792 297.5,219.5 Z M 212.5,223.5 C 213.376,223.369 214.043,223.702 214.5,224.5C 219.91,239.914 230.577,249.248 246.5,252.5C 246.5,292.833 246.5,333.167 246.5,373.5C 210.604,374.478 184.437,359.144 168,327.5C 155.542,293.169 162.376,263.336 188.5,238C 196.098,232.374 204.098,227.54 212.5,223.5 Z M 247.5,425.5 C 252.833,425.5 258.167,425.5 263.5,425.5C 263.5,436.833 263.5,448.167 263.5,459.5C 258.167,459.5 252.833,459.5 247.5,459.5C 247.5,448.167 247.5,436.833 247.5,425.5 Z M 167.5,477.5 C 226.168,477.333 284.834,477.5 343.5,478C 345.939,478.774 347.773,480.274 349,482.5C 349.499,486.152 349.665,489.818 349.5,493.5C 286.833,493.5 224.167,493.5 161.5,493.5C 161.335,489.818 161.501,486.152 162,482.5C 163.406,480.256 165.239,478.59 167.5,477.5 Z"/></g>
<g><path style="opacity:0.946" fill="#000000" d="M 251.5,29.5 C 302.185,23.515 338.685,43.1816 361,88.5C 375.284,130.437 366.45,166.604 334.5,197C 332.5,198.333 330.5,199.667 328.5,201C 362.833,201.333 397.167,201.667 431.5,202C 443.149,244.918 430.815,279.918 394.5,307C 366.648,324.111 337.314,327.111 306.5,316C 289.801,309.305 275.968,298.805 265,284.5C 264.667,318.167 264.333,351.833 264,385.5C 263.167,388.333 261.333,390.167 258.5,391C 217.033,396.417 183.866,382.583 159,349.5C 138.36,314.165 138.36,278.832 159,243.5C 165.462,234.704 172.962,226.871 181.5,220C 147.833,219.667 114.167,219.333 80.5,219C 78.3762,217.878 76.5429,216.378 75,214.5C 69.1818,173.592 82.3484,140.425 114.5,115C 143.112,96.8356 173.445,93.5023 205.5,105C 221.666,112.008 235.166,122.508 246,136.5C 246.333,102.5 246.667,68.5 247,34.5C 248.366,32.6383 249.866,30.9717 251.5,29.5 Z M 264.5,47.5 C 264.333,87.5014 264.5,127.501 265,167.5C 280.802,171.967 291.468,181.967 297,197.5C 301.546,195.478 306.046,193.311 310.5,191C 344.28,168.675 355.78,137.842 345,98.5C 329.752,63.4478 302.919,46.4478 264.5,47.5 Z M 160.5,116.5 C 115.269,126.569 92.6026,154.902 92.5,201.5C 132.501,201.667 172.501,201.5 212.5,201C 217.003,185.164 227.003,174.498 242.5,169C 227.442,132.622 200.109,115.122 160.5,116.5 Z M 249.5,185.5 C 243.811,187.441 238.977,190.774 235,195.5C 227.04,209.916 229.54,222.083 242.5,232C 260.245,239.374 272.745,234.208 280,216.5C 281.144,195.143 270.977,184.81 249.5,185.5 Z M 297.5,219.5 C 294.045,235.792 284.379,246.626 268.5,252C 284.849,290.348 313.849,307.348 355.5,303C 397.884,291.43 418.884,263.597 418.5,219.5C 378.167,219.5 337.833,219.5 297.5,219.5 Z M 212.5,223.5 C 204.098,227.54 196.098,232.374 188.5,238C 162.376,263.336 155.542,293.169 168,327.5C 184.437,359.144 210.604,374.478 246.5,373.5C 246.5,333.167 246.5,292.833 246.5,252.5C 230.577,249.248 219.91,239.914 214.5,224.5C 214.043,223.702 213.376,223.369 212.5,223.5 Z"/></g>
</svg>
