<?xml version="1.0" encoding="UTF-8"?>
<svg version="1.1" xmlns="http://www.w3.org/2000/svg" width="512" height="512">
<path d="M0 0 C0.74630141 -0.00581376 1.49260283 -0.01162753 2.26151943 -0.01761746 C4.77651775 -0.03228152 7.29054987 -0.018303 9.80554199 -0.00457001 C11.6210607 -0.0091764 13.43657569 -0.01552756 15.25208282 -0.02347898 C20.25211632 -0.04023135 25.25184582 -0.03189918 30.25188065 -0.01953411 C35.6398249 -0.01051005 41.02771567 -0.02444018 46.41564941 -0.0354538 C56.97499475 -0.05327192 67.53422658 -0.04938438 78.09357643 -0.03780323 C86.67278604 -0.02878212 95.25196377 -0.02753917 103.83117676 -0.0318985 C105.05063885 -0.03251143 106.27010095 -0.03312436 107.52651644 -0.03375587 C110.00356739 -0.03503473 112.48061833 -0.03633158 114.95766926 -0.03764623 C138.20350517 -0.04906168 161.44927807 -0.0359232 184.69510365 -0.01444477 C204.65577612 0.00342707 224.61635557 0.00032323 244.57702637 -0.01811981 C267.73775516 -0.03950949 290.89842867 -0.04796296 314.05916595 -0.03567076 C316.52727762 -0.03439651 318.99538929 -0.03313903 321.46350098 -0.0318985 C323.28519955 -0.03097285 323.28519955 -0.03097285 325.14370012 -0.03002849 C333.71597142 -0.02656988 342.28820775 -0.03241493 350.86047363 -0.04181671 C361.30239191 -0.05301695 371.74418986 -0.05003831 382.18609428 -0.02869374 C387.51718649 -0.0181567 392.84807783 -0.01410658 398.1791687 -0.02729034 C403.05460708 -0.03916523 407.92965746 -0.03273308 412.80506039 -0.01138014 C414.57350243 -0.00689318 416.34197692 -0.00922691 418.11039829 -0.01888329 C420.50563091 -0.03096417 422.89951668 -0.01865855 425.29467773 0 C425.98893828 -0.00936466 426.68319883 -0.01872933 427.39849758 -0.02837777 C430.73110216 0.02387623 432.40222153 0.31454314 435.07513428 2.37356997 C437.0803322 5.08992109 437.15394284 6.67624577 437.16491699 10.03461456 C437.17752563 11.14256378 437.19013428 12.250513 437.203125 13.39203644 C437.19097961 15.17964386 437.19097961 15.17964386 437.17858887 17.00336456 C437.18241577 18.23119659 437.18624268 19.45902863 437.19018555 20.72406769 C437.19290728 23.31977915 437.18552798 25.91551792 437.16882324 28.51117706 C437.14741961 32.48836056 437.16861849 36.46373738 437.19421387 40.44086456 C437.19157064 42.96170189 437.18644577 45.48253809 437.17858887 48.00336456 C437.18668579 49.19510284 437.19478271 50.38684113 437.203125 51.61469269 C437.18421204 53.27661652 437.18421204 53.27661652 437.16491699 54.97211456 C437.16173462 55.94600128 437.15855225 56.919888 437.15527344 57.92328644 C436.47775507 61.36477365 435.41857922 62.36859297 432.64733887 64.50336456 C430.05431295 64.89574142 427.88540643 65.04167466 425.29467773 65.00672913 C424.54837632 65.01254289 423.80207491 65.01835665 423.0331583 65.02434659 C420.51815998 65.03901064 418.00412786 65.02503213 415.48913574 65.01129913 C413.67361703 65.01590553 411.85810205 65.02225668 410.04259491 65.03020811 C405.04256141 65.04696048 400.04283192 65.0386283 395.04279709 65.02626324 C389.65485283 65.01723917 384.26696206 65.0311693 378.87902832 65.04218292 C368.31968298 65.06000105 357.76045115 65.0561135 347.2011013 65.04453236 C338.62189169 65.03551125 330.04271397 65.0342683 321.46350098 65.03862762 C320.24403888 65.03924056 319.02457679 65.03985349 317.7681613 65.04048499 C315.29111035 65.04176385 312.81405941 65.0430607 310.33700848 65.04437536 C287.09117256 65.05579081 263.84539967 65.04265232 240.59957409 65.02117389 C220.63890161 65.00330206 200.67832217 65.00640589 180.71765137 65.02484894 C157.55692258 65.04623861 134.39624907 65.05469208 111.23551178 65.04239988 C108.76740011 65.04112564 106.29928844 65.03986816 103.83117676 65.03862762 C102.61671104 65.03801052 101.40224532 65.03739342 100.15097761 65.03675762 C91.57870631 65.03329901 83.00646998 65.03914406 74.4342041 65.04854584 C63.99228583 65.05974607 53.55048788 65.05676743 43.10858345 65.03542286 C37.77749125 65.02488582 32.4465999 65.02083571 27.11550903 65.03401947 C22.24007065 65.04589436 17.36502027 65.0394622 12.48961735 65.01810926 C10.7211753 65.01362231 8.95270082 65.01595603 7.18427944 65.02561241 C4.78904683 65.03769329 2.39516105 65.02538767 0 65.00672913 C-0.69426055 65.01609379 -1.3885211 65.02545846 -2.10381985 65.0351069 C-5.43642443 64.9828529 -7.10754379 64.69218598 -9.78045654 62.63315916 C-11.78565447 59.91680804 -11.8592651 58.33048335 -11.87023926 54.97211456 C-11.8828479 53.86416534 -11.89545654 52.75621613 -11.90844727 51.61469269 C-11.90035034 50.42295441 -11.89225342 49.23121613 -11.88391113 48.00336456 C-11.88773804 46.77553253 -11.89156494 45.5477005 -11.89550781 44.28266144 C-11.89822955 41.68694997 -11.89085024 39.0912112 -11.87414551 36.49555206 C-11.85274188 32.51836857 -11.87394076 28.54299175 -11.89953613 24.56586456 C-11.89689291 22.04502723 -11.89176804 19.52419103 -11.88391113 17.00336456 C-11.89200806 15.81162628 -11.90010498 14.619888 -11.90844727 13.39203644 C-11.89583862 12.28408722 -11.88322998 11.176138 -11.87023926 10.03461456 C-11.86705688 9.06072784 -11.86387451 8.08684113 -11.8605957 7.08344269 C-10.57331013 0.54461358 -5.83461239 -0.07870127 0 0 Z M4.64733887 16.50336456 C4.64733887 27.06336456 4.64733887 37.62336456 4.64733887 48.50336456 C41.60733887 48.50336456 78.56733887 48.50336456 116.64733887 48.50336456 C116.64733887 37.94336456 116.64733887 27.38336456 116.64733887 16.50336456 C79.68733887 16.50336456 42.72733887 16.50336456 4.64733887 16.50336456 Z M132.64733887 16.50336456 C132.64733887 27.06336456 132.64733887 37.62336456 132.64733887 48.50336456 C217.12733887 48.50336456 301.60733887 48.50336456 388.64733887 48.50336456 C388.64733887 37.94336456 388.64733887 27.38336456 388.64733887 16.50336456 C304.16733887 16.50336456 219.68733887 16.50336456 132.64733887 16.50336456 Z M404.64733887 16.50336456 C404.64733887 27.06336456 404.64733887 37.62336456 404.64733887 48.50336456 C409.92733887 48.50336456 415.20733887 48.50336456 420.64733887 48.50336456 C420.64733887 37.94336456 420.64733887 27.38336456 420.64733887 16.50336456 C415.36733887 16.50336456 410.08733887 16.50336456 404.64733887 16.50336456 Z " fill="#000000" transform="translate(43.3526611328125,311.4966354370117)"/>
<path d="M0 0 C2.15511245 -0.00269918 4.31022371 -0.00658513 6.46533203 -0.01159668 C10.96724113 -0.01747165 15.4688313 -0.00899334 19.97070312 0.00976562 C25.71694328 0.03255363 31.4624359 0.01941981 37.20864868 -0.00452423 C41.65443468 -0.01903632 46.1000459 -0.01435143 50.5458374 -0.00401306 C52.66355479 -0.00136072 54.78128849 -0.00456247 56.89898682 -0.01393127 C72.10244019 -0.06644504 84.32186049 0.50226049 95.875 11.53125 C103.62935603 19.65412988 106.59296147 28.18445261 107.875 39.21875 C108.82074065 47.18883784 110.31905016 52.44699895 116.3125 57.90625 C122.64628705 62.87894664 129.30901753 63.62477877 137.20703125 63.70703125 C158.29814653 64.07020824 174.50194393 66.00703455 192.875 76.53125 C193.72578125 77.01464844 194.5765625 77.49804688 195.453125 77.99609375 C214.53160987 89.83436224 227.88443696 109.27331202 233.3125 130.90625 C234.66145236 136.86195016 235.27042068 142.74131676 235.375 148.84375 C235.40291626 149.91085205 235.40291626 149.91085205 235.43139648 150.99951172 C235.38965878 154.35230533 235.08403419 156.24382798 233.09375 158.98046875 C230.75327628 160.61632802 229.69029457 161.07523898 226.875 161.03125 C225.885 161.04671875 225.885 161.04671875 224.875 161.0625 C221.78630761 160.24206609 220.75247404 159.13420233 218.875 156.53125 C218.06921853 153.46317023 217.76854065 150.36864298 217.4375 147.21875 C214.72654901 126.23166095 206.37603667 110.05886831 190.0625 96.28125 C175.65271737 85.26853477 159.27327117 81.74321506 141.5 81.35546875 C140.41203125 81.33162109 139.3240625 81.30777344 138.203125 81.28320312 C135.98457094 81.24023817 133.76575909 81.20898556 131.546875 81.18945312 C118.60965348 80.8598912 108.8639395 76.85233712 99.90234375 67.46484375 C93.39796177 59.74520569 91.02718057 51.76038107 89.875 41.84375 C88.92925935 33.87366216 87.43094984 28.61550105 81.4375 23.15625 C74.65845409 17.83397779 67.39061051 17.38064383 58.99291992 17.38598633 C58.22621475 17.38262772 57.45950958 17.3792691 56.66957092 17.37580872 C54.14818681 17.36635104 51.62686948 17.36435817 49.10546875 17.36328125 C47.3419848 17.3600649 45.5785011 17.35670054 43.8150177 17.35319519 C40.12235903 17.34721676 36.42972372 17.34535395 32.73706055 17.34594727 C28.02311935 17.34604877 23.30932916 17.33240246 18.5954237 17.31517506 C14.95355044 17.30401431 11.31171321 17.30202931 7.6698246 17.30255699 C5.9328287 17.30138279 4.19583169 17.2969927 2.45885277 17.28922462 C-13.72682366 16.97364084 -13.72682366 16.97364084 -28.125 23.53125 C-28.785 23.53125 -29.445 23.53125 -30.125 23.53125 C-30.81274405 24.85383472 -31.47211373 26.19111503 -32.125 27.53125 C-32.66125 28.52125 -33.1975 29.51125 -33.75 30.53125 C-36.14335943 36.23849172 -36.32282375 43.15360286 -34.2578125 48.9765625 C-33.23164691 51.06977743 -33.23164691 51.06977743 -32.09765625 52.91015625 C-31.125 54.53125 -31.125 54.53125 -30.125 57.53125 C-28.42730766 58.63293984 -28.42730766 58.63293984 -26.125 59.53125 C-24.454375 60.3046875 -24.454375 60.3046875 -22.75 61.09375 C-17.16236915 63.30953465 -12.02968486 63.6561044 -6.05322266 63.6730957 C-5.37269333 63.67657013 -4.692164 63.68004456 -3.99101257 63.68362427 C-2.5227603 63.69093817 -1.05449729 63.69630662 0.41376877 63.69991493 C2.74367786 63.70713268 5.07338266 63.72283744 7.40322876 63.74125671 C14.02432489 63.79348315 20.64530375 63.84168441 27.26660156 63.85717773 C31.32620847 63.86729626 35.38529145 63.89671137 39.4446907 63.93849754 C40.98430025 63.95075077 42.52398392 63.95593924 44.06364059 63.95369911 C53.43598794 63.94341576 60.75164168 64.04161718 68.1171875 70.49609375 C73.19471988 76.63043311 74.98774489 81.38742611 76.21484375 89.2265625 C76.96703672 91.85256163 77.73394587 92.86999836 79.875 94.53125 C83.39867538 95.70580846 86.19007626 95.66305854 89.90991211 95.6730957 C90.97893265 95.67830734 90.97893265 95.67830734 92.06954956 95.68362427 C93.61805886 95.6909754 95.16657866 95.69632421 96.71510124 95.69991493 C99.17608445 95.70710057 101.63687057 95.7227867 104.09779358 95.74125671 C111.09552151 95.79359888 118.09314537 95.84160084 125.09106445 95.85717773 C129.3741512 95.86733542 133.65674667 95.89686208 137.93963814 95.93849754 C139.56246768 95.95071055 141.18536695 95.95594677 142.80824089 95.95369911 C158.797769 95.93701719 174.05980864 99.54720688 186.19140625 110.71875 C196.07104085 121.35482994 203.10126074 134.50843709 203.25 149.21875 C203.27835937 150.50136719 203.30671875 151.78398437 203.3359375 153.10546875 C202.875 156.53125 202.875 156.53125 201.1015625 158.95703125 C198.75461692 160.61636295 197.70667551 161.07549493 194.875 161.03125 C193.885 161.04671875 193.885 161.04671875 192.875 161.0625 C189.85854775 160.26125487 188.74702713 159.01933701 186.875 156.53125 C186.23485711 153.93049011 185.78321535 151.54156063 185.4375 148.90625 C183.59120713 137.45613118 179.07779414 127.75066604 169.44921875 120.7734375 C157.93780445 113.54168405 146.32598314 113.39524822 133.12477112 113.36258507 C130.80310388 113.35534194 128.48163868 113.33962085 126.16003418 113.32124329 C119.56456164 113.2691224 112.96920954 113.22079712 106.37353516 113.20532227 C102.32458958 113.19520497 98.27616953 113.165799 94.22743225 113.12400246 C92.69340499 113.11175387 91.1593034 113.1065599 89.62522888 113.10880089 C80.27319718 113.1191073 72.98207026 113.00660948 65.6328125 106.56640625 C60.55528012 100.43206689 58.76225511 95.67507389 57.53515625 87.8359375 C56.78296328 85.20993837 56.01605413 84.19250164 53.875 82.53125 C50.39799351 81.37224784 47.6771423 81.39956128 44.0078125 81.3894043 C42.96564323 81.38419266 42.96564323 81.38419266 41.90242004 81.37887573 C40.3931966 81.37152574 38.88396241 81.36617632 37.37472534 81.36258507 C34.97702377 81.3553999 32.57952453 81.33971464 30.18188477 81.32124329 C23.36428741 81.2688953 16.54679756 81.22088763 9.72900391 81.20532227 C5.55614081 81.19517199 1.38378298 81.16566483 -2.78887939 81.12400246 C-4.37066809 81.11178026 -5.95252847 81.10655496 -7.53436279 81.10880089 C-21.08848274 81.12329924 -31.98185024 79.21421905 -42.125 69.53125 C-50.93350953 60.30411823 -53.75074301 50.68080676 -53.59570312 38.16650391 C-53.12749528 26.33927493 -48.5766305 17.69017893 -40.05859375 9.55859375 C-27.99626302 -0.60483697 -14.97115359 -0.06623313 0 0 Z " fill="#000000" transform="translate(245.125,135.46875)"/>
</svg>
