<?xml version="1.0" encoding="UTF-8"?>
<!DOCTYPE svg PUBLIC "-//W3C//DTD SVG 1.1//EN" "http://www.w3.org/Graphics/SVG/1.1/DTD/svg11.dtd">
<svg xmlns="http://www.w3.org/2000/svg" version="1.1" width="512px" height="512px" style="shape-rendering:geometricPrecision; text-rendering:geometricPrecision; image-rendering:optimizeQuality; fill-rule:evenodd; clip-rule:evenodd" xmlns:xlink="http://www.w3.org/1999/xlink">
<g><path style="opacity:0.946" fill="#000000" d="M 234.5,-0.5 C 235.5,-0.5 236.5,-0.5 237.5,-0.5C 243.146,5.81232 249.146,11.8123 255.5,17.5C 261.854,11.8123 267.854,5.81232 273.5,-0.5C 274.5,-0.5 275.5,-0.5 276.5,-0.5C 283.479,6.81282 290.479,14.1461 297.5,21.5C 289.181,30.3191 280.681,38.9858 272,47.5C 271.333,62.8333 271.333,78.1667 272,93.5C 283.041,82.1243 294.375,71.1243 306,60.5C 313.972,67.3044 321.472,74.6377 328.5,82.5C 309.847,101.653 291.014,120.653 272,139.5C 271.833,152.18 271.333,164.846 270.5,177.5C 265.615,174.891 260.615,172.557 255.5,170.5C 250.385,172.557 245.385,174.891 240.5,177.5C 239.667,164.846 239.167,152.18 239,139.5C 219.986,120.653 201.153,101.653 182.5,82.5C 189.528,74.6377 197.028,67.3044 205,60.5C 216.625,71.1243 227.959,82.1243 239,93.5C 239.667,78.1667 239.667,62.8333 239,47.5C 230.319,38.9858 221.819,30.3191 213.5,21.5C 220.521,14.1461 227.521,6.81282 234.5,-0.5 Z"/></g>
<g><path style="opacity:0.961" fill="#000000" d="M 432.5,91.5 C 442.446,93.7232 452.446,95.8899 462.5,98C 461.893,107.045 460.226,116.045 457.5,125C 465.723,127.379 474.056,129.379 482.5,131C 483.578,131.674 484.245,132.674 484.5,134C 482.746,142.85 480.912,151.684 479,160.5C 478.612,161.428 477.945,162.095 477,162.5C 465.301,159.824 453.634,157.158 442,154.5C 429.252,163.124 416.419,171.624 403.5,180C 419.224,183.681 434.89,187.514 450.5,191.5C 448.144,201.113 445.977,210.78 444,220.5C 443.439,221.022 442.772,221.355 442,221.5C 416.3,215.827 390.633,210.161 365,204.5C 354.153,212.164 342.987,219.164 331.5,225.5C 331.829,219.463 331.496,213.463 330.5,207.5C 325.341,205.088 320.341,202.421 315.5,199.5C 325.49,192.17 335.824,185.337 346.5,179C 347.126,178.25 347.626,177.416 348,176.5C 353.187,151.086 358.687,125.753 364.5,100.5C 365,100.167 365.5,99.8333 366,99.5C 375.751,101.95 385.584,103.95 395.5,105.5C 391.873,121.468 388.706,137.468 386,153.5C 398.495,144.918 411.162,136.585 424,128.5C 427.306,116.277 430.139,103.944 432.5,91.5 Z"/></g>
<g><path style="opacity:0.96" fill="#000000" d="M 74.5,92.5 C 75.8221,92.33 76.9887,92.6634 78,93.5C 80.5103,105.207 83.1769,116.874 86,128.5C 98.7659,137.617 111.933,145.783 125.5,153C 121.918,138.427 118.584,123.76 115.5,109C 115.833,108.167 116.167,107.333 116.5,106.5C 126.396,103.621 136.229,101.621 146,100.5C 151.667,126.167 157.333,151.833 163,177.5C 173.697,185.029 184.53,192.362 195.5,199.5C 190.659,202.421 185.659,205.088 180.5,207.5C 179.669,213.807 179.169,220.141 179,226.5C 167.893,219.044 156.559,212.044 145,205.5C 119.418,210.849 93.918,216.516 68.5,222.5C 67.914,222.291 67.414,221.957 67,221.5C 65.0693,211.944 62.9026,202.444 60.5,193C 60.8333,192.5 61.1667,192 61.5,191.5C 76.8082,187.938 92.1416,184.438 107.5,181C 94.4018,172.369 81.2351,163.869 68,155.5C 56.1874,158.528 44.3541,161.028 32.5,163C 29.9173,153.426 27.584,143.76 25.5,134C 25.9054,133.055 26.572,132.388 27.5,132C 35.2016,130.491 42.8683,128.825 50.5,127C 51.428,126.612 52.0946,125.945 52.5,125C 50.1417,116.219 48.4751,107.552 47.5,99C 56.7326,97.2585 65.7326,95.0918 74.5,92.5 Z"/></g>
<g><path style="opacity:0.983" fill="#000000" d="M 253.5,203.5 C 269.48,209.988 285.146,217.321 300.5,225.5C 301.833,245.5 301.833,265.5 300.5,285.5C 285.618,293.108 270.618,300.441 255.5,307.5C 240.382,300.441 225.382,293.108 210.5,285.5C 209.167,265.5 209.167,245.5 210.5,225.5C 225.051,218.392 239.384,211.059 253.5,203.5 Z"/></g>
<g><path style="opacity:0.96" fill="#000000" d="M 331.5,284.5 C 342.89,291.732 354.39,298.732 366,305.5C 391.899,299.855 417.732,294.355 443.5,289C 446.415,299.13 448.415,309.296 449.5,319.5C 434.192,323.062 418.858,326.562 403.5,330C 416.598,338.631 429.765,347.131 443,355.5C 454.526,352.91 466.026,350.243 477.5,347.5C 478.086,347.709 478.586,348.043 479,348.5C 481.167,358.002 483.334,367.502 485.5,377C 485.095,377.945 484.428,378.612 483.5,379C 475.833,380.667 468.167,382.333 460.5,384C 459.572,384.388 458.905,385.055 458.5,386C 460.378,394.397 462.378,402.73 464.5,411C 454.339,414.124 444.006,416.457 433.5,418C 430.596,406.215 427.762,394.382 425,382.5C 412.234,373.383 399.067,365.217 385.5,358C 389.569,373.344 392.735,388.844 395,404.5C 385.333,406.833 375.667,409.167 366,411.5C 359.502,385.688 353.502,359.688 348,333.5C 337.303,325.971 326.47,318.638 315.5,311.5C 320.341,308.579 325.341,305.912 330.5,303.5C 331.496,297.202 331.83,290.868 331.5,284.5 Z"/></g>
<g><path style="opacity:0.961" fill="#000000" d="M 176.5,285.5 C 177.5,285.5 178.5,285.5 179.5,285.5C 179.171,291.537 179.504,297.537 180.5,303.5C 185.659,305.912 190.659,308.579 195.5,311.5C 185.51,318.83 175.176,325.663 164.5,332C 163.874,332.75 163.374,333.584 163,334.5C 157.813,359.914 152.313,385.247 146.5,410.5C 146,410.833 145.5,411.167 145,411.5C 135.245,409.049 125.412,407.049 115.5,405.5C 119.127,389.532 122.294,373.532 125,357.5C 112.505,366.082 99.8379,374.415 87,382.5C 83.8425,394.796 80.8425,407.13 78,419.5C 67.678,417.271 57.5113,414.605 47.5,411.5C 49.313,402.931 51.313,394.431 53.5,386C 45.2769,383.621 36.9435,381.621 28.5,380C 27.4216,379.326 26.7549,378.326 26.5,377C 28.2661,367.77 30.2661,358.604 32.5,349.5C 44.7174,350.842 56.8841,353.176 69,356.5C 81.7475,347.876 94.5809,339.376 107.5,331C 91.7978,327.227 76.1312,323.394 60.5,319.5C 62.7738,309.627 65.1071,299.793 67.5,290C 93.7925,294.726 119.959,300.226 146,306.5C 156.32,299.601 166.486,292.601 176.5,285.5 Z"/></g>
<g><path style="opacity:0.946" fill="#000000" d="M 276.5,511.5 C 275.5,511.5 274.5,511.5 273.5,511.5C 267.854,505.188 261.854,499.188 255.5,493.5C 249.146,499.188 243.146,505.188 237.5,511.5C 236.5,511.5 235.5,511.5 234.5,511.5C 227.521,504.187 220.521,496.854 213.5,489.5C 221.819,480.681 230.319,472.014 239,463.5C 239.667,448.167 239.667,432.833 239,417.5C 227.959,428.876 216.625,439.876 205,450.5C 197.028,443.696 189.528,436.362 182.5,428.5C 201.153,409.347 219.986,390.347 239,371.5C 239.167,358.82 239.667,346.154 240.5,333.5C 245.385,336.109 250.385,338.443 255.5,340.5C 260.615,338.443 265.615,336.109 270.5,333.5C 271.333,346.154 271.833,358.82 272,371.5C 291.014,390.347 309.847,409.347 328.5,428.5C 321.472,436.362 313.972,443.696 306,450.5C 294.375,439.876 283.041,428.876 272,417.5C 271.333,432.833 271.333,448.167 272,463.5C 280.681,472.014 289.181,480.681 297.5,489.5C 290.479,496.854 283.479,504.187 276.5,511.5 Z"/></g>
</svg>
