<?xml version="1.0" encoding="UTF-8"?>
<svg version="1.1" xmlns="http://www.w3.org/2000/svg" width="512" height="512">
<path d="M0 0 C2.63983782 -0.00571156 5.27965045 -0.01258 7.91947937 -0.02079773 C14.31153883 -0.03788362 20.70349956 -0.03884702 27.0955759 -0.03358483 C32.29859826 -0.02952211 37.50159173 -0.03101145 42.70461273 -0.03633308 C43.82088363 -0.03745572 43.82088363 -0.03745572 44.95970546 -0.03860103 C46.47215329 -0.04013272 47.98460112 -0.04167107 49.49704894 -0.043216 C63.64096041 -0.05690453 77.78481636 -0.05152948 91.92872652 -0.04003078 C104.82467335 -0.03010591 117.72047654 -0.04303266 130.61640123 -0.06696498 C143.90596504 -0.09143909 157.19546219 -0.1009433 170.48504806 -0.09431225 C177.926865 -0.09083794 185.36857168 -0.09293251 192.8103714 -0.11056328 C199.14638482 -0.12538995 205.48221033 -0.12578604 211.81822047 -0.10849237 C215.04111826 -0.10006421 218.26361832 -0.09985464 221.48650932 -0.11314392 C259.07210539 -0.25617264 290.98784418 9.98482157 318.24902344 36.52905273 C325.47368259 43.78963713 331.31529194 51.66358996 336.62402344 60.40405273 C337.19008301 61.33169434 337.19008301 61.33169434 337.76757812 62.27807617 C341.98617071 69.33156297 345.27311477 76.56705193 347.93652344 84.34155273 C348.16702393 85.00783691 348.39752441 85.67412109 348.63500977 86.3605957 C353.54616139 101.6585715 354.06026282 116.55662406 354.01220703 132.46972656 C354.01628011 134.7529068 354.0216261 137.03608506 354.02813721 139.31925964 C354.04171887 145.47125989 354.03655291 151.62310786 354.02699995 157.77511048 C354.0193677 164.22521494 354.02645771 170.67530698 354.03115845 177.12541199 C354.03694824 188.63032881 354.02767977 200.13516806 354.01238044 211.64007273 C353.9989384 222.07193135 354.00134382 232.50368998 354.01513672 242.93554688 C354.03118138 255.07600884 354.03717575 267.21639247 354.02829993 279.35686702 C354.02361938 285.77475334 354.02301018 292.19257073 354.03290939 298.61045265 C354.04154972 304.63113494 354.03561105 310.65162722 354.01822662 316.67228889 C354.01424836 318.8850803 354.01541857 321.09788761 354.02201462 323.31067276 C354.03016592 326.32177973 354.01998697 329.33227071 354.00497437 332.34333801 C354.01166653 333.22638558 354.0183587 334.10943314 354.02525365 335.01923972 C353.96735638 340.97126049 353.96735638 340.97126049 352.28792822 343.08828276 C349.52599147 345.2723461 347.00189592 345.52827315 343.61157227 345.51757812 C342.81096878 345.51750259 342.0103653 345.51742706 341.1855011 345.51734924 C340.32603378 345.51218796 339.46656647 345.50702667 338.58105469 345.50170898 C337.69745773 345.50029404 336.81386078 345.49887909 335.90348816 345.49742126 C333.08113216 345.49182342 330.25885546 345.47927135 327.43652344 345.46655273 C325.52311312 345.46153745 323.60970157 345.4569746 321.69628906 345.45288086 C317.00550329 345.4418547 312.31477681 345.42459157 307.62402344 345.40405273 C307.63320801 346.67240967 307.64239258 347.9407666 307.65185547 349.24755859 C307.70580514 356.69781889 305.25352349 362.28748965 300.41699219 367.89624023 C295.64419634 371.90996397 291.27753154 372.78100055 285.15332031 372.79223633 C284.43056412 372.79749329 283.70780792 372.80275024 282.96315002 372.8081665 C280.58946709 372.82130035 278.21646243 372.81265237 275.84277344 372.80249023 C274.1842028 372.80451288 272.52563303 372.80742591 270.86706543 372.81118774 C267.39713036 372.81560212 263.92742753 372.80920873 260.45751953 372.79516602 C256.01892356 372.77807454 251.58087186 372.78792049 247.14229584 372.80588341 C243.71925791 372.81674529 240.29634815 372.81326391 236.87330627 372.80550003 C235.23710566 372.80350466 233.60089326 372.80593391 231.96470642 372.81293869 C229.67440143 372.82059301 227.38496703 372.80889436 225.09472656 372.79223633 C223.79378052 372.78984955 222.49283447 372.78746277 221.15246582 372.78500366 C215.80714694 372.2078923 211.82396181 370.21441865 208.37402344 366.09155273 C202.89458204 359.19204669 203.62402344 354.74368919 203.62402344 345.40405273 C137.62402344 345.40405273 71.62402344 345.40405273 3.62402344 345.40405273 C3.62402344 349.03405273 3.62402344 352.66405273 3.62402344 356.40405273 C1.89871925 362.27008699 -1.09743903 367.15572195 -6.37597656 370.40405273 C-7.21542816 370.93597984 -7.21542816 370.93597984 -8.07183838 371.47865295 C-11.32181179 372.78392392 -14.18159281 372.68219132 -17.6796875 372.71044922 C-18.40869263 372.71877274 -19.13769775 372.72709625 -19.88879395 372.735672 C-22.2960344 372.7597425 -24.70300356 372.76854147 -27.11035156 372.77514648 C-28.78940917 372.78411684 -30.46846597 372.79323876 -32.14752197 372.80250549 C-35.66802917 372.81899127 -39.18844134 372.82669453 -42.70898438 372.82958984 C-47.20593009 372.83496557 -51.70197407 372.87261308 -56.19866562 372.91833401 C-59.66810306 372.94817743 -63.13732558 372.95531501 -66.60688019 372.95631599 C-68.2637977 372.96050582 -69.92071658 372.97289022 -71.57750702 372.99383354 C-87.20125827 373.17556984 -87.20125827 373.17556984 -93.0010376 368.75282288 C-97.91234861 363.93498745 -100.27062048 358.18859309 -100.42089844 351.36401367 C-100.42264807 349.37730437 -100.40086033 347.39060697 -100.37597656 345.40405273 C-101.19799561 345.41976318 -102.02001465 345.43547363 -102.86694336 345.45166016 C-106.59905084 345.51410347 -110.33104829 345.55307409 -114.06347656 345.59155273 C-116.00383789 345.62925781 -116.00383789 345.62925781 -117.98339844 345.66772461 C-119.23056641 345.67739258 -120.47773437 345.68706055 -121.76269531 345.69702148 C-122.90955811 345.71273193 -124.0564209 345.72844238 -125.23803711 345.74462891 C-129.01328992 345.33488195 -131.6723991 344.1076302 -134.37597656 341.40405273 C-134.48286037 338.45284343 -134.52375905 335.52475208 -134.52314758 332.57279968 C-134.52682427 331.63458887 -134.53050096 330.69637807 -134.53428906 329.72973663 C-134.54537498 326.55956511 -134.54917821 323.38942632 -134.55297852 320.21923828 C-134.5592401 317.95600275 -134.56588663 315.69276826 -134.57289124 313.42953491 C-134.59034409 307.25696408 -134.60086738 301.08440102 -134.60909677 294.91181159 C-134.61424411 291.05105247 -134.62032035 287.19029576 -134.62660789 283.32953835 C-134.64349413 272.62632202 -134.65812228 261.92310913 -134.66535664 251.21988201 C-134.66726641 248.43955674 -134.66918674 245.65923149 -134.67114258 242.87890625 C-134.67162632 242.18790472 -134.67211006 241.49690319 -134.67260846 240.78496221 C-134.68087808 229.63402734 -134.70615544 218.48320082 -134.73872326 207.33231308 C-134.77193986 195.86481196 -134.78948747 184.39738181 -134.79300088 172.92983085 C-134.7953422 166.49939465 -134.80418067 160.06912902 -134.82946205 153.63873863 C-134.85292329 147.57222659 -134.85690404 141.50599514 -134.84670067 135.43944931 C-134.84620935 133.22734831 -134.85240867 131.01523268 -134.86625671 128.80317497 C-135.08117372 92.39700048 -123.71013406 60.82119035 -98.06347656 34.65405273 C-84.91102556 21.63319204 -68.83163086 11.99450862 -51.31347656 6.02905273 C-50.65516846 5.80258057 -49.99686035 5.5761084 -49.31860352 5.34277344 C-32.97745749 0.139496 -16.99038692 -0.03334276 0 0 Z M-39.37597656 19.40405273 C-40.13087372 19.59604122 -40.88577087 19.78802971 -41.6635437 19.98583603 C-68.03249947 27.13639587 -90.92248953 45.74017425 -104.45410156 69.27954102 C-145.44213172 143.06913335 -118.37597656 281.746292 -118.37597656 329.40405273 C32.10402344 329.40405273 182.58402344 329.40405273 337.62402344 329.40405273 C353.94866468 197.30655065 353.94866468 197.30655065 310.62402344 52.40405273 C309.86089844 51.39342773 309.09777344 50.38280273 308.31152344 49.34155273 C291.68751255 31.17112223 266.95425349 19.24582993 242.62402344 16.40405273 C238.99803551 16.26034572 235.3753198 16.26049258 231.74682617 16.26361084 C230.6611202 16.26063972 229.57541424 16.2576686 228.45680809 16.25460744 C224.82373661 16.24594544 221.19069817 16.24441429 217.55761719 16.24291992 C214.95041331 16.23828992 212.34321011 16.23326502 209.73600769 16.22787476 C202.65506407 16.21432187 195.57412613 16.2082712 188.49317169 16.2038641 C184.0659015 16.20109599 179.63863347 16.19685755 175.21136475 16.19235992 C162.93719622 16.18017023 150.66302943 16.16987098 138.38885498 16.16648483 C137.21160559 16.16615548 137.21160559 16.16615548 136.01057339 16.16581948 C134.8306096 16.16549206 134.8306096 16.16549206 133.62680817 16.16515803 C132.03294372 16.16471458 130.43907928 16.16426801 128.84521484 16.16381836 C128.05461387 16.16359693 127.26401289 16.1633755 126.44945431 16.16314736 C113.65305079 16.1592035 100.85670437 16.14176074 88.06032288 16.11845884 C74.90103218 16.09469093 61.74177004 16.08228048 48.58245754 16.08111691 C41.20271633 16.0802031 33.82304948 16.07452529 26.44332886 16.0562973 C19.4961001 16.0391973 12.54901411 16.03768418 5.6017704 16.04643631 C3.06022069 16.04720419 0.51866327 16.04289708 -2.0228672 16.03297806 C-14.8234999 15.98597371 -26.95681175 16.04075936 -39.37597656 19.40405273 Z M-84.37597656 345.40405273 C-84.39110601 353.80538665 -84.39110601 353.80538665 -81.37597656 356.40405273 C-78.47592462 356.7187565 -78.47592462 356.7187565 -75.03027344 356.67871094 C-74.37970474 356.68382187 -73.72913605 356.6889328 -73.05885315 356.69419861 C-70.90405125 356.70812194 -68.74956815 356.70713604 -66.59472656 356.70483398 C-65.10021851 356.70871908 -63.60571156 356.71305336 -62.11120605 356.71781921 C-58.97725852 356.72528705 -55.84342364 356.72498586 -52.70947266 356.71972656 C-48.68739003 356.71392739 -44.66576723 356.73087055 -40.64376068 356.75407124 C-37.55716238 356.76878027 -34.47067559 356.76968424 -31.38404846 356.76656151 C-29.90083403 356.76707603 -28.41761356 356.77233821 -26.93443298 356.78237343 C-24.86320825 356.79466813 -22.79288919 356.78798978 -20.72167969 356.77636719 C-18.95201843 356.77731133 -18.95201843 356.77731133 -17.14660645 356.77827454 C-15.77514465 356.59303474 -15.77514465 356.59303474 -14.37597656 356.40405273 C-11.6363763 352.89557755 -11.6363763 352.89557755 -12.37597656 345.40405273 C-36.13597656 345.40405273 -59.89597656 345.40405273 -84.37597656 345.40405273 Z M218.62402344 345.40405273 C218.14152352 351.78283766 218.14152352 351.78283766 219.71833801 354.81317139 C222.50238609 357.13731686 224.51975739 356.88513541 228.11499023 356.8581543 C228.76891754 356.8587384 229.42284485 356.85932251 230.09658813 356.85992432 C232.25601466 356.85713961 234.41405715 356.82603315 236.57324219 356.79467773 C238.07110337 356.78721663 239.56897432 356.78152308 241.06684875 356.77752686 C245.007731 356.76226 248.9480228 356.72296997 252.88867188 356.67871094 C256.91040051 356.63778041 260.93222464 356.61952064 264.95410156 356.59936523 C272.84434637 356.55647599 280.73411144 356.48821281 288.62402344 356.40405273 C290.41534617 351.87305995 290.62766884 350.42227974 289.62402344 345.40405273 C266.19402344 345.40405273 242.76402344 345.40405273 218.62402344 345.40405273 Z " fill="#000000" transform="translate(146.3759765625,139.595947265625)"/>
<path d="M0 0 C0.84376233 -0.00384115 1.68752467 -0.00768229 2.55685556 -0.01163983 C3.47883001 -0.01077335 4.40080447 -0.00990687 5.35071754 -0.00901413 C6.33403797 -0.01198525 7.31735839 -0.01495637 8.3304764 -0.01801753 C11.63456478 -0.02670841 14.93861693 -0.0282131 18.24271584 -0.02970505 C20.60792557 -0.03433288 22.97313455 -0.03935749 25.33834267 -0.04475021 C31.77012041 -0.05787805 38.20189121 -0.06435639 44.63367987 -0.06876087 C48.6499625 -0.07152458 52.66624272 -0.07576212 56.68252373 -0.08026505 C67.80365727 -0.09245545 78.92478888 -0.1027558 90.04592896 -0.10614014 C91.11324564 -0.10646949 91.11324564 -0.10646949 92.20212428 -0.10680549 C93.27198024 -0.10713291 93.27198024 -0.10713291 94.36344945 -0.10746694 C95.80871924 -0.1079104 97.25398902 -0.10835696 98.6992588 -0.10880661 C99.4161611 -0.10902804 100.13306339 -0.10924947 100.87168999 -0.10947761 C112.49099257 -0.1134266 124.11023247 -0.13088469 135.72951083 -0.15416613 C147.66033986 -0.17787884 159.59113744 -0.19034192 171.52199042 -0.19150805 C178.22018047 -0.19242477 184.91827642 -0.19849467 191.61644554 -0.21632767 C197.91519813 -0.23277114 204.21379543 -0.23498192 210.5125618 -0.22618866 C212.82568146 -0.22541634 215.13880934 -0.22978658 217.45190811 -0.23964691 C220.60708495 -0.25230931 223.76170704 -0.24652044 226.91687965 -0.23606491 C227.83439267 -0.24412132 228.75190568 -0.25217772 229.69722211 -0.26047826 C234.78842659 -0.22095986 238.36757362 0.25552951 242.76078224 3.13142776 C244.9514064 7.51267608 244.02911026 13.3847412 244.05594826 18.25227737 C244.07313673 20.42553015 244.11702031 22.59725122 244.16117287 24.77009964 C244.1713025 26.15745827 244.17981776 27.54482981 244.18656349 28.93220901 C244.20843727 30.82193436 244.20843727 30.82193436 244.23075294 32.74983597 C243.64808076 36.94235155 242.90882942 38.29706018 239.76078224 41.13142776 C236.49154328 41.88381473 233.27170644 41.79707976 229.92960548 41.75288773 C228.92037261 41.75927655 227.91113975 41.76566537 226.87132406 41.77224779 C223.47925935 41.78754529 220.08835372 41.76700403 216.69632912 41.74666214 C214.26875864 41.75016189 211.84119045 41.7558188 209.41362953 41.76347733 C203.49844913 41.7762719 197.5835807 41.76576235 191.66845047 41.74436408 C184.78180757 41.72036485 177.89524343 41.72206778 171.00856799 41.72466999 C158.72196265 41.72836113 146.43551902 41.70752645 134.14896584 41.67341995 C122.22346853 41.64032795 110.29814094 41.62616153 98.37259865 41.63240433 C85.39023683 41.63916691 72.40794613 41.63671189 59.42559481 41.61704493 C58.73921852 41.61600544 58.05284224 41.61496595 57.34566668 41.61389497 C55.96707088 41.61180405 54.58847511 41.60969308 53.20987937 41.6075618 C48.40819171 41.60066339 43.60652595 41.59999736 38.80483437 41.60144424 C32.34355094 41.60303348 25.88242836 41.58815072 19.42119598 41.56221771 C17.04597333 41.55503908 14.67072903 41.5529804 12.29549789 41.55633545 C9.06076202 41.56003384 5.82662581 41.54535939 2.591959 41.52583694 C1.64527462 41.53116487 0.69859023 41.5364928 -0.27678156 41.54198217 C-6.55991791 41.47626517 -6.55991791 41.47626517 -9.82230949 39.8201561 C-12.1414136 37.05615442 -11.78904567 33.94464362 -11.73531151 30.50642776 C-11.73676674 29.7631221 -11.73822197 29.01981644 -11.7397213 28.25398636 C-11.73806268 26.68379671 -11.72650523 25.11359075 -11.70577049 23.54353714 C-11.67681908 21.13984007 -11.68515942 18.73834907 -11.69820213 16.33455276 C-11.6919644 14.80850038 -11.68357318 13.28245496 -11.67281151 11.75642776 C-11.67574715 11.03761429 -11.67868279 10.31880081 -11.68170738 9.57820511 C-11.62755776 6.71453037 -11.57720743 4.63799229 -9.96211815 2.21736526 C-6.82364298 0.23919642 -3.64560118 0.00624783 0 0 Z M4.76078224 16.13142776 C4.76078224 19.10142776 4.76078224 22.07142776 4.76078224 25.13142776 C78.35078224 25.13142776 151.94078224 25.13142776 227.76078224 25.13142776 C227.76078224 22.16142776 227.76078224 19.19142776 227.76078224 16.13142776 C154.17078224 16.13142776 80.58078224 16.13142776 4.76078224 16.13142776 Z " fill="#000000" transform="translate(139.2392177581787,175.86857223510742)"/>
<path d="M0 0 C8.68156236 1.33562498 15.62723703 5.7642362 20.97265625 12.640625 C21.4109375 13.25679687 21.84921875 13.87296875 22.30078125 14.5078125 C22.89890625 15.3121875 23.49703125 16.1165625 24.11328125 16.9453125 C28.24761094 25.86676078 28.2589607 34.98801561 25.19921875 44.1953125 C22.32065653 51.60448134 16.30223026 57.59207414 9.46484375 61.578125 C5.65622076 63.15812144 1.74296143 63.80063988 -2.30541992 64.52001953 C-11.07643938 66.03526626 -11.07643938 66.03526626 -17.69921875 71.5078125 C-20.23722362 75.79402352 -20.23241126 79.64137296 -19.69921875 84.5078125 C-17.92016965 89.74612373 -15.58129168 91.97959616 -10.69921875 94.5078125 C-8.81087506 95.01569321 -6.91412741 95.49295641 -5.01171875 95.9453125 C0.01793453 97.22496578 0.01793453 97.22496578 2.55078125 99.7578125 C3.55075122 103.42436907 3.31596585 105.85314795 2.30078125 109.5078125 C0.73828125 111.4453125 0.73828125 111.4453125 -1.69921875 112.5078125 C-10.06983998 113.37373883 -17.62246017 111.32790989 -24.44921875 106.3828125 C-31.46629514 100.5083397 -36.02489388 93.22660608 -37.10546875 84.0625 C-37.38787448 72.9780751 -34.92030693 64.75000473 -27.32421875 56.5078125 C-20.76298265 50.66930435 -14.11070347 48.9138752 -5.51000977 47.72167969 C0.00342365 46.87624631 3.97162939 45.00724178 7.796875 40.90234375 C10.30150955 36.69331058 10.73359252 33.48591465 9.91015625 28.65234375 C8.69622331 24.38023361 6.56670005 21.55033387 3.17578125 18.7578125 C-0.30353544 17.24506611 -3.64539107 16.72617573 -7.39453125 16.23046875 C-10.35576512 15.30194627 -11.18360696 14.17587032 -12.69921875 11.5078125 C-13.18365263 7.63234146 -13.44850913 5.47789146 -11.015625 2.328125 C-7.40875332 -0.50628007 -4.45294868 -0.16311167 0 0 Z " fill="#000000" transform="translate(264.69921875,-0.5078125)"/>
<path d="M0 0 C9.2276053 2.41470045 16.1499252 8.90179937 20.9921875 16.91015625 C24.71335277 24.62652609 25.48994606 33.30264943 23.3125 41.62890625 C22.36610878 43.89630189 21.29255307 45.91171895 20 48 C19.5875 48.69738281 19.175 49.39476562 18.75 50.11328125 C13.30689682 58.3243261 6.18016645 61.70635953 -3.24145508 63.63964844 C-4.92760623 63.9579533 -6.61768987 64.25622195 -8.3112793 64.53222656 C-13.23808942 65.38172852 -16.35776222 66.32287489 -20 70 C-22.86049421 74.43869792 -23.63305877 77.7546559 -23 83 C-21.85618219 86.83430752 -20.44380857 89.91009678 -17.19921875 92.359375 C-13.81708769 94.17193456 -11.08262955 94.98898273 -7.25 95.5 C-4 96 -4 96 -1.5625 97.5625 C0.35689304 100.55675314 0.64198916 102.57979374 0.4453125 106.09375 C0 108 0 108 -2.0625 110.5 C-7.1738413 113.11004662 -11.50525068 112.26530719 -16.875 110.875 C-26.2506128 107.79729124 -32.44691902 102.77051817 -37 94 C-40.92777572 85.65347659 -41.26013177 77.15835264 -38.5 68.375 C-35.05020255 59.9314398 -29.30462837 53.76511134 -20.9921875 49.984375 C-16.59293495 48.53710131 -12.11335791 47.73222225 -7.53320312 47.07470703 C-3.52178781 46.46867294 -1.07627297 45.63888818 2 43 C2.66 43 3.32 43 4 43 C4.309375 42.21625 4.61875 41.4325 4.9375 40.625 C6 38 6 38 7 36 C7.37381854 30.39272183 7.18490827 26.83227462 4 22 C-0.59821487 17.71269646 -5.16468058 16.63999043 -11.13671875 15.125 C-14 14 -14 14 -15.40625 12.09765625 C-16.33194929 8.82725809 -15.77261443 6.26875338 -15 3 C-11.5053539 -1.91754761 -5.37646062 -0.58993583 0 0 Z " fill="#000000" transform="translate(352,0)"/>
<path d="M0 0 C8.45512038 0.16201428 15.70140489 2.69872802 21.90234375 8.5625 C28.77394188 16.35815167 31.83040161 24.82738816 31.375 35.23046875 C30.13625824 44.37909276 25.74818772 52.46136502 18.39453125 58.1328125 C12.75537056 61.83024157 7.55960409 63.48576368 0.875 64.375 C-5.61352569 65.24670614 -10.10007742 66.41509548 -14.375 71.6875 C-16.38951316 76.49994811 -17.0281957 80.50201529 -15.4375 85.5 C-13.68140869 89.51725312 -11.45009823 92.38084983 -7.5 94.375 C-4.38490335 95.27491681 -1.29380879 95.99160876 1.890625 96.6015625 C4.5 97.375 4.5 97.375 6.5 100.375 C7.05820763 103.97072704 7.27028755 107.28959481 5.125 110.3125 C1.59541613 112.62030484 -1.37684122 112.79866402 -5.5 112.375 C-16.14339167 110.08826814 -22.99448301 105.05382024 -29.5 96.375 C-33.83380645 88.73147151 -34.36841851 79.30309097 -32.3359375 70.8828125 C-29.1333711 61.27511329 -23.21507493 55.3690317 -14.5 50.375 C-10.34132162 48.72701309 -6.43049272 48.01689082 -2 47.5 C4.58968291 46.53181196 7.9263353 45.29182 12.375 40.25 C14.28802547 35.36115713 14.46205874 30.29378837 12.80859375 25.27734375 C10.57244779 20.87054565 8.06255711 19.01063368 3.5 17.375 C1.18903264 16.8566152 -1.1126008 16.38741852 -3.44921875 16 C-5.88812173 15.25671528 -6.9094742 14.3437606 -8.5 12.375 C-9.54224273 9.32844433 -9.6245743 7.78705346 -8.6875 4.6875 C-6.43748783 0.30589736 -4.71988713 0.06082329 0 0 Z " fill="#000000" transform="translate(176.5,-0.375)"/>
<path d="M0 0 C5.55970863 3.24032098 9.33980284 7.25672752 11.625 13.3125 C13.15872093 20.22604203 12.77124261 25.93431945 9.625 32.3125 C6.2442894 37.43186177 2.51111113 40.63344907 -3.375 42.3125 C-11.02314037 43.2493972 -18.08391143 43.12421145 -24.375 38.3125 C-29.52342847 33.27848105 -32.42466526 27.52644422 -32.75 20.3125 C-32.47226215 13.88665605 -30.05583685 7.75329393 -25.375 3.3125 C-17.49725094 -2.00792007 -8.92878986 -4.09515926 0 0 Z M-14.8125 16.4375 C-16.76572944 19.27795506 -16.76572944 19.27795506 -15.625 22.625 C-15.2125 23.511875 -14.8 24.39875 -14.375 25.3125 C-9.7686619 26.51146731 -9.7686619 26.51146731 -5.5 25.125 C-3.81506284 22.41887926 -3.81506284 22.41887926 -3.375 19.3125 C-4.89091299 16.45920688 -4.89091299 16.45920688 -7.375 14.3125 C-11.02568864 13.39982784 -11.97255048 13.96164657 -14.8125 16.4375 Z " fill="#000000" transform="translate(447.375,338.6875)"/>
<path d="M0 0 C2.12511662 3.07697172 1.79496551 6.36703203 1.78100586 9.97827148 C1.78624771 10.76359756 1.79148956 11.54892365 1.79689026 12.35804749 C1.80331033 14.01814594 1.8019736 15.67828988 1.79345703 17.33837891 C1.78495352 19.87607049 1.81369446 22.41150588 1.84545898 24.94897461 C1.8470713 26.56290623 1.84649288 28.17684183 1.84350586 29.79077148 C1.86035683 30.92687111 1.86035683 30.92687111 1.87754822 32.08592224 C1.83158723 35.56822596 1.6157512 37.58390001 -0.46484375 40.4296875 C-3.67320354 42.66060926 -5.84111316 42.49542412 -9.65258789 41.95092773 C-12.55975862 39.73229744 -13.49240432 38.43147845 -14.65258789 34.95092773 C-14.85713207 30.85695017 -14.83838907 26.76277899 -14.83789062 22.6640625 C-14.84006869 20.65612705 -14.85856065 18.648231 -14.87719727 16.64038086 C-14.87913086 15.36485352 -14.88106445 14.08932617 -14.88305664 12.77514648 C-14.88716553 11.61072021 -14.89127441 10.44629395 -14.89550781 9.24658203 C-14.64202932 5.80768139 -13.99377414 3.1226166 -12.65258789 -0.04907227 C-8.53887924 -2.67727501 -4.16677076 -2.64508996 0 0 Z " fill="#000000" transform="translate(443.652587890625,270.049072265625)"/>
</svg>
