<?xml version="1.0" encoding="UTF-8"?>
<!DOCTYPE svg PUBLIC "-//W3C//DTD SVG 1.1//EN" "http://www.w3.org/Graphics/SVG/1.1/DTD/svg11.dtd">
<svg xmlns="http://www.w3.org/2000/svg" version="1.1" width="512px" height="512px" style="shape-rendering:geometricPrecision; text-rendering:geometricPrecision; image-rendering:optimizeQuality; fill-rule:evenodd; clip-rule:evenodd" xmlns:xlink="http://www.w3.org/1999/xlink">
<g><path style="opacity:0.981" fill="#000000" d="M 75.5,16.5 C 195.5,16.3333 315.5,16.5 435.5,17C 467.667,23.8333 487.167,43.3333 494,75.5C 494.667,195.5 494.667,315.5 494,435.5C 487.167,467.667 467.667,487.167 435.5,494C 315.5,494.667 195.5,494.667 75.5,494C 43.3333,487.167 23.8333,467.667 17,435.5C 16.3333,315.5 16.3333,195.5 17,75.5C 24.0138,43.32 43.5138,23.6533 75.5,16.5 Z M 86.5,30.5 C 199.167,30.3333 311.834,30.5 424.5,31C 458.135,34.9681 476.635,53.8015 480,87.5C 480.667,199.5 480.667,311.5 480,423.5C 476.635,457.199 458.135,476.032 424.5,480C 311.833,480.667 199.167,480.667 86.5,480C 52.8652,476.032 34.3652,457.199 31,423.5C 30.3333,311.5 30.3333,199.5 31,87.5C 34.5442,53.7906 53.0442,34.7906 86.5,30.5 Z M 170.5,103.5 C 207.502,103.333 244.502,103.5 281.5,104C 313.663,109.331 336.496,126.831 350,156.5C 362.945,196.237 353.445,229.403 321.5,256C 310.919,263.455 299.252,268.455 286.5,271C 260.528,272.257 234.528,272.924 208.5,273C 207.667,273.833 206.833,274.667 206,275.5C 204.511,319.415 204.011,363.415 204.5,407.5C 193.167,407.5 181.833,407.5 170.5,407.5C 170.5,306.167 170.5,204.833 170.5,103.5 Z M 219.5,148.5 C 238.17,148.333 256.836,148.5 275.5,149C 290.896,151.277 301.063,159.777 306,174.5C 310.126,193.411 303.959,207.911 287.5,218C 283.653,219.616 279.653,220.616 275.5,221C 256.836,221.5 238.17,221.667 219.5,221.5C 219.5,197.167 219.5,172.833 219.5,148.5 Z"/></g>
<g><path style="opacity:0.95" fill="#000000" d="M 160.5,88.5 C 201.168,88.3333 241.835,88.5 282.5,89C 324.91,95.4518 353.077,118.952 367,159.5C 377.974,207.345 363.474,245.178 323.5,273C 309.851,280.883 295.184,285.55 279.5,287C 259.503,287.5 239.503,287.667 219.5,287.5C 219.667,331.168 219.5,374.835 219,418.5C 218.5,420.333 217.333,421.5 215.5,422C 197.167,422.667 178.833,422.667 160.5,422C 159.069,421.535 157.903,420.701 157,419.5C 156.333,310.167 156.333,200.833 157,91.5C 158.145,90.3636 159.312,89.3636 160.5,88.5 Z M 170.5,103.5 C 170.5,204.833 170.5,306.167 170.5,407.5C 181.833,407.5 193.167,407.5 204.5,407.5C 204.011,363.415 204.511,319.415 206,275.5C 206.833,274.667 207.667,273.833 208.5,273C 234.528,272.924 260.528,272.257 286.5,271C 299.252,268.455 310.919,263.455 321.5,256C 353.445,229.403 362.945,196.237 350,156.5C 336.496,126.831 313.663,109.331 281.5,104C 244.502,103.5 207.502,103.333 170.5,103.5 Z M 219.5,148.5 C 219.5,172.833 219.5,197.167 219.5,221.5C 238.17,221.667 256.836,221.5 275.5,221C 279.653,220.616 283.653,219.616 287.5,218C 303.959,207.911 310.126,193.411 306,174.5C 301.063,159.777 290.896,151.277 275.5,149C 256.836,148.5 238.17,148.333 219.5,148.5 Z"/></g>
<g><path style="opacity:0.927" fill="#000000" d="M 210.5,133.5 C 235.195,133.093 259.862,133.593 284.5,135C 311.897,144.262 324.397,163.429 322,192.5C 318.327,214.503 305.827,228.67 284.5,235C 270.862,236.073 257.195,236.573 243.5,236.5C 231.446,236.625 219.446,236.125 207.5,235C 206.299,234.097 205.465,232.931 205,231.5C 204.333,200.5 204.333,169.5 205,138.5C 206.107,135.887 207.94,134.22 210.5,133.5 Z M 219.5,148.5 C 219.5,172.833 219.5,197.167 219.5,221.5C 238.17,221.667 256.836,221.5 275.5,221C 279.653,220.616 283.653,219.616 287.5,218C 303.959,207.911 310.126,193.411 306,174.5C 301.063,159.777 290.896,151.277 275.5,149C 256.836,148.5 238.17,148.333 219.5,148.5 Z"/></g>
</svg>
