<?xml version="1.0" encoding="UTF-8"?>
<!DOCTYPE svg PUBLIC "-//W3C//DTD SVG 1.1//EN" "http://www.w3.org/Graphics/SVG/1.1/DTD/svg11.dtd">
<svg xmlns="http://www.w3.org/2000/svg" version="1.1" width="512px" height="512px" style="shape-rendering:geometricPrecision; text-rendering:geometricPrecision; image-rendering:optimizeQuality; fill-rule:evenodd; clip-rule:evenodd" xmlns:xlink="http://www.w3.org/1999/xlink">
<g><path style="opacity:0.952" fill="#000000" d="M 128.5,43.5 C 138.767,42.6513 148.101,45.1513 156.5,51C 158.833,51.1667 161.167,51.3333 163.5,51.5C 224.717,46.5248 285.884,46.8581 347,52.5C 360.99,41.68 375.49,40.8467 390.5,50C 396.512,55.6993 399.179,62.6993 398.5,71C 398.506,75.2358 398.006,79.4025 397,83.5C 394.311,87.8701 392.478,92.5367 391.5,97.5C 395.5,137.167 395.5,176.833 391.5,216.5C 393.363,222.57 395.53,228.57 398,234.5C 400.703,261.798 388.536,273.298 361.5,269C 356.777,267.804 352.443,265.804 348.5,263C 316.697,264.482 284.863,265.648 253,266.5C 222.963,265.97 192.963,264.636 163,262.5C 160.833,262.667 158.667,262.833 156.5,263C 144.056,271.65 131.056,272.65 117.5,266C 107.252,256.913 104.085,245.746 108,232.5C 109.774,227.786 111.941,223.286 114.5,219C 109.185,177.821 109.185,136.654 114.5,95.5C 105.537,82.4153 104.371,68.7487 111,54.5C 115.745,48.8875 121.578,45.2208 128.5,43.5 Z M 133.5,64.5 C 139.966,65.7331 145.633,68.5665 150.5,73C 152.833,73.1667 155.167,73.3333 157.5,73.5C 221,68.1717 284.5,68.1717 348,73.5C 350.5,73.3333 353,73.1667 355.5,73C 361.006,67.2423 367.673,64.909 375.5,66C 377.347,68.5791 377.847,71.4124 377,74.5C 375.444,79.2798 373.111,83.6131 370,87.5C 369.833,89.1667 369.667,90.8333 369.5,92.5C 374.833,135.5 374.833,178.5 369.5,221.5C 369.667,223.167 369.833,224.833 370,226.5C 373.111,230.387 375.444,234.72 377,239.5C 378.924,245.008 377.091,248.341 371.5,249.5C 365.286,247.726 359.619,244.893 354.5,241C 333.181,241.881 311.848,242.881 290.5,244C 245.933,245.312 201.433,244.146 157,240.5C 154.833,240.667 152.667,240.833 150.5,241C 145.645,245.428 139.978,248.261 133.5,249.5C 130.5,248.5 128.5,246.5 127.5,243.5C 130.081,236.275 133.081,229.275 136.5,222.5C 131.179,178.834 131.179,135.167 136.5,91.5C 133.272,84.7704 130.272,77.9371 127.5,71C 128.364,67.6403 130.364,65.4737 133.5,64.5 Z"/></g>
<g><path style="opacity:0.943" fill="#000000" d="M 410.5,207.5 C 413.941,207.301 417.274,207.801 420.5,209C 438.06,215.447 455.393,222.447 472.5,230C 485.906,239.846 492.239,253.179 491.5,270C 492.051,284.529 487.051,296.696 476.5,306.5C 482.836,312.333 487.336,319.333 490,327.5C 492.044,339.974 491.377,352.307 488,364.5C 484.378,373.456 478.545,380.623 470.5,386C 421.833,409.667 373.167,433.333 324.5,457C 298.551,468.431 271.885,470.431 244.5,463C 182.789,445.822 121.122,428.489 59.5,411C 38.6309,402.133 25.7976,386.633 21,364.5C 19.0162,343.832 19.0162,323.165 21,302.5C 24.2226,286.213 32.3893,273.046 45.5,263C 56.1667,256.667 66.8333,250.333 77.5,244C 89.7773,242.387 94.2773,247.553 91,259.5C 89.8333,261.333 88.3333,262.833 86.5,264C 76.5,270 66.5,276 56.5,282C 50.0049,287.5 45.5049,294.333 43,302.5C 41.3983,321.456 41.065,340.456 42,359.5C 45.7198,377.553 56.5531,388.72 74.5,393C 135.5,410 196.5,427 257.5,444C 275.9,447.522 293.9,445.855 311.5,439C 360.833,415 410.167,391 459.5,367C 465.063,363.386 468.23,358.219 469,351.5C 469.667,345.167 469.667,338.833 469,332.5C 465.625,326.433 461.292,321.1 456,316.5C 435.241,325.796 414.407,334.962 393.5,344C 373.581,354.265 353.914,364.931 334.5,376C 326.401,377.114 321.735,373.614 320.5,365.5C 321.036,363.058 321.869,360.725 323,358.5C 364.061,333.22 407.227,312.054 452.5,295C 467.688,288.451 473.188,276.951 469,260.5C 466.987,253.819 462.82,248.986 456.5,246C 440.055,239.944 423.722,233.611 407.5,227C 403.741,223.257 402.574,218.757 404,213.5C 405.494,210.686 407.66,208.686 410.5,207.5 Z"/></g>
<g><path style="opacity:0.941" fill="#000000" d="M 290.5,307.5 C 302.45,305.946 307.284,310.946 305,322.5C 298.751,327.745 292.751,333.412 287,339.5C 281.722,346.66 278.389,354.66 277,363.5C 276.667,372.167 276.333,380.833 276,389.5C 270.221,399.206 263.554,399.873 256,391.5C 249.702,355.835 261.202,327.835 290.5,307.5 Z"/></g>
</svg>
