<?xml version="1.0" encoding="UTF-8"?>
<!DOCTYPE svg PUBLIC "-//W3C//DTD SVG 1.1//EN" "http://www.w3.org/Graphics/SVG/1.1/DTD/svg11.dtd">
<svg xmlns="http://www.w3.org/2000/svg" version="1.1" width="512px" height="512px" style="shape-rendering:geometricPrecision; text-rendering:geometricPrecision; image-rendering:optimizeQuality; fill-rule:evenodd; clip-rule:evenodd" xmlns:xlink="http://www.w3.org/1999/xlink">
<g><path style="opacity:0.94" fill="#000000" d="M 105.5,6.5 C 112.533,6.50269 119.533,7.00269 126.5,8C 202.481,21.6079 278.481,35.1079 354.5,48.5C 371.345,42.1612 388.012,35.3279 404.5,28C 410.15,26.2425 413.983,28.0758 416,33.5C 416.667,90.8333 416.667,148.167 416,205.5C 413.103,210.155 408.937,211.655 403.5,210C 387.494,202.746 371.328,195.913 355,189.5C 290.176,201.054 225.343,212.554 160.5,224C 158.808,225.401 158.141,227.234 158.5,229.5C 178.074,229.586 186.407,239.419 183.5,259C 186.556,278.767 178.223,288.267 158.5,287.5C 158.667,327.835 158.5,368.168 158,408.5C 157.261,411.573 155.428,413.74 152.5,415C 141.172,415.5 129.838,415.667 118.5,415.5C 116.79,423.928 115.457,432.428 114.5,441C 115.148,445.536 115.981,450.036 117,454.5C 127.354,470.75 126.854,486.583 115.5,502C 104.964,505.997 100.464,502.497 102,491.5C 105.219,487.392 107.053,482.726 107.5,477.5C 105.31,470.774 102.81,464.107 100,457.5C 96.8101,443.525 97.3101,429.692 101.5,416C 93.0906,415.907 84.7573,415.24 76.5,414C 75.2986,413.097 74.4652,411.931 74,410.5C 65.0064,343.218 56.3397,275.885 48,208.5C 12.3544,175.547 0.0210327,135.214 11,87.5C 25.5799,40.3986 57.0799,13.3986 105.5,6.5 Z M 105.5,23.5 C 111.88,23.3928 118.213,23.8928 124.5,25C 199.121,38.4911 273.787,51.6577 348.5,64.5C 348.5,100.833 348.5,137.167 348.5,173.5C 271.855,187.062 195.189,200.562 118.5,214C 76.6821,214.196 47.5154,195.03 31,156.5C 16.3366,113.326 25.1699,75.8265 57.5,44C 71.5719,32.4591 87.5719,25.6258 105.5,23.5 Z M 396.5,49.5 C 397.5,49.5 398.5,49.5 399.5,49.5C 399.667,96.1679 399.5,142.835 399,189.5C 388,184.5 377,179.5 366,174.5C 365.333,137.5 365.333,100.5 366,63.5C 376.302,58.9295 386.468,54.2628 396.5,49.5 Z M 96.5,90.5 C 113.914,88.7734 125.414,96.1068 131,112.5C 133.534,129.602 126.701,141.102 110.5,147C 92.5698,149.712 80.7365,142.546 75,125.5C 73.0383,108.07 80.205,96.4033 96.5,90.5 Z M 66.5,220.5 C 90.5757,232.133 115.576,234.466 141.5,227.5C 141.5,284.5 141.5,341.5 141.5,398.5C 123.923,398.825 106.423,398.492 89,397.5C 81.7432,338.445 74.2432,279.445 66.5,220.5 Z M 158.5,246.5 C 160.92,246.292 163.253,246.626 165.5,247.5C 166.665,254.811 166.831,262.144 166,269.5C 163.772,271.113 161.272,271.78 158.5,271.5C 158.5,263.167 158.5,254.833 158.5,246.5 Z"/></g>
<g><path style="opacity:0.926" fill="#000000" d="M 426.5,55.5 C 432.074,54.4562 436.741,55.9562 440.5,60C 443.851,61.9277 447.351,63.4277 451,64.5C 456.565,61.3078 462.398,58.4744 468.5,56C 480.273,53.9281 491.273,55.9281 501.5,62C 505.215,65.9833 505.382,70.15 502,74.5C 499.848,75.8853 497.515,76.8853 495,77.5C 487.72,73.0722 479.886,71.5722 471.5,73C 454.693,84.407 438.86,82.907 424,68.5C 421.606,63.5272 422.44,59.1938 426.5,55.5 Z"/></g>
<g><path style="opacity:0.932" fill="#000000" d="M 94.5,73.5 C 132.15,72.6487 149.983,90.982 148,128.5C 139.892,155.486 121.725,167.319 93.5,164C 67.3279,155.852 55.4946,138.019 58,110.5C 63.0151,90.9855 75.1818,78.6522 94.5,73.5 Z M 96.5,90.5 C 80.205,96.4033 73.0383,108.07 75,125.5C 80.7365,142.546 92.5698,149.712 110.5,147C 126.701,141.102 133.534,129.602 131,112.5C 125.414,96.1068 113.914,88.7734 96.5,90.5 Z"/></g>
<g><path style="opacity:0.924" fill="#000000" d="M 426.5,102.5 C 429.187,102.336 431.854,102.503 434.5,103C 439.53,106.765 445.03,109.598 451,111.5C 456.817,108.01 462.983,105.177 469.5,103C 481.046,101.055 491.713,103.222 501.5,109.5C 504.348,114.22 504.015,118.72 500.5,123C 498.863,123.601 497.197,124.101 495.5,124.5C 491.395,123.281 487.395,121.781 483.5,120C 478.743,119.19 474.076,119.524 469.5,121C 461.926,127.582 453.259,129.582 443.5,127C 435.278,124.978 428.444,120.812 423,114.5C 421.745,109.738 422.912,105.738 426.5,102.5 Z"/></g>
<g><path style="opacity:0.922" fill="#000000" d="M 426.5,149.5 C 432.554,148.53 437.554,150.363 441.5,155C 444.613,156.779 447.946,157.945 451.5,158.5C 457.07,154.883 463.07,152.049 469.5,150C 480.079,148.285 490.079,149.951 499.5,155C 504.395,159.716 504.728,164.716 500.5,170C 498.863,170.601 497.197,171.101 495.5,171.5C 491.162,169.997 486.828,168.497 482.5,167C 479.167,166.333 475.833,166.333 472.5,167C 455.582,178.633 439.415,177.467 424,163.5C 421.541,158.203 422.375,153.536 426.5,149.5 Z"/></g>
</svg>
