<?xml version="1.0" encoding="UTF-8"?>
<!DOCTYPE svg PUBLIC "-//W3C//DTD SVG 1.1//EN" "http://www.w3.org/Graphics/SVG/1.1/DTD/svg11.dtd">
<svg xmlns="http://www.w3.org/2000/svg" version="1.1" width="512px" height="512px" style="shape-rendering:geometricPrecision; text-rendering:geometricPrecision; image-rendering:optimizeQuality; fill-rule:evenodd; clip-rule:evenodd" xmlns:xlink="http://www.w3.org/1999/xlink">
<g><path style="opacity:0.94" fill="#000000" d="M 511.5,331.5 C 511.5,338.5 511.5,345.5 511.5,352.5C 505.485,376.011 490.485,390.178 466.5,395C 454.833,395.333 443.167,395.667 431.5,396C 423.922,408.246 414.255,418.58 402.5,427C 424.167,427.333 445.833,427.667 467.5,428C 472.566,431.001 474.899,435.501 474.5,441.5C 473.905,454.546 467.572,463.379 455.5,468C 370.167,468.667 284.833,468.667 199.5,468C 188.239,467.197 177.073,465.697 166,463.5C 160.717,465.872 155.217,467.539 149.5,468.5C 138.116,467.482 130.449,461.649 126.5,451C 109.074,443.543 93.241,433.71 79,421.5C 78.6667,430.833 78.3333,440.167 78,449.5C 72.0508,465.558 60.8842,471.058 44.5,466C 38.0886,462.694 33.9219,457.528 32,450.5C 31.3333,441.833 31.3333,433.167 32,424.5C 38.4449,418.589 43.4449,419.589 47,427.5C 47.3333,434.167 47.6667,440.833 48,447.5C 50.513,451.212 54.013,452.378 58.5,451C 60.0488,449.786 61.2155,448.286 62,446.5C 62.5,394.168 62.6667,341.834 62.5,289.5C 57.5,289.5 52.5,289.5 47.5,289.5C 47.6667,323.168 47.5,356.835 47,390.5C 43.4449,398.411 38.4449,399.411 32,393.5C 31.6667,385.167 31.3333,376.833 31,368.5C 13.5771,339.73 3.07706,308.73 -0.5,275.5C -0.5,262.167 -0.5,248.833 -0.5,235.5C 1.44904,220.758 4.44904,206.091 8.5,191.5C 2.41066,162.113 7.91066,135.113 25,110.5C 36.4213,95.5236 50.9213,91.1903 68.5,97.5C 126.954,48.0555 193.621,32.2222 268.5,50C 299.715,59.2701 327.715,74.2701 352.5,95C 356.5,99.6667 356.5,104.333 352.5,109C 349.55,110.714 346.55,110.714 343.5,109C 283.024,58.4178 215.358,46.0845 140.5,72C 119.062,80.5451 99.7282,92.3785 82.5,107.5C 93.6527,122.46 100.819,139.127 104,157.5C 105.385,156.449 106.385,155.116 107,153.5C 107.333,135.833 107.667,118.167 108,100.5C 108.92,95.8125 111.42,92.3125 115.5,90C 137.103,88.3667 158.769,88.0333 180.5,89C 186,90.5 189.5,94 191,99.5C 191.499,103.152 191.665,106.818 191.5,110.5C 254.844,104.925 303.677,128.592 338,181.5C 356.776,215.426 362.276,251.426 354.5,289.5C 371.833,289.5 389.167,289.5 406.5,289.5C 413.54,243.603 406.04,200.27 384,159.5C 378,150.167 372,140.833 366,131.5C 365.902,122.623 370.069,119.789 378.5,123C 416.805,172.044 431.472,227.544 422.5,289.5C 438.17,289.333 453.837,289.5 469.5,290C 491.348,296.016 505.348,309.849 511.5,331.5 Z M 123.5,104.5 C 125.5,104.5 127.5,104.5 129.5,104.5C 129.333,121.17 129.5,137.837 130,154.5C 130.463,159.294 133.13,161.628 138,161.5C 141.274,161.699 143.607,160.366 145,157.5C 145.5,139.836 145.667,122.17 145.5,104.5C 148.167,104.5 150.833,104.5 153.5,104.5C 153.333,122.17 153.5,139.836 154,157.5C 156.955,161.277 160.788,162.443 165.5,161C 167.049,159.786 168.215,158.286 169,156.5C 169.5,139.17 169.667,121.837 169.5,104.5C 171.5,104.5 173.5,104.5 175.5,104.5C 175.667,132.169 175.5,159.835 175,187.5C 167.544,206.644 154.378,212.144 135.5,204C 130.422,200.263 126.922,195.43 125,189.5C 123.542,161.209 123.042,132.876 123.5,104.5 Z M 50.5,110.5 C 56.5411,109.593 61.8744,111.093 66.5,115C 85.248,136.426 91.4146,160.926 85,188.5C 79.1377,201.527 68.9711,208.193 54.5,208.5C 32.4264,205.918 21.4264,193.418 21.5,171C 21.7603,148.86 29.427,129.86 44.5,114C 46.7274,113.059 48.7274,111.892 50.5,110.5 Z M 201.5,125.5 C 253.025,123.921 293.192,144.254 322,186.5C 341.251,218.675 346.417,253.008 337.5,289.5C 315.497,289.333 293.497,289.5 271.5,290C 266.167,294.667 266.167,299.333 271.5,304C 323.499,304.5 375.499,304.667 427.5,304.5C 427.5,306.5 427.5,308.5 427.5,310.5C 361.5,310.5 295.5,310.5 229.5,310.5C 229.5,308.5 229.5,306.5 229.5,304.5C 234.628,304.888 239.628,304.388 244.5,303C 247.167,299 247.167,295 244.5,291C 235.602,289.391 226.602,289.058 217.5,290C 215.951,291.214 214.785,292.714 214,294.5C 213.333,315.833 213.333,337.167 214,358.5C 214.915,367.495 217.082,376.162 220.5,384.5C 204.804,386.2 189.471,384.534 174.5,379.5C 173.667,346.172 173.167,312.838 173,279.5C 172.71,277.956 172.044,276.623 171,275.5C 170.333,256.5 170.333,237.5 171,218.5C 180.463,212.587 186.796,204.254 190,193.5C 191.124,171.542 191.957,149.542 192.5,127.5C 195.64,126.911 198.64,126.244 201.5,125.5 Z M 106.5,179.5 C 107.372,195.907 114.539,208.907 128,218.5C 127.192,263.086 126.525,307.752 126,352.5C 85.048,313.028 73.048,266.028 90,211.5C 91.4213,208.991 93.0879,206.657 95,204.5C 98.9466,196.133 102.78,187.8 106.5,179.5 Z M 19.5,211.5 C 23.7986,214.113 28.1319,216.78 32.5,219.5C 32.8333,229 33.1667,238.5 33.5,248C 32.0255,276.019 31.1921,304.186 31,332.5C 14.7744,293.401 10.9411,253.067 19.5,211.5 Z M 49.5,223.5 C 52.5047,224.724 55.5047,224.724 58.5,223.5C 59.4995,240.153 59.8328,256.82 59.5,273.5C 56.1667,273.5 52.8333,273.5 49.5,273.5C 49.5,256.833 49.5,240.167 49.5,223.5 Z M 144.5,223.5 C 147.833,224.833 151.167,224.833 154.5,223.5C 154.5,240.167 154.5,256.833 154.5,273.5C 151.167,273.5 147.833,273.5 144.5,273.5C 144.5,256.833 144.5,240.167 144.5,223.5 Z M 141.5,289.5 C 146.833,289.5 152.167,289.5 157.5,289.5C 157.667,341.501 157.5,393.501 157,445.5C 154.679,451.616 150.512,453.116 144.5,450C 143.283,448.352 142.45,446.519 142,444.5C 141.5,392.834 141.333,341.168 141.5,289.5 Z M 443.5,304.5 C 461.601,302.031 476.768,307.364 489,320.5C 501.111,342.482 496.945,360.649 476.5,375C 472.637,376.732 468.637,378.066 464.5,379C 455.833,379.667 447.167,379.667 438.5,379C 439.26,377.559 439.926,376.059 440.5,374.5C 447.811,373.669 455.144,373.169 462.5,373C 481.664,365.508 488.831,351.675 484,331.5C 475.636,314.902 462.136,308.235 443.5,311.5C 443.5,309.167 443.5,306.833 443.5,304.5 Z M 78.5,315.5 C 89.7059,338.547 105.539,357.881 126,373.5C 126.833,393.175 126.666,412.842 125.5,432.5C 108.348,424.179 92.8478,413.512 79,400.5C 78.5,372.169 78.3334,343.835 78.5,315.5 Z M 229.5,326.5 C 295.5,326.5 361.5,326.5 427.5,326.5C 430.175,348.291 426.675,368.958 417,388.5C 404.191,409.328 385.691,421.828 361.5,426C 339.5,426.667 317.5,426.667 295.5,426C 268.032,420.846 248.199,405.679 236,380.5C 233.731,375.36 232.065,370.027 231,364.5C 229.652,351.875 229.152,339.209 229.5,326.5 Z M 443.5,327.5 C 448.844,327.334 454.177,327.501 459.5,328C 467.871,331.909 471.037,338.409 469,347.5C 467.167,352 464,355.167 459.5,357C 454.177,357.499 448.844,357.666 443.5,357.5C 443.5,347.5 443.5,337.5 443.5,327.5 Z M 173.5,396.5 C 191.59,401.022 209.923,402.522 228.5,401C 235.614,411.237 244.281,419.903 254.5,427C 232.833,427.333 211.167,427.667 189.5,428C 182.274,433.914 180.607,441.247 184.5,450C 181.521,450.007 178.521,449.673 175.5,449C 173.522,431.738 172.855,414.238 173.5,396.5 Z M 199.5,443.5 C 285.5,443.5 371.5,443.5 457.5,443.5C 457.262,447.138 455.596,449.971 452.5,452C 369.833,452.667 287.167,452.667 204.5,452C 201.404,449.971 199.738,447.138 199.5,443.5 Z"/></g>
</svg>
