<?xml version="1.0" encoding="UTF-8"?>
<svg version="1.1" xmlns="http://www.w3.org/2000/svg" width="512" height="512">
<path d="M0 0 C0.76759771 -0.00538554 1.53519543 -0.01077108 2.32605368 -0.01631981 C4.90019479 -0.03063645 7.47382434 -0.02348667 10.04798889 -0.01637268 C11.89266372 -0.02207432 13.73733502 -0.02903778 15.58200073 -0.03717041 C20.59438714 -0.0551398 25.60659885 -0.05392632 30.61900783 -0.04822803 C34.80155756 -0.04514161 38.98407348 -0.05122253 43.16661841 -0.05726677 C53.03270271 -0.07132283 62.89870044 -0.06974174 72.76478577 -0.05836487 C82.94750451 -0.04688244 93.12995991 -0.060959 103.31264395 -0.08776134 C112.0516028 -0.10990346 120.79047891 -0.11655908 129.52946383 -0.11068493 C134.75043928 -0.1073106 139.9712459 -0.10976199 145.1921978 -0.12693596 C150.10146206 -0.14237927 155.0103356 -0.13847861 159.91958427 -0.11963081 C161.72193832 -0.11593767 163.52432114 -0.11907445 165.32664871 -0.1295166 C167.78617125 -0.14267903 170.24439127 -0.13122223 172.70385742 -0.11352539 C173.77516581 -0.1279329 173.77516581 -0.1279329 174.8681168 -0.14263147 C179.6607256 -0.07161938 182.04037 1.016959 185.41542053 4.38768005 C191.21790887 12.31038846 195.37328777 21.06155922 199.04042053 30.13768005 C199.28532227 30.73772858 199.530224 31.3377771 199.782547 31.95600891 C209.73224587 56.41177024 218.03824905 81.58195626 225.10292053 107.01268005 C225.40688751 108.10312119 225.40688751 108.10312119 225.71699524 109.21559143 C235.80660114 145.67133341 235.6010425 178.03141767 216.62635803 211.5478363 C203.22623954 233.30008345 184.10528767 251.13100213 162.41542053 264.38768005 C161.72996155 264.80791443 161.04450256 265.2281488 160.33827209 265.66111755 C144.8412283 275.02317605 128.25021257 282.01884516 110.41542053 285.38768005 C110.42122131 286.33385193 110.42702209 287.2800238 110.43299866 288.25486755 C110.47287221 297.82697369 110.27793989 307.37694746 109.98762512 316.9440155 C108.79930165 357.16118113 108.39779217 397.67360232 111.35292053 437.82518005 C111.42752502 438.8433783 111.50212952 439.86157654 111.57899475 440.91062927 C111.81139952 443.74368622 112.09457312 446.56333295 112.41542053 449.38768005 C112.52644104 450.40748962 112.63746155 451.42729919 112.75184631 452.47801208 C112.88961487 453.47042908 113.02738342 454.46284607 113.16932678 455.4853363 C113.28735657 456.37873718 113.40538635 457.27213806 113.5269928 458.19261169 C114.23304514 460.62269054 114.23304514 460.62269054 116.8082428 461.62229919 C117.66861145 461.87487488 118.5289801 462.12745056 119.41542053 462.38768005 C120.39252991 462.76666443 121.36963928 463.1456488 122.37635803 463.53611755 C135.33776414 468.19273256 148.74153561 470.08267879 162.31776428 472.1259613 C173.10225201 473.79875259 182.25881998 475.8516533 189.35682678 484.73924255 C192.3721881 489.43474984 191.83028257 495.03288674 191.41542053 500.38768005 C189.65234058 505.67691992 186.80386941 508.18776941 182.41542053 511.38768005 C178.88665196 512.56393624 175.70502607 512.53259678 172.03375244 512.52812195 C170.89694651 512.53257863 170.89694651 512.53257863 169.73717481 512.53712535 C167.19005226 512.54581772 164.64297667 512.54732105 162.09584045 512.54881287 C160.27264302 512.55344065 158.44944655 512.55846526 156.62625122 512.56385803 C151.66750683 512.57698768 146.70877599 512.58342807 141.75001693 512.58786869 C138.65286498 512.59079846 135.55571675 512.59490308 132.45856667 512.59937286 C122.77083039 512.61304917 113.08310258 512.62271522 103.39535731 512.62657475 C92.20754387 512.63105623 81.01985255 512.64860775 69.83207625 512.67757535 C61.187405 512.69918232 52.54276813 512.70927851 43.89807016 512.71061587 C38.73351462 512.71166459 33.56907387 512.71758663 28.40454674 512.73543549 C23.54625503 512.75189914 18.6881646 512.75407995 13.82985497 512.74529648 C12.04726625 512.74452519 10.26466679 512.74888083 8.48210526 512.75875473 C6.04717656 512.7714506 3.61296329 512.76561056 1.17803955 512.75517273 C0.47384658 512.76322913 -0.2303464 512.77128554 -0.95587856 512.77958608 C-6.61340369 512.72292685 -10.46517466 511.09497837 -14.83457947 507.57518005 C-19.11128151 502.2293025 -19.25050949 495.96105386 -18.58457947 489.38768005 C-16.77124285 483.84100334 -13.32938644 480.56306717 -8.58457947 477.38768005 C0.54567483 472.96123379 10.56249987 471.82030652 20.47792053 470.32518005 C33.26623956 468.37261638 44.81899145 466.39297368 56.41542053 460.38768005 C57.07542053 460.38768005 57.73542053 460.38768005 58.41542053 460.38768005 C59.96770021 453.40194796 60.91089955 446.51735257 61.47792053 439.38768005 C61.59490295 438.03609802 61.59490295 438.03609802 61.71424866 436.6572113 C61.97197544 433.56874985 62.19535273 430.4790652 62.41542053 427.38768005 C62.50145538 426.21593231 62.58749023 425.04418457 62.6761322 423.83692932 C63.60360689 410.07203336 63.54675965 396.31369081 63.51681447 382.52338171 C63.51046828 379.0961614 63.50996839 375.66893975 63.50878906 372.24171448 C63.50570839 365.78243318 63.49754006 359.32316926 63.48743957 352.86389554 C63.47617572 345.49723618 63.47074237 338.1305759 63.46574414 330.76391006 C63.45535385 315.63849045 63.43781917 300.51308701 63.41542053 285.38768005 C62.14867493 285.23565628 60.88192932 285.08363251 59.57679749 284.92700195 C54.62300024 284.33249036 50.13286853 282.91887126 45.41542053 281.32518005 C44.4962384 281.01572449 43.57705627 280.70626892 42.63002014 280.38743591 C34.13775875 277.4392153 26.28520199 273.70100608 18.41542053 269.38768005 C17.20192953 268.74305343 15.9883884 268.09852114 14.77479553 267.4540863 C1.45294023 260.2458972 -9.67745646 250.78785227 -20.58457947 240.38768005 C-21.37606384 239.64904724 -22.16754822 238.91041443 -22.98301697 238.1493988 C-45.71318865 216.33640949 -59.98877497 186.0621233 -60.83457947 154.45018005 C-59.6874297 113.22026787 -39.88205998 31.32661684 -9.93532467 1.75932217 C-6.67495719 -0.14307769 -3.66961999 -0.03078373 0 0 Z M-4.53067017 21.26847839 C-5.72132078 23.8793738 -5.72132078 23.8793738 -6.58457947 26.38768005 C-7.0797406 27.39693542 -7.57490173 28.4061908 -8.08506775 29.44602966 C-8.43810974 30.30204773 -8.79115173 31.1580658 -9.15489197 32.0400238 C-9.57005066 33.04484802 -9.98520935 34.04967224 -10.41294861 35.08494568 C-10.84083679 36.15422302 -11.26872498 37.22350037 -11.70957947 38.32518005 C-12.175495 39.48340271 -12.64141052 40.64162537 -13.1214447 41.83494568 C-23.66151475 68.45436705 -32.21853193 95.73372735 -39.58457947 123.38768005 C-39.85302673 124.37703552 -40.121474 125.36639099 -40.39805603 126.38572693 C-45.23827265 144.5892983 -45.67158942 163.44901522 -39.58457947 181.38768005 C-39.37559021 182.01577576 -39.16660095 182.64387146 -38.95127869 183.29100037 C-27.64502727 216.54069555 1.00253113 242.023805 31.62245178 257.5556488 C41.9772846 262.65274025 52.53366302 266.80462468 63.80213928 269.4384613 C64.53037903 269.60958435 65.25861877 269.7807074 66.00892639 269.95701599 C67.4109951 270.2776521 68.81677711 270.58259658 70.22621155 270.86912537 C73.04306495 271.49692008 75.09741221 272.11500763 77.30604553 274.0087738 C85.53631007 291.65747486 80.57083673 321.17988984 80.54579163 340.41429138 C80.54014356 344.78579103 80.54345238 349.15722912 80.54923058 353.52872658 C80.66748795 459.0433827 80.66748795 459.0433827 68.80213928 472.1728363 C54.95156361 482.58464836 37.57379352 484.7911562 20.90760803 487.19236755 C20.01710754 487.3210321 19.12660706 487.44969666 18.2091217 487.58226013 C16.52848971 487.81951656 14.84638786 488.04668622 13.16273499 488.26145935 C7.87655817 488.98227646 3.2546672 490.08456714 -1.58457947 492.38768005 C-1.91457947 493.70768005 -2.24457947 495.02768005 -2.58457947 496.38768005 C56.15542053 496.38768005 114.89542053 496.38768005 175.41542053 496.38768005 C175.08542053 495.06768005 174.75542053 493.74768005 174.41542053 492.38768005 C166.31563888 488.46982479 156.87224744 487.50746699 148.04042053 486.38768005 C113.28238105 481.55892162 113.28238105 481.55892162 101.41542053 469.38768005 C86.12102127 443.44868634 93.1251929 394.70933376 93.21980286 365.54057312 C93.23066156 361.32306857 93.23022519 357.10559575 93.22979641 352.88807964 C93.23160597 279.21664905 93.23160597 279.21664905 98.13832092 273.31565857 C100.68223909 271.16176967 102.42319644 270.52857348 105.64198303 269.74705505 C106.66477356 269.48569763 107.68756409 269.22434021 108.74134827 268.95506287 C109.83004211 268.68532654 110.91873596 268.41559021 112.04042053 268.13768005 C133.96674615 262.31667089 154.27462224 252.48001739 171.41542053 237.38768005 C172.24170959 236.66967224 173.06799866 235.95166443 173.91932678 235.2118988 C176.45287673 232.97231801 178.94036566 230.69162984 181.41542053 228.38768005 C182.15534241 227.71350037 182.89526428 227.03932068 183.65760803 226.3447113 C200.9916847 209.90509766 215.86843807 185.08547963 216.68885803 160.67674255 C217.87189219 114.99938587 196.2531462 57.09854428 174.41542053 17.38768005 C172.52700962 15.49926914 169.24115734 16.22391189 166.72982788 16.20013428 C166.02266874 16.19222419 165.3155096 16.18431411 164.58692139 16.17616433 C162.1994532 16.15095162 159.81198884 16.13313946 157.42445374 16.11546326 C155.71977461 16.09938656 154.01509832 16.08300684 152.3104248 16.06634521 C136.73533512 15.92158579 121.15943789 15.84658977 105.58381367 15.78742695 C94.06492331 15.74283364 82.54722183 15.6656723 71.02886325 15.54584247 C62.93626908 15.46448158 54.84400112 15.42129658 46.75101537 15.40612477 C41.91447081 15.39594834 37.07942237 15.36857671 32.24332619 15.29981422 C27.69147011 15.23580819 23.14186605 15.21900283 18.5896244 15.23830986 C16.9198174 15.23715583 15.24992046 15.21888543 13.58051682 15.18216705 C2.97560312 14.64942087 2.97560312 14.64942087 -4.53067017 21.26847839 Z " fill="#000000" transform="translate(169.58457946777344,-0.3876800537109375)"/>
<path d="M0 0 C0.8219682 0.00291284 1.64393639 0.00582568 2.49081272 0.00882679 C3.35738024 0.00797237 4.22394777 0.00711794 5.11677492 0.00623763 C8.04343087 0.00458016 10.9700305 0.01010853 13.89668125 0.01555592 C15.98547213 0.01583776 18.07426311 0.01568012 20.16305393 0.01511341 C25.8529045 0.01482531 31.54273419 0.02072401 37.23257989 0.02768737 C43.17167361 0.03391888 49.11076775 0.03452455 55.04986423 0.03571278 C66.30502998 0.03882669 77.56018607 0.04704089 88.81534755 0.05706227 C101.62528293 0.06822154 114.43521875 0.07373338 127.24515778 0.0787577 C153.60418334 0.08922346 179.96320031 0.10682406 206.32221836 0.12908131 C208.955488 5.39562059 206.50876615 13.24204642 204.75971836 18.56658131 C200.48259886 29.38246263 192.79815246 38.37193589 185.32221836 47.12908131 C184.67510898 47.91154225 184.02799961 48.69400318 183.36128086 49.50017506 C167.85979747 67.75396264 144.13084813 81.33955868 120.06098789 83.31462818 C85.20973185 85.66523859 54.34763169 82.73951558 26.80268711 59.32830006 C13.37319611 47.421523 -1.32273029 30.92472216 -5.67778164 13.12908131 C-6.01809414 11.82970631 -6.01809414 11.82970631 -6.36528164 10.50408131 C-6.77999333 7.35227249 -6.79985383 4.30295822 -6.67778164 1.12908131 C-4.87296057 -0.67573976 -2.40261507 0.00646038 0 0 Z " fill="#000000" transform="translate(155.6777816414833,168.8709186911583)"/>
</svg>
