<?xml version="1.0" encoding="UTF-8"?>
<!DOCTYPE svg PUBLIC "-//W3C//DTD SVG 1.1//EN" "http://www.w3.org/Graphics/SVG/1.1/DTD/svg11.dtd">
<svg xmlns="http://www.w3.org/2000/svg" version="1.1" width="512px" height="512px" style="shape-rendering:geometricPrecision; text-rendering:geometricPrecision; image-rendering:optimizeQuality; fill-rule:evenodd; clip-rule:evenodd" xmlns:xlink="http://www.w3.org/1999/xlink">
<g><path style="opacity:0.97" fill="#000000" d="M 511.5,161.5 C 511.5,165.833 511.5,170.167 511.5,174.5C 504.362,188.268 493.696,191.768 479.5,185C 400.733,102.827 305.066,71.8271 192.5,92C 128.953,106.28 75.2867,137.28 31.5,185C 17.3322,191.634 6.66554,188.134 -0.5,174.5C -0.5,170.167 -0.5,165.833 -0.5,161.5C 14.0093,143.158 30.6759,126.991 49.5,113C 133.093,52.6092 225.76,32.2759 327.5,52C 398.608,67.7926 458.775,102.293 508,155.5C 508.941,157.727 510.108,159.727 511.5,161.5 Z"/></g>
<g><path style="opacity:0.97" fill="#000000" d="M 241.5,160.5 C 317.453,158.747 381.953,184.747 435,238.5C 440.849,249.516 439.349,259.35 430.5,268C 424.135,271.703 417.468,272.37 410.5,270C 398.124,259.288 385.457,248.955 372.5,239C 304.061,193.969 233.061,189.635 159.5,226C 139.175,237.316 120.842,251.316 104.5,268C 90.4666,274.878 79.9666,271.378 73,257.5C 71.6694,250.751 72.6694,244.418 76,238.5C 121.374,191.898 176.541,165.898 241.5,160.5 Z"/></g>
<g><path style="opacity:0.967" fill="#000000" d="M 245.5,277.5 C 283.794,276.54 317.46,288.374 346.5,313C 353.925,318.201 358.258,325.201 359.5,334C 357.228,348.935 348.561,355.602 333.5,354C 331.051,353.275 328.717,352.275 326.5,351C 288.297,313.966 246.297,308.966 200.5,336C 193.452,342.049 186.119,347.716 178.5,353C 165.659,356.829 156.493,352.662 151,340.5C 148.783,329.43 152.283,320.596 161.5,314C 185.821,293.339 213.821,281.172 245.5,277.5 Z"/></g>
<g><path style="opacity:0.966" fill="#000000" d="M 249.5,399.5 C 268.497,398.24 280.997,406.573 287,424.5C 290.168,446.696 281.001,460.529 259.5,466C 240.485,467.746 227.985,459.579 222,441.5C 218.951,419.221 228.117,405.221 249.5,399.5 Z"/></g>
</svg>
