<?xml version="1.0" encoding="UTF-8"?>
<!DOCTYPE svg PUBLIC "-//W3C//DTD SVG 1.1//EN" "http://www.w3.org/Graphics/SVG/1.1/DTD/svg11.dtd">
<svg xmlns="http://www.w3.org/2000/svg" version="1.1" width="512px" height="512px" style="shape-rendering:geometricPrecision; text-rendering:geometricPrecision; image-rendering:optimizeQuality; fill-rule:evenodd; clip-rule:evenodd" xmlns:xlink="http://www.w3.org/1999/xlink">
<g><path style="opacity:0.928" fill="#000000" d="M 230.5,-0.5 C 247.167,-0.5 263.833,-0.5 280.5,-0.5C 316.264,7.43222 337.764,29.4322 345,65.5C 345.5,81.4965 345.667,97.4965 345.5,113.5C 355.172,113.334 364.839,113.5 374.5,114C 385.418,117.616 389.585,125.116 387,136.5C 382.38,146.395 374.547,150.395 363.5,148.5C 361.401,167.631 358.567,186.631 355,205.5C 351.007,215.493 343.84,221.993 333.5,225C 332.978,225.561 332.645,226.228 332.5,227C 344.617,280.418 356.283,333.918 367.5,387.5C 377.783,386.955 384.283,391.622 387,401.5C 388.162,407.557 387.162,413.223 384,418.5C 381.298,420.907 378.798,423.407 376.5,426C 382.46,451.469 388.294,476.969 394,502.5C 394.793,505.741 394.293,508.741 392.5,511.5C 382.167,511.5 371.833,511.5 361.5,511.5C 353.708,483.335 346.375,455.002 339.5,426.5C 282.836,425.333 226.17,425.167 169.5,426C 162.44,453.409 155.606,480.909 149,508.5C 147.955,509.373 147.122,510.373 146.5,511.5C 136.5,511.5 126.5,511.5 116.5,511.5C 114.537,508.482 114.037,505.149 115,501.5C 120.606,475.245 126.44,449.078 132.5,423C 124.979,417.782 122.145,410.616 124,401.5C 126.325,393.003 131.825,388.336 140.5,387.5C 152.183,333.433 164.183,279.433 176.5,225.5C 163.736,219.994 156.236,210.327 154,196.5C 151.837,180.529 150.004,164.529 148.5,148.5C 129.99,149.831 122.157,141.498 125,123.5C 127.368,118.565 131.201,115.398 136.5,114C 146.161,113.5 155.828,113.334 165.5,113.5C 165.333,97.8298 165.5,82.1631 166,66.5C 172.777,29.8911 194.277,7.55777 230.5,-0.5 Z M 236.5,10.5 C 249.171,10.3334 261.838,10.5001 274.5,11C 305.759,15.9234 325.259,33.7567 333,64.5C 334.349,80.8007 334.849,97.1341 334.5,113.5C 282.167,113.5 229.833,113.5 177.5,113.5C 177.333,97.4965 177.5,81.4965 178,65.5C 185.45,34.2134 204.95,15.8801 236.5,10.5 Z M 140.5,124.5 C 217.501,124.333 294.501,124.5 371.5,125C 375.213,126.691 376.379,129.525 375,133.5C 374.097,134.701 372.931,135.535 371.5,136C 366.167,136.333 360.833,136.667 355.5,137C 354.584,137.374 353.75,137.874 353,138.5C 350.252,158.147 347.586,177.814 345,197.5C 342.664,205.682 337.497,211.182 329.5,214C 282.195,215.632 234.862,215.965 187.5,215C 176.318,213.484 169.151,207.317 166,196.5C 163.659,177.104 160.992,157.77 158,138.5C 157.5,138 157,137.5 156.5,137C 150.058,136.917 143.725,136.251 137.5,135C 134.405,130.201 135.405,126.701 140.5,124.5 Z M 188.5,147.5 C 204.929,147.03 221.262,147.53 237.5,149C 238,149.5 238.5,150 239,150.5C 239.082,159.908 239.749,169.241 241,178.5C 247.327,187.384 255.494,189.551 265.5,185C 268.04,182.795 270.207,180.295 272,177.5C 273.099,167.996 273.932,158.496 274.5,149C 291.1,147.377 307.767,147.044 324.5,148C 327.051,148.422 328.385,149.922 328.5,152.5C 326.458,165.791 324.792,179.124 323.5,192.5C 278.5,192.5 233.5,192.5 188.5,192.5C 187.09,178.975 185.423,165.475 183.5,152C 183.585,150.893 183.919,149.893 184.5,149C 186.058,148.79 187.391,148.29 188.5,147.5 Z M 197.5,226.5 C 236.167,226.5 274.833,226.5 313.5,226.5C 312.925,235.093 311.925,243.593 310.5,252C 273.835,252.5 237.168,252.667 200.5,252.5C 199.762,243.787 198.762,235.12 197.5,226.5 Z M 185.5,235.5 C 186.777,236.694 187.444,238.36 187.5,240.5C 188.004,247.212 188.838,253.878 190,260.5C 191.465,262.915 193.632,263.915 196.5,263.5C 186.5,304.833 176.5,346.167 166.5,387.5C 161.833,387.5 157.167,387.5 152.5,387.5C 163.756,336.884 174.756,286.218 185.5,235.5 Z M 323.5,242.5 C 334.548,290.56 345.548,338.727 356.5,387C 351.581,387.802 346.748,387.635 342,386.5C 332.06,345.575 321.894,304.742 311.5,264C 314.903,263.9 318.07,263.066 321,261.5C 322.162,255.205 322.996,248.871 323.5,242.5 Z M 208.5,263.5 C 238.841,263.167 269.174,263.5 299.5,264.5C 309.974,305.394 319.974,346.394 329.5,387.5C 279.162,387.833 228.829,387.5 178.5,386.5C 188.974,345.606 198.974,304.606 208.5,263.5 Z M 142.5,398.5 C 218.501,398.333 294.501,398.5 370.5,399C 375.224,401.435 376.724,405.269 375,410.5C 373.442,412.768 371.276,413.934 368.5,414C 292.833,414.667 217.167,414.667 141.5,414C 136.094,412.02 134.261,408.186 136,402.5C 137.792,400.372 139.958,399.039 142.5,398.5 Z M 143.5,425.5 C 147.833,425.5 152.167,425.5 156.5,425.5C 150.658,450.535 144.658,475.535 138.5,500.5C 134.833,500.5 131.167,500.5 127.5,500.5C 132.993,475.529 138.326,450.529 143.5,425.5 Z M 351.5,425.5 C 356.322,424.935 360.822,425.601 365,427.5C 370.251,451.76 375.751,475.927 381.5,500C 377.514,500.499 373.514,500.666 369.5,500.5C 363.972,475.387 357.972,450.387 351.5,425.5 Z"/></g>
<g><path style="opacity:0.937" fill="#000000" d="M 181.5,136.5 C 201.169,136.333 220.836,136.5 240.5,137C 245,138.833 248.167,142 250,146.5C 250.333,154.833 250.667,163.167 251,171.5C 253.823,176.395 257.157,176.729 261,172.5C 261.333,164.5 261.667,156.5 262,148.5C 263.09,142.412 266.59,138.579 272.5,137C 291.5,136.333 310.5,136.333 329.5,137C 336.487,139.807 339.82,144.973 339.5,152.5C 337.994,167.207 336.161,181.873 334,196.5C 332.833,199.667 330.667,201.833 327.5,203C 279.5,203.667 231.5,203.667 183.5,203C 180.244,201.413 178.077,198.913 177,195.5C 174.921,181.197 173.087,166.864 171.5,152.5C 171.302,144.885 174.635,139.551 181.5,136.5 Z M 188.5,147.5 C 187.391,148.29 186.058,148.79 184.5,149C 183.919,149.893 183.585,150.893 183.5,152C 185.423,165.475 187.09,178.975 188.5,192.5C 233.5,192.5 278.5,192.5 323.5,192.5C 324.792,179.124 326.458,165.791 328.5,152.5C 328.385,149.922 327.051,148.422 324.5,148C 307.767,147.044 291.1,147.377 274.5,149C 273.932,158.496 273.099,167.996 272,177.5C 270.207,180.295 268.04,182.795 265.5,185C 255.494,189.551 247.327,187.384 241,178.5C 239.749,169.241 239.082,159.908 239,150.5C 238.5,150 238,149.5 237.5,149C 221.262,147.53 204.929,147.03 188.5,147.5 Z"/></g>
</svg>
