<?xml version="1.0" encoding="UTF-8"?>
<!DOCTYPE svg PUBLIC "-//W3C//DTD SVG 1.1//EN" "http://www.w3.org/Graphics/SVG/1.1/DTD/svg11.dtd">
<svg xmlns="http://www.w3.org/2000/svg" version="1.1" width="512px" height="512px" style="shape-rendering:geometricPrecision; text-rendering:geometricPrecision; image-rendering:optimizeQuality; fill-rule:evenodd; clip-rule:evenodd" xmlns:xlink="http://www.w3.org/1999/xlink">
<g><path style="opacity:0.919" fill="#000000" d="M 82.5,28.5 C 94.5046,28.3335 106.505,28.5001 118.5,29C 136.755,30.6221 150.755,39.1221 160.5,54.5C 186.261,55.2943 203.594,67.6276 212.5,91.5C 215.254,86.9923 217.754,82.3257 220,77.5C 223,76.1667 226,76.1667 229,77.5C 231.372,82.4118 233.872,87.2451 236.5,92C 242.247,92.844 247.914,94.0106 253.5,95.5C 255.395,97.8671 255.895,100.534 255,103.5C 250.984,107.348 247.151,111.348 243.5,115.5C 249.805,137.013 243.638,141.346 225,128.5C 219.128,132.868 212.628,135.034 205.5,135C 203.955,133.178 203.288,131.011 203.5,128.5C 204.123,123.785 204.623,119.119 205,114.5C 200.148,110.499 196.315,105.833 193.5,100.5C 193.844,96.8226 195.844,94.8226 199.5,94.5C 197.201,84.0817 191.201,76.5817 181.5,72C 162.566,64.4163 145.732,67.583 131,81.5C 128.181,85.1237 126.514,89.1237 126,93.5C 133.512,94.5061 135.512,98.5061 132,105.5C 128.201,108.297 124.701,111.464 121.5,115C 128.161,136.661 121.995,141.161 103,128.5C 97.1284,132.868 90.6284,135.034 83.5,135C 81.9716,133.352 81.3049,131.352 81.5,129C 82.284,124.147 82.784,119.314 83,114.5C 65.6199,100.405 68.1199,92.9047 90.5,92C 93.0115,86.6327 96.0115,81.6327 99.5,77C 101.833,76.3333 104.167,76.3333 106.5,77C 109.046,80.59 111.213,84.4234 113,88.5C 119.786,73.2132 130.953,62.5465 146.5,56.5C 140.458,49.1428 132.792,44.3095 123.5,42C 107.833,41.3333 92.1667,41.3333 76.5,42C 59.1143,46.7183 48.6143,57.885 45,75.5C 44.5,114.832 44.3333,154.165 44.5,193.5C 50.9139,194.741 55.4139,198.408 58,204.5C 59.4137,213.418 59.9137,222.418 59.5,231.5C 190.167,231.5 320.833,231.5 451.5,231.5C 451.334,223.16 451.5,214.827 452,206.5C 459.558,191.928 470.725,188.428 485.5,196C 490.036,199.862 492.869,204.695 494,210.5C 494.667,299.5 494.667,388.5 494,477.5C 493.167,479.667 491.667,481.167 489.5,482C 477.404,482.958 465.404,482.625 453.5,481C 453,480.5 452.5,480 452,479.5C 451.5,467.171 451.333,454.838 451.5,442.5C 320.833,442.5 190.167,442.5 59.5,442.5C 59.6665,454.838 59.4999,467.171 59,479.5C 58.5,480 58,480.5 57.5,481C 45.5965,482.625 33.5965,482.958 21.5,482C 19.3333,481.167 17.8333,479.667 17,477.5C 16.3333,388.5 16.3333,299.5 17,210.5C 18.6962,201.799 23.6962,195.799 32,192.5C 32.3333,152.167 32.6667,111.833 33,71.5C 39.5015,45.4897 56.0015,31.1564 82.5,28.5 Z M 102.5,96.5 C 103.933,98.5191 105.267,100.686 106.5,103C 108.895,103.681 111.228,104.515 113.5,105.5C 112.234,106.724 111.067,108.057 110,109.5C 109.818,112.226 109.318,114.893 108.5,117.5C 104.116,114.741 99.9498,115.074 96,118.5C 97.6295,113.003 96.1295,108.503 91.5,105C 97.3789,104.948 101.046,102.114 102.5,96.5 Z M 223.5,97.5 C 225.483,98.9022 227.149,100.736 228.5,103C 230.788,103.822 233.122,104.489 235.5,105C 234.333,106.167 233.167,107.333 232,108.5C 231.821,111.553 231.321,114.553 230.5,117.5C 226.116,114.741 221.95,115.074 218,118.5C 219.661,112.989 218.161,108.489 213.5,105C 218.912,105.062 222.245,102.562 223.5,97.5 Z M 34.5,204.5 C 40.2039,203.436 44.3706,205.436 47,210.5C 47.5,296.833 47.6667,383.166 47.5,469.5C 41.5,469.5 35.5,469.5 29.5,469.5C 29.3333,382.833 29.5,296.166 30,209.5C 31.3657,207.638 32.8657,205.972 34.5,204.5 Z M 469.5,204.5 C 474.589,203.428 478.422,205.095 481,209.5C 481.5,296.166 481.667,382.833 481.5,469.5C 475.5,469.5 469.5,469.5 463.5,469.5C 463.333,383.166 463.5,296.833 464,210.5C 465.36,207.977 467.193,205.977 469.5,204.5 Z M 59.5,243.5 C 190.167,243.5 320.833,243.5 451.5,243.5C 451.5,248.167 451.5,252.833 451.5,257.5C 320.833,257.5 190.167,257.5 59.5,257.5C 59.5,252.833 59.5,248.167 59.5,243.5 Z M 59.5,269.5 C 77.8333,269.5 96.1667,269.5 114.5,269.5C 114.5,314.5 114.5,359.5 114.5,404.5C 96.1667,404.5 77.8333,404.5 59.5,404.5C 59.5,359.5 59.5,314.5 59.5,269.5 Z M 127.5,269.5 C 145.833,269.5 164.167,269.5 182.5,269.5C 182.5,314.5 182.5,359.5 182.5,404.5C 164.167,404.5 145.833,404.5 127.5,404.5C 127.5,359.5 127.5,314.5 127.5,269.5 Z M 194.5,269.5 C 212.833,269.5 231.167,269.5 249.5,269.5C 249.5,314.5 249.5,359.5 249.5,404.5C 231.167,404.5 212.833,404.5 194.5,404.5C 194.5,359.5 194.5,314.5 194.5,269.5 Z M 261.5,269.5 C 279.833,269.5 298.167,269.5 316.5,269.5C 316.5,314.5 316.5,359.5 316.5,404.5C 298.167,404.5 279.833,404.5 261.5,404.5C 261.5,359.5 261.5,314.5 261.5,269.5 Z M 328.5,269.5 C 346.833,269.5 365.167,269.5 383.5,269.5C 383.5,314.5 383.5,359.5 383.5,404.5C 365.167,404.5 346.833,404.5 328.5,404.5C 328.5,359.5 328.5,314.5 328.5,269.5 Z M 396.5,269.5 C 414.833,269.5 433.167,269.5 451.5,269.5C 451.5,314.5 451.5,359.5 451.5,404.5C 433.167,404.5 414.833,404.5 396.5,404.5C 396.5,359.5 396.5,314.5 396.5,269.5 Z M 59.5,416.5 C 190.167,416.5 320.833,416.5 451.5,416.5C 451.5,421.167 451.5,425.833 451.5,430.5C 320.833,430.5 190.167,430.5 59.5,430.5C 59.5,425.833 59.5,421.167 59.5,416.5 Z"/></g>
<g><path style="opacity:0.911" fill="#000000" d="M 158.5,113.5 C 162.287,112.814 165.454,113.814 168,116.5C 171.039,122.745 174.206,128.912 177.5,135C 185.147,136.426 192.814,137.759 200.5,139C 203.654,141.775 204.154,144.942 202,148.5C 197,153.5 192,158.5 187,163.5C 187.605,170.476 188.438,177.476 189.5,184.5C 189.533,190.505 186.533,192.672 180.5,191C 174.552,187.443 168.386,184.276 162,181.5C 155.927,184.787 149.761,187.953 143.5,191C 140.044,192.123 137.21,191.29 135,188.5C 135.244,180.202 136.411,172.035 138.5,164C 133.635,158.8 128.468,153.967 123,149.5C 120.643,145.483 121.143,141.983 124.5,139C 132.186,137.759 139.853,136.426 147.5,135C 150.781,127.603 154.448,120.437 158.5,113.5 Z M 149.5,173.5 C 150.332,168.519 150.498,163.519 150,158.5C 147.5,154.667 144.333,151.5 140.5,149C 145.601,148.368 150.601,147.368 155.5,146C 158.23,142.154 160.397,137.987 162,133.5C 164.374,137.75 166.874,141.916 169.5,146C 174.081,147.275 178.748,148.275 183.5,149C 179.964,152.201 176.797,155.701 174,159.5C 173.785,163.719 174.285,167.886 175.5,172C 175.167,172.5 174.833,173 174.5,173.5C 170.586,171.123 166.419,169.457 162,168.5C 157.755,169.896 153.588,171.563 149.5,173.5 Z"/></g>
</svg>
