<?xml version="1.0" encoding="UTF-8"?>
<!DOCTYPE svg PUBLIC "-//W3C//DTD SVG 1.1//EN" "http://www.w3.org/Graphics/SVG/1.1/DTD/svg11.dtd">
<svg xmlns="http://www.w3.org/2000/svg" version="1.1" width="512px" height="512px" style="shape-rendering:geometricPrecision; text-rendering:geometricPrecision; image-rendering:optimizeQuality; fill-rule:evenodd; clip-rule:evenodd" xmlns:xlink="http://www.w3.org/1999/xlink">
<g><path style="opacity:0.943" fill="#000000" d="M 92.5,18.5 C 201.167,18.3333 309.834,18.5 418.5,19C 420.259,20.008 421.426,21.508 422,23.5C 422.667,48.5 422.667,73.5 422,98.5C 421.215,100.286 420.049,101.786 418.5,103C 412.843,103.499 407.176,103.666 401.5,103.5C 398.474,118.604 394.974,133.604 391,148.5C 386.467,156.702 379.8,162.368 371,165.5C 377.379,227.753 349.879,263.92 288.5,274C 256.609,278.752 225.276,276.419 194.5,267C 161.886,254.719 144.052,231.219 141,196.5C 140.667,186.167 140.333,175.833 140,165.5C 131.916,162.753 125.583,157.753 121,150.5C 116.542,135.336 112.709,120.003 109.5,104.5C 103.862,103.67 98.1958,103.17 92.5,103C 90.9512,101.786 89.7845,100.286 89,98.5C 88.3333,73.5 88.3333,48.5 89,23.5C 89.6972,21.4156 90.8639,19.7489 92.5,18.5 Z M 103.5,32.5 C 204.833,32.5 306.167,32.5 407.5,32.5C 407.5,51.1667 407.5,69.8333 407.5,88.5C 306.167,88.5 204.833,88.5 103.5,88.5C 103.5,69.8333 103.5,51.1667 103.5,32.5 Z M 125.5,103.5 C 212.167,103.5 298.833,103.5 385.5,103.5C 383.244,116.612 380.411,129.612 377,142.5C 375.108,146.058 372.275,148.558 368.5,150C 330.892,151.158 293.225,151.658 255.5,151.5C 217.775,151.658 180.108,151.158 142.5,150C 138.725,148.558 135.892,146.058 134,142.5C 130.589,129.612 127.756,116.612 125.5,103.5 Z M 155.5,166.5 C 166.833,166.5 178.167,166.5 189.5,166.5C 189.333,177.172 189.5,187.839 190,198.5C 194.252,204.653 198.919,204.986 204,199.5C 204.5,188.505 204.667,177.505 204.5,166.5C 212.5,166.5 220.5,166.5 228.5,166.5C 228.333,177.172 228.5,187.839 229,198.5C 233.171,204.729 237.837,205.062 243,199.5C 243.5,188.505 243.667,177.505 243.5,166.5C 251.5,166.5 259.5,166.5 267.5,166.5C 267.333,177.505 267.5,188.505 268,199.5C 273.163,205.062 277.829,204.729 282,198.5C 282.5,187.839 282.667,177.172 282.5,166.5C 290.5,166.5 298.5,166.5 306.5,166.5C 306.333,177.505 306.5,188.505 307,199.5C 312.081,204.986 316.748,204.653 321,198.5C 321.5,187.839 321.667,177.172 321.5,166.5C 332.833,166.5 344.167,166.5 355.5,166.5C 361.585,223.245 336.252,254.412 279.5,260C 250.755,263.605 222.755,260.605 195.5,251C 171.464,240.289 158.298,221.789 156,195.5C 155.5,185.839 155.334,176.172 155.5,166.5 Z"/></g>
<g><path style="opacity:0.969" fill="#000000" d="M 330.5,42.5 C 345.837,42.3334 361.17,42.5001 376.5,43C 380.5,47.3333 380.5,51.6667 376.5,56C 361.167,56.6667 345.833,56.6667 330.5,56C 326.304,53.0189 325.471,49.1856 328,44.5C 328.995,43.9341 329.828,43.2674 330.5,42.5 Z"/></g>
<g><path style="opacity:0.912" fill="#000000" d="M 289.5,328.5 C 295.992,326.723 299.659,329.056 300.5,335.5C 300.444,338.111 299.444,340.278 297.5,342C 270.076,360.884 242.41,361.218 214.5,343C 210.786,338.945 210.786,334.945 214.5,331C 216.034,330.077 217.701,329.577 219.5,329.5C 225.078,331.888 230.578,334.555 236,337.5C 255.547,344.159 273.38,341.159 289.5,328.5 Z"/></g>
<g><path style="opacity:0.916" fill="#000000" d="M 317.5,364.5 C 325.775,363.706 328.942,367.373 327,375.5C 310.355,390.061 290.855,398.561 268.5,401C 238.034,404.01 210.534,396.51 186,378.5C 182.884,371.735 184.884,367.401 192,365.5C 199.47,369.617 206.97,373.784 214.5,378C 251.561,393.04 285.895,388.54 317.5,364.5 Z"/></g>
<g><path style="opacity:0.919" fill="#000000" d="M 346.5,400.5 C 353.678,400.868 356.512,404.535 355,411.5C 329.227,433.121 299.394,444.955 265.5,447C 225.769,449.142 190.102,438.309 158.5,414.5C 155.627,405.209 158.96,401.375 168.5,403C 210.931,433.514 256.931,440.181 306.5,423C 321.025,417.238 334.358,409.738 346.5,400.5 Z"/></g>
<g><path style="opacity:0.92" fill="#000000" d="M 372.5,437.5 C 380.775,436.706 383.942,440.373 382,448.5C 339.109,482.346 290.276,496.846 235.5,492C 196.009,488.158 160.842,473.991 130,449.5C 128.674,441.829 131.841,438.329 139.5,439C 196.629,479.683 258.295,488.35 324.5,465C 341.937,458.001 357.937,448.834 372.5,437.5 Z"/></g>
</svg>
