<?xml version="1.0" encoding="UTF-8"?>
<!DOCTYPE svg PUBLIC "-//W3C//DTD SVG 1.1//EN" "http://www.w3.org/Graphics/SVG/1.1/DTD/svg11.dtd">
<svg xmlns="http://www.w3.org/2000/svg" version="1.1" width="512px" height="512px" style="shape-rendering:geometricPrecision; text-rendering:geometricPrecision; image-rendering:optimizeQuality; fill-rule:evenodd; clip-rule:evenodd" xmlns:xlink="http://www.w3.org/1999/xlink">
<g><path style="opacity:0.929" fill="#000000" d="M 307.5,31.5 C 311.257,31.0708 314.757,31.7375 318,33.5C 321.232,50.0596 316.232,63.7263 303,74.5C 295.131,85.342 294.464,96.6753 301,108.5C 321.049,126.019 325.049,146.686 313,170.5C 308.667,175.5 304.333,180.5 300,185.5C 297.452,191.997 295.452,198.663 294,205.5C 290.744,207.429 287.244,207.929 283.5,207C 281.667,206.5 280.5,205.333 280,203.5C 278.404,192.613 280.737,182.613 287,173.5C 293.953,168.225 298.953,161.558 302,153.5C 303.537,145.3 302.203,137.634 298,130.5C 277.951,112.981 273.951,92.3145 286,68.5C 290.333,63.5 294.667,58.5 299,53.5C 301.674,47.7994 303.341,41.7994 304,35.5C 304.69,33.6498 305.856,32.3164 307.5,31.5 Z"/></g>
<g><path style="opacity:0.929" fill="#000000" d="M 379.5,31.5 C 383.257,31.0708 386.757,31.7375 390,33.5C 393.232,50.0596 388.232,63.7263 375,74.5C 367.131,85.342 366.464,96.6753 373,108.5C 393.049,126.019 397.049,146.686 385,170.5C 380.667,175.5 376.333,180.5 372,185.5C 369.452,191.997 367.452,198.663 366,205.5C 362.744,207.429 359.244,207.929 355.5,207C 353.667,206.5 352.5,205.333 352,203.5C 350.404,192.613 352.737,182.613 359,173.5C 365.953,168.225 370.953,161.558 374,153.5C 375.537,145.3 374.203,137.634 370,130.5C 349.951,112.981 345.951,92.3145 358,68.5C 362.333,63.5 366.667,58.5 371,53.5C 373.674,47.7994 375.341,41.7994 376,35.5C 376.69,33.6498 377.856,32.3164 379.5,31.5 Z"/></g>
<g><path style="opacity:0.973" fill="#000000" d="M 142.5,87.5 C 165.329,84.5469 181.163,93.5469 190,114.5C 191.479,158.786 191.979,203.119 191.5,247.5C 291.501,247.333 391.501,247.5 491.5,248C 493.333,248.5 494.5,249.667 495,251.5C 495.667,319.833 495.667,388.167 495,456.5C 490.833,472.667 480.667,482.833 464.5,487C 325.167,487.667 185.833,487.667 46.5,487C 30.3333,482.833 20.1667,472.667 16,456.5C 15.3333,388.167 15.3333,319.833 16,251.5C 16.5,249.667 17.6667,248.5 19.5,248C 50.1649,247.5 80.8315,247.333 111.5,247.5C 111.333,204.499 111.5,161.499 112,118.5C 116.349,102.319 126.516,91.9852 142.5,87.5 Z M 144.5,104.5 C 158.996,102.325 168.829,107.991 174,121.5C 175.313,189.136 175.98,256.803 176,324.5C 185.57,330.947 193.57,338.947 200,348.5C 212.581,376.328 207.415,400.161 184.5,420C 165.305,432.427 145.305,433.761 124.5,424C 96.7548,404.87 89.5881,379.703 103,348.5C 109.43,338.947 117.43,330.947 127,324.5C 127.333,258.833 127.667,193.167 128,127.5C 129.109,116.575 134.609,108.908 144.5,104.5 Z M 31.5,263.5 C 58.1667,263.5 84.8333,263.5 111.5,263.5C 111.816,271.752 111.482,279.919 110.5,288C 83.8375,289.305 57.6708,293.472 32,300.5C 31.5001,288.171 31.3335,275.838 31.5,263.5 Z M 191.5,263.5 C 287.5,263.5 383.5,263.5 479.5,263.5C 479.5,277.5 479.5,291.5 479.5,305.5C 419.7,319.908 359.367,322.408 298.5,313C 274.017,307.617 249.683,301.617 225.5,295C 214.263,292.704 202.93,291.204 191.5,290.5C 191.5,281.5 191.5,272.5 191.5,263.5 Z M 110.5,304.5 C 111.643,307.976 111.81,311.642 111,315.5C 83.6158,335.973 73.9492,362.973 82,396.5C 93.3237,429.434 116.49,446.767 151.5,448.5C 186.111,446.294 209.277,428.961 221,396.5C 229.051,362.973 219.384,335.973 192,315.5C 191.503,312.854 191.336,310.187 191.5,307.5C 203.625,308.446 215.625,310.28 227.5,313C 248.679,318.961 270.012,324.295 291.5,329C 354.497,340.049 416.997,337.883 479,322.5C 479.667,364.167 479.667,405.833 479,447.5C 477.167,461.333 469.333,469.167 455.5,471C 322.167,471.667 188.833,471.667 55.5,471C 41.6667,469.167 33.8333,461.333 32,447.5C 31.5,404.168 31.3333,360.835 31.5,317.5C 57.6265,311.09 83.9599,306.756 110.5,304.5 Z M 145.5,352.5 C 159.594,350.625 169.094,356.292 174,369.5C 176.366,383.606 170.866,393.106 157.5,398C 143.394,400.366 133.894,394.866 129,381.5C 126.759,367.305 132.259,357.638 145.5,352.5 Z"/></g>
<g><path style="opacity:0.962" fill="#000000" d="M 147.5,127.5 C 150.187,127.336 152.854,127.503 155.5,128C 157.333,128.5 158.5,129.667 159,131.5C 159.333,199.5 159.667,267.5 160,335.5C 185.613,344.154 195.613,361.821 190,388.5C 180.064,411.218 162.897,419.718 138.5,414C 115.782,404.064 107.282,386.897 113,362.5C 118.27,348.229 128.27,339.229 143,335.5C 143.333,267.5 143.667,199.5 144,131.5C 144.69,129.65 145.856,128.316 147.5,127.5 Z M 145.5,352.5 C 132.259,357.638 126.759,367.305 129,381.5C 133.894,394.866 143.394,400.366 157.5,398C 170.866,393.106 176.366,383.606 174,369.5C 169.094,356.292 159.594,350.625 145.5,352.5 Z"/></g>
</svg>
