<?xml version="1.0" encoding="UTF-8"?>
<!DOCTYPE svg PUBLIC "-//W3C//DTD SVG 1.1//EN" "http://www.w3.org/Graphics/SVG/1.1/DTD/svg11.dtd">
<svg xmlns="http://www.w3.org/2000/svg" version="1.1" width="512px" height="512px" style="shape-rendering:geometricPrecision; text-rendering:geometricPrecision; image-rendering:optimizeQuality; fill-rule:evenodd; clip-rule:evenodd" xmlns:xlink="http://www.w3.org/1999/xlink">
<g><path style="opacity:0.939" fill="#000000" d="M 131.5,20.5 C 214.167,20.3333 296.834,20.5 379.5,21C 399.425,26.2592 410.925,39.0925 414,59.5C 414.667,190.167 414.667,320.833 414,451.5C 410.925,471.908 399.425,484.741 379.5,490C 296.833,490.667 214.167,490.667 131.5,490C 111.575,484.741 100.075,471.908 97,451.5C 96.3333,320.833 96.3333,190.167 97,59.5C 100.264,39.0764 111.764,26.0764 131.5,20.5 Z M 137.5,35.5 C 216.167,35.3333 294.834,35.5 373.5,36C 386.136,38.6356 394.302,46.1356 398,58.5C 398.667,189.833 398.667,321.167 398,452.5C 394.314,464.851 386.148,472.351 373.5,475C 294.833,475.667 216.167,475.667 137.5,475C 124.852,472.351 116.686,464.851 113,452.5C 112.333,321.167 112.333,189.833 113,58.5C 116.874,46.1226 125.04,38.456 137.5,35.5 Z M 250.5,95.5 C 273.239,95.4092 286.239,106.576 289.5,129C 286.08,152.091 272.747,163.091 249.5,162C 232.599,157.432 223.266,146.432 221.5,129C 223.538,111.134 233.205,99.9678 250.5,95.5 Z M 243.5,238.5 C 291.633,236.135 325.466,256.801 345,300.5C 359.508,349.988 345.342,388.821 302.5,417C 262.279,436.919 224.945,432.586 190.5,404C 157.083,368.66 151.25,329.16 173,285.5C 189.608,259.449 213.108,243.783 243.5,238.5 Z M 246.5,279.5 C 284.026,278.363 305.36,296.363 310.5,333.5C 306.175,370.328 285.509,388.494 248.5,388C 213.962,379.776 198.462,357.943 202,322.5C 208.534,299.464 223.368,285.131 246.5,279.5 Z M 250.5,319.5 C 266.647,318.83 272.48,326.163 268,341.5C 259.62,350.824 251.286,350.824 243,341.5C 239.02,331.941 241.52,324.607 250.5,319.5 Z"/></g>
<g><path style="opacity:0.923" fill="#000000" d="M 254.5,79.5 C 285.322,81.8224 301.989,98.3224 304.5,129C 302.127,159.207 285.794,175.707 255.5,178.5C 225.213,175.713 208.879,159.213 206.5,129C 208.847,99.1541 224.847,82.6541 254.5,79.5 Z M 250.5,95.5 C 233.205,99.9678 223.538,111.134 221.5,129C 223.266,146.432 232.599,157.432 249.5,162C 272.747,163.091 286.08,152.091 289.5,129C 286.239,106.576 273.239,95.4092 250.5,95.5 Z"/></g>
<g><path style="opacity:0.926" fill="#000000" d="M 245.5,222.5 C 293.524,220.92 329.691,240.586 354,281.5C 374.389,325.522 370.056,366.855 341,405.5C 308.206,440.994 268.372,452.494 221.5,440C 167.408,418.684 141.908,378.851 145,320.5C 155.353,263.979 188.853,231.312 245.5,222.5 Z M 243.5,238.5 C 213.108,243.783 189.608,259.449 173,285.5C 151.25,329.16 157.083,368.66 190.5,404C 224.945,432.586 262.279,436.919 302.5,417C 345.342,388.821 359.508,349.988 345,300.5C 325.466,256.801 291.633,236.135 243.5,238.5 Z M 246.5,279.5 C 223.368,285.131 208.534,299.464 202,322.5C 198.462,357.943 213.962,379.776 248.5,388C 285.509,388.494 306.175,370.328 310.5,333.5C 305.36,296.363 284.026,278.363 246.5,279.5 Z M 250.5,319.5 C 241.52,324.607 239.02,331.941 243,341.5C 251.286,350.824 259.62,350.824 268,341.5C 272.48,326.163 266.647,318.83 250.5,319.5 Z"/></g>
<g><path style="opacity:0.924" fill="#000000" d="M 246.5,263.5 C 288.633,262.153 314.799,281.82 325,322.5C 328.329,362.355 311.162,388.855 273.5,402C 240.263,408.707 214.096,398.207 195,370.5C 178.445,337.389 182.945,307.555 208.5,281C 219.601,271.614 232.268,265.78 246.5,263.5 Z M 246.5,279.5 C 223.368,285.131 208.534,299.464 202,322.5C 198.462,357.943 213.962,379.776 248.5,388C 285.509,388.494 306.175,370.328 310.5,333.5C 305.36,296.363 284.026,278.363 246.5,279.5 Z M 250.5,319.5 C 241.52,324.607 239.02,331.941 243,341.5C 251.286,350.824 259.62,350.824 268,341.5C 272.48,326.163 266.647,318.83 250.5,319.5 Z"/></g>
<g><path style="opacity:0.919" fill="#000000" d="M 30.5,264.5 C 36.8646,263.512 40.5312,266.178 41.5,272.5C 34.6022,281.28 28.4356,290.613 23,300.5C 12.0761,325.824 13.4094,350.491 27,374.5C 31.4226,381.011 36.0892,387.345 41,393.5C 40.6502,401.842 36.4835,404.675 28.5,402C 0.243437,371.656 -6.92323,336.823 7,297.5C 12.4002,284.626 20.2335,273.626 30.5,264.5 Z"/></g>
<g><path style="opacity:0.919" fill="#000000" d="M 474.5,264.5 C 477.32,264.248 479.986,264.748 482.5,266C 506.228,290.527 515.061,319.693 509,353.5C 504.976,372.388 496.143,388.555 482.5,402C 474.517,404.675 470.35,401.842 470,393.5C 474.9,387.379 479.567,381.046 484,374.5C 500.508,343.777 498.841,314.111 479,285.5C 475.243,282.414 472.243,278.748 470,274.5C 469.616,270.272 471.116,266.939 474.5,264.5 Z"/></g>
<g><path style="opacity:0.913" fill="#000000" d="M 57.5,290.5 C 66.3797,290.932 69.2131,295.265 66,303.5C 48.3351,324.289 48.6685,344.955 67,365.5C 67.949,374.217 64.1156,377.717 55.5,376C 37.4487,357.08 32.9487,335.247 42,310.5C 45.5058,302.46 50.6725,295.793 57.5,290.5 Z"/></g>
<g><path style="opacity:0.913" fill="#000000" d="M 449.5,290.5 C 451.655,290.372 453.655,290.872 455.5,292C 475.027,312.441 478.86,335.608 467,361.5C 463.882,366.286 460.382,370.786 456.5,375C 447.457,378.292 443.29,375.126 444,365.5C 462.946,344.329 462.946,322.996 444,301.5C 442.679,296.141 444.513,292.474 449.5,290.5 Z"/></g>
<g><path style="opacity:0.927" fill="#000000" d="M 248.5,303.5 C 266.351,301.536 278.518,308.869 285,325.5C 288.206,348.439 278.372,361.439 255.5,364.5C 232.628,361.439 222.794,348.439 226,325.5C 230.109,314.557 237.609,307.223 248.5,303.5 Z M 250.5,319.5 C 241.52,324.607 239.02,331.941 243,341.5C 251.286,350.824 259.62,350.824 268,341.5C 272.48,326.163 266.647,318.83 250.5,319.5 Z"/></g>
</svg>
