<?xml version="1.0" encoding="UTF-8"?>
<svg version="1.1" xmlns="http://www.w3.org/2000/svg" width="512" height="512">
<path d="M0 0 C0.75348023 -0.00265183 1.50696046 -0.00530365 2.28327343 -0.00803584 C4.82846116 -0.01574444 7.37360076 -0.01628861 9.9187994 -0.01688576 C11.75392355 -0.02089936 13.58904681 -0.02533741 15.424169 -0.03016531 C20.4831861 -0.04214819 25.54219365 -0.04778324 30.60122216 -0.05234647 C36.05131573 -0.0582961 41.50139786 -0.06990757 46.95148373 -0.08063698 C60.12206493 -0.10517611 73.29264993 -0.11979059 86.46324697 -0.13269705 C90.18215747 -0.13640795 93.90106759 -0.14038127 97.61997771 -0.14444971 C120.70506529 -0.16968578 143.79015344 -0.19174282 166.87525177 -0.20417786 C172.22423524 -0.20710764 177.57321869 -0.2100667 182.92220211 -0.21308327 C183.5867457 -0.21345418 184.25128929 -0.21382509 184.93597057 -0.21420723 C206.47787068 -0.22636041 228.01968904 -0.2573003 249.56155076 -0.29900479 C272.33632306 -0.34301572 295.11105435 -0.36871319 317.8858704 -0.37409842 C330.30078857 -0.37751403 342.7155778 -0.38928697 355.13045597 -0.42220116 C365.70324273 -0.45018533 376.27587412 -0.46120812 386.84869505 -0.4500057 C392.24336377 -0.44481488 397.63770704 -0.44773366 403.03232861 -0.47247124 C407.9729279 -0.49493775 412.91296748 -0.49424382 417.85357641 -0.47526737 C419.63899026 -0.47246373 421.42444186 -0.47808606 423.20979495 -0.4930803 C432.51389859 -0.56643002 440.85436543 -0.62690736 448.69344234 5.13701439 C450.94734859 7.48857689 450.94734859 7.48857689 452.25594234 9.76201439 C452.71098141 10.51740501 453.16602047 11.27279564 453.63484859 12.05107689 C455.75128487 16.22147161 455.83821295 19.87964052 455.83045673 24.44357204 C455.83310856 25.19705228 455.83576039 25.95053251 455.83849257 26.72684547 C455.84620117 29.2720332 455.84674534 31.81717281 455.84734249 34.36237144 C455.85135609 36.1974956 455.85579414 38.03261886 455.86062205 39.86774105 C455.87260493 44.92675814 455.87823997 49.98576569 455.8828032 55.0447942 C455.88875284 60.49488778 455.90036431 65.94496991 455.91109371 71.39505577 C455.93563284 84.56563698 455.95024732 97.73622198 455.96315378 110.90681902 C455.96686469 114.62572951 455.970838 118.34463963 455.97490644 122.06354976 C456.00014252 145.14863733 456.02219955 168.23372549 456.03463459 191.31882381 C456.03756438 196.66780728 456.04052344 202.01679073 456.04354 207.36577415 C456.04391091 208.03031775 456.04428182 208.69486134 456.04466397 209.37954261 C456.05681714 230.92144272 456.08775704 252.46326108 456.12946153 274.0051228 C456.17347245 296.77989511 456.19916992 319.55462639 456.20455515 342.32944244 C456.20797076 354.74436061 456.2197437 367.15914984 456.25265789 379.57402802 C456.28064207 390.14681478 456.29166486 400.71944617 456.28046243 411.29226709 C456.27527161 416.68693581 456.27819039 422.08127909 456.30292797 427.47590065 C456.32539448 432.41649995 456.32470055 437.35653952 456.3057241 442.29714846 C456.30292046 444.08256231 456.3085428 445.8680139 456.32353704 447.65336699 C456.39688676 456.95747064 456.45736409 465.29793747 450.69344234 473.13701439 C448.34187984 475.39092064 448.34187984 475.39092064 446.06844234 476.69951439 C445.31305172 477.15455345 444.55766109 477.60959251 443.77937984 478.07842064 C439.60898512 480.19485691 435.95081622 480.28178499 431.38688469 480.27402878 C430.63340446 480.2766806 429.87992423 480.27933243 429.10361126 480.28206462 C426.55842353 480.28977322 424.01328393 480.29031739 421.46808529 480.29091454 C419.63296114 480.29492814 417.79783787 480.29936619 415.96271569 480.30419409 C410.90369859 480.31617697 405.84469104 480.32181202 400.78566253 480.32637525 C395.33556895 480.33232488 389.88548683 480.34393635 384.43540096 480.35466576 C371.26481976 480.37920488 358.09423476 480.39381937 344.92363772 480.40672582 C341.20472722 480.41043673 337.4858171 480.41441005 333.76690698 480.41847849 C310.6818194 480.44371456 287.59673125 480.4657716 264.51163292 480.47820663 C259.16264945 480.48113642 253.813666 480.48409548 248.46468258 480.48711205 C247.46786719 480.48766841 247.46786719 480.48766841 246.45091412 480.48823601 C224.90901401 480.50038918 203.36719565 480.53132908 181.82533393 480.57303357 C159.05056163 480.6170445 136.27583034 480.64274196 113.50101429 480.6481272 C101.08609612 480.65154281 88.67130689 480.66331574 76.25642872 480.69622993 C65.68364196 480.72421411 55.11101056 480.7352369 44.53818964 480.72403447 C39.14352092 480.71884366 33.74917765 480.72176243 28.35455608 480.74650002 C23.41395678 480.76896653 18.47391721 480.7682726 13.53330828 480.74929614 C11.74789443 480.74649251 9.96244283 480.75211484 8.17708974 480.76710908 C-1.1270139 480.8404588 -9.46748074 480.90093613 -17.30655766 475.13701439 C-19.56046391 472.78545189 -19.56046391 472.78545189 -20.86905766 470.51201439 C-21.32409672 469.75662376 -21.77913578 469.00123314 -22.24796391 468.22295189 C-24.36440018 464.05255717 -24.45132826 460.39438826 -24.44357204 455.83045673 C-24.44622387 455.0769765 -24.4488757 454.32349627 -24.45160788 453.54718331 C-24.45931648 451.00199558 -24.45986065 448.45685597 -24.4604578 445.91165733 C-24.4644714 444.07653318 -24.46890945 442.24140992 -24.47373736 440.40628773 C-24.48572024 435.34727064 -24.49135528 430.28826309 -24.49591851 425.22923458 C-24.50186815 419.779141 -24.51347962 414.32905887 -24.52420902 408.87897301 C-24.54874815 395.7083918 -24.56336263 382.5378068 -24.57626909 369.36720976 C-24.57998 365.64829926 -24.58395331 361.92938914 -24.58802176 358.21047902 C-24.61325783 335.12539145 -24.63531486 312.04030329 -24.6477499 288.95520496 C-24.65067969 283.60622149 -24.65363875 278.25723804 -24.65665531 272.90825462 C-24.65702622 272.24371103 -24.65739713 271.57916744 -24.65777928 270.89448616 C-24.66993245 249.35258606 -24.70087235 227.8107677 -24.74257684 206.26890598 C-24.78658776 183.49413367 -24.81228523 160.71940238 -24.81767046 137.94458634 C-24.82108608 125.52966816 -24.83285901 113.11487894 -24.8657732 100.70000076 C-24.89375738 90.127214 -24.90478017 79.55458261 -24.89357774 68.98176169 C-24.88838692 63.58709296 -24.8913057 58.19274969 -24.91604328 52.79812813 C-24.93850979 47.85752883 -24.93781586 42.91748926 -24.91883941 37.97688032 C-24.91603578 36.19146647 -24.92165811 34.40601487 -24.93665235 32.62066179 C-25.01000207 23.31655814 -25.0704794 14.9760913 -19.30655766 7.13701439 C-16.95499516 4.88310814 -16.95499516 4.88310814 -14.68155766 3.57451439 C-13.54847172 2.8919558 -13.54847172 2.8919558 -12.39249516 2.19560814 C-8.22210043 0.07917187 -4.56393153 -0.00775621 0 0 Z M-7.30655766 20.13701439 C-13.45132534 44.71608514 -8.30655766 70.80148817 -8.30655766 96.13701439 C139.53344234 96.13701439 287.37344234 96.13701439 439.69344234 96.13701439 C444.01151763 55.76355312 444.01151763 55.76355312 436.69344234 18.13701439 C432.74946037 15.73112084 428.88364819 15.88645894 424.34546566 15.88533211 C423.61181699 15.88242523 422.87816832 15.87951834 422.12228787 15.87652338 C419.65658375 15.86920719 417.1911272 15.87617424 414.72542477 15.8830471 C412.9427579 15.88074331 411.16009198 15.87756734 409.37742805 15.87359262 C404.47287225 15.86522477 399.56839404 15.86937892 394.66383791 15.87556505 C389.37679512 15.8800804 384.0897659 15.87311034 378.80272579 15.86760521 C368.44306949 15.85869975 358.08344213 15.86063835 347.72378469 15.86643049 C339.30622797 15.87094244 330.88867937 15.87156191 322.47112179 15.86938286 C321.2742868 15.86907639 320.0774518 15.86876993 318.84434909 15.86845417 C316.41320141 15.86781474 313.98205373 15.86716631 311.55090606 15.86650899 C288.73998007 15.86080232 265.92907014 15.86736887 243.11814678 15.87810972 C223.53418778 15.88704554 203.95025248 15.88549359 184.36629391 15.8762722 C161.63844856 15.86557552 138.91061729 15.86135167 116.18276978 15.86749673 C113.76043415 15.86813384 111.33809853 15.86876259 108.9157629 15.86938286 C107.1278872 15.86984568 107.1278872 15.86984568 105.30389279 15.87031786 C96.89389343 15.87204661 88.48390298 15.86912583 80.07390499 15.86442375 C69.82860308 15.85882161 59.58333182 15.86031732 49.33803344 15.87098524 C44.10812393 15.87625093 38.87826559 15.87828344 33.64835644 15.87168694 C28.86429838 15.86574393 24.08033909 15.86897526 19.29629004 15.87964204 C17.56217726 15.88188308 15.82805621 15.88072409 14.09394872 15.87589046 C11.74298564 15.86983821 9.39236408 15.87601713 7.04141903 15.88533211 C5.73371453 15.88565681 4.42601004 15.88598152 3.07867813 15.88631606 C-1.33721592 16.21334122 -4.16045188 16.99090862 -7.30655766 20.13701439 Z M-8.30655766 112.13701439 C-8.34780766 168.79388939 -8.38905766 225.45076439 -8.43155766 283.82451439 C-8.44976566 301.73821312 -8.46797367 319.65191185 -8.48673344 338.10844994 C-8.49342079 354.11507949 -8.49342079 354.11507949 -8.49744511 370.12170982 C-8.49931434 377.27150339 -8.50666822 384.4212659 -8.51770878 391.57105064 C-8.53041428 399.81118011 -8.53623545 408.05127967 -8.53344756 416.29141902 C-8.53223955 420.50912739 -8.53419232 424.72676886 -8.54498792 428.94446504 C-8.55468401 432.75565385 -8.55522827 436.56672811 -8.54835987 440.37792206 C-8.54750916 441.75823365 -8.55006818 443.13855228 -8.55632281 444.51884997 C-8.56432999 446.39568322 -8.55883647 448.27255961 -8.55265331 450.14939976 C-8.55341275 451.1924915 -8.55417219 452.23558325 -8.55495465 453.31028384 C-8.19282464 457.43128361 -7.24174682 460.20182523 -4.30655766 463.13701439 C-0.65645173 464.48272622 3.06934099 464.26357608 6.9183712 464.26564884 C7.65086603 464.26740188 8.38336085 464.26915492 9.13805249 464.27096108 C11.60578883 464.27563296 14.07346656 464.27315252 16.54120541 464.27072716 C18.32300841 464.27259453 20.10481101 464.27489493 21.88661295 464.27759248 C26.79340703 464.28372596 31.70018412 464.28357507 36.60698116 464.2823981 C41.89472046 464.28219449 47.18245425 464.28770906 52.470191 464.29245567 C62.83331813 464.30077104 73.19643958 464.30351091 83.55956977 464.30406805 C91.98000922 464.30454275 100.4004468 464.30659518 108.82088566 464.30976868 C132.67773797 464.31857731 156.53458578 464.32318767 180.39143973 464.3224382 C181.67824659 464.32239825 182.96505345 464.32235829 184.29085445 464.32231712 C185.57922648 464.32227624 186.8675985 464.32223536 188.1950121 464.32219324 C209.08473469 464.32178661 229.97443927 464.33135992 250.86415666 464.34545549 C272.29725392 464.35980398 293.73034239 464.36672653 315.16344458 464.36586171 C327.20310893 464.36552924 339.2427544 464.3682985 351.28241444 464.37903976 C361.53139737 464.38812466 371.78035285 464.39033659 382.02933805 464.38353034 C387.26126793 464.38025506 392.49314507 464.38024464 397.72507 464.38888359 C402.51101491 464.39670509 407.2968649 464.39536202 412.08280737 464.38659946 C413.81762439 464.38505483 415.55244834 464.38691653 417.28725719 464.39245953 C419.6391784 464.39947882 421.99076288 464.3942583 424.34267235 464.38590336 C425.65091892 464.38612073 426.95916549 464.38633809 428.30705589 464.38656205 C432.72407092 464.0610659 435.54667311 463.28378363 438.69344234 460.13701439 C439.84325205 456.86167261 439.81774498 453.72066789 439.81649017 450.27244759 C439.81848104 449.06581711 439.82047192 447.85918663 439.82252312 446.61599159 C439.81967107 445.2761362 439.81672569 443.93628101 439.81369686 442.59642601 C439.81413425 441.1774805 439.81501112 439.75853507 439.81629086 438.33959007 C439.81853807 434.42809946 439.81451459 430.51663612 439.80951507 426.60514897 C439.80515652 422.32697414 439.80660915 418.04880061 439.80733299 413.77062416 C439.80786524 405.46136182 439.80324221 397.15211027 439.79683166 388.8428507 C439.78964 379.2340357 439.78883737 369.62522721 439.78804684 360.01640892 C439.78279356 334.63994236 439.76883248 309.26347822 439.75594234 283.88701439 C439.73531734 227.20951439 439.71469234 170.53201439 439.69344234 112.13701439 C291.85344234 112.13701439 144.01344234 112.13701439 -8.30655766 112.13701439 Z " fill="#000000" transform="translate(40.30655765533447,15.862985610961914)"/>
<path d="M0 0 C1.16326028 -0.00507454 2.32652056 -0.01014909 3.52503115 -0.0153774 C5.45105666 -0.01612404 5.45105666 -0.01612404 7.41599178 -0.01688576 C8.78913861 -0.02090032 10.16228425 -0.02533854 11.53542846 -0.03016531 C15.31746909 -0.04213759 19.09949695 -0.04778079 22.88155282 -0.05234647 C26.95740257 -0.05830017 31.03323705 -0.06991068 35.1090765 -0.08063698 C44.95741659 -0.10516757 54.80576174 -0.11978975 64.65412298 -0.13269705 C67.43570013 -0.13640871 70.21727679 -0.14038197 72.99885345 -0.14444971 C90.27104302 -0.1696876 107.54323337 -0.19174136 124.81543732 -0.20417786 C128.81688661 -0.20710757 132.81833588 -0.21006923 136.81978512 -0.21308327 C137.81433084 -0.21382932 138.80887657 -0.21457537 139.83356004 -0.21534403 C155.94125162 -0.2279951 172.04883274 -0.2612143 188.15647269 -0.3028851 C204.69321817 -0.3453153 221.22990712 -0.36887421 237.76670688 -0.37409842 C247.05172825 -0.37751147 256.33657706 -0.38925396 265.62154484 -0.42220116 C273.53002525 -0.45021785 281.43829775 -0.46119394 289.34682394 -0.4500057 C293.3805556 -0.44482302 297.41385198 -0.4476799 301.44752026 -0.47247124 C305.14469651 -0.49500429 308.84112583 -0.49419326 312.53831553 -0.47526737 C314.50022671 -0.47115515 316.46214271 -0.49158326 318.42394072 -0.51305425 C326.16220434 -0.44381391 331.96799066 0.74696056 338.44258785 5.13701439 C340.6964941 7.48857689 340.6964941 7.48857689 342.00508785 9.76201439 C342.46012691 10.51740501 342.91516598 11.27279564 343.3839941 12.05107689 C345.00276152 15.24082523 345.56850637 17.79358425 345.57960224 21.32009792 C345.58721406 22.60518013 345.58721406 22.60518013 345.59497964 23.91622359 C345.5954774 24.85783714 345.59597516 25.7994507 345.596488 26.76959801 C345.60087025 27.7696595 345.60525251 28.769721 345.60976756 29.80008739 C345.62317256 33.16703693 345.62933829 36.53396029 345.63545895 39.9009304 C345.64335865 42.30876344 345.65162752 44.71659529 345.66023922 47.12442589 C345.68421147 54.36243494 345.69939079 61.60044576 345.71229929 68.83848062 C345.71601203 70.88358163 345.71998521 72.92868197 345.72405195 74.9737823 C345.74929242 87.67869404 345.77134151 100.38360689 345.7837801 113.08853817 C345.78670971 116.03121062 345.78967138 118.97388304 345.79268551 121.9165554 C345.79343156 122.64792703 345.79417761 123.37929865 345.79494627 124.13283306 C345.80759171 135.97263672 345.84080384 147.81228994 345.88248734 159.65202332 C345.92495126 171.81336104 345.94848038 183.97462183 345.95370066 196.13603348 C345.95711005 202.96186254 345.9688089 209.78745662 346.0018034 216.61321259 C346.03280694 223.03757262 346.03819572 229.46163572 346.02641964 235.88606262 C346.02619889 238.24105161 346.03450472 240.59605958 346.05207348 242.95098305 C346.07479795 246.1729941 346.06645357 249.3935255 346.05058956 252.61554527 C346.06447165 253.54154378 346.07835374 254.46754229 346.09265649 255.42160136 C346.01022409 262.24403328 344.11710873 267.38624309 340.44258785 273.13701439 C338.09102535 275.39092064 338.09102535 275.39092064 335.81758785 276.69951439 C335.06219723 277.15455345 334.3068066 277.60959251 333.52852535 278.07842064 C329.83847294 279.95108769 326.96651702 280.26459262 322.8851757 280.27402878 C321.72191543 280.27910332 320.55865515 280.28417786 319.36014456 280.28940618 C318.07612755 280.28990394 316.79211054 280.29040169 315.46918392 280.29091454 C314.0960371 280.2949291 312.72289145 280.29936731 311.34974724 280.30419409 C307.56770662 280.31616636 303.78567875 280.32180957 300.00362289 280.32637525 C295.92777314 280.33232895 291.85193866 280.34393946 287.77609921 280.35466576 C277.92775912 280.37919635 268.07941397 280.39381853 258.23105273 280.40672582 C255.44947557 280.41043749 252.66789892 280.41441075 249.88632226 280.41847849 C232.61413269 280.44371637 215.34194233 280.46577013 198.06973839 280.47820663 C194.06828909 280.48113635 190.06683982 280.48409801 186.06539059 280.48711205 C185.07084486 280.4878581 184.07629914 280.48860415 183.05161566 280.4893728 C166.94392409 280.50202388 150.83634297 280.53524307 134.72870301 280.57691388 C118.19195754 280.61934408 101.65526859 280.64290299 85.11846882 280.6481272 C75.83344746 280.65154024 66.54859864 280.66328274 57.26363087 280.69622993 C49.35515045 280.72424663 41.44687795 280.73522272 33.53835177 280.72403447 C29.5046201 280.7188518 25.47132373 280.72170868 21.43765545 280.74650002 C17.74047919 280.76903307 14.04404988 280.76822203 10.34686018 280.74929614 C8.38494899 280.74518393 6.42303299 280.76561204 4.46123499 280.78708303 C-3.27702863 280.71784269 -9.08281496 279.52706822 -15.55741215 275.13701439 C-17.8113184 272.78545189 -17.8113184 272.78545189 -19.11991215 270.51201439 C-19.57495121 269.75662376 -20.02999027 269.00123314 -20.4988184 268.22295189 C-22.11758581 265.03320355 -22.68333066 262.48044453 -22.69442654 258.95393085 C-22.69950108 258.09720939 -22.70457562 257.24048792 -22.70980394 256.35780519 C-22.7103017 255.41619163 -22.71079945 254.47457807 -22.71131229 253.50443077 C-22.71788567 252.00433853 -22.71788567 252.00433853 -22.72459185 250.47394139 C-22.73799685 247.10699184 -22.74416258 243.74006849 -22.75028324 240.37309837 C-22.75818295 237.96526534 -22.76645181 235.55743349 -22.77506351 233.14960289 C-22.79903576 225.91159384 -22.81421509 218.67358302 -22.82712358 211.43554816 C-22.83083632 209.39044715 -22.8348095 207.34534681 -22.83887625 205.30024648 C-22.86411672 192.59533473 -22.8861658 179.89042189 -22.89860439 167.18549061 C-22.90153401 164.24281816 -22.90449568 161.30014574 -22.9075098 158.35747337 C-22.90862888 157.26041594 -22.90862888 157.26041594 -22.90977056 156.14119572 C-22.922416 144.30139205 -22.95562814 132.46173884 -22.99731164 120.62200546 C-23.03977555 108.46066774 -23.06330467 96.29940694 -23.06852496 84.1379953 C-23.07193435 77.31216624 -23.08363319 70.48657216 -23.11662769 63.66081619 C-23.14763123 57.23645615 -23.15302001 50.81239306 -23.14124393 44.38796616 C-23.14102319 42.03297717 -23.14932901 39.6779692 -23.16689777 37.32304573 C-23.18962224 34.10103468 -23.18127786 30.88050328 -23.16541386 27.65848351 C-23.17929594 26.732485 -23.19317803 25.80648649 -23.20748079 24.85242742 C-23.12504839 18.0299955 -21.23193303 12.88778569 -17.55741215 7.13701439 C-15.20584965 4.88310814 -15.20584965 4.88310814 -12.93241215 3.57451439 C-11.79932621 2.8919558 -11.79932621 2.8919558 -10.64334965 2.19560814 C-6.95329724 0.32294109 -4.08134132 0.00943616 0 0 Z M-5.55741215 20.13701439 C-6.46049096 22.87227353 -6.68316293 25.37073692 -6.6860466 28.23846912 C-6.68927105 29.0514976 -6.69249549 29.86452607 -6.69581765 30.70219177 C-6.69426905 31.58982981 -6.69272045 32.47746785 -6.69112492 33.39200401 C-6.69339047 34.33927803 -6.69565603 35.28655205 -6.69799024 36.26253134 C-6.70433297 39.44458162 -6.7035007 42.62658934 -6.70267582 45.80864525 C-6.70566711 48.08680845 -6.70906957 50.36497114 -6.71285343 52.64313316 C-6.72169999 58.83725206 -6.7240318 65.03135715 -6.72466922 71.22548175 C-6.7256178 76.39221009 -6.72929545 81.55893519 -6.73284131 86.72566229 C-6.7405226 98.21580835 -6.7435097 109.70594541 -6.74283596 121.19609337 C-6.74279601 121.88550112 -6.74275605 122.57490886 -6.74271488 123.28520775 C-6.742674 123.97545682 -6.74263312 124.66570589 -6.742591 125.37687159 C-6.74218443 136.56681122 -6.75175701 147.75671721 -6.76585325 158.9466471 C-6.78021208 170.43563766 -6.78694051 181.92460747 -6.78625947 193.41360766 C-6.78600414 199.86414409 -6.78887478 206.31464247 -6.79943752 212.76517105 C-6.80909734 218.82997626 -6.80921224 224.89470683 -6.80192089 230.95951462 C-6.80087246 233.18758566 -6.80325319 235.4156613 -6.80928135 237.64372444 C-6.81696759 240.68091858 -6.81237878 243.71785282 -6.80465031 246.75504112 C-6.80979387 247.64044844 -6.81493743 248.52585576 -6.82023686 249.4380936 C-6.789579 254.87553008 -6.59115199 259.10327455 -2.55741215 263.13701439 C0.60369646 264.23097812 3.59298811 264.26322856 6.9183712 264.26564884 C8.59772213 264.27048551 8.59772213 264.27048551 10.31099933 264.27541989 C11.54104082 264.27387129 12.77108231 264.27232269 14.03839779 264.27072716 C15.34502441 264.27299271 16.65165104 264.27525827 17.99787241 264.27759248 C21.62769188 264.28371812 25.25748835 264.28357599 28.88731182 264.2823981 C32.8008061 264.28219429 36.71429295 264.28771095 40.62778378 264.29245567 C48.2958028 264.30076672 55.96381415 264.30351071 63.6318373 264.30406805 C69.86310812 264.30454295 76.09437639 264.30659638 82.3256464 264.30976868 C99.98469587 264.3185761 117.64373925 264.32318786 135.30279093 264.3224382 C136.25505429 264.32239825 137.20731764 264.32235829 138.18843746 264.32231712 C139.14186063 264.32227624 140.0952838 264.32223536 141.07759858 264.32219324 C156.53544167 264.32178663 171.99326042 264.33135965 187.45109647 264.34545549 C203.31549307 264.35980817 219.1798778 264.3667263 235.04428107 264.36586171 C243.95403227 264.36552938 252.86375794 264.36829223 261.7735033 264.37903976 C269.35816919 264.38813015 276.94279798 264.39033204 284.52746695 264.38353034 C288.3984245 264.38025787 292.26931081 264.3802346 296.14026165 264.38888359 C300.33349353 264.39815648 304.52655935 264.39199167 308.71979427 264.38425255 C310.56151043 264.39196789 310.56151043 264.39196789 312.44043297 264.3998391 C313.562608 264.39524031 314.68478303 264.39064151 315.84096336 264.38590336 C316.80898052 264.38612073 317.77699767 264.38633809 318.77434868 264.38656205 C322.81216619 264.00892427 325.56760166 263.01200058 328.44258785 260.13701439 C329.34566667 257.40175525 329.56833864 254.90329185 329.57122231 252.03555965 C329.57444675 251.22253118 329.5776712 250.40950271 329.58099335 249.57183701 C329.57944475 248.68419897 329.57789615 247.79656093 329.57630062 246.88202477 C329.57856618 245.93475075 329.58083173 244.98747673 329.58316594 244.01149744 C329.58950867 240.82944716 329.5886764 237.64743944 329.58785152 234.46538353 C329.59084282 232.18722033 329.59424528 229.90905764 329.59802914 227.63089561 C329.6068757 221.43677672 329.60920751 215.24267163 329.60984492 209.04854703 C329.6107935 203.88181869 329.61447116 198.71509358 329.61801702 193.54836649 C329.6256983 182.05822042 329.62868541 170.56808337 329.62801167 159.07793541 C329.62797171 158.38852766 329.62793175 157.69911992 329.62789059 156.98882103 C329.62784971 156.29857196 329.62780883 155.60832289 329.62776671 154.89715718 C329.62736013 143.70721756 329.63693272 132.51731157 329.65102895 121.32738168 C329.66538779 109.83839112 329.67211622 98.34942131 329.67143518 86.86042112 C329.67117985 80.40988468 329.67405048 73.95938631 329.68461323 67.50885773 C329.69427304 61.44405252 329.69438794 55.37932195 329.6870966 49.31451416 C329.68604816 47.08644311 329.68842889 44.85836747 329.69445705 42.63030434 C329.7021433 39.5931102 329.69755448 36.55617596 329.68982601 33.51898766 C329.69754136 32.19087668 329.69754136 32.19087668 329.70541257 30.83593518 C329.67475471 25.39849869 329.47632769 21.17075423 325.44258785 17.13701439 C322.28147925 16.04305065 319.2921876 16.01080022 315.9668045 16.00837994 C314.28745358 16.00354327 314.28745358 16.00354327 312.57417637 15.99860889 C311.34413488 16.00015749 310.11409339 16.00170609 308.84677792 16.00330162 C307.54015129 16.00103606 306.23352466 15.99877051 304.88730329 15.9964363 C301.25748382 15.99031066 297.62768735 15.99045279 293.99786389 15.99163067 C290.08436961 15.99183448 286.17088276 15.98631783 282.25739193 15.9815731 C274.5893729 15.97326206 266.92136156 15.97051807 259.2533384 15.96996073 C253.02206759 15.96948583 246.79079932 15.9674324 240.5595293 15.9642601 C222.90047984 15.95545268 205.24143645 15.95084092 187.58238477 15.95159058 C186.63012142 15.95163053 185.67785806 15.95167049 184.69673824 15.95171165 C183.74331507 15.95175254 182.78989191 15.95179342 181.80757713 15.95183554 C166.34973403 15.95224214 150.89191529 15.94266913 135.43407924 15.92857329 C119.56968263 15.9142206 103.70529791 15.90730248 87.84089464 15.90816706 C78.93114344 15.90849939 70.02141776 15.90573655 61.1116724 15.89498901 C53.52700651 15.88589863 45.94237773 15.88369674 38.35770876 15.89049844 C34.48675121 15.89377091 30.6158649 15.89379418 26.74491405 15.88514519 C22.55168218 15.8758723 18.35861636 15.88203711 14.16538143 15.88977623 C12.32366528 15.88206089 12.32366528 15.88206089 10.44474274 15.87418967 C8.76148019 15.88108787 8.76148019 15.88108787 7.04421234 15.88812542 C6.07619519 15.88790805 5.10817804 15.88769068 4.11082703 15.88746673 C0.07300951 16.26510451 -2.68242595 17.26202819 -5.55741215 20.13701439 Z " fill="#000000" transform="translate(94.55741214752197,167.8629856109619)"/>
<path d="M0 0 C1.35181618 -0.01226624 1.35181618 -0.01226624 2.73094177 -0.02478027 C5.71832621 -0.04962306 8.70566302 -0.06615092 11.69311523 -0.08056641 C13.22585744 -0.08855192 13.22585744 -0.08855192 14.78956413 -0.09669876 C20.20214971 -0.1234304 25.61471226 -0.14280195 31.02734375 -0.15722656 C35.49793042 -0.17054566 39.96805848 -0.19836111 44.43847656 -0.23925781 C49.84309833 -0.28869888 55.24730524 -0.31336231 60.65214348 -0.32045364 C62.70653751 -0.32714795 64.76092296 -0.34232228 66.81518745 -0.36634445 C87.84900441 -0.5981997 87.84900441 -0.5981997 95.18920898 5.19287109 C97.44311523 7.54443359 97.44311523 7.54443359 98.75170898 9.81787109 C99.20674805 10.57326172 99.66178711 11.32865234 100.13061523 12.10693359 C103.4886246 18.7238229 103.31446551 27.07058988 101.38842773 34.12646484 C98.54610114 40.54367644 94.38915286 44.04645763 88.18920898 47.19287109 C84.25273582 48.50502881 80.48347767 48.36522853 76.37841797 48.38574219 C75.02660179 48.39800842 75.02660179 48.39800842 73.6474762 48.41052246 C70.66009176 48.43536524 67.67275495 48.4518931 64.68530273 48.46630859 C63.6634746 48.47163227 62.64164646 48.47695595 61.58885384 48.48244095 C56.17626826 48.50917259 50.76370571 48.52854413 45.35107422 48.54296875 C40.88048755 48.55628784 36.41035949 48.5841033 31.93994141 48.625 C26.53531964 48.67444107 21.13111273 48.69910449 15.72627449 48.70619583 C13.67188045 48.71289014 11.61749501 48.72806447 9.56323051 48.75208664 C-11.47058644 48.98394188 -11.47058644 48.98394188 -18.81079102 43.19287109 C-21.06469727 40.84130859 -21.06469727 40.84130859 -22.37329102 38.56787109 C-22.82833008 37.81248047 -23.28336914 37.05708984 -23.75219727 36.27880859 C-27.11020663 29.66191929 -26.93604754 21.31515231 -25.01000977 14.25927734 C-22.16768317 7.84206575 -18.01073489 4.33928456 -11.81079102 1.19287109 C-7.87431785 -0.11928663 -4.1050597 0.02051366 0 0 Z M-8.81079102 20.19287109 C-9.38512217 25.44075448 -9.38512217 25.44075448 -7.56079102 30.13037109 C-3.38880635 32.66336178 1.16689067 32.34109482 5.90771484 32.33813477 C6.68055313 32.34149338 7.45339142 32.34485199 8.24964905 32.34831238 C10.80113335 32.35780133 13.35255189 32.35976437 15.90405273 32.36083984 C17.67997769 32.36405355 19.45590238 32.36741771 21.23182678 32.3709259 C24.9532228 32.37691181 28.6745956 32.37876632 32.39599609 32.37817383 C37.16195427 32.37807217 41.9277636 32.39173084 46.69368649 32.40894604 C50.3611367 32.42006932 54.02855095 32.42209294 57.69601631 32.4215641 C59.45306474 32.42274347 61.21011412 32.42716284 62.96714592 32.43489647 C65.42530604 32.44470416 67.88314317 32.44181542 70.34130859 32.43579102 C71.06510712 32.44141052 71.78890564 32.44703003 72.53463745 32.45281982 C77.69633523 32.42070787 81.47032594 31.91175414 85.18920898 28.19287109 C85.76354014 22.94498771 85.76354014 22.94498771 83.93920898 18.25537109 C79.76722432 15.72238041 75.2115273 16.04464737 70.47070312 16.04760742 C69.69786484 16.04424881 68.92502655 16.0408902 68.12876892 16.03742981 C65.57728462 16.02794086 63.02586608 16.02597781 60.47436523 16.02490234 C58.69844028 16.02168864 56.92251559 16.01832448 55.14659119 16.01481628 C51.42519517 16.00883038 47.70382236 16.00697586 43.98242188 16.00756836 C39.2164637 16.00767002 34.45065437 15.99401135 29.68473148 15.97679615 C26.01728127 15.96567287 22.34986702 15.96364924 18.68240166 15.96417809 C16.92535323 15.96299872 15.16830385 15.95857935 13.41127205 15.95084572 C10.95311193 15.94103803 8.4952748 15.94392677 6.03710938 15.94995117 C4.95141159 15.94152191 4.95141159 15.94152191 3.84378052 15.93292236 C-1.31791726 15.96503432 -5.09190797 16.47398805 -8.81079102 20.19287109 Z " fill="#000000" transform="translate(81.810791015625,47.80712890625)"/>
<path d="M0 0 C15.31820528 7.94277311 25.63502972 22.97159705 31 39 C33.06667476 49.55715387 32.05769177 59.29895614 26.375 68.68359375 C24.31173601 71.50768634 22.16131683 74.25018847 20 77 C5.72215791 94.6277405 5.72215791 94.6277405 0.484375 115.7578125 C1.20250186 118.88057627 2.58718426 121.41270003 4.16015625 124.18359375 C5 126 5 126 5 129.3125 C4 132 4 132 2.5 133.875 C-1.20766056 135.54344725 -5.0035285 135.7507184 -9 135 C-11.45667092 133.0860141 -12.75720897 130.89289209 -14.125 128.125 C-14.45757812 127.46757812 -14.79015625 126.81015625 -15.1328125 126.1328125 C-18.33418984 118.25915472 -17.93084417 108.78778637 -15.21875 100.83984375 C-9.98071471 88.63454997 -2.38904346 78.17790611 5.6875 67.72558594 C11.35850644 60.26973149 15.0810679 54.59257431 14 45 C10.42868027 33.12281097 1.80752301 22.69136639 -8.5 16.0625 C-10.85361028 14.37142175 -11.83428011 13.57698816 -12.640625 10.76953125 C-12.8110037 7.03945473 -12.39480523 4.67445893 -10.5 1.4375 C-6.87823093 -0.64501722 -3.98269471 -1.00081485 0 0 Z " fill="#000000" transform="translate(337,249)"/>
<path d="M0 0 C15.31820528 7.94277311 25.63502972 22.97159705 31 39 C33.06667476 49.55715387 32.05769177 59.29895614 26.375 68.68359375 C24.31173601 71.50768634 22.16131683 74.25018847 20 77 C5.72215791 94.6277405 5.72215791 94.6277405 0.484375 115.7578125 C1.20250186 118.88057627 2.58718426 121.41270003 4.16015625 124.18359375 C5 126 5 126 5 129.3125 C4 132 4 132 2.5 133.875 C-1.20766056 135.54344725 -5.0035285 135.7507184 -9 135 C-11.45667092 133.0860141 -12.75720897 130.89289209 -14.125 128.125 C-14.45757812 127.46757812 -14.79015625 126.81015625 -15.1328125 126.1328125 C-18.33418984 118.25915472 -17.93084417 108.78778637 -15.21875 100.83984375 C-9.98071471 88.63454997 -2.38904346 78.17790611 5.6875 67.72558594 C11.35850644 60.26973149 15.0810679 54.59257431 14 45 C10.42868027 33.12281097 1.80752301 22.69136639 -8.5 16.0625 C-10.85361028 14.37142175 -11.83428011 13.57698816 -12.640625 10.76953125 C-12.8110037 7.03945473 -12.39480523 4.67445893 -10.5 1.4375 C-6.87823093 -0.64501722 -3.98269471 -1.00081485 0 0 Z " fill="#000000" transform="translate(169,249)"/>
<path d="M0 0 C11.48771683 2.43009394 22.01750071 14.88350429 28.25 24.3125 C34.92588608 35.58009309 38.43441545 47.44362137 35.375 60.5 C33.17075232 67.04064147 28.77197332 72.32395202 24.67333984 77.77832031 C11.11722765 94.74547778 11.11722765 94.74547778 4.625 114.75 C5.24580548 118.66107452 6.22704065 120.40019106 8.25 123.6875 C8.84730656 128.39128916 8.96871522 131.30720472 6.125 135.1875 C3.25 137.6875 3.25 137.6875 0.25 138.375 C-4.32739349 137.32601399 -6.36349682 134.87825598 -8.8371582 130.96972656 C-11.68495811 125.71996361 -12.42471587 121.3722718 -12.3125 115.4375 C-12.30009277 114.60049561 -12.28768555 113.76349121 -12.27490234 112.90112305 C-12.01229519 105.62465798 -10.40134838 100.02801712 -6.75 93.6875 C-6.40646484 93.08373535 -6.06292969 92.4799707 -5.70898438 91.85791016 C-0.54464385 82.89166954 5.36250357 74.68182311 11.90234375 66.67578125 C16.49400437 60.831155 18.65291663 56.4674053 18.52734375 48.9609375 C16.97368475 36.22531019 7.15305129 26.97108332 -1.75 18.6875 C-2.94859797 17.79921099 -4.1549845 16.9211365 -5.375 16.0625 C-7.88679795 13.55070205 -8.19418638 13.04398017 -8.4375 9.6875 C-8.17122769 6.41792367 -7.62905362 5.51675217 -5.625 2.6875 C-2.75 0.6875 -2.75 0.6875 0 0 Z " fill="#000000" transform="translate(243.75,246.3125)"/>
<path d="M0 0 C5.03576332 5.17186503 7.99966668 11.38637516 8.5625 18.5625 C8.03333943 26.63219869 5.38560673 32.93745095 -0.6875 38.375 C-7.56116166 43.26988027 -14.40344233 44.31986599 -22.6875 43.375 C-30.11075393 41.07271545 -35.33529288 36.74470255 -39.6875 30.375 C-42.38124117 25.10463684 -42.44910029 19.16944341 -41.6875 13.375 C-38.99178571 5.20686999 -34.91828321 0.87893292 -27.625 -3.4375 C-18.37298859 -7.03550444 -8.19860321 -4.95729496 0 0 Z M-22.625 13.375 C-25.01936879 16.26625758 -25.01936879 16.26625758 -24.75 20 C-23.93040062 23.32698217 -23.93040062 23.32698217 -22.0625 25.375 C-18.53775855 26.85910166 -16.31939024 26.43154989 -12.6875 25.375 C-10.32145836 22.71320316 -9.64283815 21.31289883 -9.8125 17.75 C-10.78780259 15.10275011 -11.36710749 13.97527069 -13.6875 12.375 C-17.75698848 10.95952575 -19.01163081 10.91483374 -22.625 13.375 Z " fill="#000000" transform="translate(327.6875,50.625)"/>
<path d="M0 0 C5.03576332 5.17186503 7.99966668 11.38637516 8.5625 18.5625 C8.03333943 26.63219869 5.38560673 32.93745095 -0.6875 38.375 C-7.56116166 43.26988027 -14.40344233 44.31986599 -22.6875 43.375 C-30.11075393 41.07271545 -35.33529288 36.74470255 -39.6875 30.375 C-42.38124117 25.10463684 -42.44910029 19.16944341 -41.6875 13.375 C-38.99178571 5.20686999 -34.91828321 0.87893292 -27.625 -3.4375 C-18.37298859 -7.03550444 -8.19860321 -4.95729496 0 0 Z M-22.625 13.375 C-25.01936879 16.26625758 -25.01936879 16.26625758 -24.75 20 C-23.93040062 23.32698217 -23.93040062 23.32698217 -22.0625 25.375 C-18.53775855 26.85910166 -16.31939024 26.43154989 -12.6875 25.375 C-10.32145836 22.71320316 -9.64283815 21.31289883 -9.8125 17.75 C-10.78780259 15.10275011 -11.36710749 13.97527069 -13.6875 12.375 C-17.75698848 10.95952575 -19.01163081 10.91483374 -22.625 13.375 Z " fill="#000000" transform="translate(247.6875,50.625)"/>
</svg>
