<?xml version="1.0" encoding="UTF-8"?>
<!DOCTYPE svg PUBLIC "-//W3C//DTD SVG 1.1//EN" "http://www.w3.org/Graphics/SVG/1.1/DTD/svg11.dtd">
<svg xmlns="http://www.w3.org/2000/svg" version="1.1" width="512px" height="512px" style="shape-rendering:geometricPrecision; text-rendering:geometricPrecision; image-rendering:optimizeQuality; fill-rule:evenodd; clip-rule:evenodd" xmlns:xlink="http://www.w3.org/1999/xlink">
<g><path style="opacity:0.997" fill="#000000" d="M 19.5,95.5 C 177.58,95.0029 335.58,95.5029 493.5,97C 494.126,97.7504 494.626,98.5838 495,99.5C 495.167,140.833 495.333,182.167 495.5,223.5C 495.662,265.583 495.162,307.583 494,349.5C 493.25,350.126 492.416,350.626 491.5,351C 420.834,351.5 350.167,351.667 279.5,351.5C 279.5,356.833 279.5,362.167 279.5,367.5C 300.259,367.023 320.925,367.523 341.5,369C 347.461,380.422 353.294,391.922 359,403.5C 359.667,406.167 359.667,408.833 359,411.5C 358.5,413.333 357.333,414.5 355.5,415C 288.833,415.667 222.167,415.667 155.5,415C 154.584,414.626 153.75,414.126 153,413.5C 151.517,410.298 151.183,406.964 152,403.5C 157.706,391.922 163.539,380.422 169.5,369C 190.075,367.523 210.741,367.023 231.5,367.5C 231.5,362.167 231.5,356.833 231.5,351.5C 160.833,351.667 90.1659,351.5 19.5,351C 18.5838,350.626 17.7504,350.126 17,349.5C 15.339,266.248 15.0057,182.915 16,99.5C 16.6897,97.6498 17.8564,96.3164 19.5,95.5 Z M 31.5,111.5 C 180.833,111.5 330.167,111.5 479.5,111.5C 479.5,186.167 479.5,260.833 479.5,335.5C 330.167,335.5 180.833,335.5 31.5,335.5C 31.5,260.833 31.5,186.167 31.5,111.5 Z M 63.5,143.5 C 191.5,143.5 319.5,143.5 447.5,143.5C 447.5,196.833 447.5,250.167 447.5,303.5C 319.5,303.5 191.5,303.5 63.5,303.5C 63.5,250.167 63.5,196.833 63.5,143.5 Z M 247.5,351.5 C 252.833,351.5 258.167,351.5 263.5,351.5C 263.5,356.833 263.5,362.167 263.5,367.5C 258.167,367.5 252.833,367.5 247.5,367.5C 247.5,362.167 247.5,356.833 247.5,351.5 Z M 180.5,383.5 C 230.504,383.167 280.504,383.5 330.5,384.5C 332.833,389.167 335.167,393.833 337.5,398.5C 282.833,399.833 228.167,399.833 173.5,398.5C 176.118,393.599 178.452,388.599 180.5,383.5 Z"/></g>
<g><path style="opacity:0.999" fill="#000000" d="M 51.5,127.5 C 187.5,127.333 323.5,127.5 459.5,128C 461.333,128.5 462.5,129.667 463,131.5C 463.667,192.833 463.667,254.167 463,315.5C 462.5,317.333 461.333,318.5 459.5,319C 323.5,319.667 187.5,319.667 51.5,319C 49.6667,318.5 48.5,317.333 48,315.5C 47.3333,254.167 47.3333,192.833 48,131.5C 48.6897,129.65 49.8564,128.316 51.5,127.5 Z M 63.5,143.5 C 63.5,196.833 63.5,250.167 63.5,303.5C 191.5,303.5 319.5,303.5 447.5,303.5C 447.5,250.167 447.5,196.833 447.5,143.5C 319.5,143.5 191.5,143.5 63.5,143.5 Z"/></g>
</svg>
