<?xml version="1.0" encoding="UTF-8"?>
<!DOCTYPE svg PUBLIC "-//W3C//DTD SVG 1.1//EN" "http://www.w3.org/Graphics/SVG/1.1/DTD/svg11.dtd">
<svg xmlns="http://www.w3.org/2000/svg" version="1.1" width="512px" height="512px" style="shape-rendering:geometricPrecision; text-rendering:geometricPrecision; image-rendering:optimizeQuality; fill-rule:evenodd; clip-rule:evenodd" xmlns:xlink="http://www.w3.org/1999/xlink">
<g><path style="opacity:0.895" fill="#000000" d="M 173.5,27.5 C 188.17,27.3334 202.837,27.5001 217.5,28C 220.232,28.413 222.899,29.0797 225.5,30C 226.893,31.1711 227.727,32.6711 228,34.5C 228.499,40.4908 228.666,46.4908 228.5,52.5C 231.561,52.4443 233.728,53.7776 235,56.5C 236.621,71.4914 236.954,86.4914 236,101.5C 239.692,105.547 242.359,110.214 244,115.5C 247.989,133.766 251.656,152.1 255,170.5C 265.624,205.699 271.457,241.699 272.5,278.5C 279.269,278.154 285.936,277.154 292.5,275.5C 296.673,266.634 298.673,257.301 298.5,247.5C 288.312,246.817 280.479,242.15 275,233.5C 272.822,230.317 271.656,226.817 271.5,223C 276.436,203.461 285.103,185.794 297.5,170C 302.353,165.826 308.02,163.826 314.5,164C 349.802,161.738 385.135,161.071 420.5,162C 454.234,158.976 466.734,173.81 458,206.5C 455.111,212.694 450.278,215.361 443.5,214.5C 437.173,213.722 430.839,213.555 424.5,214C 422.089,214.198 420.423,215.364 419.5,217.5C 421.633,231.422 427.133,243.756 436,254.5C 436.812,261.001 433.979,263.168 427.5,261C 414.498,258.414 402.665,253.247 392,245.5C 389.901,246.287 387.734,246.62 385.5,246.5C 385.377,256.321 387.377,265.654 391.5,274.5C 398.837,275.525 406.17,276.691 413.5,278C 426.722,280.573 433.555,288.739 434,302.5C 438.37,349.146 438.37,395.812 434,442.5C 433.396,452.604 432.063,462.604 430,472.5C 428.2,474.317 426.034,475.484 423.5,476C 379.033,481.906 334.366,484.24 289.5,483C 280.403,482.794 271.403,481.794 262.5,480C 256.607,477.063 253.607,472.23 253.5,465.5C 196.193,468.533 138.86,469.033 81.5,467C 74.5587,466.945 67.892,465.612 61.5,463C 57.9926,458.828 55.8259,453.994 55,448.5C 52.935,436.582 51.6017,424.582 51,412.5C 49.1947,343.817 49.8614,275.15 53,206.5C 55.8869,199.058 59.5536,192.058 64,185.5C 87.2931,153.207 114.96,125.207 147,101.5C 147.333,90.5 147.667,79.5 148,68.5C 148.452,63.1353 150.452,58.4687 154,54.5C 154.536,48.4114 155.536,42.4114 157,36.5C 157.792,34.4127 158.959,32.5793 160.5,31C 164.848,29.4174 169.182,28.2508 173.5,27.5 Z M 190.5,35.5 C 200.197,35.8355 209.864,36.5022 219.5,37.5C 219.5,41.8333 219.5,46.1667 219.5,50.5C 200.809,49.266 182.142,49.5993 163.5,51.5C 163.611,46.9411 164.611,42.6078 166.5,38.5C 174.58,37.1115 182.58,36.1115 190.5,35.5 Z M 186.5,58.5 C 199.877,58.4386 213.21,59.1052 226.5,60.5C 227.76,73.8265 227.76,87.1598 226.5,100.5C 203.296,98.7667 180.13,98.4334 157,99.5C 156.333,89.5 156.333,79.5 157,69.5C 157.511,67.1218 158.178,64.7885 159,62.5C 168.147,60.322 177.313,58.9887 186.5,58.5 Z M 157.5,107.5 C 182.212,107.299 206.878,108.133 231.5,110C 233.068,112.304 234.235,114.804 235,117.5C 239.384,137.085 243.384,156.751 247,176.5C 250.408,187.39 253.408,198.39 256,209.5C 259.569,232.962 262.403,256.462 264.5,280C 258.836,282.332 255.336,286.499 254,292.5C 250.62,306.636 248.62,320.969 248,335.5C 245.514,376.242 246.347,416.909 250.5,457.5C 199.844,459.127 149.178,459.627 98.5,459C 88.0665,458.908 77.7332,457.908 67.5,456C 66.283,454.352 65.4497,452.519 65,450.5C 62.1654,437.656 60.4987,424.656 60,411.5C 58.0728,343.815 58.7395,276.148 62,208.5C 65.2274,201.044 69.2274,194.044 74,187.5C 96.1667,157.333 122.333,131.167 152.5,109C 154.382,108.802 156.048,108.302 157.5,107.5 Z M 148.5,154.5 C 150.068,156.811 150.902,159.478 151,162.5C 153.584,184.757 155.084,207.091 155.5,229.5C 155.455,238.928 154.621,248.261 153,257.5C 150.872,260.63 148.372,263.463 145.5,266C 130.565,278.931 114.065,289.431 96,297.5C 92.9537,284.714 91.2871,271.714 91,258.5C 90.3333,248.167 90.3333,237.833 91,227.5C 91.1119,218.943 93.7786,211.277 99,204.5C 113.029,185.305 129.529,168.638 148.5,154.5 Z M 350.5,170.5 C 371.5,170.5 392.5,170.5 413.5,170.5C 413.947,182.762 414.947,194.929 416.5,207C 412.367,210.131 408.534,213.631 405,217.5C 399.875,224.293 394.375,230.793 388.5,237C 357.186,239.745 325.853,240.078 294.5,238C 289.046,234.88 284.546,230.713 281,225.5C 280.333,223.833 280.333,222.167 281,220.5C 286.203,204.18 294.036,189.347 304.5,176C 307.569,174.154 310.902,173.154 314.5,173C 326.66,172.207 338.66,171.374 350.5,170.5 Z M 422.5,171.5 C 430.313,171.105 437.98,171.939 445.5,174C 450.023,178.909 452.023,184.742 451.5,191.5C 452.073,196.611 450.739,201.111 447.5,205C 439.845,205.015 432.178,204.848 424.5,204.5C 423.897,193.493 423.23,182.493 422.5,171.5 Z M 420.5,249.5 C 412.696,247.598 405.696,244.098 399.5,239C 403.343,234.326 407.343,229.826 411.5,225.5C 414.112,233.673 417.112,241.673 420.5,249.5 Z M 358.5,247.5 C 364.5,247.5 370.5,247.5 376.5,247.5C 376.902,256.646 378.235,265.646 380.5,274.5C 354.478,273.299 328.478,273.465 302.5,275C 306.048,266.55 307.715,257.716 307.5,248.5C 324.675,248.83 341.675,248.497 358.5,247.5 Z M 327.5,282.5 C 343.837,282.333 360.17,282.5 376.5,283C 390.772,283.252 404.772,285.252 418.5,289C 419.667,290.167 420.833,291.333 422,292.5C 423.614,297.407 424.781,302.407 425.5,307.5C 406.123,307.915 386.79,309.081 367.5,311C 356.583,311.717 345.916,313.717 335.5,317C 332.401,320.869 330.901,325.369 331,330.5C 327.805,362.241 328.138,393.908 332,425.5C 332.723,433.338 335.223,440.504 339.5,447C 341.717,448.275 344.051,449.275 346.5,450C 351.667,450.167 356.833,450.333 362,450.5C 382.879,449.395 403.713,447.729 424.5,445.5C 424.142,452.553 423.309,459.553 422,466.5C 418.284,467.704 414.45,468.538 410.5,469C 364.936,474.079 319.27,475.412 273.5,473C 270.298,472.802 267.298,471.969 264.5,470.5C 260.834,460.512 258.667,450.179 258,439.5C 254.667,401.167 254.667,362.834 258,324.5C 258.83,314.357 260.497,304.357 263,294.5C 265.129,290.323 268.629,288.157 273.5,288C 291.573,285.386 309.573,283.552 327.5,282.5 Z M 407.5,316.5 C 413.833,316.5 420.167,316.5 426.5,316.5C 429.094,356.511 428.761,396.511 425.5,436.5C 403.177,438.566 380.844,440.566 358.5,442.5C 354.827,442.047 351.16,441.547 347.5,441C 346.667,440.167 345.833,439.333 345,438.5C 342.317,431.756 340.651,424.756 340,417.5C 337.235,386.501 337.402,355.501 340.5,324.5C 362.783,320.308 385.117,317.641 407.5,316.5 Z"/></g>
<g><path style="opacity:0.873" fill="#000000" d="M 148.5,144.5 C 151.272,144.22 153.772,144.887 156,146.5C 158.088,150.93 159.421,155.596 160,160.5C 162.526,183.431 164.026,206.431 164.5,229.5C 164.329,239.895 163.496,250.229 162,260.5C 158.917,265.588 155.083,270.088 150.5,274C 135.845,286.303 119.845,296.637 102.5,305C 98.9031,306.277 95.2364,306.61 91.5,306C 89.1853,304.891 87.6853,303.057 87,300.5C 83.2617,281.362 81.4284,262.029 81.5,242.5C 81.2732,232.719 82.1065,223.052 84,213.5C 89.4959,201.84 96.4959,191.173 105,181.5C 113.167,173.333 121.333,165.167 129.5,157C 135.247,151.803 141.581,147.636 148.5,144.5 Z M 148.5,154.5 C 129.529,168.638 113.029,185.305 99,204.5C 93.7786,211.277 91.1119,218.943 91,227.5C 90.3333,237.833 90.3333,248.167 91,258.5C 91.2871,271.714 92.9537,284.714 96,297.5C 114.065,289.431 130.565,278.931 145.5,266C 148.372,263.463 150.872,260.63 153,257.5C 154.621,248.261 155.455,238.928 155.5,229.5C 155.084,207.091 153.584,184.757 151,162.5C 150.902,159.478 150.068,156.811 148.5,154.5 Z"/></g>
</svg>
