<?xml version="1.0" encoding="UTF-8"?>
<!DOCTYPE svg PUBLIC "-//W3C//DTD SVG 1.1//EN" "http://www.w3.org/Graphics/SVG/1.1/DTD/svg11.dtd">
<svg xmlns="http://www.w3.org/2000/svg" version="1.1" width="512px" height="512px" style="shape-rendering:geometricPrecision; text-rendering:geometricPrecision; image-rendering:optimizeQuality; fill-rule:evenodd; clip-rule:evenodd" xmlns:xlink="http://www.w3.org/1999/xlink">
<g><path style="opacity:0.935" fill="#000000" d="M 511.5,427.5 C 511.5,430.5 511.5,433.5 511.5,436.5C 509.99,437.836 508.323,439.003 506.5,440C 339.167,440.667 171.833,440.667 4.5,440C 2.67694,439.003 1.01027,437.836 -0.5,436.5C -0.5,433.5 -0.5,430.5 -0.5,427.5C 1.01027,426.164 2.67694,424.997 4.5,424C 32.1727,423.833 59.8394,423.333 87.5,422.5C 81.8111,401.458 72.6444,382.125 60,364.5C 53.5772,355.322 46.9105,346.322 40,337.5C 38.6606,330.848 41.3273,326.848 48,325.5C 58.1457,327.937 67.9791,331.271 77.5,335.5C 77.8333,335.167 78.1667,334.833 78.5,334.5C 67.5814,318.082 56.0814,302.082 44,286.5C 41.905,279.269 44.5716,275.269 52,274.5C 131.492,292.825 175.992,342.492 185.5,423.5C 205.833,423.5 226.167,423.5 246.5,423.5C 246.5,399.5 246.5,375.5 246.5,351.5C 190.869,351.871 158.869,324.537 150.5,269.5C 150.752,265.417 152.752,262.584 156.5,261C 178.923,257.522 200.256,260.855 220.5,271C 231,277.5 239.5,286 246,296.5C 246.667,283.833 246.667,271.167 246,258.5C 232.434,254.761 222.267,246.761 215.5,234.5C 186.809,233.308 170.809,218.474 167.5,190C 167.707,180.823 170.374,172.489 175.5,165C 164.723,147.722 164.889,130.555 176,113.5C 186.154,101.008 199.32,94.841 215.5,95C 230.667,71.169 251.333,64.8357 277.5,76C 285.216,80.7162 291.216,87.0495 295.5,95C 330.793,98.2888 345.959,117.455 341,152.5C 339.971,156.889 338.138,160.889 335.5,164.5C 345.488,183.042 344.655,201.042 333,218.5C 322.589,229.451 309.756,235.118 294.5,235.5C 288.016,247.639 278.016,255.306 264.5,258.5C 263.334,278.158 263.167,297.825 264,317.5C 279.413,294.87 300.913,282.703 328.5,281C 337.203,280.298 345.87,280.632 354.5,282C 356.286,282.785 357.786,283.951 359,285.5C 358.527,313.617 347.694,336.783 326.5,355C 307.437,367.518 286.437,373.351 263.5,372.5C 263.5,389.5 263.5,406.5 263.5,423.5C 284.167,423.5 304.833,423.5 325.5,423.5C 334.988,342.51 379.488,292.843 459,274.5C 466.125,275.398 468.792,279.398 467,286.5C 454.586,302.414 442.753,318.747 431.5,335.5C 431.667,335.833 431.833,336.167 432,336.5C 441.753,331.749 451.919,328.082 462.5,325.5C 470.364,327.246 472.864,331.912 470,339.5C 453.14,359.053 439.473,380.719 429,404.5C 426.653,410.705 424.82,417.038 423.5,423.5C 451.169,423.333 478.835,423.5 506.5,424C 508.323,424.997 509.99,426.164 511.5,427.5 Z M 250.5,87.5 C 267.295,86.8016 278.129,94.4683 283,110.5C 283.903,111.701 285.069,112.535 286.5,113C 292.486,112.76 298.486,112.76 304.5,113C 322.141,119.111 328.641,131.278 324,149.5C 320.928,154.395 318.095,159.395 315.5,164.5C 316.601,168.774 318.768,172.441 322,175.5C 329.902,194.523 324.402,208.023 305.5,216C 300.299,217.66 295.132,217.494 290,215.5C 286.585,215.906 283.918,217.572 282,220.5C 278.033,233.986 269.033,241.32 255,242.5C 246.623,241.478 239.623,237.811 234,231.5C 231.347,226.518 228.514,221.685 225.5,217C 215.251,218.694 205.585,217.028 196.5,212C 181.933,198.592 181.1,184.425 194,169.5C 194.346,167.782 194.846,166.115 195.5,164.5C 192.166,158.981 188.999,153.314 186,147.5C 182.947,130.104 189.78,118.604 206.5,113C 211.191,112.35 215.857,112.517 220.5,113.5C 222.689,113.406 224.689,112.739 226.5,111.5C 229.055,106.325 231.889,101.325 235,96.5C 239.569,92.3046 244.735,89.3046 250.5,87.5 Z M 251.5,131.5 C 276.63,132.461 288.796,145.461 288,170.5C 282.492,190.675 269.326,199.508 248.5,197C 227.804,190.113 219.637,175.946 224,154.5C 229.226,141.99 238.392,134.323 251.5,131.5 Z M 169.5,276.5 C 209.327,275.92 234.327,294.92 244.5,333.5C 203.612,335.267 178.612,316.267 169.5,276.5 Z M 326.5,297.5 C 331.511,297.334 336.511,297.501 341.5,298C 331.531,336.804 306.531,355.637 266.5,354.5C 270.872,337.911 279.205,323.744 291.5,312C 301.986,304.121 313.653,299.288 326.5,297.5 Z M 75.5,300.5 C 125.374,318.347 155.541,353.68 166,406.5C 167.052,412.144 167.885,417.811 168.5,423.5C 157.167,423.5 145.833,423.5 134.5,423.5C 131.595,403.617 125.762,384.617 117,366.5C 105.393,342.919 91.5593,320.919 75.5,300.5 Z M 433.5,299.5 C 434.239,299.369 434.906,299.536 435.5,300C 410.889,331.045 392.389,365.545 380,403.5C 378.251,410.076 377.084,416.743 376.5,423.5C 365.167,423.5 353.833,423.5 342.5,423.5C 348.423,363.954 378.757,322.621 433.5,299.5 Z M 73.5,353.5 C 84.6539,358.516 94.1539,365.849 102,375.5C 109.478,390.767 114.645,406.767 117.5,423.5C 113.233,423.797 109.066,423.464 105,422.5C 98.8097,397.458 88.3097,374.458 73.5,353.5 Z M 437.5,353.5 C 422.69,374.458 412.19,397.458 406,422.5C 401.934,423.464 397.767,423.797 393.5,423.5C 396.355,406.767 401.522,390.767 409,375.5C 416.846,365.849 426.346,358.516 437.5,353.5 Z"/></g>
<g><path style="opacity:0.929" fill="#000000" d="M 249.5,114.5 C 279.726,113.848 298.226,128.182 305,157.5C 306.956,187.528 293.456,206.361 264.5,214C 233.025,216.838 213.525,203.005 206,172.5C 204.303,140.856 218.803,121.523 249.5,114.5 Z M 251.5,131.5 C 238.392,134.323 229.226,141.99 224,154.5C 219.637,175.946 227.804,190.113 248.5,197C 269.326,199.508 282.492,190.675 288,170.5C 288.796,145.461 276.63,132.461 251.5,131.5 Z"/></g>
<g><path style="opacity:0.912" fill="#000000" d="M 253.5,134.5 C 263.032,135.555 265.865,140.555 262,149.5C 257.572,151.123 253.072,152.623 248.5,154C 244.217,157.838 242.05,162.671 242,168.5C 236.208,175.408 230.874,175.074 226,167.5C 225.772,148.604 234.938,137.604 253.5,134.5 Z"/></g>
</svg>
