<?xml version="1.0" encoding="UTF-8"?>
<svg version="1.1" xmlns="http://www.w3.org/2000/svg" width="512" height="512">
<path d="M0 0 C0.85283817 -0.00384115 1.70567634 -0.00768229 2.5843581 -0.01163983 C3.52160036 -0.01077335 4.45884262 -0.00990687 5.42448616 -0.00901413 C6.41990838 -0.01198525 7.4153306 -0.01495637 8.44091713 -0.01801753 C11.79190404 -0.02672134 15.14285529 -0.02821419 18.49385262 -0.02970505 C20.89009363 -0.03433198 23.28633391 -0.03935647 25.68257332 -0.04475021 C32.20318375 -0.05788705 38.72378675 -0.06435805 45.24440718 -0.06876087 C49.31511726 -0.07152305 53.38582496 -0.07576033 57.45653343 -0.08026505 C68.72517625 -0.0924571 79.99381716 -0.10275691 91.26246643 -0.10614014 C92.34431739 -0.10646949 92.34431739 -0.10646949 93.44802392 -0.10680549 C94.17098964 -0.10702377 94.89395535 -0.10724204 95.63882911 -0.10746694 C97.10384997 -0.1079104 98.56887082 -0.10835697 100.03389168 -0.10880661 C100.76059363 -0.10902804 101.48729557 -0.10924947 102.23601879 -0.10947761 C114.01449001 -0.11342669 125.79289941 -0.13088432 137.57134674 -0.15416613 C149.66147101 -0.17787134 161.75156423 -0.19034159 173.84171212 -0.19150805 C180.63098399 -0.19242522 187.42017528 -0.19818812 194.20942497 -0.21632767 C200.59350624 -0.23332453 206.97747526 -0.2349875 213.36157417 -0.22618866 C215.70736411 -0.22541571 218.05316213 -0.22979474 220.3989315 -0.23964691 C223.59611075 -0.25228969 226.792741 -0.24653122 229.98991585 -0.23606491 C230.92269667 -0.24412132 231.85547748 -0.25217772 232.81652439 -0.26047826 C237.62562161 -0.22354444 240.95797938 -0.05761181 244.83418465 3.13142776 C246.35185002 6.16675852 246.03860879 9.33434811 246.0724659 12.66658401 C246.08053764 13.41927063 246.08860939 14.17195724 246.09692574 14.94745255 C246.11077097 16.54545667 246.12149116 18.14349042 246.12935066 19.74153519 C246.14644839 22.16050278 246.19031298 24.5780616 246.23457527 26.99666214 C246.33202985 36.65630747 245.95256797 44.37944701 239.39668465 51.94392776 C238.55105965 52.66580276 237.70543465 53.38767776 236.83418465 54.13142776 C236.11230965 54.83267776 235.39043465 55.53392776 234.64668465 56.25642776 C226.40021129 61.75407667 217.09880018 61.54010017 207.51387215 61.42439651 C206.16053429 61.41878754 204.80719025 61.41452361 203.45384407 61.41153336 C199.92580447 61.40018673 196.39814706 61.37081029 192.87025642 61.33742142 C189.25672256 61.30649813 185.64312575 61.29298093 182.02949715 61.27791214 C174.9642385 61.24592837 167.89923679 61.19485876 160.83418465 61.13142776 C160.85448738 62.08331985 160.87479012 63.03521194 160.89570808 64.01594925 C160.9114991 65.2696431 160.92729012 66.52333694 160.94355965 67.81502151 C160.96386238 69.0556636 160.98416512 70.29630569 161.00508308 71.574543 C160.76981635 76.47111586 159.37287382 80.00052935 156.83418465 84.13142776 C156.27730965 85.03892776 155.72043465 85.94642776 155.14668465 86.88142776 C146.69402532 95.10563683 138.57641386 95.13142776 126.83418465 95.13142776 C126.83418465 131.43142776 126.83418465 167.73142776 126.83418465 205.13142776 C137.06418465 205.13142776 147.29418465 205.13142776 157.83418465 205.13142776 C167.32834511 209.35105464 172.38383327 212.06589718 176.83418465 221.13142776 C178.62542385 226.70953989 178.14249012 232.7755985 178.20918465 238.56892776 C178.26525887 240.41067581 178.26525887 240.41067581 178.3224659 242.28963089 C178.33406746 243.4736348 178.34566902 244.6576387 178.35762215 245.87752151 C178.37744148 246.95703079 178.39726082 248.03654007 178.41768074 249.14876175 C177.59726138 253.34251208 176.24835094 254.55970921 172.83418465 257.13142776 C169.30849989 257.87408038 165.84065918 257.81466008 162.24824715 257.77840042 C160.64986 257.79154282 160.64986 257.79154282 159.01918221 257.80495071 C155.49876815 257.82694737 151.97961135 257.81238976 148.45918465 257.79549026 C146.01207933 257.79885829 143.56497564 257.80371079 141.11787605 257.80998611 C135.98994706 257.81735786 130.86245363 257.80664143 125.73457527 257.78328323 C119.16017679 257.75479621 112.58679885 257.77119843 106.01243782 257.80114555 C100.95951327 257.8192098 95.90683083 257.8134643 90.853899 257.80050659 C88.42978482 257.79717021 86.00564868 257.80126773 83.58156013 257.81290436 C80.19382152 257.82559778 76.80773746 257.80625436 73.42012215 257.77840042 C72.41737251 257.78852158 71.41462288 257.79864273 70.38148689 257.80907059 C65.70801716 257.73785193 63.53365266 257.65952475 59.7110157 254.77344131 C57.4518851 251.593265 57.21437544 249.89238021 57.24043465 246.01814651 C57.24301277 244.85218948 57.2455909 243.68623245 57.24824715 242.48494339 C57.27660652 241.27515823 57.3049659 240.06537308 57.33418465 238.81892776 C57.33160652 237.62074417 57.3290284 236.42256058 57.32637215 235.18806839 C57.42898176 225.8762464 58.64540116 218.72095819 65.08418465 211.67049026 C77.19500231 201.01945866 93.64019779 205.13142776 108.83418465 205.13142776 C108.83418465 168.83142776 108.83418465 132.53142776 108.83418465 95.13142776 C104.54418465 95.13142776 100.25418465 95.13142776 95.83418465 95.13142776 C88.73171739 93.20361522 83.10893379 90.02097398 78.52168465 84.19392776 C75.45667083 78.63149528 74.58952305 74.09849263 74.70918465 67.75642776 C74.72723152 66.51119339 74.7452784 65.26595901 74.76387215 63.98299026 C74.78707527 63.04197464 74.8102784 62.10095901 74.83418465 61.13142776 C74.09217812 61.1380896 73.35017159 61.14475143 72.58568001 61.15161514 C65.55450835 61.21200677 58.52342824 61.2575436 51.49206924 61.28686428 C47.87812954 61.3024457 44.26440615 61.32354404 40.6505909 61.35774612 C37.15572581 61.39061121 33.66106732 61.40833718 30.16605949 61.41605949 C28.1998252 61.42420865 26.23367271 61.44758359 24.26756477 61.47131729 C15.00833112 61.47303631 5.99570594 60.64965635 -1.56425285 54.79158401 C-7.84536741 48.28067258 -10.31801365 41.16096985 -10.36894035 32.32283401 C-10.37464043 31.55970398 -10.3803405 30.79657394 -10.3862133 30.01031876 C-10.39565176 28.39730079 -10.4021927 26.78426365 -10.40604973 25.17122269 C-10.41576601 22.70644395 -10.44680335 20.24249562 -10.47831535 17.77791214 C-10.48484478 16.20955771 -10.49009549 14.64119733 -10.49394035 13.07283401 C-10.50628716 12.33730804 -10.51863396 11.60178207 -10.5313549 10.84396744 C-10.51769898 7.70088317 -10.35636154 5.47933159 -8.83280754 2.69758987 C-6.1285587 0.15691086 -3.54047957 0.0059851 0 0 Z M7.83418465 18.13142776 C7.83418465 24.40142776 7.83418465 30.67142776 7.83418465 37.13142776 C13.21774289 42.51498601 14.41799743 43.23615979 21.53277141 43.27449536 C22.70415472 43.27319564 22.70415472 43.27319564 23.89920235 43.27186966 C24.73057691 43.27484078 25.56195147 43.2778119 26.4185192 43.28087306 C29.21439239 43.28956969 32.01022281 43.29106912 34.80610847 43.29256058 C36.80664347 43.29718806 38.80717757 43.30221262 40.80771065 43.30760574 C46.24991073 43.32073823 51.69209846 43.32717632 57.13431191 43.3316164 C60.53298118 43.33454567 63.93164707 43.33865019 67.33031464 43.34312057 C77.95991399 43.35679754 88.58950562 43.36646331 99.21911317 43.37032247 C111.49701169 43.37480431 123.77479894 43.39235729 136.05266362 43.42132306 C145.53809202 43.44292561 155.02348909 43.45302598 164.50894183 43.45436358 C170.1765153 43.4554126 175.84398421 43.4613411 181.51153183 43.4791832 C186.84258501 43.49563924 192.17345474 43.49783134 197.50452423 43.48904419 C199.46126865 43.4882725 201.41802283 43.49263382 203.37474251 43.50250244 C206.04611968 43.51518533 208.71684355 43.50936508 211.38821602 43.49892044 C212.54956109 43.51100505 212.54956109 43.51100505 213.73436767 43.52333379 C218.50563673 43.47970741 221.80643636 42.71286288 225.83418465 40.13142776 C229.59073527 35.09752705 229.59073527 35.09752705 227.83418465 18.13142776 C155.23418465 18.13142776 82.63418465 18.13142776 7.83418465 18.13142776 Z M92.83418465 61.13142776 C91.76858129 71.1772284 91.76858129 71.1772284 94.70918465 74.75642776 C98.85620467 77.43979366 102.33983315 77.30907879 107.1662159 77.33455276 C107.99497734 77.34025284 108.82373878 77.34595291 109.67761421 77.35182571 C111.43364878 77.36128024 113.18970112 77.36781149 114.94575691 77.37166214 C117.6256806 77.38135182 120.30483218 77.41236366 122.98457527 77.44392776 C124.69095093 77.4504595 126.39733207 77.4557093 128.1037159 77.45955276 C128.90283897 77.47189957 129.70196205 77.48424637 130.52530098 77.49696732 C135.11749364 77.47868822 138.09865765 77.10320884 141.83418465 74.13142776 C143.65407624 70.86432258 143.65407624 70.86432258 142.83418465 61.13142776 C126.33418465 61.13142776 109.83418465 61.13142776 92.83418465 61.13142776 Z M77.87910652 224.98436356 C74.83526938 229.04320814 74.83526938 229.04320814 75.83418465 239.13142776 C103.55418465 239.13142776 131.27418465 239.13142776 159.83418465 239.13142776 C160.83309991 229.04320814 160.83309991 229.04320814 157.78926277 224.98436356 C154.11390521 222.67978775 151.88097945 222.49781787 147.55293465 222.48445511 C146.48124031 222.47131271 146.48124031 222.47131271 145.38789558 222.45790482 C143.03603314 222.43597287 140.68606478 222.4504391 138.33418465 222.46736526 C136.69420703 222.46399529 135.05423186 222.45914115 133.41426277 222.45286942 C129.98107761 222.44550658 126.54854393 222.45618385 123.11543465 222.4795723 C118.72009108 222.50806063 114.32627399 222.49165337 109.9309864 222.46170998 C106.54565671 222.44362053 103.16068746 222.44940238 99.77534676 222.46234894 C98.15506496 222.46567844 96.53475017 222.46161184 94.91450691 222.44995117 C92.64727109 222.4372141 90.38248823 222.45665379 88.11543465 222.48445511 C86.82701668 222.48843307 85.53859871 222.49241104 84.21113777 222.49650955 C80.74806181 222.93461086 80.74806181 222.93461086 77.87910652 224.98436356 Z " fill="#000000" transform="translate(138.16581535339355,152.86857223510742)"/>
<path d="M0 0 C1.21429688 -0.01998047 2.42859375 -0.03996094 3.6796875 -0.06054688 C4.85015625 -0.05990234 6.020625 -0.05925781 7.2265625 -0.05859375 C8.81718506 -0.06137329 8.81718506 -0.06137329 10.43994141 -0.06420898 C14.40454158 0.61348635 15.70738133 1.37067863 18.375 4.4375 C19.1526279 8.37205774 19.04860703 12.28165093 19.00991821 16.28076172 C19.01771817 17.50642286 19.02551812 18.73208401 19.03355443 19.9948864 C19.05007108 23.39908483 19.04409698 26.80190781 19.02862334 30.20602322 C19.01732892 33.87618731 19.03476298 37.54622959 19.04852295 41.21636963 C19.07078048 48.40687656 19.06594309 55.59712286 19.05145974 62.78764009 C19.04017733 68.63040084 19.03863226 74.47308843 19.04407883 80.31585693 C19.04484499 81.14676845 19.04561116 81.97767998 19.04640054 82.83377063 C19.04799913 84.52164159 19.0496202 86.20951253 19.0512635 87.89738345 C19.06552836 103.73233374 19.04911675 119.56713942 19.02226166 135.40206599 C18.99992219 148.99532998 19.00380211 162.58838049 19.02685547 176.18164062 C19.0536005 191.95910979 19.06415499 207.73645214 19.04879415 223.51394081 C19.04720137 225.19567488 19.04562952 226.87740896 19.04407883 228.55914307 C19.04330745 229.38663335 19.04253607 230.21412363 19.04174132 231.06668937 C19.03742041 236.90384515 19.04471925 242.74092062 19.05647659 248.57806396 C19.07048577 255.6896401 19.06673524 262.80094022 19.04007287 269.91248465 C19.02691305 273.54244017 19.02181844 277.17193518 19.03831863 280.80188751 C19.0559175 284.73293271 19.03493472 288.66322039 19.00991821 292.59423828 C19.02107182 293.74714293 19.03222543 294.90004757 19.04371703 296.08788872 C18.94839037 303.76824825 18.94839037 303.76824825 16.05406761 307.14645386 C12.51238598 308.85319481 10.26353159 308.99300451 6.375 308.4375 C1.78282853 305.64226519 1.78282853 305.64226519 0.74970341 302.59031296 C0.34473129 300.26359477 0.25207356 298.10447309 0.25474548 295.74249268 C0.25268349 294.33328804 0.25268349 294.33328804 0.25057983 292.89561462 C0.25597275 291.36028831 0.25597275 291.36028831 0.26147461 289.79394531 C0.26132858 288.71071487 0.26118256 287.62748444 0.2610321 286.51142883 C0.261729 282.92947388 0.26951105 279.34757087 0.27734375 275.765625 C0.27920872 273.28269479 0.28063225 270.79976421 0.28163147 268.3168335 C0.28506005 262.44853191 0.29294231 256.58024951 0.30298096 250.71195579 C0.31722245 242.20186091 0.32245769 233.69175968 0.32878876 225.18165588 C0.3384875 213.26692181 0.35764844 201.35223646 0.375 189.4375 C-32.955 189.4375 -66.285 189.4375 -100.625 189.4375 C-100.60179687 197.54828125 -100.57859375 205.6590625 -100.5546875 214.015625 C-100.54447113 219.14713861 -100.53484338 224.27863971 -100.52734375 229.41015625 C-100.51537787 237.5591087 -100.50150437 245.70801662 -100.47412109 253.85693359 C-100.45206024 260.42509611 -100.44043835 266.99322313 -100.43524551 273.56142426 C-100.43154379 276.07010404 -100.42431548 278.57878112 -100.41353989 281.08744049 C-100.39906927 284.59513584 -100.39702022 288.10263128 -100.39794922 291.61035156 C-100.38716339 293.17373009 -100.38716339 293.17373009 -100.37615967 294.76869202 C-100.378909 295.72499008 -100.38165833 296.68128815 -100.38449097 297.66656494 C-100.38264738 298.49617863 -100.38080379 299.32579231 -100.37890434 300.18054581 C-100.65675101 302.72868988 -101.24302389 304.28425024 -102.625 306.4375 C-106.29281672 308.88271115 -109.35953233 309.15987759 -113.625 308.4375 C-116.05619623 306.56734906 -117.26569173 305.15611655 -118.625 302.4375 C-118.72720787 300.54696565 -118.76449791 298.6528011 -118.77217102 296.75952148 C-118.77932632 295.55117142 -118.78648163 294.34282135 -118.79385376 293.09785461 C-118.79669422 291.75143458 -118.79940593 290.40501427 -118.80200195 289.05859375 C-118.80826602 287.64596896 -118.81491277 286.23334582 -118.82191467 284.82072449 C-118.84297558 280.17216137 -118.85332336 275.52359787 -118.86328125 270.875 C-118.86732895 269.27357974 -118.87144588 267.67215965 -118.87563133 266.07073975 C-118.89469255 258.54223192 -118.90891798 251.01373393 -118.9172433 243.4852066 C-118.92700016 234.80581345 -118.95327497 226.12667638 -118.99374419 217.44737339 C-119.02396807 210.73385438 -119.03871836 204.02040847 -119.04202431 197.30682278 C-119.04436895 193.30012597 -119.05325149 189.29370243 -119.07848549 185.28707886 C-119.10187935 181.51132001 -119.10595452 177.73601208 -119.09572411 173.96019936 C-119.09499773 171.92721807 -119.11401224 169.89425912 -119.13378906 167.8613739 C-119.08571364 159.33919444 -118.13935622 151.8938486 -112.73046875 145.03515625 C-104.79841049 138.68627866 -97.69539389 136.30233039 -87.43603516 136.32397461 C-86.23524323 136.32405014 -85.03445129 136.32412567 -83.79727173 136.32420349 C-82.51581268 136.32936478 -81.23435364 136.33452606 -79.9140625 136.33984375 C-78.57742364 136.34171105 -77.24078408 136.34313348 -75.90414429 136.34413147 C-72.40250731 136.34793205 -68.90091244 136.35774109 -65.39929199 136.36883545 C-61.81958587 136.37910268 -58.23987288 136.38364043 -54.66015625 136.38867188 C-47.64842031 136.39936578 -40.63671218 136.41641236 -33.625 136.4375 C-33.62684359 135.86857812 -33.62868717 135.29965624 -33.63058662 134.7134943 C-33.67484483 120.84062711 -33.70776712 106.96777237 -33.72862434 93.09484959 C-33.73891655 86.38587971 -33.75293735 79.67695711 -33.77587891 72.96801758 C-33.79764805 66.49059995 -33.80957727 60.01323135 -33.81475449 53.53577995 C-33.81844291 51.06751674 -33.82564547 48.59925614 -33.83646011 46.13101387 C-33.85102894 42.6674436 -33.85297566 39.20407462 -33.85205078 35.74047852 C-33.85924133 34.72555328 -33.86643188 33.71062805 -33.87384033 32.66494751 C-33.84639802 23.135076 -33.02916143 14.92232055 -26.0546875 7.84375 C-17.9326395 0.41371506 -10.72190697 -0.06300266 0 0 Z M-12.6875 20.1875 C-15.63729716 23.6130709 -15.75029261 26.68117608 -15.74525452 31.09454346 C-15.74662918 32.02559906 -15.74800385 32.95665466 -15.74942017 33.91592407 C-15.74582489 34.93012421 -15.74222961 35.94432434 -15.73852539 36.98925781 C-15.73867142 38.06273468 -15.73881744 39.13621155 -15.7389679 40.24221802 C-15.73827103 43.79170754 -15.73048914 47.34114464 -15.72265625 50.890625 C-15.72079127 53.35113496 -15.71936774 55.8116453 -15.71836853 58.27215576 C-15.71454967 64.74944076 -15.70472472 71.22670335 -15.69366455 77.70397949 C-15.6834369 84.31306658 -15.678868 90.92215728 -15.67382812 97.53125 C-15.66310192 110.50000985 -15.64603303 123.46875306 -15.625 136.4375 C-10.345 136.4375 -5.065 136.4375 0.375 136.4375 C0.375 97.4975 0.375 58.5575 0.375 18.4375 C-8.76580106 17.61060177 -8.76580106 17.61060177 -12.6875 20.1875 Z M-97.625 156.4375 C-101.725 161.07083333 -101.725 161.07083333 -100.625 171.4375 C-67.295 171.4375 -33.965 171.4375 0.375 171.4375 C0.375 165.8275 0.375 160.2175 0.375 154.4375 C-11.66433756 154.39232164 -23.70361884 154.35562555 -35.74302197 154.33387566 C-41.33335201 154.323437 -46.92362107 154.30927618 -52.51391602 154.28662109 C-57.9085125 154.26489582 -63.3030503 154.25293199 -68.69768715 154.24774551 C-70.75617713 154.24404921 -72.81466388 154.23683131 -74.87312889 154.22603989 C-77.75557784 154.21152929 -80.63778409 154.20952189 -83.52026367 154.21044922 C-84.79772713 154.19966339 -84.79772713 154.19966339 -86.10099792 154.18865967 C-90.3347608 154.20340524 -93.87022443 154.24713537 -97.625 156.4375 Z " fill="#000000" transform="translate(493.625,101.5625)"/>
<path d="M0 0 C1.18142578 -0.02384766 2.36285156 -0.04769531 3.58007812 -0.07226562 C12.62968292 -0.05722473 19.28114513 1.72827665 26.25 7.625 C33.41467205 16.50919334 33.96512704 24.36943062 33.92602539 35.52490234 C33.92617142 36.61817841 33.92631744 37.71145447 33.9264679 38.83786011 C33.92577279 42.44140628 33.91799919 46.04490038 33.91015625 49.6484375 C33.90829064 52.15092948 33.90686741 54.65342183 33.90586853 57.15591431 C33.90244415 63.06310622 33.89456745 68.97028151 33.88451904 74.87746489 C33.87222487 82.26596286 33.86686975 89.65446316 33.86132812 97.04296875 C33.85061063 110.21615527 33.83374053 123.38932646 33.8125 136.5625 C34.54197845 136.55805878 35.27145691 136.55361755 36.02304077 136.54904175 C42.93649193 136.50877574 49.84992529 136.47842009 56.76346397 136.45887566 C60.3168073 136.4484895 63.8700528 136.43442623 67.42333984 136.41162109 C71.51921466 136.38550157 75.61498856 136.37598455 79.7109375 136.3671875 C80.9717514 136.35686493 82.23256531 136.34654236 83.53158569 136.33590698 C94.62707954 136.3345108 103.46572312 136.79670527 111.8125 144.5625 C119.43687926 152.39294357 119.24656057 161.42869731 119.18481445 171.71777344 C119.1872458 173.14101934 119.19096844 174.56426353 119.19587708 175.98750305 C119.20523942 179.83230883 119.19590196 183.67685799 119.18254495 187.52164364 C119.17118868 191.55164034 119.17534095 195.58162519 119.17729187 199.6116333 C119.17817312 206.37345552 119.16712646 213.13517715 119.14868164 219.89697266 C119.12748234 227.71329363 119.12401241 235.52946769 119.1302436 243.34581161 C119.13593696 250.87326353 119.13029413 258.40066375 119.11907005 265.92810822 C119.11442719 269.12897956 119.11354881 272.32981926 119.1156559 275.53069305 C119.11753893 279.29659231 119.10943388 283.06234189 119.0935955 286.82820702 C119.0893526 288.2101015 119.08850215 289.59201118 119.09128571 290.97390938 C119.09450775 292.85946454 119.08420028 294.74502839 119.07319641 296.6305542 C119.07011711 298.21335741 119.07011711 298.21335741 119.06697559 299.82813644 C118.8057782 302.63472641 118.36929304 304.23070837 116.8125 306.5625 C113.14468328 309.00771115 110.07796767 309.28487759 105.8125 308.5625 C103.38130377 306.69234906 102.17180827 305.28111655 100.8125 302.5625 C100.7202319 301.05464647 100.69057068 299.54274696 100.69224548 298.03207397 C100.69018349 296.60175087 100.69018349 296.60175087 100.68807983 295.14253235 C100.69347275 293.568368 100.69347275 293.568368 100.69897461 291.96240234 C100.69882858 290.85995682 100.69868256 289.75751129 100.6985321 288.62165833 C100.69923088 284.96389829 100.70702167 281.30618868 100.71484375 277.6484375 C100.71670805 275.11780831 100.7181319 272.58717875 100.71913147 270.05654907 C100.72256443 264.06776544 100.73045245 258.07900358 100.74048096 252.09022868 C100.75470331 243.40897333 100.75995425 234.72771182 100.76628876 226.04644775 C100.77599693 213.88511676 100.7951542 201.72383331 100.8125 189.5625 C67.4825 189.5625 34.1525 189.5625 -0.1875 189.5625 C-0.15269531 201.49470703 -0.15269531 201.49470703 -0.1171875 213.66796875 C-0.10696994 218.7037793 -0.09734209 223.73957709 -0.08984375 228.77539062 C-0.07788249 236.7706182 -0.06372344 244.7657939 -0.03662109 252.76098633 C-0.01491012 259.20596633 -0.00293501 265.65089728 0.00225449 272.09591103 C0.00595336 274.55631597 0.01317621 277.01671819 0.02396011 279.47710228 C0.03845163 282.91993413 0.0404789 286.36256254 0.03955078 289.80541992 C0.04674133 290.82537552 0.05393188 291.84533112 0.06134033 292.89619446 C0.03129096 303.17935416 0.03129096 303.17935416 -3.875 307.375 C-7.19689726 309.08083914 -9.50264818 309.01502566 -13.1875 308.5625 C-15.87047386 307.27536011 -15.87047386 307.27536011 -18.1875 304.5625 C-18.96115481 300.62672272 -18.86111243 296.71890737 -18.82241821 292.71923828 C-18.83021817 291.49357714 -18.83801812 290.26791599 -18.84605443 289.0051136 C-18.86257108 285.60091517 -18.85659698 282.19809219 -18.84112334 278.79397678 C-18.82982892 275.12381269 -18.84726298 271.45377041 -18.86102295 267.78363037 C-18.88328048 260.59312344 -18.87844309 253.40287714 -18.86395974 246.21235991 C-18.85267733 240.36959916 -18.85113226 234.52691157 -18.85657883 228.68414307 C-18.85734499 227.85323155 -18.85811116 227.02232002 -18.85890054 226.16622937 C-18.86049913 224.47835841 -18.8621202 222.79048747 -18.8637635 221.10261655 C-18.87802836 205.26766626 -18.86161675 189.43286058 -18.83476166 173.59793401 C-18.81242219 160.00467002 -18.81630211 146.41161951 -18.83935547 132.81835938 C-18.8661005 117.04089021 -18.87665499 101.26354786 -18.86129415 85.48605919 C-18.85970137 83.80432512 -18.85812952 82.12259104 -18.85657883 80.44085693 C-18.85580745 79.61336665 -18.85503607 78.78587637 -18.85424132 77.93331063 C-18.84992041 72.09615485 -18.85721925 66.25907938 -18.86897659 60.42193604 C-18.88298577 53.3103599 -18.87923524 46.19905978 -18.85257287 39.08751535 C-18.83941305 35.45755983 -18.83431844 31.82806482 -18.85081863 28.19811249 C-18.8684175 24.26706729 -18.84743472 20.33677961 -18.82241821 16.40576172 C-18.83357182 15.25285707 -18.84472543 14.09995243 -18.85621703 12.91211128 C-18.76074723 5.22021913 -18.76074723 5.22021913 -15.82828331 1.8556366 C-10.77898752 -0.61689841 -5.51586831 -0.05033267 0 0 Z M-0.1875 18.5625 C-0.1875 57.5025 -0.1875 96.4425 -0.1875 136.5625 C5.0925 136.5625 10.3725 136.5625 15.8125 136.5625 C15.85881609 122.30664859 15.89436557 108.05081505 15.91612434 93.79490376 C15.92656682 87.17549802 15.94073461 80.55614371 15.96337891 73.93676758 C15.98509055 67.55014222 15.99706513 61.16356638 16.00225449 54.77690697 C16.00595324 52.33883065 16.01317586 49.90075707 16.02396011 47.4627018 C16.03845253 44.05100243 16.04047886 40.63950834 16.03955078 37.2277832 C16.04674133 36.21717834 16.05393188 35.20657349 16.06134033 34.16534424 C16.14663215 27.58932497 16.14663215 27.58932497 13.8125 21.5625 C9.3125 17.5625 9.3125 17.5625 -0.1875 18.5625 Z M-0.1875 154.5625 C-0.1875 160.1725 -0.1875 165.7825 -0.1875 171.5625 C33.1425 171.5625 66.4725 171.5625 100.8125 171.5625 C101.70827284 161.56515483 101.70827284 161.56515483 99.0625 157.4375 C95.81672977 154.73269148 92.93739741 154.43665554 88.80084229 154.44224548 C88.0128273 154.44087082 87.22481232 154.43949615 86.41291809 154.43807983 C85.13006172 154.44347275 85.13006172 154.44347275 83.82128906 154.44897461 C82.91362289 154.44882858 82.00595673 154.44868256 81.07078552 154.4485321 C78.07320763 154.44922829 75.07569202 154.45700698 72.078125 154.46484375 C69.9987593 154.46670897 67.91939315 154.46813238 65.84002686 154.46913147 C60.36886378 154.47294843 54.89772728 154.48277174 49.42657471 154.49383545 C43.84298054 154.50406719 38.25938209 154.50863287 32.67578125 154.51367188 C21.72134062 154.52439472 10.76692668 154.54198491 -0.1875 154.5625 Z " fill="#000000" transform="translate(18.1875,101.4375)"/>
</svg>
